G04 MADE WITH FRITZING*
G04 WWW.FRITZING.ORG*
G04 DOUBLE SIDED*
G04 HOLES PLATED*
G04 CONTOUR ON CENTER OF CONTOUR VECTOR*
%ASAXBY*%
%FSLAX23Y23*%
%MOIN*%
%OFA0B0*%
%SFA1.0B1.0*%
%ADD10R,0.043307X0.015748*%
%ADD11R,0.094488X0.102362*%
%ADD12R,0.047244X0.078740*%
%ADD13R,0.047244X0.043307*%
%ADD14R,0.043307X0.047244*%
%LNPASTEMASK1*%
G90*
G70*
G54D10*
X2900Y1031D03*
X2900Y1005D03*
X2900Y980D03*
X2900Y954D03*
X3077Y954D03*
X3077Y980D03*
X3077Y1005D03*
X3077Y1031D03*
X2150Y1032D03*
X2150Y1007D03*
X2150Y981D03*
X2150Y956D03*
X2327Y956D03*
X2327Y981D03*
X2327Y1007D03*
X2327Y1032D03*
X1473Y1031D03*
X1473Y1006D03*
X1473Y980D03*
X1473Y955D03*
X1650Y955D03*
X1650Y980D03*
X1650Y1006D03*
X1650Y1031D03*
X850Y1032D03*
X850Y1007D03*
X850Y981D03*
X850Y956D03*
X1027Y956D03*
X1027Y981D03*
X1027Y1007D03*
X1027Y1032D03*
X150Y1031D03*
X150Y1006D03*
X150Y980D03*
X150Y955D03*
X327Y955D03*
X327Y980D03*
X327Y1006D03*
X327Y1031D03*
G54D11*
X750Y1509D03*
X750Y1257D03*
G54D12*
X550Y1247D03*
X550Y1357D03*
G54D13*
X600Y1507D03*
X533Y1507D03*
G54D14*
X3050Y540D03*
X3050Y607D03*
X2350Y539D03*
X2350Y606D03*
X1627Y557D03*
X1627Y624D03*
X1000Y557D03*
X1000Y624D03*
X300Y557D03*
X300Y624D03*
X2950Y539D03*
X2950Y606D03*
X2250Y540D03*
X2250Y607D03*
X1527Y557D03*
X1527Y624D03*
X900Y557D03*
X900Y624D03*
X200Y557D03*
X200Y624D03*
X3150Y857D03*
X3150Y924D03*
X2450Y857D03*
X2450Y924D03*
X1727Y856D03*
X1727Y923D03*
X1100Y857D03*
X1100Y924D03*
X400Y857D03*
X400Y924D03*
X3050Y757D03*
X3050Y690D03*
X2350Y757D03*
X2350Y690D03*
X1627Y774D03*
X1627Y707D03*
X1000Y774D03*
X1000Y707D03*
X300Y774D03*
X300Y707D03*
G54D12*
X3350Y717D03*
X3350Y607D03*
X2650Y717D03*
X2650Y607D03*
X1950Y717D03*
X1950Y607D03*
X1300Y717D03*
X1300Y607D03*
X600Y717D03*
X600Y607D03*
G54D14*
X3150Y607D03*
X3150Y540D03*
X2450Y607D03*
X2450Y540D03*
X1727Y624D03*
X1727Y558D03*
X1100Y624D03*
X1100Y557D03*
X400Y624D03*
X400Y558D03*
X3150Y690D03*
X3150Y757D03*
X2450Y690D03*
X2450Y757D03*
X1727Y706D03*
X1727Y773D03*
X1100Y707D03*
X1100Y774D03*
X400Y707D03*
X400Y774D03*
X2950Y757D03*
X2950Y690D03*
X2250Y757D03*
X2250Y690D03*
X1527Y774D03*
X1527Y707D03*
X900Y774D03*
X900Y707D03*
X200Y774D03*
X200Y707D03*
G04 End of PasteMask1*
M02*