; NON-PLATED HOLES START AT T1
; THROUGH (PLATED) HOLES START AT T100
M48
INCH
T100C0.015748
T101C0.038194
T102C0.059055
T103C0.038000
T104C0.040000
%
T100
X019501Y005069
X028001Y009069
X010001Y008569
X012001Y007069
X001001Y007069
X030501Y008569
X014501Y007069
X013001Y005069
X023501Y008569
X018001Y007069
X028501Y006569
X032001Y011069
X005001Y007069
X024501Y011069
X007501Y011569
X004001Y010569
X025501Y006569
X011501Y010569
X014001Y009069
X016501Y008569
X017501Y010569
X006001Y005069
X026501Y005069
X021501Y006569
X007501Y009069
X032501Y006569
X020820Y009770
X020001Y009069
X003001Y008569
X008001Y007069
T101
X038001Y013069
X022001Y020069
X038001Y019069
X037001Y005069
X023001Y020069
X037001Y009069
X012401Y020069
X017001Y001069
X033001Y001069
X037001Y014069
X025001Y001069
X038001Y008069
X038001Y004069
X038001Y020069
X038001Y018069
X028001Y020069
X009401Y020069
X025001Y020069
X011001Y001069
X019001Y020069
X038001Y011069
X037001Y017069
X020001Y001069
X012001Y001069
X037001Y004069
X021001Y020069
X014001Y001069
X038001Y010069
X029001Y020069
X037001Y008069
X034001Y020069
X029001Y001069
X016001Y001069
X031001Y020069
X018001Y001069
X038001Y007069
X008401Y020069
X015001Y001069
X037001Y018069
X036001Y001069
X024001Y020069
X033001Y020069
X035001Y001069
X037001Y019069
X037001Y016069
X038001Y016069
X038001Y014069
X038001Y006069
X022001Y001069
X027001Y001069
X034001Y001069
X037001Y007069
X011401Y020069
X021001Y001069
X038001Y009069
X032001Y001069
X030001Y020069
X024001Y001069
X038001Y003069
X037001Y015069
X037001Y006069
X038001Y005069
X014401Y020069
X018001Y020069
X037001Y013069
X013401Y020069
X037001Y011069
X037001Y012069
X038001Y012069
X007401Y020069
X032001Y020069
X015401Y020069
X031001Y001069
X030001Y001069
X027001Y020069
X010401Y020069
X023001Y001069
X013001Y001069
X020001Y020069
X026001Y001069
X016401Y020069
X038001Y015069
X037001Y020069
X037001Y003069
X037001Y010069
X038001Y017069
T102
X001501Y018069
X003470Y018069
T103
X014001Y018069
X016001Y016069
X012001Y018069
X016001Y018069
X013001Y018069
X006501Y016569
X016001Y017069
X015001Y017069
X012001Y017069
X015001Y018069
X013001Y016069
X005501Y016569
X015001Y016069
X014001Y017069
X007501Y016569
X012001Y016069
X014001Y016069
X013001Y017069
T104
X030729Y003568
X029123Y017569
X017745Y017569
X035001Y012435
X035001Y008301
X035001Y013813
X030501Y017569
X021879Y017569
X026367Y017569
X035001Y009679
X003229Y003568
X001851Y003568
X019123Y017569
X016501Y003569
X031879Y017569
X029351Y003568
X035001Y011057
X015123Y003569
X035001Y016569
X023729Y003568
X035001Y015191
X008623Y003569
X022351Y003568
X024989Y017569
X027745Y017569
X020501Y017569
X010001Y003569
X035001Y017947
X033257Y017569
T00
M30
