G04 MADE WITH FRITZING*
G04 WWW.FRITZING.ORG*
G04 DOUBLE SIDED*
G04 HOLES PLATED*
G04 CONTOUR ON CENTER OF CONTOUR VECTOR*
%ASAXBY*%
%FSLAX23Y23*%
%MOIN*%
%OFA0B0*%
%SFA1.0B1.0*%
%ADD10C,0.088000*%
%ADD11C,0.090000*%
%ADD12C,0.109055*%
%ADD13C,0.049370*%
%ADD14C,0.082917*%
%ADD15R,0.053307X0.025748*%
%ADD16R,0.104488X0.112362*%
%ADD17R,0.057244X0.088740*%
%ADD18R,0.057244X0.053307*%
%ADD19R,0.053307X0.057244*%
%ADD20R,0.090000X0.090000*%
%ADD21R,0.088000X0.088000*%
%ADD22R,0.109055X0.109055*%
%LNMASK1*%
G90*
G70*
G54D10*
X1500Y1807D03*
X1500Y1707D03*
X1500Y1607D03*
X1200Y1807D03*
X1200Y1707D03*
X1200Y1607D03*
X1300Y1807D03*
X1300Y1707D03*
X1300Y1607D03*
X1400Y1807D03*
X1400Y1707D03*
X1400Y1607D03*
X1600Y1807D03*
X1600Y1707D03*
X1600Y1607D03*
G54D11*
X3500Y1795D03*
X3500Y1657D03*
X3500Y1519D03*
X3500Y1381D03*
X3500Y1244D03*
X3500Y1106D03*
X3500Y968D03*
X3500Y830D03*
X1775Y1757D03*
X1912Y1757D03*
X2050Y1757D03*
X2188Y1757D03*
G54D10*
X750Y1657D03*
X650Y1657D03*
X550Y1657D03*
G54D11*
X2499Y1757D03*
X2637Y1757D03*
X2775Y1757D03*
X2912Y1757D03*
X3050Y1757D03*
X3188Y1757D03*
X3326Y1757D03*
G54D12*
X150Y1807D03*
X347Y1807D03*
G54D11*
X3073Y357D03*
X2935Y357D03*
X2373Y357D03*
X2235Y357D03*
X1650Y357D03*
X1512Y357D03*
X1000Y357D03*
X862Y357D03*
X323Y357D03*
X185Y357D03*
G54D13*
X500Y707D03*
X100Y707D03*
G54D14*
X3000Y107D03*
X1400Y107D03*
X3100Y107D03*
X3200Y107D03*
X3300Y107D03*
X3400Y107D03*
X3700Y1507D03*
X3500Y107D03*
X3600Y107D03*
X1440Y2007D03*
X2000Y107D03*
X2100Y107D03*
X2200Y107D03*
X2300Y107D03*
X3700Y707D03*
X2400Y107D03*
X2500Y107D03*
X2600Y107D03*
X2700Y107D03*
X2200Y2007D03*
X3700Y1907D03*
X3700Y1107D03*
X3700Y307D03*
X1040Y2007D03*
X1800Y107D03*
X1800Y2007D03*
X3700Y1707D03*
X3700Y1307D03*
X3700Y907D03*
X3400Y2007D03*
X3700Y507D03*
X3300Y2007D03*
X3200Y2007D03*
X3100Y2007D03*
X3000Y2007D03*
X2900Y2007D03*
X2800Y2007D03*
X2700Y2007D03*
X840Y2007D03*
X1240Y2007D03*
X1640Y2007D03*
X1200Y107D03*
X1600Y107D03*
X2400Y2007D03*
X2000Y2007D03*
X3700Y2007D03*
X3700Y1807D03*
X3700Y1607D03*
X3700Y1407D03*
X3700Y1207D03*
X3700Y1007D03*
X3700Y807D03*
X3700Y607D03*
X3700Y407D03*
X740Y2007D03*
X940Y2007D03*
X1140Y2007D03*
X1340Y2007D03*
X1540Y2007D03*
X1100Y107D03*
X1300Y107D03*
X1500Y107D03*
X1700Y107D03*
X2500Y2007D03*
X2300Y2007D03*
X2100Y2007D03*
X1900Y2007D03*
X3800Y2007D03*
X3800Y1907D03*
X3800Y1807D03*
X3800Y1707D03*
X3800Y1607D03*
X3800Y1507D03*
X3800Y1407D03*
X3800Y1307D03*
X3800Y1207D03*
X3800Y1107D03*
X3800Y1007D03*
X3800Y907D03*
X3800Y807D03*
X3800Y707D03*
X3800Y607D03*
X3800Y507D03*
X3800Y407D03*
X3800Y307D03*
X2900Y107D03*
G54D13*
X400Y1057D03*
X800Y707D03*
X1200Y707D03*
X1150Y1057D03*
X1450Y707D03*
X1800Y707D03*
X1750Y1057D03*
X2150Y657D03*
X2550Y657D03*
X2450Y1107D03*
X3250Y657D03*
X2850Y657D03*
X300Y857D03*
X1000Y857D03*
X1650Y857D03*
X2350Y857D03*
X3050Y857D03*
X3200Y1107D03*
X2800Y907D03*
X2650Y507D03*
X1950Y507D03*
X1300Y507D03*
X600Y507D03*
X2000Y907D03*
X1400Y907D03*
X750Y907D03*
X2082Y977D03*
X750Y1157D03*
G54D15*
X2900Y1031D03*
X2900Y1005D03*
X2900Y980D03*
X2900Y954D03*
X3077Y954D03*
X3077Y980D03*
X3077Y1005D03*
X3077Y1031D03*
X2150Y1032D03*
X2150Y1007D03*
X2150Y981D03*
X2150Y956D03*
X2327Y956D03*
X2327Y981D03*
X2327Y1007D03*
X2327Y1032D03*
X1473Y1031D03*
X1473Y1006D03*
X1473Y980D03*
X1473Y955D03*
X1650Y955D03*
X1650Y980D03*
X1650Y1006D03*
X1650Y1031D03*
X850Y1032D03*
X850Y1007D03*
X850Y981D03*
X850Y956D03*
X1027Y956D03*
X1027Y981D03*
X1027Y1007D03*
X1027Y1032D03*
X150Y1031D03*
X150Y1006D03*
X150Y980D03*
X150Y955D03*
X327Y955D03*
X327Y980D03*
X327Y1006D03*
X327Y1031D03*
G54D16*
X750Y1509D03*
X750Y1257D03*
G54D17*
X550Y1247D03*
X550Y1357D03*
G54D18*
X600Y1507D03*
X533Y1507D03*
G54D19*
X3050Y540D03*
X3050Y607D03*
X2350Y539D03*
X2350Y606D03*
X1627Y557D03*
X1627Y624D03*
X1000Y557D03*
X1000Y624D03*
X300Y557D03*
X300Y624D03*
X2950Y539D03*
X2950Y606D03*
X2250Y540D03*
X2250Y607D03*
X1527Y557D03*
X1527Y624D03*
X900Y557D03*
X900Y624D03*
X200Y557D03*
X200Y624D03*
X3150Y857D03*
X3150Y924D03*
X2450Y857D03*
X2450Y924D03*
X1727Y856D03*
X1727Y923D03*
X1100Y857D03*
X1100Y924D03*
X400Y857D03*
X400Y924D03*
X3050Y757D03*
X3050Y690D03*
X2350Y757D03*
X2350Y690D03*
X1627Y774D03*
X1627Y707D03*
X1000Y774D03*
X1000Y707D03*
X300Y774D03*
X300Y707D03*
G54D17*
X3350Y717D03*
X3350Y607D03*
X2650Y717D03*
X2650Y607D03*
X1950Y717D03*
X1950Y607D03*
X1300Y717D03*
X1300Y607D03*
X600Y717D03*
X600Y607D03*
G54D19*
X3150Y607D03*
X3150Y540D03*
X2450Y607D03*
X2450Y540D03*
X1727Y624D03*
X1727Y558D03*
X1100Y624D03*
X1100Y557D03*
X400Y624D03*
X400Y558D03*
X3150Y690D03*
X3150Y757D03*
X2450Y690D03*
X2450Y757D03*
X1727Y706D03*
X1727Y773D03*
X1100Y707D03*
X1100Y774D03*
X400Y707D03*
X400Y774D03*
X2950Y757D03*
X2950Y690D03*
X2250Y757D03*
X2250Y690D03*
X1527Y774D03*
X1527Y707D03*
X900Y774D03*
X900Y707D03*
X200Y774D03*
X200Y707D03*
G54D20*
X3500Y1795D03*
X1775Y1757D03*
G54D21*
X750Y1657D03*
G54D20*
X2499Y1757D03*
G54D22*
X150Y1807D03*
G54D20*
X3073Y357D03*
X2373Y357D03*
X1650Y357D03*
X1000Y357D03*
X323Y357D03*
G04 End of Mask1*
M02*