G04 MADE WITH FRITZING*
G04 WWW.FRITZING.ORG*
G04 DOUBLE SIDED*
G04 HOLES PLATED*
G04 CONTOUR ON CENTER OF CONTOUR VECTOR*
%ASAXBY*%
%FSLAX23Y23*%
%MOIN*%
%OFA0B0*%
%SFA1.0B1.0*%
%ADD10C,0.078000*%
%ADD11C,0.080000*%
%ADD12C,0.072917*%
%ADD13C,0.039370*%
%ADD14R,0.080000X0.080000*%
%ADD15R,0.078000X0.078000*%
%ADD16R,0.094488X0.102362*%
%ADD17R,0.078740X0.047244*%
%ADD18R,0.043307X0.047244*%
%ADD19R,0.024000X0.087000*%
%ADD20R,0.047244X0.078740*%
%ADD21R,0.047244X0.043307*%
%ADD22C,0.024000*%
%LNCOPPER1*%
G90*
G70*
G54D10*
X1500Y1807D03*
X1500Y1707D03*
X1500Y1607D03*
X1200Y1807D03*
X1200Y1707D03*
X1200Y1607D03*
X1300Y1807D03*
X1300Y1707D03*
X1300Y1607D03*
X1400Y1807D03*
X1400Y1707D03*
X1400Y1607D03*
X1600Y1807D03*
X1600Y1707D03*
X1600Y1607D03*
G54D11*
X3550Y1671D03*
X3550Y1534D03*
X3550Y1396D03*
X3550Y1258D03*
X3550Y1120D03*
X3550Y982D03*
X3550Y845D03*
X3550Y707D03*
X1775Y1757D03*
X1912Y1757D03*
X2050Y1757D03*
X2188Y1757D03*
G54D10*
X600Y1457D03*
X600Y1557D03*
X600Y1657D03*
G54D12*
X3000Y107D03*
X1400Y107D03*
X3100Y107D03*
X3200Y107D03*
X3300Y107D03*
X3400Y107D03*
X3700Y1507D03*
X3500Y107D03*
X3600Y107D03*
X1440Y2007D03*
X2000Y107D03*
X2100Y107D03*
X2200Y107D03*
X2300Y107D03*
X3700Y707D03*
X2400Y107D03*
X2500Y107D03*
X2600Y107D03*
X2700Y107D03*
X2200Y2007D03*
X3700Y1907D03*
X3700Y1107D03*
X3700Y307D03*
X1040Y2007D03*
X1800Y107D03*
X1800Y2007D03*
X3700Y1707D03*
X3700Y1307D03*
X3700Y907D03*
X3400Y2007D03*
X3700Y507D03*
X3300Y2007D03*
X3200Y2007D03*
X3100Y2007D03*
X3000Y2007D03*
X2900Y2007D03*
X2800Y2007D03*
X2700Y2007D03*
X840Y2007D03*
X1240Y2007D03*
X1640Y2007D03*
X1200Y107D03*
X1600Y107D03*
X2400Y2007D03*
X2000Y2007D03*
X3700Y2007D03*
X3700Y1807D03*
X3700Y1607D03*
X3700Y1407D03*
X3700Y1207D03*
X3700Y1007D03*
X3700Y807D03*
X3700Y607D03*
X3700Y407D03*
X740Y2007D03*
X940Y2007D03*
X1140Y2007D03*
X1340Y2007D03*
X1540Y2007D03*
X1100Y107D03*
X1300Y107D03*
X1500Y107D03*
X1700Y107D03*
X2500Y2007D03*
X2300Y2007D03*
X2100Y2007D03*
X1900Y2007D03*
X3800Y2007D03*
X3800Y1907D03*
X3800Y1807D03*
X3800Y1707D03*
X3800Y1607D03*
X3800Y1507D03*
X3800Y1407D03*
X3800Y1307D03*
X3800Y1207D03*
X3800Y1107D03*
X3800Y1007D03*
X3800Y907D03*
X3800Y807D03*
X3800Y707D03*
X3800Y607D03*
X3800Y507D03*
X3800Y407D03*
X3800Y307D03*
X2900Y107D03*
G54D11*
X2499Y1757D03*
X2637Y1757D03*
X2775Y1757D03*
X2912Y1757D03*
X3050Y1757D03*
X3188Y1757D03*
X3326Y1757D03*
X150Y1907D03*
X288Y1907D03*
X455Y320D03*
X318Y320D03*
X1205Y337D03*
X1068Y337D03*
X1955Y320D03*
X1818Y320D03*
X2705Y337D03*
X2568Y337D03*
X3355Y337D03*
X3218Y337D03*
G54D13*
X3132Y923D03*
X2892Y923D03*
X588Y515D03*
X3252Y875D03*
X3228Y515D03*
X2484Y851D03*
X2580Y515D03*
X1884Y851D03*
X1836Y515D03*
X1116Y875D03*
X3060Y1091D03*
X660Y899D03*
X3252Y1067D03*
X2076Y779D03*
X1452Y875D03*
X1932Y227D03*
G54D14*
X3550Y1671D03*
X1775Y1757D03*
G54D15*
X600Y1457D03*
G54D16*
X150Y1357D03*
X150Y1609D03*
G54D17*
X260Y1731D03*
X150Y1731D03*
G54D18*
X789Y1591D03*
X789Y1658D03*
X50Y574D03*
X50Y507D03*
X2950Y591D03*
X2950Y524D03*
X2300Y591D03*
X2300Y524D03*
X1550Y574D03*
X1550Y507D03*
X800Y591D03*
X800Y524D03*
X250Y1040D03*
X250Y1107D03*
X3150Y1057D03*
X3150Y1124D03*
X2500Y1057D03*
X2500Y1124D03*
X1000Y1057D03*
X1000Y1124D03*
X1750Y1040D03*
X1750Y1107D03*
G54D14*
X2499Y1757D03*
X150Y1907D03*
G54D18*
X500Y574D03*
X500Y507D03*
X3400Y591D03*
X3400Y524D03*
X2750Y591D03*
X2750Y524D03*
X2000Y574D03*
X2000Y507D03*
X1250Y591D03*
X1250Y524D03*
X50Y824D03*
X50Y757D03*
X2950Y841D03*
X2950Y774D03*
X2300Y841D03*
X2300Y774D03*
X1550Y824D03*
X1550Y757D03*
X800Y841D03*
X800Y774D03*
G54D14*
X455Y320D03*
G54D19*
X368Y746D03*
X318Y952D03*
X418Y952D03*
X418Y746D03*
X368Y952D03*
X468Y746D03*
X468Y952D03*
X318Y746D03*
X2618Y763D03*
X2568Y969D03*
X2668Y969D03*
X2668Y763D03*
X2618Y969D03*
X2718Y763D03*
X2718Y969D03*
X2568Y763D03*
X3268Y763D03*
X3218Y969D03*
X3318Y969D03*
X3318Y763D03*
X3268Y969D03*
X3368Y763D03*
X3368Y969D03*
X3218Y763D03*
X1868Y746D03*
X1818Y952D03*
X1918Y952D03*
X1918Y746D03*
X1868Y952D03*
X1968Y746D03*
X1968Y952D03*
X1818Y746D03*
X1118Y763D03*
X1068Y969D03*
X1168Y969D03*
X1168Y763D03*
X1118Y969D03*
X1218Y763D03*
X1218Y969D03*
X1068Y763D03*
G54D20*
X400Y507D03*
X400Y617D03*
X2650Y524D03*
X2650Y634D03*
X3300Y524D03*
X3300Y634D03*
X1900Y507D03*
X1900Y617D03*
X1150Y524D03*
X1150Y634D03*
G54D18*
X250Y574D03*
X250Y507D03*
X3150Y591D03*
X3150Y524D03*
X2500Y591D03*
X2500Y524D03*
X1750Y574D03*
X1750Y507D03*
X1000Y591D03*
X1000Y524D03*
G54D21*
X131Y948D03*
X64Y948D03*
X3030Y965D03*
X2964Y965D03*
X2380Y965D03*
X2314Y965D03*
X1631Y948D03*
X1564Y948D03*
X881Y965D03*
X814Y965D03*
G54D18*
X150Y790D03*
X150Y857D03*
X3050Y807D03*
X3050Y874D03*
X2400Y807D03*
X2400Y874D03*
X1650Y790D03*
X1650Y857D03*
X900Y807D03*
X900Y874D03*
G54D14*
X1205Y337D03*
X1955Y320D03*
X2705Y337D03*
X3355Y337D03*
G54D22*
X2899Y1658D02*
X3400Y1658D01*
D02*
X3400Y1658D02*
X3400Y1977D01*
D02*
X2908Y1726D02*
X2899Y1658D01*
D02*
X3006Y1977D02*
X3044Y1787D01*
D02*
X3110Y1978D02*
X3178Y1786D01*
D02*
X3214Y1980D02*
X3312Y1785D01*
D02*
X3549Y255D02*
X3550Y676D01*
D02*
X3672Y297D02*
X3549Y255D01*
D02*
X3684Y1881D02*
X3567Y1698D01*
D02*
X1797Y1977D02*
X1778Y1788D01*
D02*
X1902Y1977D02*
X1911Y1788D01*
D02*
X2006Y1977D02*
X2044Y1787D01*
D02*
X2110Y1978D02*
X2178Y1786D01*
D02*
X3450Y1507D02*
X3520Y1526D01*
D02*
X3450Y707D02*
X3450Y1507D01*
D02*
X3519Y707D02*
X3450Y707D01*
D02*
X100Y507D02*
X234Y507D01*
D02*
X66Y507D02*
X100Y507D01*
D02*
X51Y757D02*
X50Y757D01*
D02*
X50Y592D02*
X51Y757D01*
D02*
X307Y350D02*
X257Y489D01*
D02*
X382Y612D02*
X266Y578D01*
D02*
X412Y708D02*
X405Y651D01*
D02*
X418Y609D02*
X484Y581D01*
D02*
X418Y507D02*
X484Y507D01*
D02*
X311Y747D02*
X166Y786D01*
D02*
X234Y1028D02*
X149Y962D01*
D02*
X1170Y1606D02*
X805Y1592D01*
D02*
X773Y1588D02*
X630Y1562D01*
D02*
X773Y1658D02*
X630Y1657D01*
D02*
X150Y1749D02*
X150Y1876D01*
D02*
X150Y1712D02*
X150Y1654D01*
D02*
X192Y1604D02*
X570Y1560D01*
D02*
X800Y756D02*
X800Y609D01*
D02*
X812Y948D02*
X802Y859D01*
D02*
X896Y892D02*
X884Y948D01*
D02*
X899Y979D02*
X984Y1044D01*
D02*
X1014Y1039D02*
X1061Y977D01*
D02*
X1016Y595D02*
X1132Y629D01*
D02*
X1155Y668D02*
X1162Y725D01*
D02*
X1168Y626D02*
X1234Y598D01*
D02*
X1168Y524D02*
X1234Y524D01*
D02*
X984Y524D02*
X816Y524D01*
D02*
X1007Y506D02*
X1057Y367D01*
D02*
X1734Y507D02*
X1566Y507D01*
D02*
X1550Y739D02*
X1550Y592D01*
D02*
X1566Y762D02*
X1634Y785D01*
D02*
X1562Y932D02*
X1552Y842D01*
D02*
X1646Y875D02*
X1634Y932D01*
D02*
X1649Y962D02*
X1734Y1028D01*
D02*
X1764Y1022D02*
X1811Y960D01*
D02*
X1666Y786D02*
X1811Y747D01*
D02*
X916Y803D02*
X1061Y764D01*
D02*
X884Y802D02*
X816Y779D01*
D02*
X2384Y802D02*
X2316Y779D01*
D02*
X2300Y756D02*
X2300Y609D01*
D02*
X2416Y803D02*
X2561Y764D01*
D02*
X2312Y948D02*
X2302Y859D01*
D02*
X2396Y892D02*
X2384Y948D01*
D02*
X2399Y979D02*
X2484Y1044D01*
D02*
X2514Y1039D02*
X2561Y977D01*
D02*
X1766Y578D02*
X1882Y612D01*
D02*
X1905Y651D02*
X1912Y708D01*
D02*
X1918Y609D02*
X1984Y581D01*
D02*
X1918Y507D02*
X1984Y507D01*
D02*
X1757Y489D02*
X1807Y350D01*
D02*
X2655Y668D02*
X2662Y725D01*
D02*
X2632Y629D02*
X2516Y595D01*
D02*
X2668Y626D02*
X2734Y598D01*
D02*
X2668Y524D02*
X2734Y524D01*
D02*
X2557Y367D02*
X2507Y506D01*
D02*
X2484Y524D02*
X2316Y524D01*
D02*
X134Y785D02*
X66Y762D01*
D02*
X3134Y524D02*
X2966Y524D01*
D02*
X3157Y506D02*
X3207Y367D01*
D02*
X2950Y756D02*
X2950Y609D01*
D02*
X2966Y779D02*
X3034Y802D01*
D02*
X2952Y859D02*
X2962Y948D01*
D02*
X3046Y892D02*
X3034Y948D01*
D02*
X3049Y979D02*
X3134Y1044D01*
D02*
X3164Y1039D02*
X3211Y977D01*
D02*
X3066Y803D02*
X3211Y764D01*
D02*
X3166Y595D02*
X3282Y629D01*
D02*
X3318Y524D02*
X3384Y524D01*
D02*
X3318Y626D02*
X3384Y598D01*
D02*
X3305Y668D02*
X3312Y725D01*
D02*
X571Y1450D02*
X192Y1366D01*
D02*
X152Y875D02*
X156Y923D01*
X156Y923D02*
X147Y932D01*
D02*
X311Y962D02*
X276Y1019D01*
X276Y1019D02*
X266Y1027D01*
D02*
X1592Y1836D02*
X1549Y1978D01*
D02*
X2624Y763D02*
X2661Y763D01*
D02*
X1124Y763D02*
X1161Y763D01*
D02*
X1874Y746D02*
X1911Y746D01*
D02*
X411Y746D02*
X374Y746D01*
D02*
X3274Y763D02*
X3311Y763D01*
D02*
X3682Y1583D02*
X3636Y1523D01*
X3636Y1523D02*
X3612Y923D01*
X3612Y923D02*
X3569Y869D01*
D02*
X1924Y952D02*
X1961Y952D01*
D02*
X2177Y126D02*
X2052Y227D01*
X2052Y227D02*
X2052Y635D01*
X2052Y635D02*
X2004Y635D01*
X2004Y635D02*
X2004Y827D01*
X2004Y827D02*
X1974Y930D01*
D02*
X125Y1403D02*
X60Y1523D01*
X60Y1523D02*
X84Y1979D01*
X84Y1979D02*
X276Y1955D01*
X276Y1955D02*
X280Y1937D01*
D02*
X424Y952D02*
X461Y952D01*
D02*
X1973Y121D02*
X1860Y179D01*
X1860Y179D02*
X996Y275D01*
X996Y275D02*
X756Y467D01*
X756Y467D02*
X756Y683D01*
X756Y683D02*
X474Y946D01*
D02*
X645Y911D02*
X516Y1019D01*
X516Y1019D02*
X266Y1102D01*
D02*
X3235Y1076D02*
X3166Y1115D01*
D02*
X2711Y969D02*
X2674Y969D01*
D02*
X2321Y129D02*
X2436Y251D01*
X2436Y251D02*
X2628Y251D01*
X2628Y251D02*
X2628Y395D01*
X2628Y395D02*
X2700Y443D01*
X2700Y443D02*
X2796Y443D01*
X2796Y443D02*
X2796Y635D01*
X2796Y635D02*
X2772Y635D01*
X2772Y635D02*
X2772Y827D01*
X2772Y827D02*
X2652Y923D01*
X2652Y923D02*
X2661Y950D01*
D02*
X2724Y362D02*
X2748Y395D01*
X2748Y395D02*
X2844Y395D01*
X2844Y395D02*
X2820Y875D01*
X2820Y875D02*
X2772Y875D01*
X2772Y875D02*
X2772Y1043D01*
X2772Y1043D02*
X2556Y1043D01*
X2556Y1043D02*
X2556Y1115D01*
X2556Y1115D02*
X2516Y1121D01*
D02*
X2071Y797D02*
X2004Y1019D01*
X2004Y1019D02*
X1766Y1101D01*
D02*
X1174Y969D02*
X1211Y969D01*
D02*
X1913Y229D02*
X1740Y251D01*
X1740Y251D02*
X1500Y419D01*
X1500Y419D02*
X1500Y707D01*
X1500Y707D02*
X1236Y923D01*
X1236Y923D02*
X1224Y953D01*
D02*
X1438Y888D02*
X1260Y1043D01*
X1260Y1043D02*
X1016Y1119D01*
D02*
X2976Y981D02*
X2988Y995D01*
X2988Y995D02*
X2988Y1019D01*
X2988Y1019D02*
X3047Y1078D01*
D02*
X809Y981D02*
X804Y995D01*
X804Y995D02*
X708Y1055D01*
X708Y1055D02*
X660Y1523D01*
X660Y1523D02*
X636Y1523D01*
X636Y1523D02*
X622Y1536D01*
D02*
X2315Y981D02*
X2316Y995D01*
X2316Y995D02*
X2436Y1187D01*
X2436Y1187D02*
X2604Y1187D01*
X2604Y1187D02*
X2940Y995D01*
X2940Y995D02*
X2951Y981D01*
D02*
X1582Y961D02*
X1596Y971D01*
X1596Y971D02*
X1596Y1019D01*
X1596Y1019D02*
X1600Y1577D01*
D02*
X74Y964D02*
X204Y1163D01*
X204Y1163D02*
X660Y1115D01*
X660Y1115D02*
X708Y1055D01*
D02*
X52Y842D02*
X62Y932D01*
D02*
X2635Y1726D02*
X2604Y1187D01*
D02*
X1270Y1707D02*
X1230Y1707D01*
D02*
X1470Y1707D02*
X1430Y1707D01*
D02*
X1117Y931D02*
X1116Y894D01*
D02*
X1250Y524D02*
X1260Y539D01*
X1260Y539D02*
X1308Y539D01*
X1308Y539D02*
X1260Y827D01*
X1260Y827D02*
X1134Y869D01*
D02*
X1900Y507D02*
X1884Y515D01*
X1884Y515D02*
X1855Y515D01*
D02*
X1874Y914D02*
X1881Y870D01*
D02*
X2632Y517D02*
X2628Y515D01*
X2628Y515D02*
X2599Y515D01*
D02*
X2613Y931D02*
X2604Y851D01*
X2604Y851D02*
X2503Y851D01*
D02*
X3282Y517D02*
X3276Y515D01*
X3276Y515D02*
X3247Y515D01*
D02*
X3261Y931D02*
X3255Y894D01*
D02*
X500Y507D02*
X516Y515D01*
X516Y515D02*
X569Y515D01*
D02*
X369Y914D02*
X372Y827D01*
X372Y827D02*
X516Y827D01*
X516Y827D02*
X584Y534D01*
D02*
X294Y1730D02*
X1170Y1708D01*
D02*
X3361Y969D02*
X3324Y969D01*
D02*
X2420Y130D02*
X2484Y203D01*
X2484Y203D02*
X2676Y203D01*
X2676Y203D02*
X2892Y347D01*
X2892Y347D02*
X2892Y904D01*
D02*
X3127Y905D02*
X3108Y839D01*
X3108Y839D02*
X3108Y827D01*
X3108Y827D02*
X3324Y827D01*
X3324Y827D02*
X3324Y923D01*
X3324Y923D02*
X3323Y931D01*
G04 End of Copper1*
M02*