; NON-PLATED HOLES START AT T1
; THROUGH (PLATED) HOLES START AT T100
M48
INCH
T100C0.038194
T101C0.038000
T102C0.040000
T103C0.015748
%
T100
X038001Y010069
X024001Y020069
X037001Y003069
X035001Y001069
X011401Y020069
X033001Y001069
X037001Y012069
X018001Y001069
X038001Y005069
X037001Y018069
X011001Y001069
X037001Y015069
X037001Y019069
X012401Y020069
X022001Y020069
X014401Y020069
X021001Y001069
X018001Y020069
X030001Y020069
X038001Y014069
X023001Y020069
X024001Y001069
X034001Y020069
X037001Y008069
X019001Y020069
X038001Y017069
X034001Y001069
X037001Y010069
X023001Y001069
X038001Y009069
X021001Y020069
X031001Y020069
X038001Y004069
X012001Y001069
X032001Y020069
X007401Y020069
X025001Y001069
X037001Y020069
X026001Y001069
X020001Y001069
X013401Y020069
X037001Y004069
X037001Y014069
X016401Y020069
X038001Y016069
X037001Y009069
X038001Y008069
X027001Y001069
X027001Y020069
X038001Y007069
X038001Y011069
X022001Y001069
X037001Y006069
X038001Y018069
X033001Y020069
X032001Y001069
X037001Y005069
X037001Y011069
X038001Y019069
X025001Y020069
X038001Y006069
X037001Y007069
X038001Y012069
X038001Y015069
X014001Y001069
X017001Y001069
X029001Y001069
X015401Y020069
X028001Y020069
X020001Y020069
X036001Y001069
X038001Y003069
X037001Y016069
X030001Y001069
X010401Y020069
X038001Y013069
X037001Y013069
X009401Y020069
X031001Y001069
X038001Y020069
X037001Y017069
X016001Y001069
X008401Y020069
X013001Y001069
X015001Y001069
X029001Y020069
T101
X016001Y018069
X013001Y018069
X006001Y015569
X014001Y016069
X006001Y016569
X016001Y016069
X014001Y018069
X015001Y018069
X012001Y017069
X006001Y014569
X013001Y017069
X015001Y016069
X014001Y017069
X016001Y017069
X013001Y016069
X015001Y017069
X012001Y016069
X012001Y018069
T102
X026367Y017569
X035501Y015336
X027745Y017569
X035501Y009824
X035501Y011202
X029123Y017569
X035501Y007069
X032175Y003374
X017745Y017569
X002879Y019069
X020501Y017569
X012053Y003374
X018175Y003204
X033257Y017569
X004553Y003204
X035501Y008447
X035501Y013958
X001501Y019069
X024989Y017569
X003175Y003204
X033553Y003374
X021879Y017569
X030501Y017569
X035501Y012580
X035501Y016714
X010675Y003374
X031879Y017569
X025675Y003374
X027053Y003374
X019123Y017569
X019553Y003204
T103
X018840Y008510
X014520Y008750
X019320Y002270
X018360Y005150
X032520Y010670
X031320Y009230
X032280Y005150
X020760Y007790
X024840Y008510
X005880Y005150
X028920Y009230
X030600Y010910
X032520Y008750
X025800Y005150
X011160Y008750
X006600Y008990
T00
M30
