; NON-PLATED HOLES START AT T1
; THROUGH (PLATED) HOLES START AT T100
M48
INCH
T100C0.043307
T101C0.015748
T102C0.040000
T103C0.038000
T104C0.038194
%
T100
X001501Y019069
X002879Y019069
T101
X032520Y008750
X030600Y010910
X020760Y007790
X028920Y009230
X005880Y005150
X018840Y008510
X019320Y002270
X014520Y008750
X018360Y005150
X006600Y008990
X024840Y008510
X031320Y009230
X032280Y005150
X032520Y010670
X011160Y008750
X025800Y005150
T102
X031879Y017569
X026367Y017569
X010675Y003374
X004553Y003204
X032175Y003374
X017745Y017569
X029123Y017569
X018175Y003204
X035501Y007069
X035501Y015336
X035501Y011202
X035501Y008447
X035501Y013958
X019553Y003204
X027745Y017569
X012053Y003374
X003175Y003204
X025675Y003374
X030501Y017569
X024989Y017569
X033257Y017569
X035501Y009824
X020501Y017569
X019123Y017569
X027053Y003374
X021879Y017569
X035501Y016714
X033553Y003374
X035501Y012580
T103
X013001Y017069
X006001Y015569
X014001Y017069
X013001Y016069
X015001Y017069
X016001Y017069
X006001Y016569
X006001Y014569
X012001Y017069
X015001Y018069
X014001Y018069
X016001Y016069
X013001Y018069
X014001Y016069
X012001Y016069
X016001Y018069
X012001Y018069
X015001Y016069
T104
X025001Y020069
X012001Y001069
X038001Y003069
X038001Y005069
X037001Y017069
X038001Y020069
X037001Y020069
X038001Y010069
X030001Y001069
X009401Y020069
X037001Y019069
X011401Y020069
X026001Y001069
X037001Y014069
X010401Y020069
X035001Y001069
X030001Y020069
X033001Y001069
X037001Y006069
X020001Y001069
X017001Y001069
X036001Y001069
X027001Y001069
X038001Y006069
X037001Y007069
X031001Y020069
X029001Y001069
X037001Y012069
X025001Y001069
X038001Y017069
X023001Y001069
X031001Y001069
X037001Y010069
X038001Y016069
X034001Y001069
X037001Y013069
X015401Y020069
X033001Y020069
X019001Y020069
X007401Y020069
X038001Y012069
X014401Y020069
X022001Y001069
X037001Y011069
X038001Y013069
X022001Y020069
X023001Y020069
X012401Y020069
X018001Y001069
X016401Y020069
X027001Y020069
X038001Y019069
X028001Y020069
X024001Y020069
X021001Y001069
X038001Y011069
X037001Y003069
X038001Y014069
X014001Y001069
X037001Y004069
X021001Y020069
X037001Y008069
X016001Y001069
X013401Y020069
X032001Y020069
X029001Y020069
X037001Y005069
X037001Y015069
X038001Y018069
X020001Y020069
X038001Y015069
X011001Y001069
X037001Y016069
X008401Y020069
X037001Y009069
X038001Y007069
X038001Y008069
X013001Y001069
X024001Y001069
X038001Y004069
X015001Y001069
X018001Y020069
X034001Y020069
X037001Y018069
X032001Y001069
X038001Y009069
T00
M30
