G04 MADE WITH FRITZING*
G04 WWW.FRITZING.ORG*
G04 DOUBLE SIDED*
G04 HOLES PLATED*
G04 CONTOUR ON CENTER OF CONTOUR VECTOR*
%ASAXBY*%
%FSLAX23Y23*%
%MOIN*%
%OFA0B0*%
%SFA1.0B1.0*%
%ADD10R,0.094488X0.102362*%
%ADD11R,0.078740X0.047244*%
%ADD12R,0.043307X0.047244*%
%ADD13R,0.024000X0.087000*%
%ADD14R,0.047244X0.078740*%
%ADD15R,0.047244X0.043307*%
%LNPASTEMASK1*%
G90*
G70*
G54D10*
X150Y1357D03*
X150Y1609D03*
G54D11*
X260Y1731D03*
X150Y1731D03*
G54D12*
X789Y1591D03*
X789Y1658D03*
X2950Y591D03*
X2950Y524D03*
X2300Y591D03*
X2300Y524D03*
X1550Y574D03*
X1550Y507D03*
X800Y591D03*
X800Y524D03*
X50Y574D03*
X50Y507D03*
X3150Y1057D03*
X3150Y1124D03*
X2500Y1057D03*
X2500Y1124D03*
X1750Y1040D03*
X1750Y1107D03*
X1000Y1057D03*
X1000Y1124D03*
X250Y1040D03*
X250Y1107D03*
X3400Y591D03*
X3400Y524D03*
X2750Y591D03*
X2750Y524D03*
X2000Y574D03*
X2000Y507D03*
X1250Y591D03*
X1250Y524D03*
X500Y574D03*
X500Y507D03*
X2950Y841D03*
X2950Y774D03*
X2300Y841D03*
X2300Y774D03*
X1550Y824D03*
X1550Y757D03*
X800Y841D03*
X800Y774D03*
X50Y824D03*
X50Y757D03*
G54D13*
X3268Y763D03*
X3218Y969D03*
X3318Y969D03*
X3318Y763D03*
X3268Y969D03*
X3368Y763D03*
X3368Y969D03*
X3218Y763D03*
X2618Y763D03*
X2568Y969D03*
X2668Y969D03*
X2668Y763D03*
X2618Y969D03*
X2718Y763D03*
X2718Y969D03*
X2568Y763D03*
X1868Y746D03*
X1818Y952D03*
X1918Y952D03*
X1918Y746D03*
X1868Y952D03*
X1968Y746D03*
X1968Y952D03*
X1818Y746D03*
X1118Y763D03*
X1068Y969D03*
X1168Y969D03*
X1168Y763D03*
X1118Y969D03*
X1218Y763D03*
X1218Y969D03*
X1068Y763D03*
X368Y746D03*
X318Y952D03*
X418Y952D03*
X418Y746D03*
X368Y952D03*
X468Y746D03*
X468Y952D03*
X318Y746D03*
G54D14*
X3300Y524D03*
X3300Y634D03*
X2650Y524D03*
X2650Y634D03*
X1900Y507D03*
X1900Y617D03*
X1150Y524D03*
X1150Y634D03*
X400Y507D03*
X400Y617D03*
G54D12*
X3150Y591D03*
X3150Y524D03*
X2500Y591D03*
X2500Y524D03*
X1750Y574D03*
X1750Y507D03*
X1000Y591D03*
X1000Y524D03*
X250Y574D03*
X250Y507D03*
G54D15*
X3030Y965D03*
X2964Y965D03*
X2380Y965D03*
X2314Y965D03*
X1630Y948D03*
X1564Y948D03*
X880Y965D03*
X814Y965D03*
X131Y948D03*
X64Y948D03*
G54D12*
X3050Y807D03*
X3050Y874D03*
X2400Y807D03*
X2400Y874D03*
X1650Y790D03*
X1650Y857D03*
X900Y807D03*
X900Y874D03*
X150Y790D03*
X150Y857D03*
G04 End of PasteMask1*
M02*