G04 MADE WITH FRITZING*
G04 WWW.FRITZING.ORG*
G04 DOUBLE SIDED*
G04 HOLES PLATED*
G04 CONTOUR ON CENTER OF CONTOUR VECTOR*
%ASAXBY*%
%FSLAX23Y23*%
%MOIN*%
%OFA0B0*%
%SFA1.0B1.0*%
%ADD10C,0.088000*%
%ADD11C,0.049370*%
%ADD12C,0.090000*%
%ADD13C,0.082917*%
%ADD14R,0.090000X0.090000*%
%ADD15R,0.088000X0.088000*%
%ADD16R,0.088740X0.096614*%
%ADD17R,0.069055X0.065118*%
%ADD18R,0.065118X0.069055*%
%ADD19R,0.034000X0.097000*%
%ADD20R,0.096614X0.088740*%
%LNMASK1*%
G90*
G70*
G54D10*
X1455Y1847D03*
X1455Y1747D03*
X1455Y1647D03*
X1155Y1847D03*
X1155Y1747D03*
X1155Y1647D03*
X1255Y1847D03*
X1255Y1747D03*
X1255Y1647D03*
X1355Y1847D03*
X1355Y1747D03*
X1355Y1647D03*
X1555Y1847D03*
X1555Y1747D03*
X1555Y1647D03*
G54D11*
X1572Y539D03*
X1788Y683D03*
X2244Y539D03*
X2316Y899D03*
X924Y515D03*
X996Y875D03*
X276Y539D03*
X348Y899D03*
X2988Y539D03*
X3036Y899D03*
X276Y1499D03*
X60Y971D03*
X612Y899D03*
X2676Y899D03*
X1908Y611D03*
X1068Y899D03*
X3108Y899D03*
X1980Y731D03*
X2244Y1211D03*
X1164Y275D03*
X2580Y371D03*
X2580Y611D03*
X708Y1307D03*
X516Y707D03*
X276Y1235D03*
G54D12*
X3505Y1711D03*
X3505Y1573D03*
X3505Y1436D03*
X3505Y1298D03*
X3505Y1160D03*
X3505Y1022D03*
X3505Y884D03*
X3505Y747D03*
X1730Y1797D03*
X1868Y1797D03*
X2005Y1797D03*
X2143Y1797D03*
G54D10*
X555Y1497D03*
X555Y1597D03*
X555Y1697D03*
G54D13*
X3005Y97D03*
X1405Y97D03*
X3105Y97D03*
X3205Y97D03*
X3305Y97D03*
X3405Y97D03*
X3705Y1497D03*
X3505Y97D03*
X3605Y97D03*
X1445Y1997D03*
X2005Y97D03*
X2105Y97D03*
X2205Y97D03*
X2305Y97D03*
X3705Y697D03*
X2405Y97D03*
X2505Y97D03*
X2605Y97D03*
X2705Y97D03*
X2205Y1997D03*
X3705Y1897D03*
X3705Y1097D03*
X3705Y297D03*
X1045Y1997D03*
X1805Y97D03*
X1805Y1997D03*
X3705Y1697D03*
X3705Y1297D03*
X3705Y897D03*
X3405Y1997D03*
X3705Y497D03*
X3305Y1997D03*
X3205Y1997D03*
X3105Y1997D03*
X3005Y1997D03*
X2905Y1997D03*
X2805Y1997D03*
X2705Y1997D03*
X845Y1997D03*
X1245Y1997D03*
X1645Y1997D03*
X1205Y97D03*
X1605Y97D03*
X2405Y1997D03*
X2005Y1997D03*
X3705Y1997D03*
X3705Y1797D03*
X3705Y1597D03*
X3705Y1397D03*
X3705Y1197D03*
X3705Y997D03*
X3705Y797D03*
X3705Y597D03*
X3705Y397D03*
X745Y1997D03*
X945Y1997D03*
X1145Y1997D03*
X1345Y1997D03*
X1545Y1997D03*
X1105Y97D03*
X1305Y97D03*
X1505Y97D03*
X1705Y97D03*
X2505Y1997D03*
X2305Y1997D03*
X2105Y1997D03*
X1905Y1997D03*
X3805Y1997D03*
X3805Y1897D03*
X3805Y1797D03*
X3805Y1697D03*
X3805Y1597D03*
X3805Y1497D03*
X3805Y1397D03*
X3805Y1297D03*
X3805Y1197D03*
X3805Y1097D03*
X3805Y997D03*
X3805Y897D03*
X3805Y797D03*
X3805Y697D03*
X3805Y597D03*
X3805Y497D03*
X3805Y397D03*
X3805Y297D03*
X2905Y97D03*
G54D12*
X2454Y1797D03*
X2592Y1797D03*
X2730Y1797D03*
X2868Y1797D03*
X3005Y1797D03*
X3143Y1797D03*
X3281Y1797D03*
X105Y1947D03*
X243Y1947D03*
X443Y347D03*
X305Y347D03*
X3143Y347D03*
X3005Y347D03*
X2393Y347D03*
X2255Y347D03*
X1061Y355D03*
X923Y355D03*
X1743Y347D03*
X1605Y347D03*
G54D14*
X3505Y1711D03*
X1730Y1797D03*
G54D15*
X555Y1497D03*
G54D16*
X223Y1597D03*
X105Y1597D03*
X223Y1747D03*
X105Y1747D03*
G54D17*
X755Y1616D03*
X755Y1697D03*
X55Y621D03*
X55Y541D03*
X2746Y625D03*
X2746Y544D03*
X2005Y615D03*
X2005Y535D03*
X692Y601D03*
X692Y520D03*
X1355Y597D03*
X1355Y516D03*
G54D18*
X215Y1150D03*
X296Y1150D03*
X2905Y1154D03*
X2986Y1154D03*
X2165Y1144D03*
X2246Y1144D03*
X852Y1130D03*
X933Y1130D03*
X1515Y1126D03*
X1596Y1126D03*
G54D14*
X2454Y1797D03*
X105Y1947D03*
G54D17*
X355Y621D03*
X355Y541D03*
X3046Y625D03*
X3046Y544D03*
X2305Y627D03*
X2305Y547D03*
X992Y601D03*
X992Y520D03*
X1655Y597D03*
X1655Y516D03*
X55Y903D03*
X55Y822D03*
X2746Y906D03*
X2746Y826D03*
X2005Y897D03*
X2005Y816D03*
X692Y882D03*
X692Y801D03*
X1355Y878D03*
X1355Y797D03*
G54D14*
X443Y347D03*
X3143Y347D03*
X2393Y347D03*
X1061Y355D03*
X1743Y347D03*
G54D19*
X355Y797D03*
X305Y1003D03*
X405Y1003D03*
X405Y797D03*
X355Y1003D03*
X455Y797D03*
X455Y1003D03*
X305Y797D03*
X3046Y800D03*
X2996Y1006D03*
X3096Y1006D03*
X3096Y800D03*
X3046Y1006D03*
X3146Y800D03*
X3146Y1006D03*
X2996Y800D03*
X2305Y791D03*
X2255Y997D03*
X2355Y997D03*
X2355Y791D03*
X2305Y997D03*
X2405Y791D03*
X2405Y997D03*
X2255Y791D03*
X992Y776D03*
X942Y982D03*
X1042Y982D03*
X1042Y776D03*
X992Y982D03*
X1092Y776D03*
X1092Y982D03*
X942Y776D03*
X1655Y772D03*
X1605Y978D03*
X1705Y978D03*
X1705Y772D03*
X1655Y978D03*
X1755Y772D03*
X1755Y978D03*
X1605Y772D03*
G54D20*
X205Y547D03*
X205Y665D03*
X2896Y550D03*
X2896Y668D03*
X2155Y541D03*
X2155Y659D03*
X842Y526D03*
X842Y644D03*
X1505Y522D03*
X1505Y640D03*
G54D17*
X455Y627D03*
X455Y547D03*
X3155Y627D03*
X3155Y547D03*
X2405Y627D03*
X2405Y547D03*
X1092Y601D03*
X1092Y520D03*
X1755Y597D03*
X1755Y516D03*
G54D18*
X136Y991D03*
X55Y991D03*
X2826Y994D03*
X2746Y994D03*
X2086Y985D03*
X2005Y985D03*
X773Y970D03*
X692Y970D03*
X1436Y966D03*
X1355Y966D03*
G54D17*
X155Y810D03*
X155Y891D03*
X2846Y814D03*
X2846Y894D03*
X2105Y804D03*
X2105Y885D03*
X792Y789D03*
X792Y870D03*
X1455Y785D03*
X1455Y866D03*
G04 End of Mask1*
M02*