G04 MADE WITH FRITZING*
G04 WWW.FRITZING.ORG*
G04 DOUBLE SIDED*
G04 HOLES PLATED*
G04 CONTOUR ON CENTER OF CONTOUR VECTOR*
%ASAXBY*%
%FSLAX23Y23*%
%MOIN*%
%OFA0B0*%
%SFA1.0B1.0*%
%ADD10C,0.049370*%
%ADD11C,0.088000*%
%ADD12C,0.090000*%
%ADD13C,0.082917*%
%ADD14C,0.093307*%
%ADD15R,0.090000X0.090000*%
%ADD16R,0.088000X0.088000*%
%ADD17R,0.104488X0.112362*%
%ADD18R,0.088740X0.057244*%
%ADD19R,0.053307X0.057244*%
%ADD20R,0.093307X0.093307*%
%ADD21R,0.034000X0.097000*%
%ADD22R,0.057244X0.088740*%
%ADD23R,0.057244X0.053307*%
%LNMASK1*%
G90*
G70*
G54D10*
X660Y899D03*
X3252Y1067D03*
X2076Y779D03*
X1932Y227D03*
X1452Y875D03*
X3060Y1091D03*
X1116Y875D03*
X1836Y515D03*
X1884Y851D03*
X2580Y515D03*
X2484Y851D03*
X3228Y515D03*
X3252Y875D03*
X588Y515D03*
X2892Y923D03*
X3132Y923D03*
G54D11*
X1500Y1807D03*
X1500Y1707D03*
X1500Y1607D03*
X1200Y1807D03*
X1200Y1707D03*
X1200Y1607D03*
X1300Y1807D03*
X1300Y1707D03*
X1300Y1607D03*
X1400Y1807D03*
X1400Y1707D03*
X1400Y1607D03*
X1600Y1807D03*
X1600Y1707D03*
X1600Y1607D03*
G54D12*
X3550Y1671D03*
X3550Y1534D03*
X3550Y1396D03*
X3550Y1258D03*
X3550Y1120D03*
X3550Y982D03*
X3550Y845D03*
X3550Y707D03*
X1775Y1757D03*
X1912Y1757D03*
X2050Y1757D03*
X2188Y1757D03*
G54D11*
X600Y1457D03*
X600Y1557D03*
X600Y1657D03*
G54D13*
X3000Y107D03*
X1400Y107D03*
X3100Y107D03*
X3200Y107D03*
X3300Y107D03*
X3400Y107D03*
X3700Y1507D03*
X3500Y107D03*
X3600Y107D03*
X1440Y2007D03*
X2000Y107D03*
X2100Y107D03*
X2200Y107D03*
X2300Y107D03*
X3700Y707D03*
X2400Y107D03*
X2500Y107D03*
X2600Y107D03*
X2700Y107D03*
X2200Y2007D03*
X3700Y1907D03*
X3700Y1107D03*
X3700Y307D03*
X1040Y2007D03*
X1800Y107D03*
X1800Y2007D03*
X3700Y1707D03*
X3700Y1307D03*
X3700Y907D03*
X3400Y2007D03*
X3700Y507D03*
X3300Y2007D03*
X3200Y2007D03*
X3100Y2007D03*
X3000Y2007D03*
X2900Y2007D03*
X2800Y2007D03*
X2700Y2007D03*
X840Y2007D03*
X1240Y2007D03*
X1640Y2007D03*
X1200Y107D03*
X1600Y107D03*
X2400Y2007D03*
X2000Y2007D03*
X3700Y2007D03*
X3700Y1807D03*
X3700Y1607D03*
X3700Y1407D03*
X3700Y1207D03*
X3700Y1007D03*
X3700Y807D03*
X3700Y607D03*
X3700Y407D03*
X740Y2007D03*
X940Y2007D03*
X1140Y2007D03*
X1340Y2007D03*
X1540Y2007D03*
X1100Y107D03*
X1300Y107D03*
X1500Y107D03*
X1700Y107D03*
X2500Y2007D03*
X2300Y2007D03*
X2100Y2007D03*
X1900Y2007D03*
X3800Y2007D03*
X3800Y1907D03*
X3800Y1807D03*
X3800Y1707D03*
X3800Y1607D03*
X3800Y1507D03*
X3800Y1407D03*
X3800Y1307D03*
X3800Y1207D03*
X3800Y1107D03*
X3800Y1007D03*
X3800Y907D03*
X3800Y807D03*
X3800Y707D03*
X3800Y607D03*
X3800Y507D03*
X3800Y407D03*
X3800Y307D03*
X2900Y107D03*
G54D12*
X2499Y1757D03*
X2637Y1757D03*
X2775Y1757D03*
X2912Y1757D03*
X3050Y1757D03*
X3188Y1757D03*
X3326Y1757D03*
G54D14*
X150Y1907D03*
X288Y1907D03*
G54D12*
X3355Y337D03*
X3218Y337D03*
X2705Y337D03*
X2568Y337D03*
X1955Y320D03*
X1818Y320D03*
X1205Y337D03*
X1068Y337D03*
X455Y320D03*
X318Y320D03*
G54D15*
X3550Y1671D03*
X1775Y1757D03*
G54D16*
X600Y1457D03*
G54D17*
X150Y1357D03*
X150Y1609D03*
G54D18*
X260Y1731D03*
X150Y1731D03*
G54D19*
X789Y1591D03*
X789Y1658D03*
X2950Y591D03*
X2950Y524D03*
X2300Y591D03*
X2300Y524D03*
X1550Y574D03*
X1550Y507D03*
X800Y591D03*
X800Y524D03*
X50Y574D03*
X50Y507D03*
X3150Y1057D03*
X3150Y1124D03*
X2500Y1057D03*
X2500Y1124D03*
X1750Y1040D03*
X1750Y1107D03*
X1000Y1057D03*
X1000Y1124D03*
X250Y1040D03*
X250Y1107D03*
G54D15*
X2499Y1757D03*
G54D20*
X150Y1907D03*
G54D19*
X3400Y591D03*
X3400Y524D03*
X2750Y591D03*
X2750Y524D03*
X2000Y574D03*
X2000Y507D03*
X1250Y591D03*
X1250Y524D03*
X500Y574D03*
X500Y507D03*
X2950Y841D03*
X2950Y774D03*
X2300Y841D03*
X2300Y774D03*
X1550Y824D03*
X1550Y757D03*
X800Y841D03*
X800Y774D03*
X50Y824D03*
X50Y757D03*
G54D15*
X3355Y337D03*
X2705Y337D03*
X1955Y320D03*
X1205Y337D03*
X455Y320D03*
G54D21*
X3268Y763D03*
X3218Y969D03*
X3318Y969D03*
X3318Y763D03*
X3268Y969D03*
X3368Y763D03*
X3368Y969D03*
X3218Y763D03*
X2618Y763D03*
X2568Y969D03*
X2668Y969D03*
X2668Y763D03*
X2618Y969D03*
X2718Y763D03*
X2718Y969D03*
X2568Y763D03*
X1868Y746D03*
X1818Y952D03*
X1918Y952D03*
X1918Y746D03*
X1868Y952D03*
X1968Y746D03*
X1968Y952D03*
X1818Y746D03*
X1118Y763D03*
X1068Y969D03*
X1168Y969D03*
X1168Y763D03*
X1118Y969D03*
X1218Y763D03*
X1218Y969D03*
X1068Y763D03*
X368Y746D03*
X318Y952D03*
X418Y952D03*
X418Y746D03*
X368Y952D03*
X468Y746D03*
X468Y952D03*
X318Y746D03*
G54D22*
X3300Y524D03*
X3300Y634D03*
X2650Y524D03*
X2650Y634D03*
X1900Y507D03*
X1900Y617D03*
X1150Y524D03*
X1150Y634D03*
X400Y507D03*
X400Y617D03*
G54D19*
X3150Y591D03*
X3150Y524D03*
X2500Y591D03*
X2500Y524D03*
X1750Y574D03*
X1750Y507D03*
X1000Y591D03*
X1000Y524D03*
X250Y574D03*
X250Y507D03*
G54D23*
X3030Y965D03*
X2964Y965D03*
X2380Y965D03*
X2314Y965D03*
X1630Y948D03*
X1564Y948D03*
X880Y965D03*
X814Y965D03*
X131Y948D03*
X64Y948D03*
G54D19*
X3050Y807D03*
X3050Y874D03*
X2400Y807D03*
X2400Y874D03*
X1650Y790D03*
X1650Y857D03*
X900Y807D03*
X900Y874D03*
X150Y790D03*
X150Y857D03*
G04 End of Mask1*
M02*