G04 MADE WITH FRITZING*
G04 WWW.FRITZING.ORG*
G04 DOUBLE SIDED*
G04 HOLES PLATED*
G04 CONTOUR ON CENTER OF CONTOUR VECTOR*
%ASAXBY*%
%FSLAX23Y23*%
%MOIN*%
%OFA0B0*%
%SFA1.0B1.0*%
%ADD10C,0.088000*%
%ADD11C,0.049370*%
%ADD12C,0.090000*%
%ADD13C,0.082917*%
%ADD14R,0.090000X0.090000*%
%ADD15R,0.088000X0.088000*%
%LNMASK0*%
G90*
G70*
G54D10*
X1455Y1847D03*
X1455Y1747D03*
X1455Y1647D03*
X1155Y1847D03*
X1155Y1747D03*
X1155Y1647D03*
X1255Y1847D03*
X1255Y1747D03*
X1255Y1647D03*
X1355Y1847D03*
X1355Y1747D03*
X1355Y1647D03*
X1555Y1847D03*
X1555Y1747D03*
X1555Y1647D03*
G54D11*
X1572Y539D03*
X1788Y683D03*
X2244Y539D03*
X2316Y899D03*
X924Y515D03*
X996Y875D03*
X276Y539D03*
X348Y899D03*
X2988Y539D03*
X3036Y899D03*
X276Y1499D03*
X60Y971D03*
X612Y899D03*
X2676Y899D03*
X1908Y611D03*
X1068Y899D03*
X3108Y899D03*
X1980Y731D03*
X2244Y1211D03*
X1164Y275D03*
X2580Y371D03*
X2580Y611D03*
X708Y1307D03*
X516Y707D03*
X276Y1235D03*
G54D12*
X3505Y1711D03*
X3505Y1573D03*
X3505Y1436D03*
X3505Y1298D03*
X3505Y1160D03*
X3505Y1022D03*
X3505Y884D03*
X3505Y747D03*
X1730Y1797D03*
X1868Y1797D03*
X2005Y1797D03*
X2143Y1797D03*
G54D10*
X555Y1497D03*
X555Y1597D03*
X555Y1697D03*
G54D13*
X3005Y97D03*
X1405Y97D03*
X3105Y97D03*
X3205Y97D03*
X3305Y97D03*
X3405Y97D03*
X3705Y1497D03*
X3505Y97D03*
X3605Y97D03*
X1445Y1997D03*
X2005Y97D03*
X2105Y97D03*
X2205Y97D03*
X2305Y97D03*
X3705Y697D03*
X2405Y97D03*
X2505Y97D03*
X2605Y97D03*
X2705Y97D03*
X2205Y1997D03*
X3705Y1897D03*
X3705Y1097D03*
X3705Y297D03*
X1045Y1997D03*
X1805Y97D03*
X1805Y1997D03*
X3705Y1697D03*
X3705Y1297D03*
X3705Y897D03*
X3405Y1997D03*
X3705Y497D03*
X3305Y1997D03*
X3205Y1997D03*
X3105Y1997D03*
X3005Y1997D03*
X2905Y1997D03*
X2805Y1997D03*
X2705Y1997D03*
X845Y1997D03*
X1245Y1997D03*
X1645Y1997D03*
X1205Y97D03*
X1605Y97D03*
X2405Y1997D03*
X2005Y1997D03*
X3705Y1997D03*
X3705Y1797D03*
X3705Y1597D03*
X3705Y1397D03*
X3705Y1197D03*
X3705Y997D03*
X3705Y797D03*
X3705Y597D03*
X3705Y397D03*
X745Y1997D03*
X945Y1997D03*
X1145Y1997D03*
X1345Y1997D03*
X1545Y1997D03*
X1105Y97D03*
X1305Y97D03*
X1505Y97D03*
X1705Y97D03*
X2505Y1997D03*
X2305Y1997D03*
X2105Y1997D03*
X1905Y1997D03*
X3805Y1997D03*
X3805Y1897D03*
X3805Y1797D03*
X3805Y1697D03*
X3805Y1597D03*
X3805Y1497D03*
X3805Y1397D03*
X3805Y1297D03*
X3805Y1197D03*
X3805Y1097D03*
X3805Y997D03*
X3805Y897D03*
X3805Y797D03*
X3805Y697D03*
X3805Y597D03*
X3805Y497D03*
X3805Y397D03*
X3805Y297D03*
X2905Y97D03*
G54D12*
X2454Y1797D03*
X2592Y1797D03*
X2730Y1797D03*
X2868Y1797D03*
X3005Y1797D03*
X3143Y1797D03*
X3281Y1797D03*
X105Y1947D03*
X243Y1947D03*
X443Y347D03*
X305Y347D03*
X3143Y347D03*
X3005Y347D03*
X2393Y347D03*
X2255Y347D03*
X1061Y355D03*
X923Y355D03*
X1743Y347D03*
X1605Y347D03*
G54D14*
X3505Y1711D03*
X1730Y1797D03*
G54D15*
X555Y1497D03*
G54D14*
X2454Y1797D03*
X105Y1947D03*
X443Y347D03*
X3143Y347D03*
X2393Y347D03*
X1061Y355D03*
X1743Y347D03*
G04 End of Mask0*
M02*