; NON-PLATED HOLES START AT T1
; THROUGH (PLATED) HOLES START AT T100
M48
INCH
T100C0.038194
T101C0.038000
T102C0.015748
T103C0.040000
%
T100
X038053Y015965
X014453Y019965
X037053Y005965
X020053Y000965
X024053Y000965
X038053Y010965
X016053Y000965
X032053Y019965
X037053Y010965
X034053Y019965
X023053Y000965
X031053Y000965
X018053Y019965
X038053Y007965
X038053Y004965
X007453Y019965
X037053Y013965
X012453Y019965
X022053Y000965
X034053Y000965
X009453Y019965
X037053Y012965
X035053Y000965
X021053Y000965
X011453Y019965
X030053Y000965
X037053Y017965
X016453Y019965
X019053Y019965
X025053Y019965
X038053Y003965
X037053Y007965
X038053Y014965
X013053Y000965
X027053Y000965
X032053Y000965
X037053Y002965
X038053Y008965
X013453Y019965
X024053Y019965
X038053Y002965
X028053Y019965
X029053Y019965
X037053Y006965
X037053Y014965
X022053Y019965
X038053Y016965
X037053Y011965
X021053Y019965
X027053Y019965
X038053Y013965
X026053Y000965
X037053Y003965
X030053Y019965
X037053Y008965
X008453Y019965
X012053Y000965
X038053Y005965
X038053Y012965
X025053Y000965
X010453Y019965
X038053Y006965
X037053Y004965
X020053Y019965
X038053Y018965
X036053Y000965
X033053Y000965
X038053Y009965
X029053Y000965
X017053Y000965
X015053Y000965
X037053Y009965
X037053Y015965
X014053Y000965
X015453Y019965
X031053Y019965
X037053Y016965
X023053Y019965
X037053Y019965
X018053Y000965
X038053Y017965
X011053Y000965
X038053Y019965
X037053Y018965
X038053Y011965
X033053Y019965
T101
X013553Y017465
X014553Y017465
X015553Y016465
X011553Y016465
X013553Y018465
X013553Y016465
X014553Y016465
X015553Y017465
X005553Y016965
X005553Y015965
X012553Y017465
X011553Y018465
X012553Y016465
X014553Y018465
X015553Y018465
X012553Y018465
X011553Y017465
X005553Y014965
T102
X003480Y008990
X026760Y008990
X022440Y005390
X006120Y008990
X030360Y008990
X015720Y005390
X025800Y003710
X005160Y007070
X023160Y008990
X000600Y009710
X002760Y012350
X011640Y002750
X025800Y006110
X017880Y006830
X031080Y008990
X009240Y005150
X019080Y006110
X007080Y013070
X019800Y007310
X029880Y005390
X002760Y005390
X022440Y012110
X009960Y008750
X010680Y008990
X002760Y014990
T103
X032809Y017965
X035053Y014355
X035053Y011599
X020053Y017965
X035053Y012977
X009234Y003549
X024541Y017965
X027297Y017965
X017431Y003465
X030053Y017965
X018675Y017965
X035053Y008843
X004431Y003465
X022553Y003465
X003053Y003465
X021431Y017965
X002431Y019465
X016053Y003465
X001053Y019465
X031431Y003465
X023931Y003465
X030053Y003465
X035053Y017111
X031431Y017965
X028675Y017965
X035053Y007465
X035053Y015733
X017297Y017965
X010612Y003549
X035053Y010221
X025919Y017965
T00
M30
