G04 MADE WITH FRITZING*
G04 WWW.FRITZING.ORG*
G04 DOUBLE SIDED*
G04 HOLES PLATED*
G04 CONTOUR ON CENTER OF CONTOUR VECTOR*
%ASAXBY*%
%FSLAX23Y23*%
%MOIN*%
%OFA0B0*%
%SFA1.0B1.0*%
%ADD10C,0.039370*%
%ADD11C,0.078000*%
%ADD12C,0.080000*%
%ADD13C,0.072917*%
%ADD14C,0.083307*%
%ADD15R,0.080000X0.080000*%
%ADD16R,0.078000X0.078000*%
%ADD17R,0.083307X0.083307*%
%ADD18C,0.024000*%
%LNCOPPER0*%
G90*
G70*
G54D10*
X660Y899D03*
X3252Y1067D03*
X2076Y779D03*
X1932Y227D03*
X1452Y875D03*
X3060Y1091D03*
X1116Y875D03*
X1836Y515D03*
X1884Y851D03*
X2580Y515D03*
X2484Y851D03*
X3228Y515D03*
X3252Y875D03*
X588Y515D03*
X2892Y923D03*
X3132Y923D03*
G54D11*
X1500Y1807D03*
X1500Y1707D03*
X1500Y1607D03*
X1200Y1807D03*
X1200Y1707D03*
X1200Y1607D03*
X1300Y1807D03*
X1300Y1707D03*
X1300Y1607D03*
X1400Y1807D03*
X1400Y1707D03*
X1400Y1607D03*
X1600Y1807D03*
X1600Y1707D03*
X1600Y1607D03*
G54D12*
X3550Y1671D03*
X3550Y1534D03*
X3550Y1396D03*
X3550Y1258D03*
X3550Y1120D03*
X3550Y982D03*
X3550Y845D03*
X3550Y707D03*
X1775Y1757D03*
X1912Y1757D03*
X2050Y1757D03*
X2188Y1757D03*
G54D11*
X600Y1457D03*
X600Y1557D03*
X600Y1657D03*
G54D13*
X3000Y107D03*
X1400Y107D03*
X3100Y107D03*
X3200Y107D03*
X3300Y107D03*
X3400Y107D03*
X3700Y1507D03*
X3500Y107D03*
X3600Y107D03*
X1440Y2007D03*
X2000Y107D03*
X2100Y107D03*
X2200Y107D03*
X2300Y107D03*
X3700Y707D03*
X2400Y107D03*
X2500Y107D03*
X2600Y107D03*
X2700Y107D03*
X2200Y2007D03*
X3700Y1907D03*
X3700Y1107D03*
X3700Y307D03*
X1040Y2007D03*
X1800Y107D03*
X1800Y2007D03*
X3700Y1707D03*
X3700Y1307D03*
X3700Y907D03*
X3400Y2007D03*
X3700Y507D03*
X3300Y2007D03*
X3200Y2007D03*
X3100Y2007D03*
X3000Y2007D03*
X2900Y2007D03*
X2800Y2007D03*
X2700Y2007D03*
X840Y2007D03*
X1240Y2007D03*
X1640Y2007D03*
X1200Y107D03*
X1600Y107D03*
X2400Y2007D03*
X2000Y2007D03*
X3700Y2007D03*
X3700Y1807D03*
X3700Y1607D03*
X3700Y1407D03*
X3700Y1207D03*
X3700Y1007D03*
X3700Y807D03*
X3700Y607D03*
X3700Y407D03*
X740Y2007D03*
X940Y2007D03*
X1140Y2007D03*
X1340Y2007D03*
X1540Y2007D03*
X1100Y107D03*
X1300Y107D03*
X1500Y107D03*
X1700Y107D03*
X2500Y2007D03*
X2300Y2007D03*
X2100Y2007D03*
X1900Y2007D03*
X3800Y2007D03*
X3800Y1907D03*
X3800Y1807D03*
X3800Y1707D03*
X3800Y1607D03*
X3800Y1507D03*
X3800Y1407D03*
X3800Y1307D03*
X3800Y1207D03*
X3800Y1107D03*
X3800Y1007D03*
X3800Y907D03*
X3800Y807D03*
X3800Y707D03*
X3800Y607D03*
X3800Y507D03*
X3800Y407D03*
X3800Y307D03*
X2900Y107D03*
G54D12*
X2499Y1757D03*
X2637Y1757D03*
X2775Y1757D03*
X2912Y1757D03*
X3050Y1757D03*
X3188Y1757D03*
X3326Y1757D03*
G54D14*
X150Y1907D03*
X288Y1907D03*
G54D12*
X3355Y337D03*
X3218Y337D03*
X2705Y337D03*
X2568Y337D03*
X1955Y320D03*
X1818Y320D03*
X1205Y337D03*
X1068Y337D03*
X455Y320D03*
X318Y320D03*
G54D15*
X3550Y1671D03*
X1775Y1757D03*
G54D16*
X600Y1457D03*
G54D15*
X2499Y1757D03*
G54D17*
X150Y1907D03*
G54D15*
X3355Y337D03*
X2705Y337D03*
X1955Y320D03*
X1205Y337D03*
X455Y320D03*
G54D18*
X1192Y1836D02*
X1149Y1978D01*
D02*
X1292Y1836D02*
X1249Y1978D01*
D02*
X1449Y1978D02*
X1492Y1836D01*
D02*
X1392Y1836D02*
X1349Y1978D01*
D02*
X3571Y1143D02*
X3612Y1187D01*
D02*
X3612Y1187D02*
X3636Y1667D01*
D02*
X3636Y1667D02*
X3675Y1691D01*
D02*
X3524Y1413D02*
X3468Y1451D01*
D02*
X3468Y1451D02*
X3468Y1739D01*
D02*
X3468Y1739D02*
X3671Y1798D01*
D02*
X466Y350D02*
X654Y881D01*
D02*
X3354Y368D02*
X3324Y971D01*
D02*
X3324Y971D02*
X3263Y1052D01*
D02*
X1963Y351D02*
X2071Y761D01*
D02*
X2079Y128D02*
X1980Y227D01*
D02*
X1980Y227D02*
X1951Y227D01*
D02*
X1218Y366D02*
X1444Y858D01*
D02*
X1270Y1607D02*
X1230Y1607D01*
D02*
X1370Y1607D02*
X1330Y1607D01*
D02*
X1470Y1607D02*
X1430Y1607D01*
D02*
X1570Y1607D02*
X1530Y1607D01*
D02*
X1048Y1978D02*
X1140Y1643D01*
D02*
X1140Y1643D02*
X1174Y1622D01*
D02*
X3525Y964D02*
X3468Y923D01*
D02*
X3468Y923D02*
X3468Y827D01*
D02*
X3468Y827D02*
X3533Y733D01*
D02*
X3523Y1243D02*
X3468Y1211D01*
D02*
X3468Y1211D02*
X3468Y1091D01*
D02*
X3468Y1091D02*
X3531Y1007D01*
D02*
X3079Y1095D02*
X3180Y1115D01*
D02*
X3180Y1115D02*
X3300Y1115D01*
D02*
X3300Y1115D02*
X3468Y923D01*
D02*
X1370Y1707D02*
X1330Y1707D01*
D02*
X1570Y1707D02*
X1530Y1707D01*
D02*
X1129Y889D02*
X1668Y1499D01*
D02*
X1668Y1499D02*
X1668Y1667D01*
D02*
X1668Y1667D02*
X1626Y1692D01*
D02*
X1827Y498D02*
X1692Y251D01*
D02*
X1692Y251D02*
X1140Y251D01*
D02*
X1140Y251D02*
X1117Y856D01*
D02*
X1782Y131D02*
X1692Y251D01*
D02*
X1881Y832D02*
X1839Y534D01*
D02*
X2568Y530D02*
X2340Y815D01*
D02*
X2340Y815D02*
X1903Y850D01*
D02*
X2466Y846D02*
X2340Y815D01*
D02*
X3209Y515D02*
X2599Y515D01*
D02*
X3251Y856D02*
X3229Y534D01*
D02*
X607Y515D02*
X1140Y515D01*
D02*
X1140Y515D02*
X1140Y251D01*
D02*
X2498Y1726D02*
X2484Y870D01*
D02*
X2911Y923D02*
X3113Y923D01*
D02*
X3250Y1858D02*
X3290Y1978D01*
D02*
X2850Y1858D02*
X3250Y1858D01*
D02*
X2793Y1782D02*
X2850Y1858D01*
G04 End of Copper0*
M02*