<?xml version="1.0" encoding="UTF-8" standalone="no"?>
<svg
   xmlns:dc="http://purl.org/dc/elements/1.1/"
   xmlns:cc="http://creativecommons.org/ns#"
   xmlns:rdf="http://www.w3.org/1999/02/22-rdf-syntax-ns#"
   xmlns:svg="http://www.w3.org/2000/svg"
   xmlns="http://www.w3.org/2000/svg"
   xmlns:sodipodi="http://sodipodi.sourceforge.net/DTD/sodipodi-0.dtd"
   xmlns:inkscape="http://www.inkscape.org/namespaces/inkscape"
   width="185.73984mm"
   height="112.04153mm"
   version="1.1"
   id="svg1765"
   sodipodi:docname="lcd panel 2.svg"
   viewBox="0 0 702.00885 423.46405"
   inkscape:version="0.92.2 (5c3e80d, 2017-08-06)">
  <metadata
     id="metadata1769">
    <rdf:RDF>
      <cc:Work
         rdf:about="">
        <dc:format>image/svg+xml</dc:format>
        <dc:type
           rdf:resource="http://purl.org/dc/dcmitype/StillImage" />
        <dc:title></dc:title>
      </cc:Work>
    </rdf:RDF>
  </metadata>
  <sodipodi:namedview
     pagecolor="#ffffff"
     bordercolor="#666666"
     borderopacity="1"
     objecttolerance="10"
     gridtolerance="10"
     guidetolerance="10"
     inkscape:pageopacity="0"
     inkscape:pageshadow="2"
     inkscape:window-width="1920"
     inkscape:window-height="986"
     id="namedview1767"
     showgrid="false"
     units="mm"
     inkscape:document-units="mm"
     fit-margin-top="0"
     fit-margin-left="0"
     fit-margin-right="0"
     fit-margin-bottom="0"
     scale-x="1"
     inkscape:zoom="1.1893044"
     inkscape:cx="521.10591"
     inkscape:cy="200.59343"
     inkscape:window-x="-11"
     inkscape:window-y="-11"
     inkscape:window-maximized="1"
     inkscape:current-layer="g1763" />
  <desc
     id="desc1348">C:\Users\Robert\Documents\GitHub\Project_Bottle_Recycle\design\standard screw parts\lcd panel 2.DXF - scale = 1.000000, origin = (0.000000, 0.000000), method = file</desc>
  <defs
     id="defs1363">
    <marker
       id="DistanceX"
       orient="auto"
       refX="0"
       refY="0"
       style="overflow:visible">
      <path
         d="M 3,-3 -3,3 M 0,-5 V 5"
         style="stroke:#000000;stroke-width:0.5"
         id="path1350"
         inkscape:connector-curvature="0" />
    </marker>
    <pattern
       height="8"
       id="Hatch"
       patternUnits="userSpaceOnUse"
       width="8"
       x="0"
       y="0">
      <path
         d="M8 4 l-4,4"
         linecap="square"
         stroke="#000000"
         stroke-width="0.25"
         id="path1353" />
      <path
         d="M6 2 l-4,4"
         linecap="square"
         stroke="#000000"
         stroke-width="0.25"
         id="path1355" />
      <path
         d="M4 0 l-4,4"
         linecap="square"
         stroke="#000000"
         stroke-width="0.25"
         id="path1357" />
    </pattern>
    <symbol
       id="*Model_Space" />
    <symbol
       id="*Paper_Space" />
    <symbol
       id="*Paper_Space0" />
  </defs>
  <g
     inkscape:groupmode="layer"
     inkscape:label="0"
     id="g1763"
     transform="translate(0.45640911,-910.78768)">
    <path
       d="m 16.761383,1317.455 c -0.014,0.4049 -0.028,0.8098 -0.07189,1.2119 -0.04298,0.3937 -0.11461,0.7846 -0.205409,1.1708 -0.0916,0.3897 -0.202703,0.7745 -0.338925,1.1503 -0.137416,0.3791 -0.300393,0.7491 -0.482712,1.1092 -0.184513,0.3645 -0.388836,0.7189 -0.616227,1.0579 -0.228548,0.3407 -0.480399,0.6659 -0.749743,0.9757 -0.279799,0.3218 -0.578476,0.6269 -0.89353,0.914 -0.329324,0.3002 -0.676542,0.5807 -1.037316,0.8422 -0.376901,0.2732 -0.768598,0.5256 -1.170832,0.76 -0.423584,0.2469 -0.858854,0.4737 -1.304348,0.6779 -0.473381,0.2169 -0.958306,0.4082 -1.448134,0.5854 -0.521481,0.1887 -1.048519,0.3614 -1.58165,0.5135 -0.562231,0.1605 -1.131238,0.298 -1.704895,0.4108 -0.612002,0.1205 -1.229296,0.2128 -1.848682,0.2876 -0.655382,0.079 -1.313107,0.1386 -1.971928,0.1746 -0.444659,0.024 -0.889818,0.038 -1.335159,0.047"
       style="fill:none;stroke:#000000;stroke-width:0.89999998;stroke-linecap:round"
       id="path1365"
       inkscape:connector-curvature="0" />
    <path
       d="m 4.621705,1308.2527 c 0.448871,0.018 0.897742,0.037 1.34543,0.072 0.42585,0.034 0.85063,0.082 1.273536,0.1438 0.406186,0.059 0.810644,0.1299 1.211914,0.2157 0.386515,0.083 0.770072,0.1792 1.150291,0.2876 0.363489,0.1036 0.723927,0.2181 1.078398,0.3492 0.338224,0.125 0.671016,0.2651 0.996234,0.4211 0.312277,0.1497 0.617572,0.3141 0.91407,0.493 0.285448,0.1721 0.562742,0.3576 0.831907,0.5546 0.263409,0.1927 0.519031,0.3963 0.760014,0.6162 0.232551,0.2121 0.451469,0.4394 0.657309,0.6778 0.205998,0.2387 0.398897,0.4886 0.575145,0.7498 0.173468,0.257 0.330807,0.525 0.472441,0.8011 0.143564,0.2798 0.270992,0.5678 0.380007,0.8627 0.111598,0.3018 0.2039,0.6108 0.277303,0.9243 0.07603,0.3248 0.13178,0.6545 0.164327,0.986 0.03415,0.3479 0.04275,0.6977 0.05135,1.0476"
       style="fill:none;stroke:#0000ff;stroke-width:0.89999998;stroke-linecap:round;stroke-opacity:1"
       id="path1367"
       inkscape:connector-curvature="0" />
    <path
       d="m 12.817528,1290.9367 c -0.0113,0.4798 -0.0226,0.9597 -0.06162,1.4378 -0.03683,0.4512 -0.09834,0.9008 -0.184869,1.3455 -0.08301,0.4265 -0.189034,0.8485 -0.318384,1.2632 -0.125199,0.4015 -0.272246,0.7962 -0.441629,1.1811 -0.164122,0.373 -0.349213,0.7368 -0.554605,1.0887 -0.200642,0.3437 -0.420658,0.676 -0.657309,0.9962 -0.232836,0.3151 -0.481775,0.6183 -0.749743,0.9038 -0.270255,0.288 -0.559864,0.5578 -0.862719,0.8114 -0.30571,0.256 -0.624917,0.4955 -0.955152,0.7189 -0.33475,0.2265 -0.680832,0.4364 -1.037316,0.6265 -0.370337,0.1976 -0.7519,0.3738 -1.14002,0.5341 -0.400641,0.1654 -0.808268,0.3138 -1.222185,0.4416 -0.429248,0.1326 -0.86526,0.2431 -1.304347,0.3389 -0.452241,0.099 -0.907745,0.1819 -1.365971,0.2465 -0.477045,0.067 -0.95704,0.1147 -1.437864,0.1438 -0.174501,0.011 -0.349112,0.019 -0.523793,0.025"
       style="fill:none;stroke:#0000ff;stroke-width:0.89999998;stroke-linecap:round;stroke-opacity:1"
       id="path1369"
       inkscape:connector-curvature="0" />
    <path
       d="m 11.05101,1285.3187 c 0.292328,0.4317 0.584656,0.8633 0.821636,1.3249 0.227878,0.4439 0.404579,0.9155 0.544334,1.3968 0.135955,0.4682 0.236947,0.9457 0.297844,1.4276 0.06148,0.4865 0.08209,0.9776 0.102704,1.4687"
       style="fill:none;stroke:#0000ff;stroke-width:0.89999998;stroke-linecap:round;stroke-opacity:1"
       id="path1371"
       inkscape:connector-curvature="0" />
    <path
       d="m 0,1278.7627 c 0.215796,0.01 0.431499,0.013 0.647039,0.024 0.48343,0.024 0.966041,0.063 1.448134,0.113 0.457966,0.047 0.915465,0.1043 1.36597,0.1951 0.414771,0.084 0.823613,0.1959 1.232455,0.3081"
       style="fill:none;stroke:#0000ff;stroke-width:0.89999998;stroke-linecap:round;stroke-opacity:1"
       id="path1373"
       inkscape:connector-curvature="0" />
    <path
       d="m 38.80178,1275.4591 c -0.385379,-0.023 -0.770759,-0.046 -1.150291,-0.113 -0.369218,-0.065 -0.732902,-0.1718 -1.078398,-0.3184 -0.33472,-0.142 -0.652369,-0.3216 -0.955152,-0.5238 -0.296473,-0.1979 -0.578693,-0.4176 -0.831907,-0.6675 -0.251317,-0.2481 -0.474062,-0.5259 -0.667579,-0.8217 -0.19735,-0.3016 -0.364303,-0.6219 -0.503253,-0.9551 -0.140916,-0.338 -0.253032,-0.6892 -0.318384,-1.0476 -0.0671,-0.3681 -0.0849,-0.7438 -0.102704,-1.1195"
       style="fill:none;stroke:#0000ff;stroke-width:0.89999998;stroke-linecap:round;stroke-opacity:1"
       id="path1375"
       inkscape:connector-curvature="0" />
    <path
       d="m 44.368367,1269.8925 c -0.01773,0.3758 -0.03547,0.7516 -0.102705,1.1195 -0.06549,0.3583 -0.177938,0.7092 -0.318384,1.0476 -0.138486,0.3336 -0.304192,0.6551 -0.503252,0.9551 -0.196394,0.296 -0.425253,0.5711 -0.67785,0.8217 -0.249168,0.2471 -0.521434,0.4703 -0.811366,0.6675 -0.300595,0.2046 -0.620179,0.3812 -0.955152,0.5238 -0.336681,0.1434 -0.688908,0.2524 -1.047587,0.3184 -0.378637,0.07 -0.764464,0.091 -1.150291,0.113"
       style="fill:none;stroke:#0000ff;stroke-width:0.89999998;stroke-linecap:round;stroke-opacity:1"
       id="path1377"
       inkscape:connector-curvature="0" />
    <path
       d="m 38.80178,1264.2848 c 0.386394,0.02 0.772788,0.04 1.150291,0.113 0.358594,0.069 0.709166,0.1852 1.047587,0.3287 0.334264,0.1416 0.656673,0.3098 0.955152,0.5135 0.292816,0.1998 0.562601,0.4338 0.811366,0.6881 0.250923,0.2565 0.48046,0.5337 0.67785,0.8319 0.198588,0.3001 0.364637,0.6215 0.503252,0.9552 0.140577,0.3383 0.252938,0.6892 0.318384,1.0476 0.06781,0.3712 0.08526,0.7505 0.102705,1.1297"
       style="fill:none;stroke:#0000ff;stroke-width:0.89999998;stroke-linecap:round;stroke-opacity:1"
       id="path1379"
       inkscape:connector-curvature="0" />
    <path
       d="m 33.194112,1269.8925 c 0.01752,-0.3792 0.03504,-0.7584 0.102704,-1.1297 0.06531,-0.3585 0.177333,-0.7097 0.318384,-1.0476 0.139083,-0.3332 0.306388,-0.6535 0.503253,-0.9552 0.194498,-0.298 0.417849,-0.5779 0.667579,-0.8319 0.252768,-0.2571 0.532559,-0.4876 0.831907,-0.6881 0.300686,-0.2014 0.621103,-0.3726 0.955152,-0.5135 0.347271,-0.1466 0.709275,-0.2606 1.078398,-0.3287 0.378442,-0.07 0.764366,-0.091 1.150291,-0.113"
       style="fill:none;stroke:#0000ff;stroke-width:0.89999998;stroke-linecap:round;stroke-opacity:1"
       id="path1381"
       inkscape:connector-curvature="0" />
    <path
       d="m 81.557686,1278.7456 c 0.438964,0.01 0.877928,0.014 1.314618,0.051 0.409795,0.035 0.817587,0.097 1.222184,0.1746 0.384499,0.074 0.766112,0.1628 1.140021,0.2773 0.356272,0.109 0.70555,0.2414 1.047586,0.3903 0.330242,0.1437 0.653734,0.3028 0.965423,0.4827 0.305993,0.1765 0.600609,0.3731 0.883259,0.5854 0.276054,0.2074 0.540694,0.4298 0.790825,0.6676 0.25466,0.2421 0.494282,0.5001 0.718932,0.7703 0.226859,0.2728 0.43845,0.558 0.636768,0.8524 0.200916,0.2982 0.38821,0.6059 0.554605,0.9243 0.173848,0.3328 0.324883,0.6774 0.46217,1.0271 0.141742,0.3611 0.268829,0.7276 0.380007,1.0989 0.115513,0.3859 0.213851,0.7769 0.297843,1.1709 0.08769,0.4113 0.159745,0.8259 0.21568,1.2427 0.0581,0.4329 0.09881,0.8683 0.123245,1.3043 0.02568,0.4583 0.03338,0.9173 0.04108,1.3763"
       style="fill:none;stroke:#0000ff;stroke-width:0.89999998;stroke-linecap:round;stroke-opacity:1"
       id="path1383"
       inkscape:connector-curvature="0" />
    <path
       d="m 70.38343,1284.6409 c 0.361139,-0.4291 0.722277,-0.8581 1.098939,-1.2736 0.364277,-0.4017 0.743073,-0.7907 1.140021,-1.1605 0.385998,-0.3596 0.789161,-0.7011 1.211913,-1.0168 0.416406,-0.3109 0.851819,-0.5969 1.304348,-0.8524 0.45358,-0.2562 0.924355,-0.4819 1.407053,-0.6779 0.491847,-0.1997 0.996072,-0.3686 1.509756,-0.5032 0.542923,-0.1423 1.096412,-0.2462 1.653544,-0.3082 0.613284,-0.068 1.230983,-0.085 1.848682,-0.1027"
       style="fill:none;stroke:#0000ff;stroke-width:0.89999998;stroke-linecap:round;stroke-opacity:1"
       id="path1385"
       inkscape:connector-curvature="0" />
    <path
       d="m 79.524136,1285.976 c -0.354868,0.023 -0.709736,0.047 -1.057857,0.113 -0.351849,0.067 -0.696807,0.1768 -1.027046,0.3184 -0.355709,0.1525 -0.694341,0.3416 -1.016775,0.5546 -0.346569,0.229 -0.674424,0.4857 -0.985964,0.76 -0.343537,0.3025 -0.667235,0.6265 -0.985963,0.9552 -0.347616,0.3584 -0.68932,0.7224 -1.016775,1.0989 -0.359251,0.413 -0.701351,0.841 -1.037316,1.2735 -0.364275,0.469 -0.721337,0.9432 -1.078398,1.4174"
       style="fill:none;stroke:#0000ff;stroke-width:0.89999998;stroke-linecap:round;stroke-opacity:1"
       id="path1387"
       inkscape:connector-curvature="0" />
    <path
       d="m 83.806915,1291.7994 c -0.01397,-0.456 -0.02793,-0.912 -0.07189,-1.366 -0.03847,-0.3973 -0.09992,-0.7932 -0.195138,-1.1811 -0.08447,-0.3441 -0.195528,-0.6819 -0.338925,-1.0065 -0.126079,-0.2854 -0.27716,-0.5605 -0.462171,-0.8114 -0.174162,-0.2361 -0.378391,-0.4507 -0.605957,-0.6367 -0.225757,-0.1845 -0.474481,-0.3409 -0.739473,-0.4622 -0.274435,-0.1256 -0.566317,-0.2136 -0.862718,-0.267 -0.331728,-0.06 -0.669116,-0.076 -1.006504,-0.092"
       style="fill:none;stroke:#0000ff;stroke-width:0.89999998;stroke-linecap:round;stroke-opacity:1"
       id="path1389"
       inkscape:connector-curvature="0" />
    <path
       d="m 117.53509,1315.5549 c -0.65802,-0.013 -1.31604,-0.025 -1.97193,-0.072 -0.62204,-0.044 -1.24216,-0.1195 -1.85895,-0.2157 -0.59348,-0.093 -1.18387,-0.2047 -1.76652,-0.3492 -0.55926,-0.1387 -1.11139,-0.3073 -1.65354,-0.5033 -0.52412,-0.1894 -1.03892,-0.4045 -1.54057,-0.647 -0.48577,-0.2348 -0.95921,-0.4954 -1.41732,-0.7806 -0.45096,-0.2807 -0.88707,-0.5853 -1.30435,-0.914 -0.41361,-0.3259 -0.80872,-0.6754 -1.1811,-1.0476 -0.37238,-0.3723 -0.72203,-0.7673 -1.04759,-1.1811 -0.33313,-0.4235 -0.64105,-0.8666 -0.92434,-1.3249 -0.28935,-0.4681 -0.553,-0.9519 -0.79082,-1.4481 -0.24688,-0.5151 -0.46591,-1.0435 -0.65731,-1.5817 -0.20008,-0.5625 -0.36996,-1.1357 -0.51353,-1.7152 -0.15036,-0.6069 -0.27185,-1.2207 -0.36973,-1.8384 -0.1036,-0.6538 -0.18076,-1.3119 -0.22595,-1.9719 -0.048,-0.7005 -0.0599,-1.403 -0.0719,-2.1054"
       style="fill:none;stroke:#0000ff;stroke-width:0.89999998;stroke-linecap:round;stroke-opacity:1"
       id="path1391"
       inkscape:connector-curvature="0" />
    <path
       d="m 130.47586,1313.583 c -0.47134,0.1409 -0.94268,0.2818 -1.41732,0.4108 -0.51358,0.1397 -1.03103,0.2655 -1.55084,0.38 -0.539,0.1188 -1.08055,0.2255 -1.62273,0.3287 -0.55019,0.1048 -1.10104,0.206 -1.65354,0.2978 -0.55978,0.093 -1.12126,0.1764 -1.68436,0.2465 -0.5669,0.071 -1.13545,0.1277 -1.70489,0.1746 -0.55729,0.046 -1.11544,0.082 -1.67409,0.1027 -0.54401,0.02 -1.08851,0.025 -1.633,0.031"
       style="fill:none;stroke:#0000ff;stroke-width:0.89999998;stroke-linecap:round;stroke-opacity:1"
       id="path1393"
       inkscape:connector-curvature="0" />
    <path
       d="m 118.76754,1308.9819 c 0.89796,-0.023 1.79592,-0.045 2.69087,-0.113 0.95921,-0.073 1.91496,-0.1972 2.86545,-0.3492 0.50151,-0.08 1.00154,-0.1681 1.49949,-0.267 0.50915,-0.1012 1.01611,-0.2141 1.52003,-0.339 0.51997,-0.1289 1.03671,-0.2706 1.55083,-0.4211 0.52906,-0.1548 1.05536,-0.3187 1.58165,-0.4827"
       style="fill:none;stroke:#0000ff;stroke-width:0.89999998;stroke-linecap:round;stroke-opacity:1"
       id="path1395"
       inkscape:connector-curvature="0" />
    <path
       d="m 108.78466,1299.1222 c 0.005,0.3909 0.0101,0.7818 0.0411,1.1709 0.0293,0.368 0.0819,0.7343 0.14379,1.0989 0.0586,0.3453 0.12569,0.689 0.21568,1.027 0.0863,0.3243 0.1938,0.6433 0.31839,0.9552 0.11885,0.2975 0.25329,0.5885 0.40054,0.873 0.14394,0.2781 0.30011,0.55 0.47244,0.8113 0.16703,0.2534 0.34922,0.4968 0.54434,0.7292 0.19319,0.2302 0.39904,0.4496 0.61622,0.6574 0.21778,0.2083 0.44696,0.405 0.68812,0.5854 0.24333,0.182 0.49885,0.3473 0.76002,0.5032 0.26726,0.1595 0.54042,0.3091 0.82164,0.4417 0.28748,0.1354 0.58338,0.253 0.88325,0.3594 0.31059,0.1102 0.62543,0.2083 0.94489,0.2876 0.32835,0.081 0.66158,0.1429 0.99623,0.1951 0.34436,0.054 0.69022,0.098 1.03732,0.1233 0.3654,0.027 0.73217,0.034 1.09893,0.041"
       style="fill:none;stroke:#0000ff;stroke-width:0.89999998;stroke-linecap:round;stroke-opacity:1"
       id="path1397"
       inkscape:connector-curvature="0" />
    <path
       d="m 132.44779,1294.3054 c -0.002,0.3287 -0.004,0.6574 -0.0103,0.9859 -0.009,0.4178 -0.0252,0.8354 -0.0411,1.253 -0.0169,0.4453 -0.0329,0.8907 -0.0616,1.3352 -0.0268,0.4147 -0.0648,0.8287 -0.10271,1.2427"
       style="fill:none;stroke:#0000ff;stroke-width:0.89999998;stroke-linecap:round;stroke-opacity:1"
       id="path1399"
       inkscape:connector-curvature="0" />
    <path
       d="m 116.9394,1278.7456 c 0.60998,0.014 1.21995,0.027 1.82814,0.072 0.57806,0.043 1.1545,0.1142 1.72544,0.2157 0.54318,0.096 1.08136,0.2203 1.61246,0.3697 0.50779,0.143 1.0091,0.3094 1.49949,0.5033 0.47594,0.1882 0.94159,0.4022 1.39678,0.6368 0.43668,0.225 0.86374,0.469 1.27354,0.7394 0.40011,0.2641 0.78377,0.5534 1.15029,0.8628 0.36301,0.3063 0.7092,0.6323 1.03731,0.9756 0.32726,0.3425 0.63653,0.7022 0.92435,1.0784 0.2892,0.3781 0.55673,0.7728 0.80109,1.1811 0.24857,0.4155 0.47316,0.8451 0.67785,1.2839 0.20975,0.4496 0.39861,0.9088 0.56488,1.3762 0.1703,0.4787 0.31689,0.9659 0.44163,1.4584 0.12794,0.5052 0.23289,1.016 0.31838,1.5303 0.0883,0.531 0.15582,1.0657 0.19514,1.6022 0.0408,0.5568 0.0512,1.1154 0.0616,1.6741"
       style="fill:none;stroke:#0000ff;stroke-width:0.89999998;stroke-linecap:round;stroke-opacity:1"
       id="path1401"
       inkscape:connector-curvature="0" />
    <path
       d="m 100.23964,1297.859 c 0.0122,-0.7025 0.0244,-1.405 0.0719,-2.1055 0.0454,-0.6702 0.12306,-1.3385 0.22595,-2.0027 0.0988,-0.638 0.2209,-1.272 0.36973,-1.9001 0.14449,-0.6096 0.3142,-1.2136 0.51353,-1.8076 0.1928,-0.5745 0.41333,-1.1397 0.65731,-1.6946 0.23674,-0.5384 0.49557,-1.0671 0.78055,-1.5816 0.27352,-0.4939 0.57113,-0.9746 0.89353,-1.4379 0.31925,-0.4588 0.6628,-0.9005 1.02704,-1.3249 0.3583,-0.4174 0.73662,-0.818 1.14003,-1.1914 0.39989,-0.3701 0.82442,-0.7134 1.26326,-1.0373 0.43973,-0.3246 0.89382,-0.6297 1.36597,-0.9038 0.48063,-0.279 0.97997,-0.5258 1.48922,-0.7497 0.52026,-0.2288 1.05085,-0.4338 1.59192,-0.606 0.5523,-0.1757 1.11552,-0.3173 1.68435,-0.4313 0.58401,-0.1171 1.17393,-0.2052 1.76652,-0.2568 0.61772,-0.054 1.23834,-0.068 1.85895,-0.082"
       style="fill:none;stroke:#0000ff;stroke-width:0.89999998;stroke-linecap:round;stroke-opacity:1"
       id="path1403"
       inkscape:connector-curvature="0" />
    <path
       d="m 188.94557,1284.6614 c 0.29909,-0.4348 0.59818,-0.8695 0.92434,-1.2838 0.31793,-0.4038 0.66158,-0.7881 1.02704,-1.1503 0.36224,-0.359 0.74592,-0.6963 1.15029,-1.0065 0.40544,-0.311 0.83169,-0.5948 1.27354,-0.8524 0.4529,-0.2641 0.92219,-0.5007 1.40705,-0.6984 0.50326,-0.2053 1.0233,-0.3687 1.55084,-0.5033 0.56117,-0.1431 1.13082,-0.2537 1.7049,-0.3184 0.61625,-0.069 1.2376,-0.086 1.85895,-0.1027"
       style="fill:none;stroke:#0000ff;stroke-width:0.89999998;stroke-linecap:round;stroke-opacity:1"
       id="path1405"
       inkscape:connector-curvature="0" />
    <path
       d="m 197.81924,1285.976 c -0.31354,0.018 -0.62707,0.036 -0.93461,0.092 -0.32664,0.059 -0.64652,0.1616 -0.95515,0.2875 -0.33397,0.1364 -0.65479,0.3007 -0.96543,0.4828 -0.34268,0.2008 -0.67298,0.4234 -0.98596,0.6675 -0.35377,0.276 -0.68541,0.5797 -1.00651,0.8936 -0.37092,0.3626 -0.72777,0.7389 -1.06812,1.1297 -0.38871,0.4463 -0.7559,0.9115 -1.10921,1.3865 -0.39864,0.536 -0.7796,1.0845 -1.16056,1.633"
       style="fill:none;stroke:#0000ff;stroke-width:0.89999998;stroke-linecap:round;stroke-opacity:1"
       id="path1407"
       inkscape:connector-curvature="0" />
    <path
       d="m 202.12256,1293.2064 c 0.005,-0.3115 0.0105,-0.623 0.0103,-0.9346 -2e-4,-0.2842 -0.005,-0.5686 -0.0205,-0.8524 -0.0145,-0.2644 -0.0384,-0.5283 -0.0719,-0.7908 -0.0302,-0.2373 -0.0683,-0.4735 -0.11298,-0.7087 -0.0801,-0.4214 -0.18146,-0.84 -0.32865,-1.2427 -0.12834,-0.3511 -0.29147,-0.6902 -0.49298,-1.0065 -0.1771,-0.2781 -0.38383,-0.5386 -0.6265,-0.7601 -0.22951,-0.2094 -0.49117,-0.384 -0.77029,-0.5237 -0.2803,-0.1404 -0.5782,-0.2457 -0.88326,-0.3082 -0.32992,-0.068 -0.66821,-0.085 -1.0065,-0.1027"
       style="fill:none;stroke:#0000ff;stroke-width:0.89999998;stroke-linecap:round;stroke-opacity:1"
       id="path1409"
       inkscape:connector-curvature="0" />
    <path
       d="m 199.84252,1278.7456 c 0.43173,0.013 0.86346,0.027 1.29408,0.062 0.4065,0.033 0.81201,0.085 1.21191,0.1643 0.38527,0.077 0.76534,0.1788 1.14002,0.2978 0.36275,0.1153 0.72046,0.2464 1.06813,0.4006 0.3388,0.1503 0.66807,0.3225 0.98596,0.5135 0.31689,0.1904 0.62248,0.3993 0.91407,0.6265 0.28907,0.2252 0.56439,0.4684 0.82164,0.7292 0.26426,0.2679 0.50945,0.5544 0.73947,0.8524 0.23634,0.3063 0.45667,0.6247 0.65731,0.9552 0.20909,0.3444 0.39681,0.7019 0.56488,1.0681 0.17827,0.3885 0.33444,0.7869 0.47244,1.1914 0.14628,0.4288 0.27214,0.8644 0.38,1.3043 0.11482,0.4684 0.20923,0.9416 0.28758,1.4174 0.083,0.5042 0.14798,1.0112 0.19513,1.52 0.05,0.5396 0.08,1.0811 0.0924,1.6227 0.0133,0.5785 0.007,1.1571 0,1.7357"
       style="fill:none;stroke:#0000ff;stroke-width:0.89999998;stroke-linecap:round;stroke-opacity:1"
       id="path1411"
       inkscape:connector-curvature="0" />
    <path
       d="m 232.70798,1275.4591 c -0.38538,-0.023 -0.77076,-0.046 -1.15029,-0.113 -0.36922,-0.065 -0.73291,-0.1718 -1.0784,-0.3184 -0.33472,-0.142 -0.65237,-0.3216 -0.95515,-0.5238 -0.29648,-0.1979 -0.5787,-0.4176 -0.83191,-0.6675 -0.25132,-0.2481 -0.47406,-0.5259 -0.66758,-0.8217 -0.19735,-0.3016 -0.3643,-0.6219 -0.50325,-0.9551 -0.14092,-0.338 -0.25304,-0.6892 -0.31839,-1.0476 -0.0671,-0.3681 -0.0849,-0.7438 -0.1027,-1.1195"
       style="fill:none;stroke:#0000ff;stroke-width:0.89999998;stroke-linecap:round;stroke-opacity:1"
       id="path1413"
       inkscape:connector-curvature="0" />
    <path
       d="m 238.27456,1269.8925 c -0.0177,0.3758 -0.0355,0.7516 -0.1027,1.1195 -0.0655,0.3583 -0.17794,0.7092 -0.31839,1.0476 -0.13848,0.3336 -0.30419,0.6551 -0.50325,0.9551 -0.19639,0.296 -0.42525,0.5711 -0.67785,0.8217 -0.24917,0.2471 -0.52143,0.4703 -0.81136,0.6675 -0.3006,0.2046 -0.62018,0.3812 -0.95516,0.5238 -0.33668,0.1434 -0.6889,0.2524 -1.04758,0.3184 -0.37864,0.07 -0.76447,0.091 -1.15029,0.113"
       style="fill:none;stroke:#0000ff;stroke-width:0.89999998;stroke-linecap:round;stroke-opacity:1"
       id="path1415"
       inkscape:connector-curvature="0" />
    <path
       d="m 232.70798,1264.2848 c 0.38639,0.02 0.77278,0.04 1.15029,0.113 0.35859,0.069 0.70916,0.1852 1.04758,0.3287 0.33427,0.1416 0.65668,0.3098 0.95516,0.5135 0.29281,0.1998 0.5626,0.4338 0.81136,0.6881 0.25093,0.2565 0.48046,0.5337 0.67785,0.8319 0.19859,0.3001 0.36464,0.6215 0.50325,0.9552 0.14058,0.3383 0.25294,0.6892 0.31839,1.0476 0.0678,0.3712 0.0853,0.7505 0.1027,1.1297"
       style="fill:none;stroke:#0000ff;stroke-width:0.89999998;stroke-linecap:round;stroke-opacity:1"
       id="path1417"
       inkscape:connector-curvature="0" />
    <path
       d="m 227.10031,1269.8925 c 0.0175,-0.3792 0.035,-0.7584 0.1027,-1.1297 0.0653,-0.3585 0.17734,-0.7097 0.31839,-1.0476 0.13908,-0.3332 0.30638,-0.6535 0.50325,-0.9552 0.1945,-0.298 0.41785,-0.5779 0.66758,-0.8319 0.25277,-0.2571 0.53256,-0.4876 0.83191,-0.6881 0.30068,-0.2014 0.6211,-0.3726 0.95515,-0.5135 0.34727,-0.1466 0.70927,-0.2606 1.0784,-0.3287 0.37844,-0.07 0.76436,-0.091 1.15029,-0.113"
       style="fill:none;stroke:#0000ff;stroke-width:0.89999998;stroke-linecap:round;stroke-opacity:1"
       id="path1419"
       inkscape:connector-curvature="0" />
    <path
       d="m 275.46388,1278.7456 c 0.43897,0.01 0.87793,0.014 1.31462,0.051 0.40979,0.035 0.81759,0.097 1.22218,0.1746 0.3845,0.074 0.76612,0.1628 1.14003,0.2773 0.35627,0.109 0.70554,0.2414 1.04758,0.3903 0.33024,0.1437 0.65374,0.3028 0.96542,0.4827 0.306,0.1765 0.60061,0.3731 0.88326,0.5854 0.27606,0.2074 0.5407,0.4298 0.79083,0.6676 0.25466,0.2421 0.49428,0.5001 0.71893,0.7703 0.22686,0.2728 0.43845,0.558 0.63677,0.8524 0.20091,0.2982 0.38821,0.6059 0.5546,0.9243 0.17385,0.3328 0.32489,0.6774 0.46217,1.0271 0.14175,0.3611 0.26883,0.7276 0.38001,1.0989 0.11551,0.3859 0.21385,0.7769 0.29784,1.1709 0.0877,0.4113 0.15975,0.8259 0.21568,1.2427 0.0581,0.4329 0.0988,0.8683 0.12325,1.3043 0.0257,0.4583 0.0334,0.9173 0.0411,1.3763"
       style="fill:none;stroke:#0000ff;stroke-width:0.89999998;stroke-linecap:round;stroke-opacity:1"
       id="path1421"
       inkscape:connector-curvature="0" />
    <path
       d="m 264.28963,1284.6409 c 0.36113,-0.4291 0.72227,-0.8581 1.09894,-1.2736 0.36427,-0.4017 0.74307,-0.7907 1.14002,-1.1605 0.38599,-0.3596 0.78916,-0.7011 1.21191,-1.0168 0.41641,-0.3109 0.85182,-0.5969 1.30435,-0.8524 0.45358,-0.2562 0.92435,-0.4819 1.40705,-0.6779 0.49185,-0.1997 0.99607,-0.3686 1.50976,-0.5032 0.54292,-0.1423 1.09641,-0.2462 1.65354,-0.3082 0.61328,-0.068 1.23098,-0.085 1.84868,-0.1027"
       style="fill:none;stroke:#0000ff;stroke-width:0.89999998;stroke-linecap:round;stroke-opacity:1"
       id="path1423"
       inkscape:connector-curvature="0" />
    <path
       d="m 273.43033,1285.976 c -0.35487,0.023 -0.70973,0.047 -1.05786,0.113 -0.35184,0.067 -0.6968,0.1768 -1.02704,0.3184 -0.35571,0.1525 -0.69434,0.3416 -1.01677,0.5546 -0.34657,0.229 -0.67443,0.4857 -0.98597,0.76 -0.34354,0.3025 -0.66723,0.6265 -0.98596,0.9552 -0.34762,0.3584 -0.68932,0.7224 -1.01678,1.0989 -0.35925,0.413 -0.70135,0.841 -1.03731,1.2735 -0.36428,0.469 -0.72134,0.9432 -1.0784,1.4174"
       style="fill:none;stroke:#0000ff;stroke-width:0.89999998;stroke-linecap:round;stroke-opacity:1"
       id="path1425"
       inkscape:connector-curvature="0" />
    <path
       d="m 277.71311,1291.7994 c -0.014,-0.456 -0.0279,-0.912 -0.0719,-1.366 -0.0385,-0.3973 -0.0999,-0.7932 -0.19514,-1.1811 -0.0845,-0.3441 -0.19553,-0.6819 -0.33893,-1.0065 -0.12607,-0.2854 -0.27716,-0.5605 -0.46216,-0.8114 -0.17417,-0.2361 -0.3784,-0.4507 -0.60596,-0.6367 -0.22576,-0.1845 -0.47448,-0.3409 -0.73948,-0.4622 -0.27443,-0.1256 -0.56631,-0.2136 -0.86271,-0.267 -0.33173,-0.06 -0.66912,-0.076 -1.00651,-0.092"
       style="fill:none;stroke:#0000ff;stroke-width:0.89999998;stroke-linecap:round;stroke-opacity:1"
       id="path1427"
       inkscape:connector-curvature="0" />
    <path
       d="m 309.3872,1278.7456 c 0.50354,0.01 1.00709,0.016 1.50975,0.041 0.48343,0.024 0.96604,0.063 1.44814,0.113 0.45796,0.047 0.91546,0.1043 1.36597,0.1951 0.41477,0.084 0.82361,0.1959 1.23245,0.3081"
       style="fill:none;stroke:#0000ff;stroke-width:0.89999998;stroke-linecap:round;stroke-opacity:1"
       id="path1429"
       inkscape:connector-curvature="0" />
    <path
       d="m 295.46046,1291.1523 c 0.009,-0.4802 0.0182,-0.9604 0.0616,-1.4378 0.0417,-0.4582 0.11502,-0.9139 0.20541,-1.366 0.0859,-0.4297 0.1872,-0.8562 0.31839,-1.2735 0.12865,-0.4093 0.28605,-0.8098 0.46216,-1.2017 0.17216,-0.3831 0.3622,-0.758 0.57515,-1.1194 0.20676,-0.351 0.43511,-0.6892 0.67785,-1.0168 0.24058,-0.3248 0.49528,-0.6391 0.77028,-0.9346 0.27382,-0.2943 0.56778,-0.5697 0.87299,-0.8319 0.30939,-0.2658 0.63034,-0.518 0.96543,-0.7498 0.33993,-0.2352 0.69442,-0.4495 1.05785,-0.647 0.37427,-0.2035 0.75804,-0.3892 1.15029,-0.5546 0.40322,-0.1701 0.81539,-0.3188 1.23246,-0.4519 0.42986,-0.1372 0.86492,-0.2578 1.30435,-0.3595 0.45141,-0.1044 0.90744,-0.1888 1.36597,-0.2568 0.47369,-0.07 0.95006,-0.1227 1.42759,-0.154 0.49215,-0.032 0.98555,-0.042 1.47895,-0.051"
       style="fill:none;stroke:#0000ff;stroke-width:0.89999998;stroke-linecap:round;stroke-opacity:1"
       id="path1431"
       inkscape:connector-curvature="0" />
    <path
       d="m 298.38754,1298.8552 c -0.20738,-0.2215 -0.41477,-0.443 -0.60596,-0.6779 -0.19483,-0.2393 -0.37285,-0.4925 -0.54433,-0.7497 -0.17672,-0.2651 -0.3465,-0.5344 -0.50326,-0.8114 -0.16213,-0.2865 -0.31033,-0.5812 -0.44162,-0.8832 -0.13825,-0.3181 -0.25776,-0.6442 -0.35947,-0.9757 -0.10964,-0.3574 -0.1986,-0.7212 -0.26703,-1.0887 -0.074,-0.3972 -0.12393,-0.7989 -0.15406,-1.2016 -0.0327,-0.4374 -0.042,-0.876 -0.0514,-1.3147"
       style="fill:none;stroke:#0000ff;stroke-width:0.89999998;stroke-linecap:round;stroke-opacity:1"
       id="path1433"
       inkscape:connector-curvature="0" />
    <path
       d="m 294.80315,1306.671 c 0.0118,-0.3881 0.0236,-0.7762 0.0719,-1.1606 0.0457,-0.3642 0.12414,-0.7251 0.22595,-1.0784 0.10055,-0.3488 0.22391,-0.6903 0.35947,-1.027 0.13342,-0.3314 0.27864,-0.6582 0.44163,-0.9757 0.16381,-0.3192 0.34557,-0.629 0.53406,-0.9346 0.18955,-0.3073 0.38591,-0.6104 0.59569,-0.9038 0.21298,-0.2979 0.4398,-0.586 0.66758,-0.873 0.22872,-0.2882 0.45842,-0.5755 0.68812,-0.8627"
       style="fill:none;stroke:#0000ff;stroke-width:0.89999998;stroke-linecap:round;stroke-opacity:1"
       id="path1435"
       inkscape:connector-curvature="0" />
    <path
       d="m 298.22321,1312.5457 c -0.26882,-0.1709 -0.53764,-0.3418 -0.79082,-0.5341 -0.23942,-0.1817 -0.46485,-0.3826 -0.67785,-0.5956 -0.21301,-0.2131 -0.41358,-0.4384 -0.59569,-0.6779 -0.17822,-0.2344 -0.33876,-0.4824 -0.48271,-0.7395 -0.14303,-0.2554 -0.26969,-0.5198 -0.38001,-0.7908 -0.10903,-0.2678 -0.20211,-0.5421 -0.2773,-0.8216 -0.0744,-0.2766 -0.13131,-0.5582 -0.16433,-0.8422 -0.0336,-0.2894 -0.0425,-0.5812 -0.0513,-0.873"
       style="fill:none;stroke:#0000ff;stroke-width:0.89999998;stroke-linecap:round;stroke-opacity:1"
       id="path1437"
       inkscape:connector-curvature="0" />
    <path
       d="m 293.48853,1320.341 c 0.0125,-0.388 0.025,-0.776 0.0719,-1.1606 0.0435,-0.3571 0.11661,-0.7113 0.21568,-1.0578 0.0984,-0.3442 0.22242,-0.6807 0.36974,-1.0065 0.149,-0.3296 0.32184,-0.6484 0.51352,-0.9552 0.20302,-0.3249 0.42718,-0.6364 0.66758,-0.9346 0.25119,-0.3115 0.52011,-0.6085 0.8011,-0.8935 0.30801,-0.3125 0.63053,-0.6106 0.96542,-0.8936 0.3667,-0.3099 0.74822,-0.6017 1.12975,-0.8935"
       style="fill:none;stroke:#0000ff;stroke-width:0.89999998;stroke-linecap:round;stroke-opacity:1"
       id="path1439"
       inkscape:connector-curvature="0" />
    <path
       d="m 309.47963,1329.3584 c -0.678,-0.01 -1.35601,-0.015 -2.03355,-0.041 -0.62743,-0.024 -1.25446,-0.063 -1.87949,-0.1233 -0.58041,-0.055 -1.15909,-0.1285 -1.73571,-0.2157 -0.53331,-0.081 -1.06486,-0.1734 -1.59192,-0.2875 -0.48696,-0.1055 -0.97008,-0.2292 -1.44814,-0.3698 -0.43942,-0.1292 -0.87457,-0.2726 -1.30434,-0.4313 -0.40038,-0.1479 -0.79608,-0.3092 -1.1811,-0.493 -0.35533,-0.1697 -0.70156,-0.3586 -1.03732,-0.5649 -0.31261,-0.1921 -0.61615,-0.3992 -0.9038,-0.6265 -0.27017,-0.2134 -0.52632,-0.4446 -0.77029,-0.6881 -0.23369,-0.2333 -0.45619,-0.478 -0.6573,-0.7395 -0.19456,-0.253 -0.3691,-0.5217 -0.5238,-0.8011 -0.15223,-0.2749 -0.28526,-0.5602 -0.40055,-0.8524 -0.1137,-0.2882 -0.21014,-0.5832 -0.28757,-0.8833 -0.0792,-0.3072 -0.13859,-0.6198 -0.1746,-0.9346 -0.0366,-0.3203 -0.0491,-0.6429 -0.0616,-0.9654"
       style="fill:none;stroke:#000000;stroke-width:0.89999998;stroke-linecap:round"
       id="path1441"
       inkscape:connector-curvature="0" />
    <path
       d="m 327.0113,1317.455 c -0.014,0.4049 -0.028,0.8098 -0.0719,1.2119 -0.043,0.3937 -0.11461,0.7846 -0.20541,1.1708 -0.0916,0.3897 -0.2027,0.7745 -0.33892,1.1503 -0.13742,0.3791 -0.30039,0.7491 -0.48271,1.1092 -0.18451,0.3645 -0.38884,0.7189 -0.61623,1.0579 -0.22855,0.3407 -0.4804,0.6659 -0.74974,0.9757 -0.2798,0.3218 -0.57848,0.6269 -0.89353,0.914 -0.32933,0.3002 -0.67654,0.5807 -1.03732,0.8422 -0.3769,0.2732 -0.7686,0.5256 -1.17083,0.76 -0.42358,0.2469 -0.85885,0.4737 -1.30435,0.6779 -0.47338,0.2169 -0.9583,0.4082 -1.44813,0.5854 -0.52148,0.1887 -1.04852,0.3614 -1.58165,0.5135 -0.56223,0.1605 -1.13124,0.298 -1.7049,0.4108 -0.612,0.1205 -1.22929,0.2128 -1.84868,0.2876 -0.65538,0.079 -1.31311,0.1386 -1.97193,0.1746 -0.70098,0.038 -1.40321,0.05 -2.10544,0.062"
       style="fill:none;stroke:#000000;stroke-width:0.89999998;stroke-linecap:round"
       id="path1443"
       inkscape:connector-curvature="0" />
    <path
       d="m 314.87162,1308.2527 c 0.44887,0.018 0.89774,0.037 1.34543,0.072 0.42585,0.034 0.85063,0.082 1.27353,0.1438 0.40619,0.059 0.81065,0.1299 1.21192,0.2157 0.38651,0.083 0.77007,0.1792 1.15029,0.2876 0.36349,0.1036 0.72393,0.2181 1.0784,0.3492 0.33822,0.125 0.67101,0.2651 0.99623,0.4211 0.31228,0.1497 0.61757,0.3141 0.91407,0.493 0.28545,0.1721 0.56275,0.3576 0.83191,0.5546 0.26341,0.1927 0.51903,0.3963 0.76001,0.6162 0.23255,0.2121 0.45147,0.4394 0.65731,0.6778 0.206,0.2387 0.3989,0.4886 0.57515,0.7498 0.17347,0.257 0.3308,0.525 0.47244,0.8011 0.14356,0.2798 0.27099,0.5678 0.38001,0.8627 0.11159,0.3018 0.2039,0.6108 0.2773,0.9243 0.076,0.3248 0.13178,0.6545 0.16432,0.986 0.0342,0.3479 0.0428,0.6977 0.0514,1.0476"
       style="fill:none;stroke:#0000ff;stroke-width:0.89999998;stroke-linecap:round;stroke-opacity:1"
       id="path1445"
       inkscape:connector-curvature="0" />
    <path
       d="m 302.69086,1304.7915 c 0.0164,0.1896 0.0328,0.3791 0.0719,0.5649 0.041,0.195 0.10691,0.3858 0.19514,0.5649 0.0921,0.1868 0.20852,0.3608 0.33893,0.5238 0.13814,0.1725 0.29199,0.3327 0.46217,0.4724 0.18116,0.1487 0.38084,0.2742 0.58541,0.3903 0.21903,0.1243 0.44367,0.2378 0.67785,0.3286 0.25174,0.098 0.51451,0.1692 0.78056,0.2157 0.28506,0.05 0.57388,0.071 0.86272,0.092"
       style="fill:none;stroke:#0000ff;stroke-width:0.89999998;stroke-linecap:round;stroke-opacity:1"
       id="path1447"
       inkscape:connector-curvature="0" />
    <path
       d="m 303.62547,1301.8439 c -0.1234,0.2068 -0.24681,0.4136 -0.35947,0.6265 -0.11759,0.2222 -0.22347,0.4511 -0.30811,0.6881 -0.0892,0.2498 -0.1548,0.5085 -0.19514,0.7703 -0.0439,0.2852 -0.0579,0.5739 -0.0719,0.8627"
       style="fill:none;stroke:#0000ff;stroke-width:0.89999998;stroke-linecap:round;stroke-opacity:1"
       id="path1449"
       inkscape:connector-curvature="0" />
    <path
       d="m 309.27422,1303.0661 c -0.57945,-0.018 -1.15891,-0.036 -1.73571,-0.092 -0.539,-0.053 -1.07569,-0.1403 -1.60219,-0.267 -0.24146,-0.058 -0.48079,-0.1245 -0.71893,-0.1951 -0.21076,-0.063 -0.4206,-0.1284 -0.6265,-0.2054 -0.17814,-0.067 -0.35334,-0.1417 -0.52379,-0.226 -0.14965,-0.074 -0.29564,-0.1551 -0.44163,-0.2362"
       style="fill:none;stroke:#0000ff;stroke-width:0.89999998;stroke-linecap:round;stroke-opacity:1"
       id="path1451"
       inkscape:connector-curvature="0" />
    <path
       d="m 323.06744,1290.9367 c -0.0113,0.4798 -0.0226,0.9597 -0.0616,1.4378 -0.0368,0.4512 -0.0983,0.9008 -0.18487,1.3455 -0.083,0.4265 -0.18903,0.8485 -0.31838,1.2632 -0.1252,0.4015 -0.27225,0.7962 -0.44163,1.1811 -0.16412,0.373 -0.34921,0.7368 -0.55461,1.0887 -0.20064,0.3437 -0.42065,0.676 -0.65731,0.9962 -0.23283,0.3151 -0.48177,0.6183 -0.74974,0.9038 -0.27025,0.288 -0.55986,0.5578 -0.86272,0.8114 -0.30571,0.256 -0.62491,0.4955 -0.95515,0.7189 -0.33475,0.2265 -0.68083,0.4364 -1.03732,0.6265 -0.37033,0.1976 -0.7519,0.3738 -1.14002,0.5341 -0.40064,0.1654 -0.80826,0.3138 -1.22218,0.4416 -0.42925,0.1326 -0.86526,0.2431 -1.30435,0.3389 -0.45224,0.099 -0.90774,0.1819 -1.36597,0.2465 -0.47704,0.067 -0.95704,0.1147 -1.43786,0.1438 -0.49924,0.03 -0.99936,0.041 -1.49949,0.051"
       style="fill:none;stroke:#0000ff;stroke-width:0.89999998;stroke-linecap:round;stroke-opacity:1"
       id="path1453"
       inkscape:connector-curvature="0" />
    <path
       d="m 321.30092,1285.3187 c 0.29233,0.4317 0.58466,0.8633 0.82164,1.3249 0.22788,0.4439 0.40458,0.9155 0.54433,1.3968 0.13596,0.4682 0.23695,0.9457 0.29785,1.4276 0.0615,0.4865 0.0821,0.9776 0.1027,1.4687"
       style="fill:none;stroke:#0000ff;stroke-width:0.89999998;stroke-linecap:round;stroke-opacity:1"
       id="path1455"
       inkscape:connector-curvature="0" />
    <path
       d="m 281.7785,1041.6159 c 0.3907,-0.02 0.78141,-0.04 1.16398,-0.1113 0.36669,-0.069 0.7259,-0.1852 1.06984,-0.3338 0.34673,-0.1497 0.67794,-0.332 0.99281,-0.5392 0.32302,-0.2125 0.62885,-0.4511 0.91579,-0.7103 0.29972,-0.2708 0.57884,-0.564 0.83875,-0.873 0.27452,-0.3264 0.52761,-0.6705 0.76173,-1.0271 0.24645,-0.3753 0.47188,-0.7645 0.67614,-1.164 0.21206,-0.4147 0.4013,-0.8407 0.59055,-1.2666"
       style="fill:none;stroke:#0000ff;stroke-width:0.89999998;stroke-linecap:round;stroke-opacity:1"
       id="path1457"
       inkscape:connector-curvature="0" />
    <path
       d="m 278.12393,1041.0681 c 0.1228,0.031 0.24559,0.062 0.36803,0.094 0.13984,0.037 0.27921,0.076 0.41937,0.1112 0.15025,0.038 0.30141,0.073 0.45361,0.1027 0.15886,0.031 0.31886,0.056 0.47929,0.077 0.16525,0.022 0.33097,0.04 0.49641,0.06 0.16544,0.02 0.3306,0.043 0.4964,0.06 0.16217,0.017 0.32494,0.028 0.48785,0.034 0.15113,0.01 0.30237,0.01 0.45361,0.01"
       style="fill:none;stroke:#0000ff;stroke-width:0.89999998;stroke-linecap:round;stroke-opacity:1"
       id="path1459"
       inkscape:connector-curvature="0" />
    <path
       d="m 281.43615,1047.6412 c -0.25117,0 -0.50234,-0.01 -0.75317,-0.017 -0.27428,-0.012 -0.54814,-0.034 -0.82163,-0.06 -0.28584,-0.027 -0.57128,-0.057 -0.85587,-0.094 -0.29445,-0.038 -0.588,-0.083 -0.88155,-0.1283"
       style="fill:none;stroke:#0000ff;stroke-width:0.89999998;stroke-linecap:round;stroke-opacity:1"
       id="path1461"
       inkscape:connector-curvature="0" />
    <path
       d="m 298.11708,1032.1157 c -0.25006,0.6179 -0.50012,1.2357 -0.76172,1.8487 -0.24912,0.5837 -0.50871,1.1631 -0.77885,1.7374 -0.2585,0.5496 -0.52666,1.0947 -0.80451,1.6347 -0.26397,0.5131 -0.53668,1.0217 -0.82164,1.5235 -0.26992,0.4753 -0.55084,0.9444 -0.84731,1.4036 -0.28249,0.4375 -0.5791,0.866 -0.89011,1.2838 -0.29458,0.3958 -0.60208,0.7819 -0.92434,1.1554 -0.31124,0.3608 -0.63626,0.7097 -0.97569,1.0442 -0.32532,0.3206 -0.66389,0.6281 -1.01849,0.9158 -0.3457,0.2805 -0.70664,0.5422 -1.0784,0.7874 -0.36861,0.2431 -0.74785,0.4701 -1.13831,0.6761 -0.38625,0.2039 -0.78349,0.3873 -1.18966,0.5478 -0.40876,0.1615 -0.82656,0.2998 -1.24957,0.4194 -0.43708,0.1235 -0.87971,0.2271 -1.3266,0.3081 -0.46434,0.084 -0.93329,0.1439 -1.40363,0.1797 -0.48969,0.037 -0.9809,0.049 -1.4721,0.06"
       style="fill:none;stroke:#0000ff;stroke-width:0.89999998;stroke-linecap:round;stroke-opacity:1"
       id="path1463"
       inkscape:connector-curvature="0" />
    <path
       d="m 256.46183,1010.3937 c 0.24924,-0.3623 0.49849,-0.7246 0.77028,-1.0698 0.26495,-0.3365 0.55132,-0.6568 0.85587,-0.9586 0.30187,-0.2992 0.6216,-0.5803 0.95858,-0.8388 0.33787,-0.2592 0.69307,-0.4957 1.06128,-0.7103 0.37742,-0.2201 0.76849,-0.4172 1.17254,-0.582 0.41939,-0.1711 0.85275,-0.3073 1.29237,-0.4194 0.46764,-0.1193 0.94235,-0.2114 1.42074,-0.2653 0.51355,-0.058 1.03134,-0.072 1.54913,-0.086"
       style="fill:none;stroke:#0000ff;stroke-width:0.89999998;stroke-linecap:round;stroke-opacity:1"
       id="path1465"
       inkscape:connector-curvature="0" />
    <path
       d="m 263.85656,1011.4892 c -0.26128,0.015 -0.52256,0.03 -0.77885,0.077 -0.2722,0.05 -0.53876,0.1347 -0.79596,0.2397 -0.27831,0.1136 -0.54565,0.2505 -0.80452,0.4022 -0.28556,0.1674 -0.56082,0.3529 -0.82163,0.5564 -0.29481,0.23 -0.57118,0.483 -0.83876,0.7446 -0.3091,0.3022 -0.60647,0.6158 -0.8901,0.9414 -0.32392,0.372 -0.62992,0.7596 -0.92434,1.1555 -0.3322,0.4466 -0.64967,0.9037 -0.96714,1.3608"
       style="fill:none;stroke:#0000ff;stroke-width:0.89999998;stroke-linecap:round;stroke-opacity:1"
       id="path1467"
       inkscape:connector-curvature="0" />
    <path
       d="m 267.44266,1017.5145 c 0.004,-0.2595 0.009,-0.5191 0.009,-0.7788 -1.6e-4,-0.2369 -0.004,-0.4738 -0.0171,-0.7104 -0.0121,-0.2203 -0.032,-0.4402 -0.0599,-0.659 -0.0252,-0.1977 -0.0569,-0.3945 -0.0942,-0.5905 -0.0667,-0.3512 -0.15122,-0.7001 -0.27388,-1.0356 -0.10694,-0.2926 -0.24289,-0.5752 -0.41082,-0.8388 -0.14757,-0.2317 -0.31985,-0.4488 -0.52208,-0.6333 -0.19125,-0.1746 -0.4093,-0.3201 -0.6419,-0.4365 -0.23359,-0.117 -0.48184,-0.2047 -0.73605,-0.2568 -0.27494,-0.056 -0.55685,-0.071 -0.83875,-0.086"
       style="fill:none;stroke:#0000ff;stroke-width:0.89999998;stroke-linecap:round;stroke-opacity:1"
       id="path1469"
       inkscape:connector-curvature="0" />
    <path
       d="m 265.54262,1005.4639 c 0.35978,0.011 0.71955,0.022 1.0784,0.051 0.33875,0.027 0.67668,0.071 1.00993,0.137 0.32106,0.064 0.63778,0.149 0.95001,0.2482 0.3023,0.096 0.60039,0.2053 0.89011,0.3338 0.28234,0.1252 0.55673,0.2688 0.82164,0.4279 0.26407,0.1586 0.51873,0.3328 0.76172,0.5221 0.24089,0.1877 0.47033,0.3903 0.6847,0.6077 0.22022,0.2232 0.42454,0.4619 0.61623,0.7103 0.19695,0.2552 0.38055,0.5206 0.54776,0.796 0.17424,0.287 0.33067,0.5849 0.47073,0.8901 0.14855,0.3237 0.2787,0.6557 0.39369,0.9928 0.12191,0.3573 0.22679,0.7203 0.31668,1.087 0.0957,0.3902 0.17436,0.7846 0.23964,1.1811 0.0692,0.4201 0.12332,0.8427 0.16262,1.2667 0.0417,0.4496 0.0666,0.9008 0.077,1.3522 0.0111,0.4821 0.006,0.9643 0,1.4464"
       style="fill:none;stroke:#0000ff;stroke-width:0.89999998;stroke-linecap:round;stroke-opacity:1"
       id="path1471"
       inkscape:connector-curvature="0" />
    <path
       d="m 243.34132,1016.2136 c -0.0122,0.7167 -0.0244,1.4333 -0.0685,2.1483 -0.0422,0.6838 -0.11358,1.366 -0.20541,2.0455 -0.0884,0.6543 -0.19582,1.306 -0.33379,1.9514 -0.13252,0.6199 -0.29324,1.2339 -0.47929,1.8401 -0.17957,0.5852 -0.38272,1.1631 -0.61622,1.7289 -0.22452,0.544 -0.47709,1.0768 -0.76173,1.5919 -0.27919,0.5052 -0.58924,0.9933 -0.92434,1.4635 -0.33121,0.4648 -0.68689,0.9122 -1.06984,1.3352 -0.38203,0.422 -0.79121,0.8197 -1.22389,1.1896 -0.44002,0.3763 -0.90434,0.7238 -1.38652,1.0442 -0.4987,0.3314 -1.01651,0.6338 -1.54912,0.9072 -0.55586,0.2854 -1.12786,0.5392 -1.71175,0.7618 -0.61324,0.2337 -1.23961,0.4329 -1.87435,0.5991 -0.67682,0.1772 -1.36316,0.3168 -2.05409,0.4279 -0.74045,0.1191 -1.48617,0.2053 -2.23383,0.2568 -0.80303,0.055 -1.60829,0.07 -2.41356,0.086"
       style="fill:none;stroke:#0000ff;stroke-width:0.89999998;stroke-linecap:round;stroke-opacity:1"
       id="path1473"
       inkscape:connector-curvature="0" />
    <path
       d="m 226.02705,997.79528 c 0.69956,0.0119 1.39913,0.0238 2.09688,0.0685 0.65541,0.042 1.30921,0.11283 1.95994,0.20541 0.61476,0.0875 1.22677,0.19432 1.83157,0.33379 0.56943,0.13132 1.13246,0.29157 1.68607,0.47929 0.52905,0.17941 1.0495,0.38391 1.55768,0.61623 0.48783,0.22301 0.96435,0.47166 1.42075,0.7531 0.44758,0.2761 0.8758,0.5838 1.2838,0.9158 0.40278,0.3278 0.78586,0.6794 1.14687,1.0527 0.36469,0.3772 0.70686,0.7766 1.01849,1.1983 0.32038,0.4335 0.60848,0.8906 0.87299,1.3608 0.2749,0.4886 0.52432,0.9913 0.74461,1.5063 0.23179,0.542 0.43134,1.0976 0.60766,1.6604 0.18716,0.5974 0.34816,1.2028 0.47929,1.8145 0.1407,0.6562 0.24701,1.3197 0.33379,1.9856 0.093,0.7137 0.16358,1.4302 0.20541,2.1482 0.045,0.772 0.0567,1.5457 0.0685,2.3194"
       style="fill:none;stroke:#0000ff;stroke-width:0.89999998;stroke-linecap:round;stroke-opacity:1"
       id="path1475"
       inkscape:connector-curvature="0" />
    <path
       d="m 533.85827,1203.7795 a 14.17323,14.17323 0 1 0 -28.34646,0 14.17323,14.17323 0 1 0 28.34646,0 z"
       style="fill:none;stroke:#ff0000;stroke-width:0.89999998;stroke-linecap:round;stroke-opacity:1"
       id="path1477"
       inkscape:connector-curvature="0" />
    <path
       d="m 672.21393,1301.4319 a 6.614175,6.614175 0 1 0 -13.22835,0 6.614175,6.614175 0 1 0 13.22835,0 z"
       style="fill:none;stroke:#ff0000;stroke-width:0.89999998;stroke-linecap:round;stroke-opacity:1"
       id="path1479"
       inkscape:connector-curvature="0" />
    <path
       d="m 672.21393,942.37306 a 6.614175,6.614175 0 1 0 -13.22835,0 6.614175,6.614175 0 1 0 13.22835,0 z"
       style="fill:none;stroke:#ff0000;stroke-width:0.89999998;stroke-linecap:round;stroke-opacity:1"
       id="path1481"
       inkscape:connector-curvature="0" />
    <path
       d="m 91.653543,1009.1339 a 6.614173,6.614173 0 1 0 -13.228346,0 6.614173,6.614173 0 1 0 13.228346,0 z"
       style="fill:none;stroke:#ff0000;stroke-width:0.89999998;stroke-linecap:round;stroke-opacity:1"
       id="path1483"
       inkscape:connector-curvature="0" />
    <path
       d="m 91.653543,1235.9055 a 6.614173,6.614173 0 1 0 -13.228346,0 6.614173,6.614173 0 1 0 13.228346,0 z"
       style="fill:none;stroke:#ff0000;stroke-width:0.89999998;stroke-linecap:round;stroke-opacity:1"
       id="path1485"
       inkscape:connector-curvature="0" />
    <path
       d="m 564.09449,1235.9055 a 6.614175,6.614175 0 1 0 -13.22835,0 6.614175,6.614175 0 1 0 13.22835,0 z"
       style="fill:none;stroke:#ff0000;stroke-width:0.89999998;stroke-linecap:round;stroke-opacity:1"
       id="path1487"
       inkscape:connector-curvature="0" />
    <path
       d="m 564.09449,1009.1339 a 6.614175,6.614175 0 1 0 -13.22835,0 6.614175,6.614175 0 1 0 13.22835,0 z"
       style="fill:none;stroke:#ff0000;stroke-width:0.89999998;stroke-linecap:round;stroke-opacity:1"
       id="path1489"
       inkscape:connector-curvature="0" />
    <path
       d="m 326.2239,1036.1383 c -0.54836,-0.011 -1.09671,-0.021 -1.64328,-0.06 -0.51837,-0.037 -1.03513,-0.1 -1.54912,-0.1797 -0.49457,-0.077 -0.98656,-0.1706 -1.4721,-0.291 -0.46605,-0.1156 -0.92616,-0.2561 -1.37796,-0.4194 -0.43676,-0.1579 -0.86576,-0.3371 -1.2838,-0.5392 -0.40481,-0.1957 -0.79934,-0.4128 -1.1811,-0.6505 -0.3758,-0.2339 -0.73923,-0.4878 -1.08696,-0.7617 -0.34468,-0.2715 -0.67394,-0.5628 -0.98425,-0.873 -0.31032,-0.3102 -0.60169,-0.6394 -0.87299,-0.9842 -0.27761,-0.3529 -0.53421,-0.7222 -0.77029,-1.1041 -0.24112,-0.3901 -0.46083,-0.7933 -0.65902,-1.2068 -0.20572,-0.4292 -0.38825,-0.8696 -0.54775,-1.318 -0.16673,-0.4688 -0.3083,-0.9465 -0.42794,-1.4293 -0.1253,-0.5058 -0.22655,-1.0173 -0.30811,-1.532 -0.0863,-0.5449 -0.15063,-1.0934 -0.1883,-1.6433 -0.04,-0.5837 -0.0499,-1.1691 -0.0599,-1.7546"
       style="fill:none;stroke:#0000ff;stroke-width:0.89999998;stroke-linecap:round;stroke-opacity:1"
       id="path1491"
       inkscape:connector-curvature="0" />
    <path
       d="m 337.00787,1034.495 c -0.39278,0.1174 -0.78556,0.2348 -1.1811,0.3424 -0.42798,0.1164 -0.85919,0.2212 -1.29236,0.3167 -0.44918,0.099 -0.90046,0.1878 -1.35228,0.2738 -0.4585,0.087 -0.91754,0.1717 -1.37795,0.2482 -0.46649,0.078 -0.93439,0.147 -1.40363,0.2054 -0.47242,0.059 -0.94621,0.1064 -1.42075,0.1455 -0.46441,0.038 -0.92953,0.068 -1.39507,0.086 -0.45334,0.017 -0.90709,0.021 -1.36083,0.026"
       style="fill:none;stroke:#0000ff;stroke-width:0.89999998;stroke-linecap:round;stroke-opacity:1"
       id="path1493"
       inkscape:connector-curvature="0" />
    <path
       d="m 327.25094,1030.6607 c 0.7483,-0.019 1.4966,-0.038 2.24238,-0.094 0.79935,-0.061 1.59581,-0.1643 2.38789,-0.291 0.41791,-0.067 0.83461,-0.1401 1.24957,-0.2225 0.42429,-0.084 0.84676,-0.1784 1.26669,-0.2825 0.43331,-0.1074 0.86392,-0.2255 1.29236,-0.3509 0.44089,-0.129 0.87946,-0.2656 1.31804,-0.4022"
       style="fill:none;stroke:#0000ff;stroke-width:0.89999998;stroke-linecap:round;stroke-opacity:1"
       id="path1495"
       inkscape:connector-curvature="0" />
    <path
       d="m 318.93187,1022.4444 c 0.004,0.3257 0.008,0.6515 0.0342,0.9757 0.0244,0.3066 0.0682,0.6119 0.11982,0.9157 0.0489,0.2878 0.10474,0.5742 0.17973,0.8559 0.0719,0.2703 0.1615,0.5361 0.26532,0.796 0.099,0.2479 0.21109,0.4904 0.33379,0.7275 0.11995,0.2317 0.25009,0.4583 0.3937,0.6761 0.13919,0.2111 0.29102,0.414 0.45361,0.6077 0.161,0.1918 0.33254,0.3746 0.51353,0.5477 0.18148,0.1737 0.37246,0.3376 0.57343,0.4879 0.20277,0.1516 0.41571,0.2894 0.63335,0.4194 0.22271,0.1329 0.45035,0.2576 0.68469,0.368 0.23957,0.1129 0.48616,0.2109 0.73605,0.2995 0.25882,0.092 0.52119,0.1736 0.7874,0.2397 0.27363,0.068 0.55132,0.1191 0.8302,0.1626 0.28696,0.045 0.57518,0.081 0.86443,0.1027 0.3045,0.023 0.61014,0.028 0.91578,0.034"
       style="fill:none;stroke:#0000ff;stroke-width:0.89999998;stroke-linecap:round;stroke-opacity:1"
       id="path1497"
       inkscape:connector-curvature="0" />
    <path
       d="m 338.65115,1018.4303 c -10e-4,0.2739 -0.003,0.5479 -0.009,0.8217 -0.007,0.3481 -0.021,0.6961 -0.0342,1.0441 -0.0141,0.3711 -0.0274,0.7422 -0.0513,1.1127 -0.0224,0.3456 -0.054,0.6906 -0.0856,1.0356"
       style="fill:none;stroke:#0000ff;stroke-width:0.89999998;stroke-linecap:round;stroke-opacity:1"
       id="path1499"
       inkscape:connector-curvature="0" />
    <path
       d="m 325.72749,1005.4639 c 0.50831,0.011 1.01662,0.022 1.52345,0.06 0.48171,0.036 0.96208,0.095 1.43786,0.1797 0.45265,0.081 0.90114,0.1836 1.34372,0.3081 0.42316,0.1191 0.84092,0.2578 1.24958,0.4194 0.39661,0.1568 0.78465,0.3352 1.16398,0.5307 0.3639,0.1875 0.71978,0.3908 1.06128,0.6162 0.33343,0.22 0.65314,0.4611 0.95858,0.7189 0.3025,0.2553 0.591,0.527 0.86443,0.8131 0.27271,0.2854 0.53043,0.5851 0.77028,0.8987 0.241,0.315 0.46395,0.6439 0.66758,0.9842 0.20714,0.3462 0.3943,0.7042 0.56487,1.0698 0.1748,0.3747 0.33218,0.7575 0.47073,1.1469 0.14192,0.3989 0.26409,0.8049 0.36803,1.2154 0.10662,0.421 0.19407,0.8466 0.26532,1.2752 0.0736,0.4425 0.12985,0.8881 0.16261,1.3352 0.034,0.4639 0.0427,0.9295 0.0514,1.395"
       style="fill:none;stroke:#0000ff;stroke-width:0.89999998;stroke-linecap:round;stroke-opacity:1"
       id="path1501"
       inkscape:connector-curvature="0" />
    <path
       d="m 311.81102,1021.3916 c 0.0102,-0.5853 0.0204,-1.1707 0.0599,-1.7545 0.0378,-0.5585 0.10256,-1.1154 0.1883,-1.6689 0.0823,-0.5316 0.18408,-1.0601 0.30811,-1.5834 0.12041,-0.5081 0.26183,-1.0114 0.42794,-1.5063 0.16067,-0.4788 0.34444,-0.9498 0.54775,-1.4122 0.19729,-0.4487 0.41298,-0.8893 0.65046,-1.3181 0.22794,-0.4115 0.47595,-0.8121 0.74461,-1.1982 0.26604,-0.3823 0.55233,-0.7504 0.85587,-1.1041 0.29858,-0.3478 0.61385,-0.6816 0.95002,-0.9928 0.33324,-0.3084 0.68703,-0.5945 1.05272,-0.8644 0.36644,-0.2705 0.74485,-0.5248 1.13831,-0.7532 0.40052,-0.2325 0.81664,-0.4381 1.24102,-0.6247 0.43354,-0.1907 0.8757,-0.3615 1.3266,-0.505 0.46025,-0.1465 0.9296,-0.2644 1.40362,-0.3595 0.48667,-0.097 0.97828,-0.1709 1.4721,-0.2139 0.51477,-0.045 1.03195,-0.057 1.54913,-0.069"
       style="fill:none;stroke:#0000ff;stroke-width:0.89999998;stroke-linecap:round;stroke-opacity:1"
       id="path1503"
       inkscape:connector-curvature="0" />
    <path
       d="m 353.41493,1010.3937 c 0.24924,-0.3623 0.49848,-0.7246 0.77028,-1.0698 0.26494,-0.3365 0.55132,-0.6568 0.85587,-0.9586 0.30187,-0.2992 0.6216,-0.5803 0.95858,-0.8388 0.33787,-0.2592 0.69307,-0.4957 1.06128,-0.7103 0.37742,-0.2201 0.76849,-0.4172 1.17254,-0.582 0.41939,-0.1711 0.85275,-0.3073 1.29237,-0.4194 0.46763,-0.1193 0.94235,-0.2114 1.42074,-0.2653 0.51355,-0.058 1.03134,-0.072 1.54913,-0.086"
       style="fill:none;stroke:#0000ff;stroke-width:0.89999998;stroke-linecap:round;stroke-opacity:1"
       id="path1505"
       inkscape:connector-curvature="0" />
    <path
       d="m 360.80965,1011.4892 c -0.26128,0.015 -0.52256,0.03 -0.77884,0.077 -0.2722,0.05 -0.53876,0.1347 -0.79596,0.2397 -0.27831,0.1136 -0.54565,0.2505 -0.80452,0.4022 -0.28557,0.1674 -0.56082,0.3529 -0.82163,0.5564 -0.29481,0.23 -0.57118,0.483 -0.83876,0.7446 -0.3091,0.3022 -0.60647,0.6158 -0.8901,0.9414 -0.32393,0.372 -0.62992,0.7596 -0.92435,1.1555 -0.33219,0.4466 -0.64966,0.9037 -0.96713,1.3608"
       style="fill:none;stroke:#0000ff;stroke-width:0.89999998;stroke-linecap:round;stroke-opacity:1"
       id="path1507"
       inkscape:connector-curvature="0" />
    <path
       d="m 364.39575,1017.5145 c 0.004,-0.2595 0.009,-0.5191 0.009,-0.7788 -1.6e-4,-0.2369 -0.004,-0.4738 -0.0171,-0.7104 -0.0121,-0.2203 -0.032,-0.4402 -0.0599,-0.659 -0.0252,-0.1977 -0.0569,-0.3945 -0.0942,-0.5905 -0.0667,-0.3512 -0.15122,-0.7001 -0.27388,-1.0356 -0.10694,-0.2926 -0.24289,-0.5752 -0.41082,-0.8388 -0.14758,-0.2317 -0.31985,-0.4488 -0.52208,-0.6333 -0.19126,-0.1746 -0.40931,-0.3201 -0.6419,-0.4365 -0.23359,-0.117 -0.48184,-0.2047 -0.73605,-0.2568 -0.27494,-0.056 -0.55685,-0.071 -0.83876,-0.086"
       style="fill:none;stroke:#0000ff;stroke-width:0.89999998;stroke-linecap:round;stroke-opacity:1"
       id="path1509"
       inkscape:connector-curvature="0" />
    <path
       d="m 362.49572,1005.4639 c 0.35978,0.011 0.71955,0.022 1.0784,0.051 0.33875,0.027 0.67668,0.071 1.00993,0.137 0.32106,0.064 0.63778,0.149 0.95001,0.2482 0.3023,0.096 0.60039,0.2053 0.89011,0.3338 0.28234,0.1252 0.55672,0.2688 0.82164,0.4279 0.26407,0.1586 0.51873,0.3328 0.76172,0.5221 0.24089,0.1877 0.47032,0.3903 0.6847,0.6077 0.22021,0.2232 0.42454,0.4619 0.61623,0.7103 0.19694,0.2552 0.38055,0.5206 0.54775,0.796 0.17425,0.287 0.33067,0.5849 0.47073,0.8901 0.14856,0.3237 0.2787,0.6557 0.3937,0.9928 0.12191,0.3573 0.22679,0.7203 0.31668,1.087 0.0957,0.3902 0.17436,0.7846 0.23964,1.1811 0.0692,0.4201 0.12332,0.8427 0.16261,1.2667 0.0417,0.4496 0.0666,0.9008 0.077,1.3522 0.0111,0.4821 0.006,0.9643 0,1.4464"
       style="fill:none;stroke:#0000ff;stroke-width:0.89999998;stroke-linecap:round;stroke-opacity:1"
       id="path1511"
       inkscape:connector-curvature="0" />
    <path
       d="m 156.31633,1315.5549 c -0.65802,-0.013 -1.31604,-0.025 -1.97193,-0.072 -0.62204,-0.044 -1.24216,-0.1195 -1.85895,-0.2157 -0.59348,-0.093 -1.18387,-0.2047 -1.76652,-0.3492 -0.55926,-0.1387 -1.11139,-0.3073 -1.65354,-0.5033 -0.52412,-0.1894 -1.03892,-0.4045 -1.54057,-0.647 -0.48577,-0.2348 -0.95921,-0.4954 -1.41732,-0.7806 -0.45096,-0.2807 -0.88707,-0.5853 -1.30435,-0.914 -0.41361,-0.3259 -0.80872,-0.6754 -1.1811,-1.0476 -0.37238,-0.3723 -0.72203,-0.7673 -1.04759,-1.1811 -0.33313,-0.4235 -0.64105,-0.8666 -0.92434,-1.3249 -0.28935,-0.4681 -0.553,-0.9519 -0.79083,-1.4481 -0.24687,-0.5151 -0.4659,-1.0435 -0.6573,-1.5817 -0.20008,-0.5625 -0.36996,-1.1357 -0.51353,-1.7152 -0.15036,-0.6069 -0.27185,-1.2207 -0.36973,-1.8384 -0.10361,-0.6538 -0.18076,-1.3119 -0.22595,-1.9719 -0.048,-0.7005 -0.0599,-1.403 -0.0719,-2.1054"
       style="fill:none;stroke:#0000ff;stroke-width:0.89999998;stroke-linecap:round;stroke-opacity:1"
       id="path1513"
       inkscape:connector-curvature="0" />
    <path
       d="m 169.2571,1313.583 c -0.47134,0.1409 -0.94268,0.2818 -1.41732,0.4108 -0.51358,0.1397 -1.03103,0.2655 -1.55084,0.38 -0.539,0.1188 -1.08055,0.2255 -1.62273,0.3287 -0.5502,0.1048 -1.10104,0.206 -1.65354,0.2978 -0.55978,0.093 -1.12126,0.1764 -1.68436,0.2465 -0.5669,0.071 -1.13545,0.1277 -1.70489,0.1746 -0.55729,0.046 -1.11544,0.082 -1.67409,0.1027 -0.54401,0.02 -1.08851,0.025 -1.633,0.031"
       style="fill:none;stroke:#0000ff;stroke-width:0.89999998;stroke-linecap:round;stroke-opacity:1"
       id="path1515"
       inkscape:connector-curvature="0" />
    <path
       d="m 157.54878,1308.9819 c 0.89796,-0.023 1.79592,-0.045 2.69086,-0.113 0.95922,-0.073 1.91497,-0.1972 2.86546,-0.3492 0.5015,-0.08 1.00154,-0.1681 1.49949,-0.267 0.50915,-0.1012 1.01611,-0.2141 1.52002,-0.339 0.51998,-0.1289 1.03672,-0.2706 1.55084,-0.4211 0.52906,-0.1548 1.05536,-0.3187 1.58165,-0.4827"
       style="fill:none;stroke:#0000ff;stroke-width:0.89999998;stroke-linecap:round;stroke-opacity:1"
       id="path1517"
       inkscape:connector-curvature="0" />
    <path
       d="m 147.5659,1299.1222 c 0.005,0.3909 0.0101,0.7818 0.0411,1.1709 0.0293,0.368 0.0819,0.7343 0.14379,1.0989 0.0586,0.3453 0.12568,0.689 0.21568,1.027 0.0863,0.3243 0.1938,0.6433 0.31838,0.9552 0.11886,0.2975 0.2533,0.5885 0.40055,0.873 0.14394,0.2781 0.30011,0.55 0.47244,0.8113 0.16702,0.2534 0.34922,0.4968 0.54434,0.7292 0.19319,0.2302 0.39904,0.4496 0.61622,0.6574 0.21778,0.2083 0.44696,0.405 0.68812,0.5854 0.24333,0.182 0.49885,0.3473 0.76002,0.5032 0.26726,0.1595 0.54042,0.3091 0.82163,0.4417 0.28749,0.1354 0.58339,0.253 0.88326,0.3594 0.31059,0.1102 0.62543,0.2083 0.94489,0.2876 0.32835,0.081 0.66158,0.1429 0.99623,0.1951 0.34436,0.054 0.69022,0.098 1.03732,0.1233 0.3654,0.027 0.73217,0.034 1.09893,0.041"
       style="fill:none;stroke:#0000ff;stroke-width:0.89999998;stroke-linecap:round;stroke-opacity:1"
       id="path1519"
       inkscape:connector-curvature="0" />
    <path
       d="m 171.22903,1294.3054 c -0.002,0.3287 -0.004,0.6574 -0.0103,0.9859 -0.009,0.4178 -0.0252,0.8354 -0.0411,1.253 -0.0169,0.4453 -0.0329,0.8907 -0.0616,1.3352 -0.0268,0.4147 -0.0648,0.8287 -0.10271,1.2427"
       style="fill:none;stroke:#0000ff;stroke-width:0.89999998;stroke-linecap:round;stroke-opacity:1"
       id="path1521"
       inkscape:connector-curvature="0" />
    <path
       d="m 155.72064,1278.7456 c 0.60997,0.014 1.21995,0.027 1.82814,0.072 0.57805,0.043 1.1545,0.1142 1.72544,0.2157 0.54317,0.096 1.08136,0.2203 1.61246,0.3697 0.50779,0.143 1.0091,0.3094 1.49949,0.5033 0.47594,0.1882 0.94159,0.4022 1.39678,0.6368 0.43668,0.225 0.86374,0.469 1.27354,0.7394 0.40011,0.2641 0.78377,0.5534 1.15029,0.8628 0.363,0.3063 0.7092,0.6323 1.03731,0.9756 0.32726,0.3425 0.63653,0.7022 0.92434,1.0784 0.2892,0.3781 0.55674,0.7728 0.8011,1.1811 0.24857,0.4155 0.47316,0.8451 0.67785,1.2839 0.20975,0.4496 0.39861,0.9088 0.56488,1.3762 0.1703,0.4787 0.31689,0.9659 0.44163,1.4584 0.12794,0.5052 0.23289,1.016 0.31838,1.5303 0.0883,0.531 0.15582,1.0657 0.19514,1.6022 0.0408,0.5568 0.0512,1.1154 0.0616,1.6741"
       style="fill:none;stroke:#0000ff;stroke-width:0.89999998;stroke-linecap:round;stroke-opacity:1"
       id="path1523"
       inkscape:connector-curvature="0" />
    <path
       d="m 139.02088,1297.859 c 0.0122,-0.7025 0.0244,-1.405 0.0719,-2.1055 0.0454,-0.6702 0.12306,-1.3385 0.22595,-2.0027 0.0988,-0.638 0.22089,-1.272 0.36973,-1.9001 0.14449,-0.6096 0.3142,-1.2136 0.51353,-1.8076 0.1928,-0.5745 0.41333,-1.1397 0.6573,-1.6946 0.23675,-0.5384 0.49558,-1.0671 0.78056,-1.5816 0.27352,-0.4939 0.57113,-0.9746 0.89353,-1.4379 0.31925,-0.4588 0.66279,-0.9005 1.02704,-1.3249 0.3583,-0.4174 0.73662,-0.818 1.14002,-1.1914 0.3999,-0.3701 0.82443,-0.7134 1.26327,-1.0373 0.43973,-0.3246 0.89382,-0.6297 1.36597,-0.9038 0.48063,-0.279 0.97997,-0.5258 1.48922,-0.7497 0.52025,-0.2288 1.05085,-0.4338 1.59192,-0.606 0.5523,-0.1757 1.11552,-0.3173 1.68435,-0.4313 0.58401,-0.1171 1.17393,-0.2052 1.76652,-0.2568 0.61772,-0.054 1.23834,-0.068 1.85895,-0.082"
       style="fill:none;stroke:#0000ff;stroke-width:0.89999998;stroke-linecap:round;stroke-opacity:1"
       id="path1525"
       inkscape:connector-curvature="0" />
    <path
       d="m 318.46628,1318.2972 c -0.0147,-0.2785 -0.0294,-0.5569 -0.10271,-0.8217 -0.0675,-0.2438 -0.18478,-0.476 -0.32865,-0.6881 -0.14547,-0.2144 -0.31815,-0.4083 -0.51352,-0.5751 -0.21221,-0.1812 -0.45118,-0.3305 -0.69839,-0.4622 -0.27151,-0.1447 -0.55296,-0.2684 -0.84218,-0.3698 -0.3181,-0.1115 -0.6456,-0.1961 -0.9757,-0.267 -0.36694,-0.079 -0.7371,-0.1406 -1.1092,-0.1849 -0.40585,-0.048 -0.81402,-0.075 -1.22219,-0.1027"
       style="fill:none;stroke:#0000ff;stroke-width:0.89999998;stroke-linecap:round;stroke-opacity:1"
       id="path1527"
       inkscape:connector-curvature="0" />
    <path
       d="m 309.84937,1323.4427 c 0.38015,-0.01 0.7603,-0.013 1.14002,-0.031 0.35328,-0.017 0.70617,-0.044 1.05785,-0.082 0.31967,-0.035 0.63832,-0.078 0.95516,-0.1335 0.28985,-0.051 0.57818,-0.1107 0.86271,-0.1849 0.263,-0.069 0.52277,-0.1493 0.78056,-0.2362 0.23939,-0.081 0.47708,-0.1667 0.70866,-0.2671 0.2135,-0.092 0.42179,-0.197 0.6265,-0.3081 0.18902,-0.1025 0.37498,-0.2105 0.5546,-0.3286 0.1677,-0.1103 0.32987,-0.2294 0.48271,-0.3595 0.14571,-0.124 0.28294,-0.258 0.41082,-0.4005 0.11906,-0.1328 0.23002,-0.273 0.32866,-0.4211 0.096,-0.1442 0.18028,-0.2959 0.25676,-0.4519 0.14913,-0.3043 0.26851,-0.6253 0.33892,-0.9552 0.069,-0.323 0.091,-0.6545 0.11298,-0.9859"
       style="fill:none;stroke:#0000ff;stroke-width:0.89999998;stroke-linecap:round;stroke-opacity:1"
       id="path1529"
       inkscape:connector-curvature="0" />
    <path
       d="m 302.03355,1319.6015 c 0.0195,0.3131 0.0389,0.6263 0.12325,0.9243 0.0798,0.2819 0.21753,0.5504 0.39027,0.7909 0.17926,0.2496 0.39617,0.4691 0.63677,0.6573 0.27367,0.214 0.57799,0.3875 0.89353,0.534 0.36439,0.1693 0.74376,0.3026 1.12975,0.4109 0.44176,0.1239 0.89221,0.2151 1.34543,0.2875 0.51075,0.082 1.02503,0.1394 1.54057,0.1746 0.58434,0.04 1.17029,0.051 1.75625,0.062"
       style="fill:none;stroke:#0000ff;stroke-width:0.89999998;stroke-linecap:round;stroke-opacity:1"
       id="path1531"
       inkscape:connector-curvature="0" />
    <path
       d="m 305.26874,1314.682 c -0.30538,0.2101 -0.61076,0.4202 -0.9038,0.647 -0.25344,0.1962 -0.49766,0.4049 -0.7292,0.6265 -0.19772,0.1892 -0.3862,0.3879 -0.56487,0.5957 -0.15961,0.1856 -0.3114,0.3785 -0.44163,0.5854 -0.11666,0.1853 -0.21602,0.3818 -0.29785,0.5854 -0.0789,0.1964 -0.14152,0.3992 -0.18487,0.606 -0.0425,0.2028 -0.0665,0.4094 -0.0822,0.6162 -0.0165,0.2189 -0.0237,0.4381 -0.0308,0.6573"
       style="fill:none;stroke:#0000ff;stroke-width:0.89999998;stroke-linecap:round;stroke-opacity:1"
       id="path1533"
       inkscape:connector-curvature="0" />
    <path
       d="m 123.90277,1293.2064 c -0.002,-0.3254 -0.003,-0.6508 -0.0205,-0.9757 -0.0162,-0.3024 -0.0463,-0.6043 -0.0924,-0.9038 -0.0437,-0.2834 -0.10191,-0.5647 -0.1746,-0.8421 -0.0692,-0.2641 -0.15149,-0.5247 -0.24649,-0.7806 -0.0908,-0.2445 -0.19315,-0.4848 -0.30811,-0.7189 -0.10879,-0.2215 -0.22886,-0.4375 -0.35947,-0.6471 -0.1262,-0.2024 -0.26225,-0.3989 -0.41082,-0.5854 -0.14352,-0.1801 -0.29873,-0.351 -0.46217,-0.5135 -0.16001,-0.1591 -0.3279,-0.31 -0.50325,-0.4519 -0.17736,-0.1435 -0.36234,-0.2777 -0.55461,-0.4005 -0.18868,-0.1206 -0.38438,-0.2304 -0.58541,-0.3287 -0.20393,-0.1 -0.41335,-0.1878 -0.6265,-0.267 -0.43585,-0.162 -0.88728,-0.287 -1.34543,-0.3595 -0.47448,-0.075 -0.95617,-0.094 -1.43786,-0.113"
       style="fill:none;stroke:#0000ff;stroke-width:0.89999998;stroke-linecap:round;stroke-opacity:1"
       id="path1535"
       inkscape:connector-curvature="0" />
    <path
       d="m 116.77508,1285.3187 c -0.26748,0 -0.53496,0.01 -0.8011,0.031 -0.2546,0.021 -0.50798,0.058 -0.76001,0.1027 -0.24163,0.043 -0.48201,0.091 -0.71893,0.1541 -0.23339,0.062 -0.46341,0.1375 -0.68812,0.2259 -0.22391,0.088 -0.44254,0.1891 -0.65731,0.2979 -0.2108,0.1068 -0.41787,0.2212 -0.61623,0.3492 -0.19963,0.1288 -0.39043,0.2713 -0.57515,0.4211 -0.18853,0.1528 -0.37072,0.3131 -0.54433,0.4827 -0.35334,0.3451 -0.67113,0.7286 -0.94488,1.14 -0.28203,0.4238 -0.51731,0.8773 -0.71893,1.3454 -0.21765,0.5054 -0.39607,1.0278 -0.5238,1.5611 -0.13974,0.5836 -0.21879,1.1802 -0.29784,1.7768"
       style="fill:none;stroke:#0000ff;stroke-width:0.89999998;stroke-linecap:round;stroke-opacity:1"
       id="path1537"
       inkscape:connector-curvature="0" />
    <path
       d="m 162.68401,1293.2064 c -0.002,-0.3254 -0.003,-0.6508 -0.0205,-0.9757 -0.0162,-0.3024 -0.0463,-0.6043 -0.0924,-0.9038 -0.0437,-0.2834 -0.10191,-0.5647 -0.1746,-0.8421 -0.0692,-0.2641 -0.15149,-0.5247 -0.24649,-0.7806 -0.0908,-0.2445 -0.19315,-0.4848 -0.30812,-0.7189 -0.10879,-0.2215 -0.22885,-0.4375 -0.35946,-0.6471 -0.1262,-0.2024 -0.26225,-0.3989 -0.41082,-0.5854 -0.14352,-0.1801 -0.29873,-0.351 -0.46217,-0.5135 -0.16001,-0.1591 -0.32791,-0.31 -0.50325,-0.4519 -0.17736,-0.1435 -0.36234,-0.2777 -0.55461,-0.4005 -0.18868,-0.1206 -0.38438,-0.2304 -0.58541,-0.3287 -0.20393,-0.1 -0.41336,-0.1878 -0.6265,-0.267 -0.43586,-0.162 -0.88729,-0.287 -1.34543,-0.3595 -0.47449,-0.075 -0.95618,-0.094 -1.43786,-0.113"
       style="fill:none;stroke:#0000ff;stroke-width:0.89999998;stroke-linecap:round;stroke-opacity:1"
       id="path1539"
       inkscape:connector-curvature="0" />
    <path
       d="m 155.55632,1285.3187 c -0.26748,0 -0.53496,0.01 -0.8011,0.031 -0.2546,0.021 -0.50798,0.058 -0.76001,0.1027 -0.24163,0.043 -0.48201,0.091 -0.71894,0.1541 -0.23338,0.062 -0.4634,0.1375 -0.68812,0.2259 -0.2239,0.088 -0.44253,0.1891 -0.6573,0.2979 -0.2108,0.1068 -0.41787,0.2212 -0.61623,0.3492 -0.19963,0.1288 -0.39043,0.2713 -0.57515,0.4211 -0.18853,0.1528 -0.37072,0.3131 -0.54433,0.4827 -0.35334,0.3451 -0.67113,0.7286 -0.94488,1.14 -0.28203,0.4238 -0.51731,0.8773 -0.71894,1.3454 -0.21764,0.5054 -0.39606,1.0278 -0.52379,1.5611 -0.13974,0.5836 -0.21879,1.1802 -0.29784,1.7768"
       style="fill:none;stroke:#0000ff;stroke-width:0.89999998;stroke-linecap:round;stroke-opacity:1"
       id="path1541"
       inkscape:connector-curvature="0" />
    <path
       d="m 0,1297.092 c 0.147788,-0.02 0.294988,-0.046 0.44163,-0.075 0.211361,-0.042 0.421561,-0.089 0.626497,-0.1541 0.196288,-0.062 0.387747,-0.1393 0.575146,-0.2259 0.358959,-0.166 0.703025,-0.3661 1.016775,-0.606 0.298435,-0.2282 0.56944,-0.4924 0.811366,-0.7805 0.243011,-0.2895 0.456681,-0.6032 0.636768,-0.9347 0.18318,-0.3371 0.331614,-0.6927 0.4519,-1.0578 0.125816,-0.3819 0.220837,-0.774 0.277302,-1.1708 0.057039,-0.4009 0.074737,-0.8064 0.092435,-1.212"
       style="fill:none;stroke:#0000ff;stroke-width:0.89999998;stroke-linecap:round;stroke-opacity:1"
       id="path1543"
       inkscape:connector-curvature="0" />
    <path
       d="m 4.929819,1290.875 c -0.019322,-0.4637 -0.038643,-0.9275 -0.102705,-1.3865 -0.057853,-0.4145 -0.152194,-0.8251 -0.287573,-1.2222 -0.126844,-0.372 -0.289715,-0.7322 -0.492982,-1.0681 -0.194865,-0.322 -0.426856,-0.6218 -0.68812,-0.8935 -0.260157,-0.2706 -0.549338,-0.5134 -0.862718,-0.7189 -0.31787,-0.2086 -0.660635,-0.3788 -1.016775,-0.5136 -0.378526,-0.1432 -0.772161,-0.2464 -1.170832,-0.3081 -0.102398,-0.016 -0.205129,-0.029 -0.308114,-0.04"
       style="fill:none;stroke:#0000ff;stroke-width:0.89999998;stroke-linecap:round;stroke-opacity:1"
       id="path1545"
       inkscape:connector-curvature="0" />
    <path
       d="m 309.29476,1297.1503 c 0.24016,0 0.48033,-0.01 0.71893,-0.031 0.22733,-0.021 0.45325,-0.059 0.67785,-0.1027 0.21136,-0.042 0.42157,-0.089 0.6265,-0.1541 0.19629,-0.062 0.38775,-0.1393 0.57515,-0.2259 0.35896,-0.166 0.70302,-0.3661 1.01677,-0.606 0.29844,-0.2282 0.56944,-0.4924 0.81137,-0.7805 0.24301,-0.2895 0.45668,-0.6032 0.63677,-0.9347 0.18318,-0.3371 0.33161,-0.6927 0.4519,-1.0578 0.12581,-0.3819 0.22083,-0.774 0.2773,-1.1708 0.057,-0.4009 0.0747,-0.8064 0.0924,-1.212"
       style="fill:none;stroke:#0000ff;stroke-width:0.89999998;stroke-linecap:round;stroke-opacity:1"
       id="path1547"
       inkscape:connector-curvature="0" />
    <path
       d="m 303.34817,1291.0805 c 0.0197,0.4431 0.0395,0.8863 0.1027,1.3248 0.0579,0.4012 0.15212,0.7984 0.28758,1.1811 0.12797,0.3617 0.29271,0.7104 0.49298,1.0374 0.19665,0.321 0.42755,0.6211 0.68812,0.8935 0.25946,0.2713 0.54834,0.5152 0.86272,0.7189 0.3176,0.2059 0.66122,0.3708 1.01677,0.5033 0.37943,0.1414 0.77243,0.2459 1.17083,0.3081 0.43729,0.068 0.88109,0.085 1.32489,0.1027"
       style="fill:none;stroke:#0000ff;stroke-width:0.89999998;stroke-linecap:round;stroke-opacity:1"
       id="path1549"
       inkscape:connector-curvature="0" />
    <path
       d="m 315.17973,1290.875 c -0.0193,-0.4637 -0.0386,-0.9275 -0.1027,-1.3865 -0.0578,-0.4145 -0.1522,-0.8251 -0.28757,-1.2222 -0.12685,-0.372 -0.28972,-0.7322 -0.49299,-1.0681 -0.19486,-0.322 -0.42685,-0.6218 -0.68812,-0.8935 -0.26015,-0.2706 -0.54934,-0.5134 -0.86272,-0.7189 -0.31786,-0.2086 -0.66063,-0.3788 -1.01677,-0.5136 -0.37853,-0.1432 -0.77216,-0.2464 -1.17083,-0.3081 -0.43759,-0.068 -0.88124,-0.085 -1.32489,-0.1027"
       style="fill:none;stroke:#0000ff;stroke-width:0.89999998;stroke-linecap:round;stroke-opacity:1"
       id="path1551"
       inkscape:connector-curvature="0" />
    <path
       d="m 309.23314,1284.6614 c -0.24008,0 -0.48015,0.01 -0.71893,0.031 -0.2275,0.021 -0.45382,0.056 -0.67785,0.1027 -0.21165,0.044 -0.42126,0.097 -0.6265,0.1644 -0.19581,0.064 -0.38765,0.1399 -0.57515,0.2259 -0.35915,0.1648 -0.70238,0.3663 -1.01677,0.606 -0.3029,0.2309 -0.57903,0.4973 -0.82164,0.7908 -0.24119,0.2918 -0.44925,0.6105 -0.6265,0.9449 -0.18786,0.3544 -0.34111,0.7266 -0.46217,1.1092 -0.12299,0.3887 -0.21275,0.7881 -0.26703,1.1914 -0.0559,0.4149 -0.0741,0.8339 -0.0924,1.253"
       style="fill:none;stroke:#0000ff;stroke-width:0.89999998;stroke-linecap:round;stroke-opacity:1"
       id="path1553"
       inkscape:connector-curvature="0" />
    <path
       d="m 235.67271,1016.6758 c -0.008,-0.4936 -0.0158,-0.9873 -0.0342,-1.4807 -0.0175,-0.4684 -0.0444,-0.9366 -0.0856,-1.4036 -0.0389,-0.4407 -0.0906,-0.8802 -0.15405,-1.318 -0.0598,-0.4127 -0.13018,-0.8239 -0.21397,-1.2325 -0.0791,-0.3858 -0.17024,-0.7694 -0.28244,-1.1469 -0.10697,-0.3598 -0.23311,-0.7141 -0.37658,-1.0612 -0.13511,-0.3269 -0.2856,-0.6474 -0.45361,-0.9586 -0.16257,-0.3011 -0.34156,-0.5936 -0.5392,-0.873 -0.19337,-0.2734 -0.40459,-0.5343 -0.63335,-0.7788 -0.22632,-0.242 -0.4698,-0.4679 -0.72749,-0.6762 -0.26305,-0.2126 -0.5409,-0.4067 -0.83019,-0.582 -0.2971,-0.1799 -0.60625,-0.3399 -0.92435,-0.4793 -0.33665,-0.1474 -0.68331,-0.2718 -1.0356,-0.3765 -0.37962,-0.1129 -0.76576,-0.2029 -1.15543,-0.2739 -0.41908,-0.076 -0.84223,-0.1307 -1.26669,-0.1626 -0.46398,-0.035 -0.92952,-0.043 -1.39507,-0.051"
       style="fill:none;stroke:#0000ff;stroke-width:0.89999998;stroke-linecap:round;stroke-opacity:1"
       id="path1555"
       inkscape:connector-curvature="0" />
    <path
       d="m 225.07703,1029.5652 c 0.41984,-0.01 0.83969,-0.02 1.25813,-0.051 0.39546,-0.03 0.78967,-0.079 1.1811,-0.1455 0.37161,-0.063 0.74072,-0.1405 1.10408,-0.2397 0.34818,-0.095 0.69109,-0.2098 1.02704,-0.3423 0.32444,-0.128 0.64238,-0.2725 0.95002,-0.4365 0.29846,-0.1591 0.58722,-0.3366 0.86443,-0.5307 0.27799,-0.1946 0.54436,-0.4058 0.79596,-0.6333 0.2515,-0.2274 0.48823,-0.4711 0.71037,-0.7275 0.22813,-0.2633 0.44086,-0.5401 0.63335,-0.8302 0.20215,-0.3046 0.38197,-0.6238 0.54775,-0.95 0.17433,-0.343 0.33313,-0.6938 0.47073,-1.0527 0.14599,-0.3808 0.26812,-0.7706 0.37659,-1.164 0.11687,-0.424 0.21787,-0.8521 0.29955,-1.2838 0.0868,-0.4591 0.15187,-0.9222 0.20541,-1.3865 0.0577,-0.5009 0.10212,-1.0032 0.12838,-1.5064 0.028,-0.5357 0.0354,-1.0723 0.0428,-1.609"
       style="fill:none;stroke:#0000ff;stroke-width:0.89999998;stroke-linecap:round;stroke-opacity:1"
       id="path1557"
       inkscape:connector-curvature="0" />
    <path
       d="m 331.5303,1017.5145 c -0.001,-0.2711 -0.003,-0.5423 -0.0171,-0.813 -0.0135,-0.252 -0.0385,-0.5037 -0.077,-0.7532 -0.0364,-0.2362 -0.0849,-0.4706 -0.1455,-0.7018 -0.0577,-0.22 -0.12624,-0.4372 -0.20541,-0.6505 -0.0756,-0.2038 -0.16096,-0.404 -0.25676,-0.5991 -0.0907,-0.1846 -0.19071,-0.3646 -0.29955,-0.5392 -0.10517,-0.1687 -0.21854,-0.3324 -0.34235,-0.4878 -0.1196,-0.1502 -0.24894,-0.2926 -0.38514,-0.428 -0.13334,-0.1325 -0.27326,-0.2583 -0.41938,-0.3765 -0.1478,-0.1196 -0.30195,-0.2314 -0.46217,-0.3338 -0.15723,-0.1005 -0.32032,-0.192 -0.48785,-0.2739 -0.16994,-0.083 -0.34446,-0.1565 -0.52208,-0.2225 -0.36321,-0.135 -0.7394,-0.2391 -1.12119,-0.2996 -0.3954,-0.063 -0.79681,-0.078 -1.19822,-0.094"
       style="fill:none;stroke:#0000ff;stroke-width:0.89999998;stroke-linecap:round;stroke-opacity:1"
       id="path1559"
       inkscape:connector-curvature="0" />
    <path
       d="m 325.59055,1010.9415 c -0.2229,0 -0.44579,0.01 -0.66758,0.026 -0.21217,0.018 -0.42332,0.049 -0.63334,0.086 -0.20136,0.035 -0.40168,0.076 -0.59911,0.1284 -0.19449,0.052 -0.38617,0.1146 -0.57344,0.1883 -0.18658,0.073 -0.36878,0.1575 -0.54775,0.2482 -0.17567,0.089 -0.34823,0.1843 -0.51353,0.291 -0.16635,0.1073 -0.32536,0.2261 -0.47929,0.3509 -0.1571,0.1274 -0.30893,0.2609 -0.45361,0.4023 -0.29444,0.2876 -0.55927,0.6071 -0.7874,0.95 -0.23502,0.3532 -0.43109,0.7311 -0.59911,1.1212 -0.18137,0.4211 -0.33005,0.8564 -0.43649,1.3009 -0.11646,0.4863 -0.18233,0.9835 -0.24821,1.4806"
       style="fill:none;stroke:#0000ff;stroke-width:0.89999998;stroke-linecap:round;stroke-opacity:1"
       id="path1561"
       inkscape:connector-curvature="0" />
    <path
       d="m 0,1323.4355 c 0.246596,-0.01 0.493127,-0.012 0.739473,-0.024 0.353279,-0.017 0.706176,-0.044 1.057857,-0.082 0.319661,-0.035 0.638317,-0.078 0.955152,-0.1335 0.289852,-0.051 0.57818,-0.1107 0.862718,-0.1849 0.263,-0.069 0.522762,-0.1493 0.780555,-0.2362 0.239391,-0.081 0.477083,-0.1667 0.708661,-0.2671 0.213495,-0.092 0.421792,-0.197 0.626498,-0.3081 0.189021,-0.1025 0.374979,-0.2105 0.554605,-0.3286 0.167695,-0.1103 0.32987,-0.2294 0.482711,-0.3595 0.145709,-0.124 0.282934,-0.258 0.410818,-0.4005 0.119057,-0.1328 0.230018,-0.273 0.328655,-0.4211 0.095975,-0.1442 0.180281,-0.2959 0.256761,-0.4519 0.149134,-0.3043 0.268508,-0.6253 0.338925,-0.9552 0.068952,-0.323 0.090964,-0.6545 0.112975,-0.9859"
       style="fill:none;stroke:#0000ff;stroke-width:0.89999998;stroke-linecap:round;stroke-opacity:1"
       id="path1563"
       inkscape:connector-curvature="0" />
    <path
       d="m 8.216364,1318.2972 c -0.014691,-0.2785 -0.029382,-0.5569 -0.102704,-0.8217 -0.067527,-0.2438 -0.184782,-0.476 -0.328655,-0.6881 -0.145469,-0.2144 -0.318151,-0.4083 -0.513523,-0.5751 -0.212204,-0.1812 -0.451177,-0.3305 -0.698391,-0.4622 -0.271507,-0.1447 -0.552953,-0.2684 -0.842177,-0.3698 -0.318094,-0.1115 -0.645596,-0.1961 -0.975693,-0.267 -0.36695,-0.079 -0.737106,-0.1406 -1.109209,-0.1849 -0.40585,-0.048 -0.814017,-0.075 -1.222185,-0.1027"
       style="fill:none;stroke:#0000ff;stroke-width:0.89999998;stroke-linecap:round;stroke-opacity:1"
       id="path1565"
       inkscape:connector-curvature="0" />
    <path
       d="M 701.10236,1258.2047 V 986.83465"
       style="fill:none;stroke:#ff0000;stroke-width:0.89999998;stroke-linecap:round;stroke-opacity:1"
       id="path1567"
       inkscape:connector-curvature="0" />
    <path
       d="M 0,1333.7953 H 625.51181"
       style="fill:none;stroke:#fb0000;stroke-width:0.89999998;stroke-linecap:round;stroke-opacity:1"
       id="path1569"
       inkscape:connector-curvature="0" />
    <path
       d="m 0,1308.0791 4.621705,0.1736"
       style="fill:none;stroke:#0000ff;stroke-width:0.89999998;stroke-linecap:round;stroke-opacity:1"
       id="path1571"
       inkscape:connector-curvature="0" />
    <path
       d="M 16.761383,1285.3187 H 11.05101"
       style="fill:none;stroke:#0000ff;stroke-width:0.89999998;stroke-linecap:round;stroke-opacity:1"
       id="path1573"
       inkscape:connector-curvature="0" />
    <path
       d="m 16.761383,1279.4029 v 5.9158"
       style="fill:none;stroke:#0000ff;stroke-width:0.89999998;stroke-linecap:round;stroke-opacity:1"
       id="path1575"
       inkscape:connector-curvature="0" />
    <path
       d="M 4.693598,1279.4029 H 16.761383"
       style="fill:none;stroke:#0000ff;stroke-width:0.89999998;stroke-linecap:round;stroke-opacity:1"
       id="path1577"
       inkscape:connector-curvature="0" />
    <path
       d="M 625.51181,911.24409 H 0"
       style="fill:none;stroke:#ff0000;stroke-width:0.89999998;stroke-linecap:round;stroke-opacity:1"
       id="path1579"
       inkscape:connector-curvature="0" />
    <path
       d="m 24.649093,1314.8976 v -6.5731"
       style="fill:none;stroke:#0000ff;stroke-width:0.89999998;stroke-linecap:round;stroke-opacity:1"
       id="path1581"
       inkscape:connector-curvature="0" />
    <path
       d="M 54.228004,1314.8976 H 24.649093"
       style="fill:none;stroke:#0000ff;stroke-width:0.89999998;stroke-linecap:round;stroke-opacity:1"
       id="path1583"
       inkscape:connector-curvature="0" />
    <path
       d="m 54.228004,1308.3245 v 6.5731"
       style="fill:none;stroke:#0000ff;stroke-width:0.89999998;stroke-linecap:round;stroke-opacity:1"
       id="path1585"
       inkscape:connector-curvature="0" />
    <path
       d="M 43.711058,1308.3245 H 54.228004"
       style="fill:none;stroke:#0000ff;stroke-width:0.89999998;stroke-linecap:round;stroke-opacity:1"
       id="path1587"
       inkscape:connector-curvature="0" />
    <path
       d="m 43.711058,1279.4029 v 28.9216"
       style="fill:none;stroke:#0000ff;stroke-width:0.89999998;stroke-linecap:round;stroke-opacity:1"
       id="path1589"
       inkscape:connector-curvature="0" />
    <path
       d="M 25.306402,1279.4029 H 43.711058"
       style="fill:none;stroke:#0000ff;stroke-width:0.89999998;stroke-linecap:round;stroke-opacity:1"
       id="path1591"
       inkscape:connector-curvature="0" />
    <path
       d="m 25.306402,1285.976 v -6.5731"
       style="fill:none;stroke:#0000ff;stroke-width:0.89999998;stroke-linecap:round;stroke-opacity:1"
       id="path1593"
       inkscape:connector-curvature="0" />
    <path
       d="M 35.166039,1285.976 H 25.306402"
       style="fill:none;stroke:#0000ff;stroke-width:0.89999998;stroke-linecap:round;stroke-opacity:1"
       id="path1595"
       inkscape:connector-curvature="0" />
    <path
       d="M 35.166039,1308.3245 V 1285.976"
       style="fill:none;stroke:#0000ff;stroke-width:0.89999998;stroke-linecap:round;stroke-opacity:1"
       id="path1597"
       inkscape:connector-curvature="0" />
    <path
       d="M 24.649093,1308.3245 H 35.166039"
       style="fill:none;stroke:#0000ff;stroke-width:0.89999998;stroke-linecap:round;stroke-opacity:1"
       id="path1599"
       inkscape:connector-curvature="0" />
    <path
       d="m 70.178021,1279.4029 0.205409,5.238"
       style="fill:none;stroke:#0000ff;stroke-width:0.89999998;stroke-linecap:round;stroke-opacity:1"
       id="path1601"
       inkscape:connector-curvature="0" />
    <path
       d="m 62.773023,1279.4029 h 7.404998"
       style="fill:none;stroke:#0000ff;stroke-width:0.89999998;stroke-linecap:round;stroke-opacity:1"
       id="path1603"
       inkscape:connector-curvature="0" />
    <path
       d="m 62.773023,1314.8976 v -35.4947"
       style="fill:none;stroke:#0000ff;stroke-width:0.89999998;stroke-linecap:round;stroke-opacity:1"
       id="path1605"
       inkscape:connector-curvature="0" />
    <path
       d="M 71.318042,1314.8976 H 62.773023"
       style="fill:none;stroke:#0000ff;stroke-width:0.89999998;stroke-linecap:round;stroke-opacity:1"
       id="path1607"
       inkscape:connector-curvature="0" />
    <path
       d="m 71.318042,1292.467 v 22.4306"
       style="fill:none;stroke:#0000ff;stroke-width:0.89999998;stroke-linecap:round;stroke-opacity:1"
       id="path1609"
       inkscape:connector-curvature="0" />
    <path
       d="m 83.806915,1314.8976 v -23.0982"
       style="fill:none;stroke:#0000ff;stroke-width:0.89999998;stroke-linecap:round;stroke-opacity:1"
       id="path1611"
       inkscape:connector-curvature="0" />
    <path
       d="M 92.351934,1314.8976 H 83.806915"
       style="fill:none;stroke:#0000ff;stroke-width:0.89999998;stroke-linecap:round;stroke-opacity:1"
       id="path1613"
       inkscape:connector-curvature="0" />
    <path
       d="m 92.351934,1291.1421 v 23.7555"
       style="fill:none;stroke:#0000ff;stroke-width:0.89999998;stroke-linecap:round;stroke-opacity:1"
       id="path1615"
       inkscape:connector-curvature="0" />
    <path
       d="m 130.47586,1307.0099 v 6.5731"
       style="fill:none;stroke:#0000ff;stroke-width:0.89999998;stroke-linecap:round;stroke-opacity:1"
       id="path1617"
       inkscape:connector-curvature="0" />
    <path
       d="M 132.23211,1299.1222 H 108.78466"
       style="fill:none;stroke:#0000ff;stroke-width:0.89999998;stroke-linecap:round;stroke-opacity:1"
       id="path1619"
       inkscape:connector-curvature="0" />
    <path
       d="m 188.63745,1279.4029 0.30812,5.2585"
       style="fill:none;stroke:#0000ff;stroke-width:0.89999998;stroke-linecap:round;stroke-opacity:1"
       id="path1621"
       inkscape:connector-curvature="0" />
    <path
       d="m 181.08867,1279.4029 h 7.54878"
       style="fill:none;stroke:#0000ff;stroke-width:0.89999998;stroke-linecap:round;stroke-opacity:1"
       id="path1623"
       inkscape:connector-curvature="0" />
    <path
       d="m 181.08867,1314.8976 v -35.4947"
       style="fill:none;stroke:#0000ff;stroke-width:0.89999998;stroke-linecap:round;stroke-opacity:1"
       id="path1625"
       inkscape:connector-curvature="0" />
    <path
       d="m 189.63369,1314.8976 h -8.54502"
       style="fill:none;stroke:#0000ff;stroke-width:0.89999998;stroke-linecap:round;stroke-opacity:1"
       id="path1627"
       inkscape:connector-curvature="0" />
    <path
       d="m 189.63369,1292.5491 v 22.3485"
       style="fill:none;stroke:#0000ff;stroke-width:0.89999998;stroke-linecap:round;stroke-opacity:1"
       id="path1629"
       inkscape:connector-curvature="0" />
    <path
       d="m 210.66758,1293.2064 h -8.54502"
       style="fill:none;stroke:#0000ff;stroke-width:0.89999998;stroke-linecap:round;stroke-opacity:1"
       id="path1631"
       inkscape:connector-curvature="0" />
    <path
       d="m 218.55529,1314.8976 v -6.5731"
       style="fill:none;stroke:#0000ff;stroke-width:0.89999998;stroke-linecap:round;stroke-opacity:1"
       id="path1633"
       inkscape:connector-curvature="0" />
    <path
       d="M 248.1342,1314.8976 H 218.55529"
       style="fill:none;stroke:#0000ff;stroke-width:0.89999998;stroke-linecap:round;stroke-opacity:1"
       id="path1635"
       inkscape:connector-curvature="0" />
    <path
       d="m 248.1342,1308.3245 v 6.5731"
       style="fill:none;stroke:#0000ff;stroke-width:0.89999998;stroke-linecap:round;stroke-opacity:1"
       id="path1637"
       inkscape:connector-curvature="0" />
    <path
       d="M 237.61725,1308.3245 H 248.1342"
       style="fill:none;stroke:#0000ff;stroke-width:0.89999998;stroke-linecap:round;stroke-opacity:1"
       id="path1639"
       inkscape:connector-curvature="0" />
    <path
       d="m 237.61725,1279.4029 v 28.9216"
       style="fill:none;stroke:#0000ff;stroke-width:0.89999998;stroke-linecap:round;stroke-opacity:1"
       id="path1641"
       inkscape:connector-curvature="0" />
    <path
       d="m 219.2126,1279.4029 h 18.40465"
       style="fill:none;stroke:#0000ff;stroke-width:0.89999998;stroke-linecap:round;stroke-opacity:1"
       id="path1643"
       inkscape:connector-curvature="0" />
    <path
       d="m 219.2126,1285.976 v -6.5731"
       style="fill:none;stroke:#0000ff;stroke-width:0.89999998;stroke-linecap:round;stroke-opacity:1"
       id="path1645"
       inkscape:connector-curvature="0" />
    <path
       d="M 229.07224,1285.976 H 219.2126"
       style="fill:none;stroke:#0000ff;stroke-width:0.89999998;stroke-linecap:round;stroke-opacity:1"
       id="path1647"
       inkscape:connector-curvature="0" />
    <path
       d="M 229.07224,1308.3245 V 1285.976"
       style="fill:none;stroke:#0000ff;stroke-width:0.89999998;stroke-linecap:round;stroke-opacity:1"
       id="path1649"
       inkscape:connector-curvature="0" />
    <path
       d="m 218.55529,1308.3245 h 10.51695"
       style="fill:none;stroke:#0000ff;stroke-width:0.89999998;stroke-linecap:round;stroke-opacity:1"
       id="path1651"
       inkscape:connector-curvature="0" />
    <path
       d="m 264.08422,1279.4029 0.20541,5.238"
       style="fill:none;stroke:#0000ff;stroke-width:0.89999998;stroke-linecap:round;stroke-opacity:1"
       id="path1653"
       inkscape:connector-curvature="0" />
    <path
       d="m 256.67922,1279.4029 h 7.405"
       style="fill:none;stroke:#0000ff;stroke-width:0.89999998;stroke-linecap:round;stroke-opacity:1"
       id="path1655"
       inkscape:connector-curvature="0" />
    <path
       d="m 256.67922,1314.8976 v -35.4947"
       style="fill:none;stroke:#0000ff;stroke-width:0.89999998;stroke-linecap:round;stroke-opacity:1"
       id="path1657"
       inkscape:connector-curvature="0" />
    <path
       d="m 265.22424,1314.8976 h -8.54502"
       style="fill:none;stroke:#0000ff;stroke-width:0.89999998;stroke-linecap:round;stroke-opacity:1"
       id="path1659"
       inkscape:connector-curvature="0" />
    <path
       d="m 265.22424,1292.467 v 22.4306"
       style="fill:none;stroke:#0000ff;stroke-width:0.89999998;stroke-linecap:round;stroke-opacity:1"
       id="path1661"
       inkscape:connector-curvature="0" />
    <path
       d="m 277.71311,1314.8976 v -23.0982"
       style="fill:none;stroke:#0000ff;stroke-width:0.89999998;stroke-linecap:round;stroke-opacity:1"
       id="path1663"
       inkscape:connector-curvature="0" />
    <path
       d="m 286.25813,1314.8976 h -8.54502"
       style="fill:none;stroke:#0000ff;stroke-width:0.89999998;stroke-linecap:round;stroke-opacity:1"
       id="path1665"
       inkscape:connector-curvature="0" />
    <path
       d="m 286.25813,1291.1421 v 23.7555"
       style="fill:none;stroke:#0000ff;stroke-width:0.89999998;stroke-linecap:round;stroke-opacity:1"
       id="path1667"
       inkscape:connector-curvature="0" />
    <path
       d="M 314.94351,1279.4029 H 327.0113"
       style="fill:none;stroke:#0000ff;stroke-width:0.89999998;stroke-linecap:round;stroke-opacity:1"
       id="path1669"
       inkscape:connector-curvature="0" />
    <path
       d="m 306.66553,1307.9445 8.20609,0.3082"
       style="fill:none;stroke:#0000ff;stroke-width:0.89999998;stroke-linecap:round;stroke-opacity:1"
       id="path1671"
       inkscape:connector-curvature="0" />
    <path
       d="m 327.0113,1285.3187 h -5.71038"
       style="fill:none;stroke:#0000ff;stroke-width:0.89999998;stroke-linecap:round;stroke-opacity:1"
       id="path1673"
       inkscape:connector-curvature="0" />
    <path
       d="m 327.0113,1279.4029 v 5.9158"
       style="fill:none;stroke:#0000ff;stroke-width:0.89999998;stroke-linecap:round;stroke-opacity:1"
       id="path1675"
       inkscape:connector-curvature="0" />
    <path
       d="m 294.66792,1023.0178 6.01678,-17.0062"
       style="fill:none;stroke:#0000ff;stroke-width:0.89999998;stroke-linecap:round;stroke-opacity:1"
       id="path1677"
       inkscape:connector-curvature="0" />
    <path
       d="m 292.91339,1028.1958 1.75453,-5.178"
       style="fill:none;stroke:#0000ff;stroke-width:0.89999998;stroke-linecap:round;stroke-opacity:1"
       id="path1679"
       inkscape:connector-curvature="0" />
    <path
       d="m 291.0647,1023.052 1.84869,5.1438"
       style="fill:none;stroke:#0000ff;stroke-width:0.89999998;stroke-linecap:round;stroke-opacity:1"
       id="path1681"
       inkscape:connector-curvature="0" />
    <path
       d="m 284.88531,1006.0116 6.17939,17.0404"
       style="fill:none;stroke:#0000ff;stroke-width:0.89999998;stroke-linecap:round;stroke-opacity:1"
       id="path1683"
       inkscape:connector-curvature="0" />
    <path
       d="m 277.02841,1006.0116 h 7.8569"
       style="fill:none;stroke:#0000ff;stroke-width:0.89999998;stroke-linecap:round;stroke-opacity:1"
       id="path1685"
       inkscape:connector-curvature="0" />
    <path
       d="m 288.78809,1035.5906 -11.75968,-29.579"
       style="fill:none;stroke:#0000ff;stroke-width:0.89999998;stroke-linecap:round;stroke-opacity:1"
       id="path1687"
       inkscape:connector-curvature="0" />
    <path
       d="m 278.12393,1047.3417 v -6.2736"
       style="fill:none;stroke:#0000ff;stroke-width:0.89999998;stroke-linecap:round;stroke-opacity:1"
       id="path1689"
       inkscape:connector-curvature="0" />
    <path
       d="m 308.2506,1006.0116 -10.13352,26.1041"
       style="fill:none;stroke:#0000ff;stroke-width:0.89999998;stroke-linecap:round;stroke-opacity:1"
       id="path1691"
       inkscape:connector-curvature="0" />
    <path
       d="m 300.6847,1006.0116 h 7.5659"
       style="fill:none;stroke:#0000ff;stroke-width:0.89999998;stroke-linecap:round;stroke-opacity:1"
       id="path1693"
       inkscape:connector-curvature="0" />
    <path
       d="m 256.20507,1006.0116 0.25676,4.3821"
       style="fill:none;stroke:#0000ff;stroke-width:0.89999998;stroke-linecap:round;stroke-opacity:1"
       id="path1695"
       inkscape:connector-curvature="0" />
    <path
       d="m 249.91441,1006.0116 h 6.29066"
       style="fill:none;stroke:#0000ff;stroke-width:0.89999998;stroke-linecap:round;stroke-opacity:1"
       id="path1697"
       inkscape:connector-curvature="0" />
    <path
       d="m 249.91441,1035.5906 v -29.579"
       style="fill:none;stroke:#0000ff;stroke-width:0.89999998;stroke-linecap:round;stroke-opacity:1"
       id="path1699"
       inkscape:connector-curvature="0" />
    <path
       d="m 257.03526,1035.5906 h -7.12085"
       style="fill:none;stroke:#0000ff;stroke-width:0.89999998;stroke-linecap:round;stroke-opacity:1"
       id="path1701"
       inkscape:connector-curvature="0" />
    <path
       d="m 257.03526,1016.9668 v 18.6238"
       style="fill:none;stroke:#0000ff;stroke-width:0.89999998;stroke-linecap:round;stroke-opacity:1"
       id="path1703"
       inkscape:connector-curvature="0" />
    <path
       d="m 274.56351,1017.5145 h -7.12085"
       style="fill:none;stroke:#0000ff;stroke-width:0.89999998;stroke-linecap:round;stroke-opacity:1"
       id="path1705"
       inkscape:connector-curvature="0" />
    <path
       d="M 214.85792,1035.5906 V 997.79528"
       style="fill:none;stroke:#0000ff;stroke-width:0.89999998;stroke-linecap:round;stroke-opacity:1"
       id="path1707"
       inkscape:connector-curvature="0" />
    <path
       d="m 224.43512,1035.5906 h -9.5772"
       style="fill:none;stroke:#0000ff;stroke-width:0.89999998;stroke-linecap:round;stroke-opacity:1"
       id="path1709"
       inkscape:connector-curvature="0" />
    <path
       d="m 214.85792,997.79528 h 11.16913"
       style="fill:none;stroke:#0000ff;stroke-width:0.89999998;stroke-linecap:round;stroke-opacity:1"
       id="path1711"
       inkscape:connector-curvature="0" />
    <path
       d="M 438.4252,1073.3858 H 147.40157"
       style="fill:none;stroke:#ff0000;stroke-width:0.89999998;stroke-linecap:round;stroke-opacity:1"
       id="path1713"
       inkscape:connector-curvature="0" />
    <path
       d="m 147.40157,1073.3858 v 98.2677"
       style="fill:none;stroke:#ff0000;stroke-width:0.89999998;stroke-linecap:round;stroke-opacity:1"
       id="path1715"
       inkscape:connector-curvature="0" />
    <path
       d="M 147.40157,1171.6535 H 438.4252"
       style="fill:none;stroke:#ff0000;stroke-width:0.89999998;stroke-linecap:round;stroke-opacity:1"
       id="path1717"
       inkscape:connector-curvature="0" />
    <path
       d="m 438.4252,1171.6535 v -98.2677"
       style="fill:none;stroke:#ff0000;stroke-width:0.89999998;stroke-linecap:round;stroke-opacity:1"
       id="path1719"
       inkscape:connector-curvature="0" />
    <path
       d="m 337.00787,1029.0175 v 5.4775"
       style="fill:none;stroke:#0000ff;stroke-width:0.89999998;stroke-linecap:round;stroke-opacity:1"
       id="path1721"
       inkscape:connector-curvature="0" />
    <path
       d="M 338.47141,1022.4444 H 318.93187"
       style="fill:none;stroke:#0000ff;stroke-width:0.89999998;stroke-linecap:round;stroke-opacity:1"
       id="path1723"
       inkscape:connector-curvature="0" />
    <path
       d="m 353.15816,1006.0116 0.25677,4.3821"
       style="fill:none;stroke:#0000ff;stroke-width:0.89999998;stroke-linecap:round;stroke-opacity:1"
       id="path1725"
       inkscape:connector-curvature="0" />
    <path
       d="m 346.86751,1006.0116 h 6.29065"
       style="fill:none;stroke:#0000ff;stroke-width:0.89999998;stroke-linecap:round;stroke-opacity:1"
       id="path1727"
       inkscape:connector-curvature="0" />
    <path
       d="m 346.86751,1035.5906 v -29.579"
       style="fill:none;stroke:#0000ff;stroke-width:0.89999998;stroke-linecap:round;stroke-opacity:1"
       id="path1729"
       inkscape:connector-curvature="0" />
    <path
       d="m 353.98836,1035.5906 h -7.12085"
       style="fill:none;stroke:#0000ff;stroke-width:0.89999998;stroke-linecap:round;stroke-opacity:1"
       id="path1731"
       inkscape:connector-curvature="0" />
    <path
       d="m 353.98836,1016.9668 v 18.6238"
       style="fill:none;stroke:#0000ff;stroke-width:0.89999998;stroke-linecap:round;stroke-opacity:1"
       id="path1733"
       inkscape:connector-curvature="0" />
    <path
       d="m 371.5166,1017.5145 h -7.12085"
       style="fill:none;stroke:#0000ff;stroke-width:0.89999998;stroke-linecap:round;stroke-opacity:1"
       id="path1735"
       inkscape:connector-curvature="0" />
    <path
       d="m 169.2571,1307.0099 v 6.5731"
       style="fill:none;stroke:#0000ff;stroke-width:0.89999998;stroke-linecap:round;stroke-opacity:1"
       id="path1737"
       inkscape:connector-curvature="0" />
    <path
       d="M 171.01335,1299.1222 H 147.5659"
       style="fill:none;stroke:#0000ff;stroke-width:0.89999998;stroke-linecap:round;stroke-opacity:1"
       id="path1739"
       inkscape:connector-curvature="0" />
    <path
       d="m 312.67374,1314.8257 -7.405,-0.1437"
       style="fill:none;stroke:#0000ff;stroke-width:0.89999998;stroke-linecap:round;stroke-opacity:1"
       id="path1741"
       inkscape:connector-curvature="0" />
    <path
       d="m 108.92845,1293.2064 h 14.97432"
       style="fill:none;stroke:#0000ff;stroke-width:0.89999998;stroke-linecap:round;stroke-opacity:1"
       id="path1743"
       inkscape:connector-curvature="0" />
    <path
       d="m 147.70969,1293.2064 h 14.97432"
       style="fill:none;stroke:#0000ff;stroke-width:0.89999998;stroke-linecap:round;stroke-opacity:1"
       id="path1745"
       inkscape:connector-curvature="0" />
    <path
       d="m 221.97877,1003.8206 v 25.7446"
       style="fill:none;stroke:#0000ff;stroke-width:0.89999998;stroke-linecap:round;stroke-opacity:1"
       id="path1747"
       inkscape:connector-curvature="0" />
    <path
       d="m 225.56487,1003.8206 h -3.5861"
       style="fill:none;stroke:#0000ff;stroke-width:0.89999998;stroke-linecap:round;stroke-opacity:1"
       id="path1749"
       inkscape:connector-curvature="0" />
    <path
       d="m 221.97877,1029.5652 h 3.09826"
       style="fill:none;stroke:#0000ff;stroke-width:0.89999998;stroke-linecap:round;stroke-opacity:1"
       id="path1751"
       inkscape:connector-curvature="0" />
    <path
       d="M 319.05169,1017.5145 H 331.5303"
       style="fill:none;stroke:#0000ff;stroke-width:0.89999998;stroke-linecap:round;stroke-opacity:1"
       id="path1753"
       inkscape:connector-curvature="0" />
    <path
       d="M 0,911.24409 V 1333.7953"
       style="fill:none;stroke:#ff0000;stroke-width:0.89999998;stroke-linecap:round;stroke-opacity:1"
       id="path1755"
       inkscape:connector-curvature="0" />
    <path
       d="M 2.423827,1314.8257 0,1314.7787"
       style="fill:none;stroke:#0000ff;stroke-width:0.89999998;stroke-linecap:round;stroke-opacity:1"
       id="path1757"
       inkscape:connector-curvature="0" />
    <path
       d="M 701.10236,986.83465 A 75.590551,75.590551 0 0 0 625.51181,911.24409"
       style="fill:none;stroke:#ff0000;stroke-width:0.89999998;stroke-linecap:round;stroke-opacity:1"
       id="path1759"
       inkscape:connector-curvature="0" />
    <path
       d="m 625.51181,1333.7953 a 75.590551,75.590551 0 0 0 75.59055,-75.5906"
       style="fill:none;stroke:#ff0000;stroke-width:0.89999998;stroke-linecap:round;stroke-opacity:1"
       id="path1761"
       inkscape:connector-curvature="0" />
  </g>
</svg>
