  0
SECTION
  2
HEADER
  9
$ACADVER
  1
AC1015
  9
$ACADMAINTVER
 70
     6
  9
$DWGCODEPAGE
  3
ANSI_1252
  9
$INSBASE
 10
0.0
 20
0.0
 30
0.0
  9
$EXTMIN
 10
-0.0000000001
 20
-55.9
 30
0.0
  9
$EXTMAX
 10
185.5
 20
55.9
 30
0.0
  9
$LIMMIN
 10
0.0
 20
0.0
  9
$LIMMAX
 10
420.0
 20
297.0
  9
$ORTHOMODE
 70
     0
  9
$REGENMODE
 70
     1
  9
$FILLMODE
 70
     1
  9
$QTEXTMODE
 70
     0
  9
$MIRRTEXT
 70
     1
  9
$LTSCALE
 40
1.0
  9
$ATTMODE
 70
     1
  9
$TEXTSIZE
 40
6.35
  9
$TRACEWID
 40
1.0
  9
$TEXTSTYLE
  7
Standard
  9
$CLAYER
  8
0
  9
$CELTYPE
  6
ByLayer
  9
$CECOLOR
 62
   256
  9
$CELTSCALE
 40
1.0
  9
$DISPSILH
 70
     0
  9
$DIMSCALE
 40
1.0
  9
$DIMASZ
 40
5.9944
  9
$DIMEXO
 40
0.9906
  9
$DIMDLI
 40
3.75
  9
$DIMRND
 40
0.0
  9
$DIMDLE
 40
0.0
  9
$DIMEXE
 40
0.9906
  9
$DIMTP
 40
0.0
  9
$DIMTM
 40
0.0
  9
$DIMTXT
 40
6.35
  9
$DIMCEN
 40
2.5
  9
$DIMTSZ
 40
0.0
  9
$DIMTOL
 70
     0
  9
$DIMLIM
 70
     0
  9
$DIMTIH
 70
     1
  9
$DIMTOH
 70
     1
  9
$DIMSE1
 70
     0
  9
$DIMSE2
 70
     0
  9
$DIMTAD
 70
     1
  9
$DIMZIN
 70
     1
  9
$DIMBLK
  1

  9
$DIMASO
 70
     1
  9
$DIMSHO
 70
     1
  9
$DIMPOST
  1

  9
$DIMAPOST
  1

  9
$DIMALT
 70
     0
  9
$DIMALTD
 70
     3
  9
$DIMALTF
 40
0.0393700787
  9
$DIMLFAC
 40
1.0
  9
$DIMTOFL
 70
     1
  9
$DIMTVP
 40
0.0
  9
$DIMTIX
 70
     0
  9
$DIMSOXD
 70
     0
  9
$DIMSAH
 70
     0
  9
$DIMBLK1
  1

  9
$DIMBLK2
  1

  9
$DIMSTYLE
  2
ISO-25
  9
$DIMCLRD
 70
     0
  9
$DIMCLRE
 70
     0
  9
$DIMCLRT
 70
     0
  9
$DIMTFAC
 40
1.0
  9
$DIMGAP
 40
1.524
  9
$DIMJUST
 70
     0
  9
$DIMSD1
 70
     0
  9
$DIMSD2
 70
     0
  9
$DIMTOLJ
 70
     0
  9
$DIMTZIN
 70
     1
  9
$DIMALTZ
 70
     0
  9
$DIMALTTZ
 70
     0
  9
$DIMUPT
 70
     0
  9
$DIMDEC
 70
     2
  9
$DIMTDEC
 70
     2
  9
$DIMALTU
 70
     2
  9
$DIMALTTD
 70
     3
  9
$DIMTXSTY
  7
Standard
  9
$DIMAUNIT
 70
     0
  9
$DIMADEC
 70
     2
  9
$DIMALTRND
 40
0.0
  9
$DIMAZIN
 70
     0
  9
$DIMDSEP
 70
    44
  9
$DIMATFIT
 70
     3
  9
$DIMFRAC
 70
     0
  9
$DIMLDRBLK
  1

  9
$DIMLUNIT
 70
     2
  9
$DIMLWD
 70
    -2
  9
$DIMLWE
 70
    -2
  9
$DIMTMOVE
 70
     0
  9
$LUNITS
 70
     2
  9
$LUPREC
 70
     2
  9
$SKETCHINC
 40
1.0
  9
$FILLETRAD
 40
10.0
  9
$AUNITS
 70
     0
  9
$AUPREC
 70
     2
  9
$MENU
  1
.
  9
$ELEVATION
 40
0.0
  9
$PELEVATION
 40
0.0
  9
$THICKNESS
 40
0.0
  9
$LIMCHECK
 70
     0
  9
$CHAMFERA
 40
0.0
  9
$CHAMFERB
 40
0.0
  9
$CHAMFERC
 40
0.0
  9
$CHAMFERD
 40
0.0
  9
$SKPOLY
 70
     0
  9
$TDCREATE
 40
2458373.864126308
  9
$TDUCREATE
 40
2458374.072459641
  9
$TDUPDATE
 40
2458373.86416368
  9
$TDUUPDATE
 40
2458374.072497014
  9
$TDINDWG
 40
0.0000000116
  9
$TDUSRTIMER
 40
0.0000000116
  9
$USRTIMER
 70
     1
  9
$ANGBASE
 50
0.0
  9
$ANGDIR
 70
     0
  9
$PDMODE
 70
     0
  9
$PDSIZE
 40
-1.0
  9
$PLINEWID
 40
0.0
  9
$SPLFRAME
 70
     0
  9
$SPLINETYPE
 70
     6
  9
$SPLINESEGS
 70
     8
  9
$HANDSEED
  5
1A4
  9
$SURFTAB1
 70
     6
  9
$SURFTAB2
 70
     6
  9
$SURFTYPE
 70
     6
  9
$SURFU
 70
     6
  9
$SURFV
 70
     6
  9
$UCSBASE
  2

  9
$UCSNAME
  2

  9
$UCSORG
 10
0.0
 20
0.0
 30
0.0
  9
$UCSXDIR
 10
1.0
 20
0.0
 30
0.0
  9
$UCSYDIR
 10
0.0
 20
1.0
 30
0.0
  9
$UCSORTHOREF
  2

  9
$UCSORTHOVIEW
 70
     0
  9
$UCSORGTOP
 10
0.0
 20
0.0
 30
0.0
  9
$UCSORGBOTTOM
 10
0.0
 20
0.0
 30
0.0
  9
$UCSORGLEFT
 10
0.0
 20
0.0
 30
0.0
  9
$UCSORGRIGHT
 10
0.0
 20
0.0
 30
0.0
  9
$UCSORGFRONT
 10
0.0
 20
0.0
 30
0.0
  9
$UCSORGBACK
 10
0.0
 20
0.0
 30
0.0
  9
$PUCSBASE
  2

  9
$PUCSNAME
  2

  9
$PUCSORG
 10
0.0
 20
0.0
 30
0.0
  9
$PUCSXDIR
 10
1.0
 20
0.0
 30
0.0
  9
$PUCSYDIR
 10
0.0
 20
1.0
 30
0.0
  9
$PUCSORTHOREF
  2

  9
$PUCSORTHOVIEW
 70
     0
  9
$PUCSORGTOP
 10
0.0
 20
0.0
 30
0.0
  9
$PUCSORGBOTTOM
 10
0.0
 20
0.0
 30
0.0
  9
$PUCSORGLEFT
 10
0.0
 20
0.0
 30
0.0
  9
$PUCSORGRIGHT
 10
0.0
 20
0.0
 30
0.0
  9
$PUCSORGFRONT
 10
0.0
 20
0.0
 30
0.0
  9
$PUCSORGBACK
 10
0.0
 20
0.0
 30
0.0
  9
$USERI1
 70
     0
  9
$USERI2
 70
     0
  9
$USERI3
 70
     0
  9
$USERI4
 70
     0
  9
$USERI5
 70
     0
  9
$USERR1
 40
0.0
  9
$USERR2
 40
0.0
  9
$USERR3
 40
0.0
  9
$USERR4
 40
0.0
  9
$USERR5
 40
0.0
  9
$WORLDVIEW
 70
     1
  9
$SHADEDGE
 70
     3
  9
$SHADEDIF
 70
    70
  9
$TILEMODE
 70
     1
  9
$MAXACTVP
 70
    64
  9
$PINSBASE
 10
0.0
 20
0.0
 30
0.0
  9
$PLIMCHECK
 70
     0
  9
$PEXTMIN
 10
1.0000000000E+20
 20
1.0000000000E+20
 30
1.0000000000E+20
  9
$PEXTMAX
 10
-1.0000000000E+20
 20
-1.0000000000E+20
 30
-1.0000000000E+20
  9
$PLIMMIN
 10
0.0
 20
0.0
  9
$PLIMMAX
 10
420.0
 20
297.0
  9
$UNITMODE
 70
     0
  9
$VISRETAIN
 70
     1
  9
$PLINEGEN
 70
     0
  9
$PSLTSCALE
 70
     1
  9
$TREEDEPTH
 70
  3020
  9
$CMLSTYLE
  2
Standard
  9
$CMLJUST
 70
     0
  9
$CMLSCALE
 40
20.0
  9
$PROXYGRAPHICS
 70
     1
  9
$MEASUREMENT
 70
     1
  9
$CELWEIGHT
370
    -1
  9
$ENDCAPS
280
     0
  9
$JOINSTYLE
280
     0
  9
$LWDISPLAY
290
     1
  9
$INSUNITS
 70
     4
  9
$HYPERLINKBASE
  1

  9
$STYLESHEET
  1

  9
$XEDIT
290
     1
  9
$CEPSNTYPE
380
     0
  9
$PSTYLEMODE
290
     1
  9
$FINGERPRINTGUID
  2
{986A9DFE-0276-4EE4-9879-B48DBAC978BC}
  9
$VERSIONGUID
  2
{FAEB1C32-E019-11D5-929B-00C0DF256EC4}
  9
$EXTNAMES
290
     1
  9
$PSVPSCALE
 40
0.0
  9
$OLESTARTUP
290
     0
  0
ENDSEC
  0
SECTION
  2
CLASSES
  0
CLASS
  1
ACDBDICTIONARYWDFLT
  2
AcDbDictionaryWithDefault
  3
ObjectDBX Classes
 90
        0
280
     0
281
     0
  0
CLASS
  1
VISUALSTYLE
  2
AcDbVisualStyle
  3
ObjectDBX Classes
 90
     4095
280
     0
281
     0
  0
CLASS
  1
MATERIAL
  2
AcDbMaterial
  3
ObjectDBX Classes
 90
     1153
280
     0
281
     0
  0
CLASS
  1
SCALE
  2
AcDbScale
  3
ObjectDBX Classes
 90
     1153
280
     0
281
     0
  0
CLASS
  1
TABLESTYLE
  2
AcDbTableStyle
  3
ObjectDBX Classes
 90
     4095
280
     0
281
     0
  0
CLASS
  1
MLEADERSTYLE
  2
AcDbMLeaderStyle
  3
ACDB_MLEADERSTYLE_CLASS
 90
     4095
280
     0
281
     0
  0
CLASS
  1
SUN
  2
AcDbSun
  3
SCENEOE
 90
     1153
280
     0
281
     0
  0
CLASS
  1
ACDBPLACEHOLDER
  2
AcDbPlaceHolder
  3
ObjectDBX Classes
 90
        0
280
     0
281
     0
  0
CLASS
  1
LAYOUT
  2
AcDbLayout
  3
ObjectDBX Classes
 90
        0
280
     0
281
     0
  0
ENDSEC
  0
SECTION
  2
TABLES
  0
TABLE
  2
VPORT
  5
8
330
0
100
AcDbSymbolTable
 70
     1
  0
VPORT
  5
29
330
8
100
AcDbSymbolTableRecord
100
AcDbViewportTableRecord
  2
*Active
 70
     0
 10
0.0
 20
0.0
 11
1.0
 21
1.0
 12
92.75
 22
0.0
 13
0.0
 23
0.0
 14
10.0
 24
10.0
 15
10.0
 25
10.0
 16
0.0
 26
0.0
 36
1.0
 17
0.0
 27
0.0
 37
0.0
 40
114.036
 41
1.6592128801
 42
50.0
 43
0.0
 44
0.0
 50
0.0
 51
0.0
 71
     0
 72
   100
 73
     1
 74
     3
 75
     0
 76
     0
 77
     0
 78
     0
281
     0
 65
     1
110
0.0
120
0.0
130
0.0
111
1.0
121
0.0
131
0.0
112
0.0
122
1.0
132
0.0
 79
     0
146
0.0
  0
ENDTAB
  0
TABLE
  2
LTYPE
  5
5
330
0
100
AcDbSymbolTable
 70
     6
  0
LTYPE
  5
14
330
5
100
AcDbSymbolTableRecord
100
AcDbLinetypeTableRecord
  2
ByBlock
 70
     0
  3

 72
    65
 73
     0
 40
0.0
  0
LTYPE
  5
15
330
5
100
AcDbSymbolTableRecord
100
AcDbLinetypeTableRecord
  2
ByLayer
 70
     0
  3

 72
    65
 73
     0
 40
0.0
  0
LTYPE
  5
16
330
5
100
AcDbSymbolTableRecord
100
AcDbLinetypeTableRecord
  2
Continuous
 70
     0
  3
Solid line
 72
    65
 73
     0
 40
0.0
  0
LTYPE
  5
6E
330
5
100
AcDbSymbolTableRecord
100
AcDbLinetypeTableRecord
  2
HIDDEN
 70
     0
  3
Hidden __ __ __ __ __ __ __ __ __ __ __ __ __ __
 72
    65
 73
     2
 40
1.905
 49
1.27
 74
     0
 49
-0.635
 74
     0
  0
LTYPE
  5
6F
330
5
100
AcDbSymbolTableRecord
100
AcDbLinetypeTableRecord
  2
PHANTOM
 70
     0
  3
Phantom ______  __  __  ______  __  __  ______
 72
    65
 73
     6
 40
12.7
 49
6.35
 74
     0
 49
-1.27
 74
     0
 49
1.27
 74
     0
 49
-1.27
 74
     0
 49
1.27
 74
     0
 49
-1.27
 74
     0
  0
LTYPE
  5
70
330
5
100
AcDbSymbolTableRecord
100
AcDbLinetypeTableRecord
  2
CENTER
 70
     0
  3
Center ____ _ ____ _ ____ _ ____ _ ____ _ ____
 72
    65
 73
     4
 40
10.16
 49
6.35
 74
     0
 49
-1.27
 74
     0
 49
1.27
 74
     0
 49
-1.27
 74
     0
  0
LTYPE
  5
71
330
5
100
AcDbSymbolTableRecord
100
AcDbLinetypeTableRecord
  2
CENTERX2
 70
     0
  3
Center (2x) ________  __  ________  __  _____
 72
    65
 73
     4
 40
20.32
 49
12.7
 74
     0
 49
-2.54
 74
     0
 49
2.54
 74
     0
 49
-2.54
 74
     0
  0
LTYPE
  5
72
330
5
100
AcDbSymbolTableRecord
100
AcDbLinetypeTableRecord
  2
DOT2
 70
     0
  3
Dot (.5x) ........................................
 72
    65
 73
     2
 40
0.635
 49
0.0
 74
     0
 49
-0.635
 74
     0
  0
ENDTAB
  0
TABLE
  2
LAYER
  5
2
330
0
100
AcDbSymbolTable
 70
     1
  0
LAYER
  5
10
330
2
100
AcDbSymbolTableRecord
100
AcDbLayerTableRecord
  2
0
 70
     0
 62
     7
  6
Continuous
370
    -3
390
F
  0
ENDTAB
  0
TABLE
  2
STYLE
  5
3
330
0
100
AcDbSymbolTable
 70
     1
  0
STYLE
  5
11
330
3
100
AcDbSymbolTableRecord
100
AcDbTextStyleTableRecord
  2
Standard
 70
     0
 40
0.0
 41
1.0
 50
0.0
 71
     0
 42
6.35
  3
txt
  4

  0
ENDTAB
  0
TABLE
  2
VIEW
  5
6
330
0
100
AcDbSymbolTable
 70
     0
  0
ENDTAB
  0
TABLE
  2
UCS
  5
7
330
0
100
AcDbSymbolTable
 70
     0
  0
ENDTAB
  0
TABLE
  2
APPID
  5
9
330
0
100
AcDbSymbolTable
 70
     1
  0
APPID
  5
12
330
9
100
AcDbSymbolTableRecord
100
AcDbRegAppTableRecord
  2
ACAD
 70
     0
  0
ENDTAB
  0
TABLE
  2
DIMSTYLE
  5
A
330
0
100
AcDbSymbolTable
 70
     1
100
AcDbDimStyleTable
  0
DIMSTYLE
105
27
330
A
100
AcDbSymbolTableRecord
100
AcDbDimStyleTableRecord
  2
ISO-25
 70
     0
 41
2.5
 42
0.625
 43
3.75
 44
1.25
 73
     0
 74
     0
 77
     1
 78
     8
140
2.5
141
2.5
143
0.0393700787
147
0.625
171
     3
172
     1
178
     0
271
     2
272
     2
274
     3
278
    44
283
     0
284
     8
340
11
  0
ENDTAB
  0
TABLE
  2
BLOCK_RECORD
  5
1
330
0
100
AcDbSymbolTable
 70
     1
  0
BLOCK_RECORD
  5
1F
330
1
100
AcDbSymbolTableRecord
100
AcDbBlockTableRecord
  2
*Model_Space
340
22
  0
BLOCK_RECORD
  5
1B
330
1
100
AcDbSymbolTableRecord
100
AcDbBlockTableRecord
  2
*Paper_Space
340
1E
  0
BLOCK_RECORD
  5
23
330
1
100
AcDbSymbolTableRecord
100
AcDbBlockTableRecord
  2
*Paper_Space0
340
26
  0
ENDTAB
  0
ENDSEC
  0
SECTION
  2
BLOCKS
  0
BLOCK
  5
20
330
1F
100
AcDbEntity
  8
0
100
AcDbBlockBegin
  2
*Model_Space
 70
     0
 10
0.0
 20
0.0
 30
0.0
  3
*Model_Space
  1

  0
ENDBLK
  5
21
330
1F
100
AcDbEntity
  8
0
100
AcDbBlockEnd
  0
BLOCK
  5
1C
330
1B
100
AcDbEntity
 67
     1
  8
0
100
AcDbBlockBegin
  2
*Paper_Space
 70
     0
 10
0.0
 20
0.0
 30
0.0
  3
*Paper_Space
  1

  0
ENDBLK
  5
1D
330
1B
100
AcDbEntity
 67
     1
  8
0
100
AcDbBlockEnd
  0
BLOCK
  5
24
330
23
100
AcDbEntity
  8
0
100
AcDbBlockBegin
  2
*Paper_Space0
 70
     0
 10
0.0
 20
0.0
 30
0.0
  3
*Paper_Space0
  1

  0
ENDBLK
  5
25
330
23
100
AcDbEntity
  8
0
100
AcDbBlockEnd
  0
ENDSEC
  0
SECTION
  2
ENTITIES
  0
SPLINE
  5
78
330
1F
100
AcDbEntity
  8
0
  6
Continuous
 62
     7
370
    25
100
AcDbSpline
210
0.0
220
0.0
230
1.0
 70
     8
 71
     3
 72
    23
 73
    19
 74
     0
 42
0.000000001
 43
0.00000001
 40
0.0
 40
0.0
 40
0.0
 40
0.0
 40
0.0512641766813874
 40
0.1014587453683228
 40
0.1520953847135565
 40
0.2031757918879561
 40
0.2548710745663121
 40
0.3068294577309776
 40
0.360804733042208
 40
0.4172247868509099
 40
0.476166956390169
 40
0.5382377276125309
 40
0.6041941322521156
 40
0.674412765422515
 40
0.7484641406131844
 40
0.8274653108842097
 40
0.911057577456305
 40
0.967476691857792
 40
0.967476691857792
 40
0.967476691857792
 40
0.967476691857792
 10
4.434782608695717
 20
-51.5766304347826
 30
0.0
 10
4.431078298150856
 20
-51.68376680773498
 30
0.0
 10
4.423746966123979
 20
-51.89580419303464
 30
0.0
 10
4.366317059948749
 20
-52.20922177497194
 30
0.0
 10
4.278127443645113
 20
-52.51468797447176
 30
0.0
 10
4.148620171325098
 20
-52.808671611081
 30
0.0
 10
3.986806406438268
 20
-53.08932899605649
 30
0.0
 10
3.784650414266968
 20
-53.35035855400519
 30
0.0
 10
3.546949363728569
 20
-53.59319537133965
 30
0.0
 10
3.271219063939457
 20
-53.81595976688772
 30
0.0
 10
2.959243638147826
 20
-54.01700876981445
 30
0.0
 10
2.612343456318084
 20
-54.19781095117333
 30
0.0
 10
2.226701587576818
 20
-54.34992569671446
 30
0.0
 10
1.809218222630207
 20
-54.48674984427112
 30
0.0
 10
1.355297438445105
 20
-54.59645348131523
 30
0.0
 10
0.8660621900499488
 20
-54.66965442603551
 30
0.0
 10
0.4101201144719319
 20
-54.71088527934626
 30
0.0
 10
0.117829851811968
 20
-54.71979891777868
 30
0.0
 10
-0.0000000000000833
 20
-54.72235497252037
 30
0.0
  0
SPLINE
  5
79
330
1F
100
AcDbEntity
  8
0
  6
Continuous
 62
     7
370
    25
100
AcDbSpline
210
0.0
220
0.0
230
1.0
 70
     8
 71
     3
 72
    23
 73
    19
 74
     0
 42
0.000000001
 43
0.00000001
 40
0.0
 40
0.0
 40
0.0
 40
0.0
 40
0.079010144382417
 40
0.1541663105193196
 40
0.2263510237396624
 40
0.295881453270684
 40
0.362352710318069
 40
0.4257773769705441
 40
0.4866783285565589
 40
0.5453094040331267
 40
0.602686645379272
 40
0.6580563446134325
 40
0.7134686094841116
 40
0.7680066269220508
 40
0.823287815879124
 40
0.8798789214786114
 40
0.9384945282385874
 40
1.0
 40
1.0
 40
1.0
 40
1.0
 10
1.222826086956591
 20
-49.14184782608695
 30
0.0
 10
1.341589856964948
 20
-49.14669940942824
 30
0.0
 10
1.573324305606569
 20
-49.15616592426314
 30
0.0
 10
1.911812983475883
 20
-49.19503505829767
 30
0.0
 10
2.233321493290252
 20
-49.25132798933841
 30
0.0
 10
2.537179410365978
 20
-49.32779592038212
 30
0.0
 10
2.823294758329389
 20
-49.41869389794684
 30
0.0
 10
3.088174148519696
 20
-49.53019309486194
 30
0.0
 10
3.330838407347311
 20
-49.66086869892322
 30
0.0
 10
3.552212568097262
 20
-49.80897267854529
 30
0.0
 10
3.754224355691227
 20
-49.96991859920875
 30
0.0
 10
3.930135376092159
 20
-50.1525074883434
 30
0.0
 10
4.082404500291751
 20
-50.34977666489739
 30
0.0
 10
4.208526899004584
 20
-50.5645984157614
 30
0.0
 10
4.310018549811431
 20
-50.7940316198869
 30
0.0
 10
4.383591534147413
 20
-51.04029649350066
 30
0.0
 10
4.428062818236822
 20
-51.30327455146659
 30
0.0
 10
4.432507038952926
 20
-51.48406201603583
 30
0.0
 10
4.434782608695717
 20
-51.5766304347826
 30
0.0
  0
SPLINE
  5
7C
330
1F
100
AcDbEntity
  8
0
  6
Continuous
 62
     7
370
    25
100
AcDbSpline
210
0.0
220
0.0
230
1.0
 70
     8
 71
     3
 72
    23
 73
    19
 74
     0
 42
0.000000001
 43
0.00000001
 40
0.0
 40
0.0
 40
0.0
 40
0.0
 40
0.0692521667649581
 40
0.1346012760957615
 40
0.1972893428111712
 40
0.2579659250296696
 40
0.3167575906632846
 40
0.3741896182221994
 40
0.4306956078019396
 40
0.4876836436523626
 40
0.5452091534132966
 40
0.603521117423028
 40
0.6640990008018496
 40
0.7266310297725541
 40
0.791479271638968
 40
0.8582700789272838
 40
0.9278038169562932
 40
0.9530391501211003
 40
0.9530391501211003
 40
0.9530391501211003
 40
0.9530391501211003
 10
3.391304347826154
 20
-44.56032608695651
 30
0.0
 10
3.388314770538983
 20
-44.68729221285504
 30
0.0
 10
3.382504108770015
 20
-44.9340686440515
 30
0.0
 10
3.333368852648233
 20
-45.29320966137669
 30
0.0
 10
3.248918387832769
 20
-45.62930173653864
 30
0.0
 10
3.132118294352393
 20
-45.94281705309285
 30
0.0
 10
2.984764805268311
 20
-46.23245877253155
 30
0.0
 10
2.80968802222871
 20
-46.4968999498986
 30
0.0
 10
2.610451146133411
 20
-46.7396330890883
 30
0.0
 10
2.38049908270116
 20
-46.95387068717648
 30
0.0
 10
2.126763297168155
 20
-47.14426214990122
 30
0.0
 10
1.849737617850386
 20
-47.31226827375687
 30
0.0
 10
1.54739123091395
 20
-47.45193591325071
 30
0.0
 10
1.223212664961074
 20
-47.56992588049929
 30
0.0
 10
0.8777928233960897
 20
-47.65747962721482
 30
0.0
 10
0.5147927947293102
 20
-47.72371705874272
 30
0.0
 10
0.2197140931019387
 20
-47.75282271563618
 30
0.0
 10
0.0462177711541417
 20
-47.7609330507054
 30
0.0
 10
0.0000000000029837
 20
-47.76267931423141
 30
0.0
  0
SPLINE
  5
7D
330
1F
100
AcDbEntity
  8
0
  6
Continuous
 62
     7
370
    25
100
AcDbSpline
210
0.0
220
0.0
230
1.0
 70
     8
 71
     3
 72
    11
 73
     7
 74
     0
 42
0.000000001
 43
0.00000001
 40
0.0
 40
0.0
 40
0.0
 40
0.0
 40
0.2603213335107653
 40
0.5106438220353475
 40
0.7541589260787313
 40
0.9999999999999999
 40
0.9999999999999999
 40
0.9999999999999999
 40
0.9999999999999999
 10
2.923913043478332
 20
-43.07391304347826
 30
0.0
 10
3.001258162087045
 20
-43.1881180544957
 30
0.0
 10
3.152977602247697
 20
-43.41214150480245
 30
0.0
 10
3.293829757943581
 20
-43.78805261288629
 30
0.0
 10
3.374994220796179
 20
-44.17176256882414
 30
0.0
 10
3.385850438505145
 20
-44.43039514347264
 30
0.0
 10
3.391304347826154
 20
-44.56032608695651
 30
0.0
  0
SPLINE
  5
81
330
1F
100
AcDbEntity
  8
0
  6
Continuous
 62
     7
370
    25
100
AcDbSpline
210
0.0
220
0.0
230
1.0
 70
     8
 71
     3
 72
    11
 73
     7
 74
     0
 42
0.000000001
 43
0.00000001
 40
0.1536940836415885
 40
0.1536940836415885
 40
0.1536940836415885
 40
0.1536940836415885
 40
0.2690710634953892
 40
0.5278480485335557
 40
0.7736738933348415
 40
1.0
 40
1.0
 40
1.0
 40
1.0
 10
-0.0000000000033307
 20
-41.33929563960556
 30
0.0
 10
0.0570960199021836
 20
-41.34083591247817
 30
0.0
 10
0.242171795419785
 20
-41.34733155145794
 30
0.0
 10
0.5480940497269715
 20
-41.37221272600036
 30
0.0
 10
0.9080093560961261
 20
-41.41702876521436
 30
0.0
 10
1.133674977579505
 20
-41.4789930589512
 30
0.0
 10
1.241847826087022
 20
-41.50869565217392
 30
0.0
  0
SPLINE
  5
84
330
1F
100
AcDbEntity
  8
0
  6
Continuous
 62
     7
370
    25
100
AcDbSpline
210
0.0
220
0.0
230
1.0
 70
     8
 71
     3
 72
    15
 73
    11
 74
     0
 42
0.000000001
 43
0.00000001
 40
0.0
 40
0.0
 40
0.0
 40
0.0
 40
0.1314395949876174
 40
0.2593072650696734
 40
0.3831868884588985
 40
0.5044849395664919
 40
0.6248742936888465
 40
0.7476478268685899
 40
0.8721590029131007
 40
1.0
 40
1.0
 40
1.0
 40
1.0
 10
10.26630434782613
 20
-40.46521739130434
 30
0.0
 10
10.16433934484487
 20
-40.45912560590694
 30
0.0
 10
9.963180279660728
 20
-40.44710758187895
 30
0.0
 10
9.674819355566452
 20
-40.36254029106502
 30
0.0
 10
9.42173105426733
 20
-40.21948008657452
 30
0.0
 10
9.196689413463076
 20
-40.04430289410842
 30
0.0
 10
9.018273600879672
 20
-39.82177369109466
 30
0.0
 10
8.885987456989513
 20
-39.5679749318918
 30
0.0
 10
8.796616570933363
 20
-39.2880252577076
 30
0.0
 10
8.787318882166051
 20
-39.0917990326575
 30
0.0
 10
8.782608695652227
 20
-38.99239130434782
 30
0.0
  0
SPLINE
  5
85
330
1F
100
AcDbEntity
  8
0
  6
Continuous
 62
     7
370
    25
100
AcDbSpline
210
0.0
220
0.0
230
1.0
 70
     8
 71
     3
 72
    15
 73
    11
 74
     0
 42
0.000000001
 43
0.00000001
 40
0.0
 40
0.0
 40
0.0
 40
0.0
 40
0.1284097870586356
 40
0.2534749380401149
 40
0.3767947150388097
 40
0.4984628885575906
 40
0.6184796647597354
 40
0.7429104531828054
 40
0.8679756041642852
 40
1.0
 40
1.0
 40
1.0
 40
1.0
 10
11.73913043478267
 20
-38.99239130434782
 30
0.0
 10
11.73443870766733
 20
-39.09181643886276
 30
0.0
 10
11.72517745689276
 20
-39.28807702295124
 30
0.0
 10
11.6355399749153
 20
-39.56777531173247
 30
0.0
 10
11.50397709555098
 20
-39.82301782209988
 30
0.0
 10
11.32231979085715
 20
-40.04138716989908
 30
0.0
 10
11.10256819955398
 20
-40.22153460754493
 30
0.0
 10
10.85146663785755
 20
-40.3603181533209
 30
0.0
 10
10.56717342315704
 20
-40.4483240605808
 30
0.0
 10
10.36838770578909
 20
-40.45948556949599
 30
0.0
 10
10.26630434782613
 20
-40.46521739130434
 30
0.0
  0
SPLINE
  5
86
330
1F
100
AcDbEntity
  8
0
  6
Continuous
 62
     7
370
    25
100
AcDbSpline
210
0.0
220
0.0
230
1.0
 70
     8
 71
     3
 72
    15
 73
    11
 74
     0
 42
0.000000001
 43
0.00000001
 40
0.0
 40
0.0
 40
0.0
 40
0.0
 40
0.1315814806664202
 40
0.2565720619868403
 40
0.3800274730354647
 40
0.5011408275419905
 40
0.6233049915075537
 40
0.7462110555741698
 40
0.8708566382465558
 40
1.0
 40
1.0
 40
1.0
 40
1.0
 10
10.26630434782613
 20
-37.50869565217391
 30
0.0
 10
10.36853773644371
 20
-37.51403667572679
 30
0.0
 10
10.56788365646728
 20
-37.52445119165365
 30
0.0
 10
10.8499018151131
 20
-37.61797777377051
 30
0.0
 10
11.1052569057343
 20
-37.75117191540745
 30
0.0
 10
11.3213981925847
 20
-37.93864682273379
 30
0.0
 10
11.50343975665981
 20
-38.15844551401658
 30
0.0
 10
11.63559782510042
 20
-38.41428246304339
 30
0.0
 10
11.72544183720337
 20
-38.6948611210763
 30
0.0
 10
11.73451397521382
 20
-38.89204968398629
 30
0.0
 10
11.73913043478267
 20
-38.99239130434782
 30
0.0
  0
SPLINE
  5
87
330
1F
100
AcDbEntity
  8
0
  6
Continuous
 62
     7
370
    25
100
AcDbSpline
210
0.0
220
0.0
230
1.0
 70
     8
 71
     3
 72
    15
 73
    11
 74
     0
 42
0.000000001
 43
0.00000001
 40
0.0
 40
0.0
 40
0.0
 40
0.0
 40
0.1285765167465887
 40
0.2526749963762388
 40
0.3750415926159178
 40
0.4959375973176249
 40
0.6183041935573055
 40
0.741217725547092
 40
0.8689960659011906
 40
1.0
 40
1.0
 40
1.0
 40
1.0
 10
8.782608695652227
 20
-38.99239130434782
 30
0.0
 10
8.78724401123121
 20
-38.89206717167674
 30
0.0
 10
8.796353204548593
 20
-38.69491297508987
 30
0.0
 10
8.885927960205791
 20
-38.41408459968081
 30
0.0
 10
9.018821093021309
 20
-38.15968182630234
 30
0.0
 10
9.197543889700787
 20
-37.93572447935928
 30
0.0
 10
9.419069687939624
 20
-37.75319809302364
 30
0.0
 10
9.676378939814393
 20
-37.61577675940506
 30
0.0
 10
9.962490641584193
 20
-37.52568317536648
 30
0.0
 10
10.16419506361436
 20
-37.51440501879591
 30
0.0
 10
10.26630434782613
 20
-37.50869565217391
 30
0.0
  0
SPLINE
  5
92
330
1F
100
AcDbEntity
  8
0
  6
Continuous
 62
     7
370
    25
100
AcDbSpline
210
0.0
220
0.0
230
1.0
 70
     8
 71
     3
 72
    23
 73
    19
 74
     0
 42
0.000000001
 43
0.00000001
 40
0.0
 40
0.0
 40
0.0
 40
0.0
 40
0.070518276153405
 40
0.1366933680844651
 40
0.1995810932920014
 40
0.2595026589811964
 40
0.3173580042696641
 40
0.3741560591012007
 40
0.4296287469229985
 40
0.486105755067071
 40
0.5431380955479116
 40
0.600917437767924
 40
0.6612849351954451
 40
0.723611151615291
 40
0.7883673880728199
 40
0.8559741441438721
 40
0.926199579778515
 40
1.0
 40
1.0
 40
1.0
 40
1.0
 10
21.57880434782614
 20
-41.33478260869564
 30
0.0
 10
21.69494693321683
 20
-41.33664203468264
 30
0.0
 10
21.9200789421241
 20
-41.34024636557006
 30
0.0
 10
22.2454853133247
 20
-41.38944530599912
 30
0.0
 10
22.54890678879433
 20
-41.46003522090643
 30
0.0
 10
22.82753360881463
 20
-41.56561944739551
 30
0.0
 10
23.08579795261834
 20
-41.69266111027383
 30
0.0
 10
23.31928206516645
 20
-41.84841379417568
 30
0.0
 10
23.53228015094047
 20
-42.02743580647927
 30
0.0
 10
23.72197607631982
 20
-42.23169291760652
 30
0.0
 10
23.89011447187084
 20
-42.45835063715011
 30
0.0
 10
24.04035796498459
 20
-42.7051229632502
 30
0.0
 10
24.15982534444945
 20
-42.97768790951642
 30
0.0
 10
24.2609552131241
 20
-43.26935566667984
 30
0.0
 10
24.33917994031212
 20
-43.58039691598281
 30
0.0
 10
24.39630760817245
 20
-43.90909459041668
 30
0.0
 10
24.42876777482975
 20
-44.25622515657797
 30
0.0
 10
24.43274475874085
 20
-44.49323002972795
 30
0.0
 10
24.43478260869569
 20
-44.61467391304348
 30
0.0
  0
SPLINE
  5
93
330
1F
100
AcDbEntity
  8
0
  6
Continuous
 62
     7
370
    25
100
AcDbSpline
210
0.0
220
0.0
230
1.0
 70
     8
 71
     3
 72
    15
 73
    11
 74
     0
 42
0.000000001
 43
0.00000001
 40
0.0
 40
0.0
 40
0.0
 40
0.0
 40
0.1280561102081274
 40
0.2519017642471774
 40
0.3723314493936786
 40
0.4909531738412246
 40
0.6098502872949058
 40
0.7310011526075302
 40
0.8590477149398473
 40
1.0
 40
1.0
 40
1.0
 40
1.0
 10
18.62228260869569
 20
-42.8945652173913
 30
0.0
 10
18.71783385198893
 20
-42.78104287264758
 30
0.0
 10
18.90579463513671
 20
-42.55773077238202
 30
0.0
 10
19.20710698225707
 20
-42.24830762249729
 30
0.0
 10
19.52854141202845
 20
-41.97605466223773
 30
0.0
 10
19.87617354870194
 20
-41.74777186639719
 30
0.0
 10
20.2519241260008
 20
-41.5676498308802
 30
0.0
 10
20.65726462855599
 20
-41.43185350626086
 30
0.0
 10
21.10347010441238
 20
-41.34807217774372
 30
0.0
 10
21.41537158115546
 20
-41.3393519219052
 30
0.0
 10
21.57880434782614
 20
-41.33478260869564
 30
0.0
  0
SPLINE
  5
99
330
1F
100
AcDbEntity
  8
0
  6
Continuous
 62
     7
370
    25
100
AcDbSpline
210
0.0
220
0.0
230
1.0
 70
     8
 71
     3
 72
    15
 73
    11
 74
     0
 42
0.000000001
 43
0.00000001
 40
0.0
 40
0.0
 40
0.0
 40
0.0
 40
0.0981830142417177
 40
0.1974172635802618
 40
0.3043052351746376
 40
0.4191938411227017
 40
0.5458825791875936
 40
0.6840532821475781
 40
0.8356400530297312
 40
1.0
 40
1.0
 40
1.0
 40
1.0
 10
21.04076086956526
 20
-43.24782608695651
 30
0.0
 10
20.94686882016963
 20
-43.2540423478027
 30
0.0
 10
20.75807942918603
 20
-43.26654142633917
 30
0.0
 10
20.47819647364013
 20
-43.35587039276318
 30
0.0
 10
20.20911676457594
 20
-43.50609408720567
 30
0.0
 10
19.94601263890182
 20
-43.71208889040843
 30
0.0
 10
19.68929265833907
 20
-43.96902939789916
 30
0.0
 10
19.4167992564625
 20
-44.25931755527285
 30
0.0
 10
19.14564101062057
 20
-44.5985761522208
 30
0.0
 10
18.96403778264646
 20
-44.83975351785354
 30
0.0
 10
18.86956521739135
 20
-44.96521739130434
 30
0.0
  0
SPLINE
  5
9A
330
1F
100
AcDbEntity
  8
0
  6
Continuous
 62
     7
370
    25
100
AcDbSpline
210
0.0
220
0.0
230
1.0
 70
     8
 71
     3
 72
    15
 73
    11
 74
     0
 42
0.000000001
 43
0.00000001
 40
0.0
 40
0.0
 40
0.0
 40
0.0
 40
0.1662922305879696
 40
0.3118265565075227
 40
0.4409393914167887
 40
0.5544580718190314
 40
0.6613201087287227
 40
0.7673326258390609
 40
0.8771233263895736
 40
1.0
 40
1.0
 40
1.0
 40
1.0
 10
22.17391304347831
 20
-44.78858695652174
 30
0.0
 10
22.17021784708506
 20
-44.66794496767545
 30
0.0
 10
22.16328871778748
 20
-44.44172047228471
 30
0.0
 10
22.11403048071683
 20
-44.1243773164601
 30
0.0
 10
22.0256935751183
 20
-43.85566136757598
 30
0.0
 10
21.90262553673353
 20
-43.63153924275957
 30
0.0
 10
21.73758244317864
 20
-43.45809525858034
 30
0.0
 10
21.53728467357488
 20
-43.33218660465152
 30
0.0
 10
21.29905593635165
 20
-43.26033950123356
 30
0.0
 10
21.1300281173666
 20
-43.25215074583215
 30
0.0
 10
21.04076086956526
 20
-43.24782608695651
 30
0.0
  0
SPLINE
  5
9E
330
1F
100
AcDbEntity
  8
0
  6
Continuous
 62
     7
370
    25
100
AcDbSpline
210
0.0
220
0.0
230
1.0
 70
     8
 71
     3
 72
    23
 73
    19
 74
     0
 42
0.000000001
 43
0.00000001
 40
0.0
 40
0.0
 40
0.0
 40
0.0
 40
0.0701012672867753
 40
0.1365854478716792
 40
0.2005571828561801
 40
0.2619613940970311
 40
0.3213229075280249
 40
0.3788055979172455
 40
0.4353896100504083
 40
0.4914761784555297
 40
0.5475627468606514
 40
0.6049538830231406
 40
0.6635717755235843
 40
0.7244206161942678
 40
0.7880260768672446
 40
0.8546452833448221
 40
0.9251583938538543
 40
0.9999999999999999
 40
0.9999999999999999
 40
0.9999999999999999
 40
0.9999999999999999
 10
31.09782608695655
 20
-51.07391304347826
 30
0.0
 10
30.92372467898915
 20
-51.0705888292668
 30
0.0
 10
30.58450515125883
 20
-51.06411192372047
 30
0.0
 10
30.08955734310144
 20
-51.00415902202749
 30
0.0
 10
29.62106796230248
 20
-50.91519825451215
 30
0.0
 10
29.18156940024041
 20
-50.7810196773718
 30
0.0
 10
28.77256989128962
 20
-50.61014323462804
 30
0.0
 10
28.39464448321164
 20
-50.40216575068636
 30
0.0
 10
28.04766248174401
 20
-50.1598013326979
 30
0.0
 10
27.73311579675832
 20
-49.88156455422278
 30
0.0
 10
27.45343234002784
 20
-49.56559048254245
 30
0.0
 10
27.20913447718683
 20
-49.21399524152212
 30
0.0
 10
26.99866146361957
 20
-48.82774455084208
 30
0.0
 10
26.8243034488236
 20
-48.40711414466337
 30
0.0
 10
26.68927540607119
 20
-47.95154090954081
 30
0.0
 10
26.59241831094311
 20
-47.46219074012124
 30
0.0
 10
26.53105152824045
 20
-46.93869703747632
 30
0.0
 10
26.5249042823319
 20
-46.57771411476726
 30
0.0
 10
26.52173913043482
 20
-46.39184782608695
 30
0.0
  0
SPLINE
  5
9F
330
1F
100
AcDbEntity
  8
0
  6
Continuous
 62
     7
370
    25
100
AcDbSpline
210
0.0
220
0.0
230
1.0
 70
     8
 71
     3
 72
    15
 73
    11
 74
     0
 42
0.000000001
 43
0.00000001
 40
0.0
 40
0.0
 40
0.0
 40
0.0
 40
0.1123470648628637
 40
0.2339105466968275
 40
0.3599629802518189
 40
0.487878750022896
 40
0.6174802250562049
 40
0.7479585631970159
 40
0.875651880991262
 40
1.0
 40
1.0
 40
1.0
 40
1.0
 10
34.52173913043481
 20
-50.55217391304348
 30
0.0
 10
34.39703044529563
 20
-50.5894478737142
 30
0.0
 10
34.13738256972047
 20
-50.66705357288123
 30
0.0
 10
33.73198263615176
 20
-50.76562557835875
 30
0.0
 10
33.30511496710028
 20
-50.84968878293078
 30
0.0
 10
32.86808168744349
 20
-50.93002060863306
 30
0.0
 10
32.42333627495229
 20
-50.99605211954278
 30
0.0
 10
31.97627390781634
 20
-51.04096106017337
 30
0.0
 10
31.5338934508046
 20
-51.0696189888566
 30
0.0
 10
31.24189001120298
 20
-51.07249441321374
 30
0.0
 10
31.09782608695655
 20
-51.07391304347826
 30
0.0
  0
SPLINE
  5
A1
330
1F
100
AcDbEntity
  8
0
  6
Continuous
 62
     7
370
    25
100
AcDbSpline
210
0.0
220
0.0
230
1.0
 70
     8
 71
     3
 72
    13
 73
     9
 74
     0
 42
0.000000001
 43
0.00000001
 40
0.0
 40
0.0
 40
0.0
 40
0.0
 40
0.2259235523291405
 40
0.4680727775512079
 40
0.5958372622945458
 40
0.7264770915432317
 40
0.8612806110935504
 40
0.9999999999999999
 40
0.9999999999999999
 40
0.9999999999999999
 40
0.9999999999999999
 10
31.42391304347829
 20
-49.33478260869564
 30
0.0
 10
31.66149789010218
 20
-49.32880300266454
 30
0.0
 10
32.15373076231426
 20
-49.31641433944289
 30
0.0
 10
32.77596237987287
 20
-49.23533459603138
 30
0.0
 10
33.29429251821988
 20
-49.14426525116409
 30
0.0
 10
33.69801515824283
 20
-49.05442271137404
 30
0.0
 10
34.10792322841862
 20
-48.94196090621795
 30
0.0
 10
34.38249022411291
 20
-48.85642414768752
 30
0.0
 10
34.52173913043481
 20
-48.81304347826086
 30
0.0
  0
SPLINE
  5
A2
330
1F
100
AcDbEntity
  8
0
  6
Continuous
 62
     7
370
    25
100
AcDbSpline
210
0.0
220
0.0
230
1.0
 70
     8
 71
     3
 72
    23
 73
    19
 74
     0
 42
0.000000001
 43
0.00000001
 40
0.0
 40
0.0
 40
0.0
 40
0.0
 40
0.0737056618126451
 40
0.1434322747460875
 40
0.2094559765643258
 40
0.2727977934820421
 40
0.3332251449224869
 40
0.3922933839865896
 40
0.4495418232483899
 40
0.5062259358842611
 40
0.5630645114504013
 40
0.620411318930612
 40
0.67909663860336
 40
0.7390906146510666
 40
0.8012279654533419
 40
0.8650949048645754
 40
0.9308143775815044
 40
1.0
 40
1.0
 40
1.0
 40
1.0
 10
28.7826086956522
 20
-46.72608695652173
 30
0.0
 10
28.78394338602072
 20
-46.82951570622696
 30
0.0
 10
28.78654071261587
 20
-47.03078953620867
 30
0.0
 10
28.82830092414187
 20
-47.32192705846585
 30
0.0
 10
28.88179537012597
 20
-47.59619339630587
 30
0.0
 10
28.96698580823406
 20
-47.84909712271238
 30
0.0
 10
29.07461623704138
 20
-48.08205126497597
 30
0.0
 10
29.19825620392416
 20
-48.29730659584358
 30
0.0
 10
29.34393403436368
 20
-48.49194777652044
 30
0.0
 10
29.50801870300418
 20
-48.66681223264234
 30
0.0
 10
29.69030466347797
 20
-48.8232611254493
 30
0.0
 10
29.89410853476052
 20
-48.95516199118308
 30
0.0
 10
30.11089391554023
 20
-49.07388005146803
 30
0.0
 10
30.34685605785987
 20
-49.16767017623477
 30
0.0
 10
30.59620510740849
 20
-49.24539426172628
 30
0.0
 10
30.86087732849874
 20
-49.2942416758913
 30
0.0
 10
31.13765222688464
 20
-49.32931661996049
 30
0.0
 10
31.32687221277601
 20
-49.33292966880055
 30
0.0
 10
31.42391304347829
 20
-49.33478260869564
 30
0.0
  0
SPLINE
  5
A4
330
1F
100
AcDbEntity
  8
0
  6
Continuous
 62
     7
370
    25
100
AcDbSpline
210
0.0
220
0.0
230
1.0
 70
     8
 71
     3
 72
    11
 73
     7
 74
     0
 42
0.000000001
 43
0.00000001
 40
0.0
 40
0.0
 40
0.0
 40
0.0
 40
0.2044309576835281
 40
0.4643541328460352
 40
0.7414673829154862
 40
1.0
 40
1.0
 40
1.0
 40
1.0
 10
35.0434782608696
 20
-45.45163043478261
 30
0.0
 10
35.04301266277471
 20
-45.53859733643716
 30
0.0
 10
35.04195508127116
 20
-45.73613806442523
 30
0.0
 10
35.02938662951574
 20
-46.05130889771723
 30
0.0
 10
35.01724995515206
 20
-46.38960107282501
 30
0.0
 10
34.99645152681176
 20
-46.61654914121878
 30
0.0
 10
34.98641304347829
 20
-46.72608695652173
 30
0.0
  0
SPLINE
  5
A5
330
1F
100
AcDbEntity
  8
0
  6
Continuous
 62
     7
370
    25
100
AcDbSpline
210
0.0
220
0.0
230
1.0
 70
     8
 71
     3
 72
    23
 73
    19
 74
     0
 42
0.000000001
 43
0.00000001
 40
0.0
 40
0.0
 40
0.0
 40
0.0
 40
0.073662078448981
 40
0.1436727713530609
 40
0.2102790608105143
 40
0.2739612932622776
 40
0.3357672007181637
 40
0.3950597274479609
 40
0.4529514455330537
 40
0.5102881690666784
 40
0.567474090701814
 40
0.6249344442919085
 40
0.6833861262772074
 40
0.7432826330704677
 40
0.8046345334642763
 40
0.8675672431511015
 40
0.9325518511839466
 40
1.0
 40
1.0
 40
1.0
 40
1.0
 10
30.94021739130438
 20
-41.33478260869564
 30
0.0
 10
31.10160562674714
 20
-41.33833307370817
 30
0.0
 10
31.41638217850985
 20
-41.34525800928809
 30
0.0
 10
31.87447665390557
 20
-41.40199761276994
 30
0.0
 10
32.30268800826511
 20
-41.50044659129834
 30
0.0
 10
32.70278656321185
 20
-41.63329157458695
 30
0.0
 10
33.07112612243228
 20
-41.80258160148964
 30
0.0
 10
33.41222401973007
 20
-41.99744467126094
 30
0.0
 10
33.71823527811091
 20
-42.2282126790252
 30
0.0
 10
33.99367264351783
 20
-42.487569009014
 30
0.0
 10
34.23976444139828
 20
-42.77380854329117
 30
0.0
 10
34.45300682615259
 20
-43.08839591868346
 30
0.0
 10
34.63173245182143
 20
-43.43027162952327
 30
0.0
 10
34.78164971959585
 20
-43.79483618425285
 30
0.0
 10
34.89808779011273
 20
-44.18180102280621
 30
0.0
 10
34.98159533900341
 20
-44.58827746267013
 30
0.0
 10
35.0353183169636
 20
-45.01359980259473
 30
0.0
 10
35.04072475568073
 20
-45.30382064190863
 30
0.0
 10
35.04347826086959
 20
-45.45163043478261
 30
0.0
  0
SPLINE
  5
A6
330
1F
100
AcDbEntity
  8
0
  6
Continuous
 62
     7
370
    25
100
AcDbSpline
210
0.0
220
0.0
230
1.0
 70
     8
 71
     3
 72
    23
 73
    19
 74
     0
 42
0.000000001
 43
0.00000001
 40
0.0
 40
0.0
 40
0.0
 40
0.0
 40
0.0737521347577408
 40
0.1443105494841631
 40
0.212076305222983
 40
0.2778624556535109
 40
0.3414959106408949
 40
0.4032434714941925
 40
0.4625093219833752
 40
0.5211964633215009
 40
0.5789241135256998
 40
0.6361490460277603
 40
0.6934902080659312
 40
0.7518603789827986
 40
0.8114926588317871
 40
0.8723630071922164
 40
0.9348566540266882
 40
1.0
 40
1.0
 40
1.0
 40
1.0
 10
26.52173913043482
 20
-46.39184782608695
 30
0.0
 10
26.52497157465639
 20
-46.20598556122687
 30
0.0
 10
26.53129648719382
 20
-45.84230950414142
 30
0.0
 10
26.59305557095809
 20
-45.31079208859085
 30
0.0
 10
26.69034732454192
 20
-44.80546819352423
 30
0.0
 10
26.82493145896533
 20
-44.32650252886409
 30
0.0
 10
27.00021770456304
 20
-43.87724397649676
 30
0.0
 10
27.20500350872507
 20
-43.45892593748111
 30
0.0
 10
27.4437606165632
 20
-43.07326817765436
 30
0.0
 10
27.71586312805266
 20
-42.72340081128509
 30
0.0
 10
28.01694875751005
 20
-42.40457798238235
 30
0.0
 10
28.35513999515164
 20
-42.13110453916937
 30
0.0
 10
28.71748527394333
 20
-41.88761272690711
 30
0.0
 10
29.11436703767259
 20
-41.69146086554874
 30
0.0
 10
29.53546903544017
 20
-41.52878166125527
 30
0.0
 10
29.98346644840992
 20
-41.41617445194927
 30
0.0
 10
30.45428128190283
 20
-41.34588749852363
 30
0.0
 10
30.77601234686976
 20
-41.33853511626273
 30
0.0
 10
30.94021739130438
 20
-41.33478260869564
 30
0.0
  0
SPLINE
  5
A7
330
1F
100
AcDbEntity
  8
0
  6
Continuous
 62
     7
370
    25
100
AcDbSpline
210
0.0
220
0.0
230
1.0
 70
     8
 71
     3
 72
    15
 73
    11
 74
     0
 42
0.000000001
 43
0.00000001
 40
0.0
 40
0.0
 40
0.0
 40
0.0
 40
0.1218530297279448
 40
0.2406345034299945
 40
0.3583681183040199
 40
0.476412295959066
 40
0.5974097359262034
 40
0.7229984821818624
 40
0.8565919240730566
 40
1.0
 40
1.0
 40
1.0
 40
1.0
 10
49.99184782608697
 20
-42.89999999999999
 30
0.0
 10
50.07098291206519
 20
-42.78496428129829
 30
0.0
 10
50.22725832155457
 20
-42.55779255558656
 30
0.0
 10
50.50157743787871
 20
-42.25102946047
 30
0.0
 10
50.80729128623874
 20
-41.98227170233863
 30
0.0
 10
51.14815108362883
 20
-41.75532750170362
 30
0.0
 10
51.52233031177374
 20
-41.56669956751214
 30
0.0
 10
51.9388499968311
 20
-41.43580986077745
 30
0.0
 10
52.39305475019017
 20
-41.34768066291992
 30
0.0
 10
52.71060118035921
 20
-41.33918233022204
 30
0.0
 10
52.87500000000001
 20
-41.33478260869564
 30
0.0
  0
SPLINE
  5
AD
330
1F
100
AcDbEntity
  8
0
  6
Continuous
 62
     7
370
    25
100
AcDbSpline
210
0.0
220
0.0
230
1.0
 70
     8
 71
     3
 72
    15
 73
    11
 74
     0
 42
0.000000001
 43
0.00000001
 40
0.0
 40
0.0
 40
0.0
 40
0.0
 40
0.0862701213678333
 40
0.1778985512383889
 40
0.2770475168046591
 40
0.3864232854209337
 40
0.5100545787136356
 40
0.6528698779577584
 40
0.8159725289570896
 40
1.0
 40
1.0
 40
1.0
 40
1.0
 10
52.3396739130435
 20
-43.24782608695652
 30
0.0
 10
52.25671741888119
 20
-43.25264577803863
 30
0.0
 10
52.08565193417682
 20
-43.26258451519732
 30
0.0
 10
51.82975446811621
 20
-43.34426809798119
 30
0.0
 10
51.5727925150502
 20
-43.47586069693815
 30
0.0
 10
51.30739573208941
 20
-43.65466824262994
 30
0.0
 10
51.04066004542864
 20
-43.89887637572131
 30
0.0
 10
50.75668040642068
 20
-44.19836166726144
 30
0.0
 10
50.46484086123128
 20
-44.56807368337745
 30
0.0
 10
50.27470932551227
 20
-44.84182831419674
 30
0.0
 10
50.17391304347828
 20
-44.98695652173912
 30
0.0
  0
SPLINE
  5
AE
330
1F
100
AcDbEntity
  8
0
  6
Continuous
 62
     7
370
    25
100
AcDbSpline
210
0.0
220
0.0
230
1.0
 70
     8
 71
     3
 72
    17
 73
    13
 74
     0
 42
0.000000001
 43
0.00000001
 40
0.0
 40
0.0
 40
0.0
 40
0.0
 40
0.0976776958121706
 40
0.1867888220042256
 40
0.26977499717759
 40
0.3447690251852538
 40
0.4791052046340813
 40
0.5962295579693264
 40
0.6991616705508077
 40
0.7965085749578327
 40
0.8942687937309154
 40
1.0
 40
1.0
 40
1.0
 40
1.0
 10
53.47826086956523
 20
-45.16086956521739
 30
0.0
 10
53.4796488187125
 20
-45.07844910905846
 30
0.0
 10
53.48230299051767
 20
-44.92083666962723
 30
0.0
 10
53.4784968156638
 20
-44.69308830024971
 30
0.0
 10
53.45965801818956
 20
-44.48516437300343
 30
0.0
 10
53.42042625271867
 20
-44.24163348779967
 30
0.0
 10
53.35522605679915
 20
-43.97248670736982
 30
0.0
 10
53.2246218980576
 20
-43.70106472922237
 30
0.0
 10
53.05595723155327
 20
-43.48852382909045
 30
0.0
 10
52.84399838416284
 20
-43.34711855229684
 30
0.0
 10
52.60144305162502
 20
-43.26141274194029
 30
0.0
 10
52.42917954420923
 20
-43.25247171530041
 30
0.0
 10
52.33967391304349
 20
-43.24782608695651
 30
0.0
  0
SPLINE
  5
B0
330
1F
100
AcDbEntity
  8
0
  6
Continuous
 62
     7
370
    25
100
AcDbSpline
210
0.0
220
0.0
230
1.0
 70
     8
 71
     3
 72
    23
 73
    19
 74
     0
 42
0.000000001
 43
0.00000001
 40
0.0
 40
0.0
 40
0.0
 40
0.0
 40
0.062792251394827
 40
0.1220686466412252
 40
0.1791776541918806
 40
0.2344678912674952
 40
0.2883486063995834
 40
0.3420588926832627
 40
0.3953035041849369
 40
0.4499989630372391
 40
0.506196022261891
 40
0.5647595735040205
 40
0.6268773450664327
 40
0.6927246305091943
 40
0.7628189985994265
 40
0.8370961123245141
 40
0.9158739739110124
 40
1.0
 40
1.0
 40
1.0
 40
1.0
 10
52.87500000000001
 20
-41.33478260869564
 30
0.0
 10
52.98922872010736
 20
-41.33832887190445
 30
0.0
 10
53.21129027963617
 20
-41.34522283638122
 30
0.0
 10
53.53560623574407
 20
-41.38677022868941
 30
0.0
 10
53.83789448738703
 20
-41.46804627049453
 30
0.0
 10
54.12252695546594
 20
-41.57233879335863
 30
0.0
 10
54.38588577736444
 20
-41.71012706856003
 30
0.0
 10
54.62800058041736
 20
-41.87566698111237
 30
0.0
 10
54.84915732790285
 20
-42.071004759458
 30
0.0
 10
55.04383731747451
 20
-42.29847901257748
 30
0.0
 10
55.21961985877675
 20
-42.55253664245622
 30
0.0
 10
55.36962434728758
 20
-42.83819526893804
 30
0.0
 10
55.49370212766152
 20
-43.15471477627463
 30
0.0
 10
55.59386806919444
 20
-43.50140096662027
 30
0.0
 10
55.66878649601141
 20
-43.87689717169679
 30
0.0
 10
55.72043009386341
 20
-44.27996744429601
 30
0.0
 10
55.74429979115591
 20
-44.71130939837519
 30
0.0
 10
55.74089085886445
 20
-45.00777187049692
 30
0.0
 10
55.73913043478263
 20
-45.1608695652174
 30
0.0
  0
SPLINE
  5
B1
330
1F
100
AcDbEntity
  8
0
  6
Continuous
 62
     7
370
    25
100
AcDbSpline
210
0.0
220
0.0
230
1.0
 70
     8
 71
     3
 72
    15
 73
    11
 74
     0
 42
0.000000001
 43
0.00000001
 40
0.0
 40
0.0
 40
0.0
 40
0.0
 40
0.1314395949876165
 40
0.2593072650696713
 40
0.3831868884588973
 40
0.5044849395664917
 40
0.6248742936888447
 40
0.7476478268685894
 40
0.8721590029131002
 40
1.0
 40
1.0
 40
1.0
 40
1.0
 10
61.57065217391304
 20
-40.46521739130435
 30
0.0
 10
61.46868717093179
 20
-40.45912560590695
 30
0.0
 10
61.26752810574764
 20
-40.44710758187896
 30
0.0
 10
60.97916718165335
 20
-40.36254029106502
 30
0.0
 10
60.72607888035424
 20
-40.21948008657453
 30
0.0
 10
60.50103723954999
 20
-40.04430289410841
 30
0.0
 10
60.32262142696655
 20
-39.82177369109466
 30
0.0
 10
60.19033528307643
 20
-39.56797493189181
 30
0.0
 10
60.10096439702028
 20
-39.28802525770761
 30
0.0
 10
60.09166670825294
 20
-39.0917990326575
 30
0.0
 10
60.08695652173913
 20
-38.99239130434783
 30
0.0
  0
SPLINE
  5
B2
330
1F
100
AcDbEntity
  8
0
  6
Continuous
 62
     7
370
    25
100
AcDbSpline
210
0.0
220
0.0
230
1.0
 70
     8
 71
     3
 72
    15
 73
    11
 74
     0
 42
0.000000001
 43
0.00000001
 40
0.0
 40
0.0
 40
0.0
 40
0.0
 40
0.1284097870586357
 40
0.2534749380401138
 40
0.3767947150388093
 40
0.4984628885575888
 40
0.6184796647597331
 40
0.7429104531828045
 40
0.8679756041642834
 40
1.0
 40
1.0
 40
1.0
 40
1.0
 10
63.04347826086956
 20
-38.99239130434783
 30
0.0
 10
63.03878653375423
 20
-39.09181643886276
 30
0.0
 10
63.02952528297964
 20
-39.28807702295124
 30
0.0
 10
62.93988780100219
 20
-39.56777531173245
 30
0.0
 10
62.80832492163789
 20
-39.82301782209992
 30
0.0
 10
62.62666761694405
 20
-40.04138716989906
 30
0.0
 10
62.40691602564088
 20
-40.22153460754495
 30
0.0
 10
62.15581446394447
 20
-40.36031815332093
 30
0.0
 10
61.87152124924393
 20
-40.44832406058079
 30
0.0
 10
61.672735531876
 20
-40.45948556949602
 30
0.0
 10
61.57065217391304
 20
-40.46521739130435
 30
0.0
  0
SPLINE
  5
B3
330
1F
100
AcDbEntity
  8
0
  6
Continuous
 62
     7
370
    25
100
AcDbSpline
210
0.0
220
0.0
230
1.0
 70
     8
 71
     3
 72
    15
 73
    11
 74
     0
 42
0.000000001
 43
0.00000001
 40
0.0
 40
0.0
 40
0.0
 40
0.0
 40
0.1315814806664212
 40
0.256572061986843
 40
0.3800274730354671
 40
0.5011408275419904
 40
0.6233049915075521
 40
0.7462110555741713
 40
0.8708566382465559
 40
1.0
 40
1.0
 40
1.0
 40
1.0
 10
61.57065217391304
 20
-37.50869565217391
 30
0.0
 10
61.6728855625306
 20
-37.51403667572677
 30
0.0
 10
61.87223148255421
 20
-37.52445119165364
 30
0.0
 10
62.15424964119999
 20
-37.61797777377053
 30
0.0
 10
62.4096047318212
 20
-37.75117191540744
 30
0.0
 10
62.62574601867158
 20
-37.93864682273382
 30
0.0
 10
62.80778758274673
 20
-38.15844551401658
 30
0.0
 10
62.93994565118732
 20
-38.41428246304339
 30
0.0
 10
63.02978966329025
 20
-38.6948611210763
 30
0.0
 10
63.0388618013007
 20
-38.89204968398629
 30
0.0
 10
63.04347826086956
 20
-38.99239130434783
 30
0.0
  0
SPLINE
  5
B4
330
1F
100
AcDbEntity
  8
0
  6
Continuous
 62
     7
370
    25
100
AcDbSpline
210
0.0
220
0.0
230
1.0
 70
     8
 71
     3
 72
    15
 73
    11
 74
     0
 42
0.000000001
 43
0.00000001
 40
0.0
 40
0.0
 40
0.0
 40
0.0
 40
0.1285765167465888
 40
0.2526749963762389
 40
0.3750415926159216
 40
0.495937597317627
 40
0.6183041935573066
 40
0.7412177255470924
 40
0.8689960659011922
 40
1.0
 40
1.0
 40
1.0
 40
1.0
 10
60.08695652173913
 20
-38.99239130434783
 30
0.0
 10
60.09159183731811
 20
-38.89206717167676
 30
0.0
 10
60.1007010306355
 20
-38.69491297508989
 30
0.0
 10
60.19027578629267
 20
-38.41408459968081
 30
0.0
 10
60.32316891910822
 20
-38.15968182630234
 30
0.0
 10
60.50189171578771
 20
-37.93572447935929
 30
0.0
 10
60.72341751402649
 20
-37.75319809302364
 30
0.0
 10
60.98072676590133
 20
-37.61577675940509
 30
0.0
 10
61.26683846767109
 20
-37.52568317536647
 30
0.0
 10
61.46854288970127
 20
-37.51440501879591
 30
0.0
 10
61.57065217391304
 20
-37.50869565217391
 30
0.0
  0
SPLINE
  5
BF
330
1F
100
AcDbEntity
  8
0
  6
Continuous
 62
     7
370
    25
100
AcDbSpline
210
0.0
220
0.0
230
1.0
 70
     8
 71
     3
 72
    23
 73
    19
 74
     0
 42
0.000000001
 43
0.00000001
 40
0.0
 40
0.0
 40
0.0
 40
0.0
 40
0.0705182761534043
 40
0.1366933680844646
 40
0.1995810932920006
 40
0.2595026589811967
 40
0.3173580042696644
 40
0.3741560591011993
 40
0.4296287469229974
 40
0.4861057550670717
 40
0.543138095547912
 40
0.6009174377679227
 40
0.6612849351954452
 40
0.7236111516152924
 40
0.7883673880728201
 40
0.8559741441438719
 40
0.926199579778515
 40
0.9999999999999999
 40
0.9999999999999999
 40
0.9999999999999999
 40
0.9999999999999999
 10
72.88315217391303
 20
-41.33478260869563
 30
0.0
 10
72.99929475930371
 20
-41.33664203468263
 30
0.0
 10
73.22442676821098
 20
-41.34024636557003
 30
0.0
 10
73.5498331394116
 20
-41.38944530599916
 30
0.0
 10
73.85325461488121
 20
-41.46003522090641
 30
0.0
 10
74.13188143490156
 20
-41.56561944739553
 30
0.0
 10
74.39014577870522
 20
-41.6926611102738
 30
0.0
 10
74.62362989125334
 20
-41.84841379417568
 30
0.0
 10
74.83662797702732
 20
-42.0274358064792
 30
0.0
 10
75.02632390240674
 20
-42.23169291760653
 30
0.0
 10
75.19446229795771
 20
-42.45835063715009
 30
0.0
 10
75.34470579107152
 20
-42.7051229632502
 30
0.0
 10
75.46417317053636
 20
-42.97768790951642
 30
0.0
 10
75.56530303921102
 20
-43.26935566667985
 30
0.0
 10
75.64352776639903
 20
-43.58039691598278
 30
0.0
 10
75.70065543425933
 20
-43.90909459041669
 30
0.0
 10
75.73311560091665
 20
-44.25622515657795
 30
0.0
 10
75.73709258482776
 20
-44.49323002972795
 30
0.0
 10
75.7391304347826
 20
-44.61467391304347
 30
0.0
  0
SPLINE
  5
C0
330
1F
100
AcDbEntity
  8
0
  6
Continuous
 62
     7
370
    25
100
AcDbSpline
210
0.0
220
0.0
230
1.0
 70
     8
 71
     3
 72
    15
 73
    11
 74
     0
 42
0.000000001
 43
0.00000001
 40
0.0
 40
0.0
 40
0.0
 40
0.0
 40
0.128056110208129
 40
0.2519017642471782
 40
0.3723314493936797
 40
0.4909531738412247
 40
0.6098502872949051
 40
0.7310011526075294
 40
0.8590477149398484
 40
1.0
 40
1.0
 40
1.0
 40
1.0
 10
69.92663043478261
 20
-42.8945652173913
 30
0.0
 10
70.02218167807584
 20
-42.78104287264758
 30
0.0
 10
70.2101424612236
 20
-42.55773077238201
 30
0.0
 10
70.51145480834398
 20
-42.24830762249727
 30
0.0
 10
70.83288923811534
 20
-41.97605466223773
 30
0.0
 10
71.18052137478887
 20
-41.74777186639718
 30
0.0
 10
71.5562719520877
 20
-41.56764983088019
 30
0.0
 10
71.96161245464289
 20
-41.43185350626084
 30
0.0
 10
72.40781793049929
 20
-41.3480721777437
 30
0.0
 10
72.71971940724238
 20
-41.33935192190521
 30
0.0
 10
72.88315217391305
 20
-41.33478260869564
 30
0.0
  0
SPLINE
  5
C6
330
1F
100
AcDbEntity
  8
0
  6
Continuous
 62
     7
370
    25
100
AcDbSpline
210
0.0
220
0.0
230
1.0
 70
     8
 71
     3
 72
    15
 73
    11
 74
     0
 42
0.000000001
 43
0.00000001
 40
0.0
 40
0.0
 40
0.0
 40
0.0
 40
0.0981830142417187
 40
0.1974172635802614
 40
0.3043052351746358
 40
0.4191938411227016
 40
0.545882579187595
 40
0.6840532821475765
 40
0.8356400530297331
 40
0.9999999999999999
 40
0.9999999999999999
 40
0.9999999999999999
 40
0.9999999999999999
 10
72.34510869565217
 20
-43.24782608695651
 30
0.0
 10
72.25121664625652
 20
-43.25404234780268
 30
0.0
 10
72.06242725527294
 20
-43.26654142633917
 30
0.0
 10
71.78254429972704
 20
-43.35587039276319
 30
0.0
 10
71.51346459066286
 20
-43.50609408720567
 30
0.0
 10
71.2503604649887
 20
-43.71208889040842
 30
0.0
 10
70.99364048442598
 20
-43.96902939789914
 30
0.0
 10
70.72114708254942
 20
-44.25931755527287
 30
0.0
 10
70.44998883670746
 20
-44.59857615222079
 30
0.0
 10
70.26838560873337
 20
-44.83975351785354
 30
0.0
 10
70.17391304347825
 20
-44.96521739130434
 30
0.0
  0
SPLINE
  5
C7
330
1F
100
AcDbEntity
  8
0
  6
Continuous
 62
     7
370
    25
100
AcDbSpline
210
0.0
220
0.0
230
1.0
 70
     8
 71
     3
 72
    15
 73
    11
 74
     0
 42
0.000000001
 43
0.00000001
 40
0.0
 40
0.0
 40
0.0
 40
0.0
 40
0.1662922305879697
 40
0.3118265565075231
 40
0.4409393914167888
 40
0.5544580718190308
 40
0.6613201087287246
 40
0.7673326258390613
 40
0.877123326389575
 40
1.0
 40
1.0
 40
1.0
 40
1.0
 10
73.4782608695652
 20
-44.78858695652173
 30
0.0
 10
73.47456567317195
 20
-44.66794496767542
 30
0.0
 10
73.46763654387439
 20
-44.4417204722847
 30
0.0
 10
73.41837830680375
 20
-44.12437731646011
 30
0.0
 10
73.33004140120521
 20
-43.85566136757596
 30
0.0
 10
73.20697336282043
 20
-43.63153924275955
 30
0.0
 10
73.04193026926552
 20
-43.45809525858033
 30
0.0
 10
72.84163249966177
 20
-43.33218660465151
 30
0.0
 10
72.60340376243856
 20
-43.26033950123357
 30
0.0
 10
72.4343759434535
 20
-43.25215074583214
 30
0.0
 10
72.34510869565217
 20
-43.24782608695651
 30
0.0
  0
SPLINE
  5
CC
330
1F
100
AcDbEntity
  8
0
  6
Continuous
 62
     7
370
    25
100
AcDbSpline
210
0.0
220
0.0
230
1.0
 70
     8
 71
     3
 72
    11
 73
     7
 74
     0
 42
0.000000001
 43
0.00000001
 40
0.0
 40
0.0
 40
0.0
 40
0.0
 40
0.2690710634953896
 40
0.5278480485335505
 40
0.7736738933348406
 40
1.0
 40
1.0
 40
1.0
 40
1.0
 10
81.85869565217389
 20
-41.33478260869564
 30
0.0
 10
81.99192602130688
 20
-41.33693703523175
 30
0.0
 10
82.25328965305042
 20
-41.34116346459216
 30
0.0
 10
82.63505057146604
 20
-41.37221272600036
 30
0.0
 10
82.99496587783518
 20
-41.41702876521438
 30
0.0
 10
83.22063149931856
 20
-41.4789930589512
 30
0.0
 10
83.32880434782606
 20
-41.50869565217391
 30
0.0
  0
SPLINE
  5
CD
330
1F
100
AcDbEntity
  8
0
  6
Continuous
 62
     7
370
    25
100
AcDbSpline
210
0.0
220
0.0
230
1.0
 70
     8
 71
     3
 72
    23
 73
    19
 74
     0
 42
0.000000001
 43
0.00000001
 40
0.0
 40
0.0
 40
0.0
 40
0.0
 40
0.0684380115679595
 40
0.1341248184090801
 40
0.1965495991545721
 40
0.2577725482364773
 40
0.3176223148934945
 40
0.3757330657649539
 40
0.4333263684256071
 40
0.4906706357484663
 40
0.5487978032459679
 40
0.6077662711260969
 40
0.6684924026584779
 40
0.7309152728409518
 40
0.7952537337645503
 40
0.8613478007187283
 40
0.9296287921435163
 40
1.0
 40
1.0
 40
1.0
 40
1.0
 10
78.17391304347824
 20
-44.61739130434782
 30
0.0
 10
78.17631876685944
 20
-44.49033116886662
 30
0.0
 10
78.18103350365928
 20
-44.24131870915298
 30
0.0
 10
78.23908904564178
 20
-43.88060679795132
 30
0.0
 10
78.32038191226737
 20
-43.5383261082093
 30
0.0
 10
78.44520291876007
 20
-43.22076666696484
 30
0.0
 10
78.59573887114485
 20
-42.923764699683
 30
0.0
 10
78.77826573329556
 20
-42.6534428740489
 30
0.0
 10
78.98074830953409
 20
-42.40351402095143
 30
0.0
 10
79.21547346147621
 20
-42.18353291885447
 30
0.0
 10
79.47031570358271
 20
-41.98333751412611
 30
0.0
 10
79.75314350186954
 20
-41.81235978193941
 30
0.0
 10
80.05765751187303
 20
-41.66501297102729
 30
0.0
 10
80.38520537930864
 20
-41.54683950796171
 30
0.0
 10
80.73024581655032
 20
-41.45117467581976
 30
0.0
 10
81.09300550309794
 20
-41.38403423870346
 30
0.0
 10
81.47093956401768
 20
-41.34229812789606
 30
0.0
 10
81.72815111340235
 20
-41.33731283328171
 30
0.0
 10
81.85869565217389
 20
-41.33478260869564
 30
0.0
  0
SPLINE
  5
CE
330
1F
100
AcDbEntity
  8
0
  6
Continuous
 62
     7
370
    25
100
AcDbSpline
210
0.0
220
0.0
230
1.0
 70
     8
 71
     3
 72
    15
 73
    11
 74
     0
 42
0.000000001
 43
0.00000001
 40
0.0
 40
0.0
 40
0.0
 40
0.0
 40
0.1073975988197842
 40
0.216838205266516
 40
0.3296168260666322
 40
0.4462637003998927
 40
0.5690872320565866
 40
0.701494550618504
 40
0.8445965322266639
 40
1.0
 40
1.0
 40
1.0
 40
1.0
 10
78.94836956521738
 20
-46.65543478260869
 30
0.0
 10
78.893499713092
 20
-46.59683083860451
 30
0.0
 10
78.78271622827614
 20
-46.47850813698871
 30
0.0
 10
78.64085680997952
 20
-46.27673394364749
 30
0.0
 10
78.50588293334626
 20
-46.06263402844201
 30
0.0
 10
78.38747306608565
 20
-45.82715128041998
 30
0.0
 10
78.2917363119133
 20
-45.56589759325325
 30
0.0
 10
78.2209275244766
 20
-45.27638894496042
 30
0.0
 10
78.18111300668163
 20
-44.95636398444837
 30
0.0
 10
78.1763780738122
 20
-44.73344438895836
 30
0.0
 10
78.17391304347824
 20
-44.61739130434782
 30
0.0
  0
SPLINE
  5
CF
330
1F
100
AcDbEntity
  8
0
  6
Continuous
 62
     7
370
    25
100
AcDbSpline
210
0.0
220
0.0
230
1.0
 70
     8
 71
     3
 72
    15
 73
    11
 74
     0
 42
0.000000001
 43
0.00000001
 40
0.0
 40
0.0
 40
0.0
 40
0.0
 40
0.1323583552738695
 40
0.2577763992584403
 40
0.3816373482256852
 40
0.5035463829538207
 40
0.6260760515394372
 40
0.7492897982109286
 40
0.8743859561743952
 40
1.0
 40
1.0
 40
1.0
 40
1.0
 10
77.99999999999997
 20
-48.72336956521738
 30
0.0
 10
78.0031282395862
 20
-48.62068733499652
 30
0.0
 10
78.0092206871305
 20
-48.42070709559725
 30
0.0
 10
78.07235758646128
 20
-48.13014832462024
 30
0.0
 10
78.17017332239028
 20
-47.85940080775228
 30
0.0
 10
78.28625789279405
 20
-47.59820643581362
 30
0.0
 10
78.43055059079668
 20
-47.35222784488551
 30
0.0
 10
78.58691751875645
 20
-47.11090808444929
 30
0.0
 10
78.76629713606808
 20
-46.88312085966903
 30
0.0
 10
78.88759523467364
 20
-46.73143458648956
 30
0.0
 10
78.94836956521736
 20
-46.65543478260869
 30
0.0
  0
SPLINE
  5
D0
330
1F
100
AcDbEntity
  8
0
  6
Continuous
 62
     7
370
    25
100
AcDbSpline
210
0.0
220
0.0
230
1.0
 70
     8
 71
     3
 72
    15
 73
    11
 74
     0
 42
0.000000001
 43
0.00000001
 40
0.0
 40
0.0
 40
0.0
 40
0.0
 40
0.1340403987156016
 40
0.260794929144067
 40
0.3875494595725403
 40
0.5115904409678566
 40
0.634831882652382
 40
0.7566380134429964
 40
0.8771645153065496
 40
1.0
 40
1.0
 40
1.0
 40
1.0
 10
78.9048913043478
 20
-50.27771739130434
 30
0.0
 10
78.83376537753931
 20
-50.23249577813959
 30
0.0
 10
78.69537962801849
 20
-50.14451060714568
 30
0.0
 10
78.5130156950417
 20
-49.98203728241345
 30
0.0
 10
78.35494816365521
 20
-49.80449685149095
 30
0.0
 10
78.22686450643751
 20
-49.6066302515269
 30
0.0
 10
78.12650181664661
 20
-49.39712735234883
 30
0.0
 10
78.05259378995912
 20
-49.17931288663362
 30
0.0
 10
78.00698020141834
 20
-48.95352999715598
 30
0.0
 10
78.00234140454752
 20
-48.80057345228382
 30
0.0
 10
77.99999999999997
 20
-48.72336956521738
 30
0.0
  0
SPLINE
  5
D1
330
1F
100
AcDbEntity
  8
0
  6
Continuous
 62
     7
370
    25
100
AcDbSpline
210
0.0
220
0.0
230
1.0
 70
     8
 71
     3
 72
    15
 73
    11
 74
     0
 42
0.000000001
 43
0.00000001
 40
0.0
 40
0.0
 40
0.0
 40
0.0
 40
0.1223524201059425
 40
0.2359537902477083
 40
0.3487814757678516
 40
0.4628906041745446
 40
0.5837447748721714
 40
0.7100195127049247
 40
0.8484368682344073
 40
0.9999999999999999
 40
0.9999999999999999
 40
0.9999999999999999
 40
0.9999999999999999
 10
77.65217391304346
 20
-52.34021739130434
 30
0.0
 10
77.65548627830505
 20
-52.23756819613278
 30
0.0
 10
77.66187409750368
 20
-52.03961161590627
 30
0.0
 10
77.72125810235381
 20
-51.75184745075752
 30
0.0
 10
77.82029237998245
 20
-51.48314347788781
 30
0.0
 10
77.9596728143195
 20
-51.22608850058289
 30
0.0
 10
78.13694940709323
 20
-50.97972806648649
 30
0.0
 10
78.35419084825249
 20
-50.73982843818995
 30
0.0
 10
78.6108095540325
 20
-50.50265231887226
 30
0.0
 10
78.80394555595785
 20
-50.35492797842184
 30
0.0
 10
78.9048913043478
 20
-50.27771739130434
 30
0.0
  0
SPLINE
  5
D2
330
1F
100
AcDbEntity
  8
0
  6
Continuous
 62
     7
370
    25
100
AcDbSpline
210
0.0
220
0.0
230
1.0
 70
     8
 71
     3
 72
    23
 73
    19
 74
     0
 42
0.000000001
 43
0.00000001
 40
0.0
 40
0.0
 40
0.0
 40
0.0
 40
0.0993065116609821
 40
0.1912681575924474
 40
0.2766642318382477
 40
0.3556463109019173
 40
0.4286182942475963
 40
0.4956940404812101
 40
0.5581819041101643
 40
0.6158503424943301
 40
0.66954251311091
 40
0.7199720995561751
 40
0.7682777484215947
 40
0.8150091539545186
 40
0.8609947616408392
 40
0.9063471939581941
 40
0.9527681780547478
 40
0.9999999999999999
 40
0.9999999999999999
 40
0.9999999999999999
 40
0.9999999999999999
 10
81.88315217391302
 20
-54.72608695652173
 30
0.0
 10
81.70376355823383
 20
-54.72406963565791
 30
0.0
 10
81.35825419092113
 20
-54.72018419815294
 30
0.0
 10
80.85914082388301
 20
-54.68871338282639
 30
0.0
 10
80.3995418045404
 20
-54.63075114124823
 30
0.0
 10
79.97690561651987
 20
-54.55698066671533
 30
0.0
 10
79.59322724568983
 20
-54.45872705312446
 30
0.0
 10
79.24558224850018
 20
-54.34415951899047
 30
0.0
 10
78.93187838330084
 20
-54.21633482071088
 30
0.0
 10
78.65572145834429
 20
-54.06565972632672
 30
0.0
 10
78.41371887045145
 20
-53.90048867252229
 30
0.0
 10
78.20886927406694
 20
-53.71564233473789
 30
0.0
 10
78.03158366669015
 20
-53.52069011501433
 30
0.0
 10
77.89222881233832
 20
-53.30613507858765
 30
0.0
 10
77.7865514364538
 20
-53.07950448336508
 30
0.0
 10
77.70904202048862
 20
-52.842466450564
 30
0.0
 10
77.66203277655961
 20
-52.5947852290596
 30
0.0
 10
77.65547911456069
 20
-52.42556171138837
 30
0.0
 10
77.65217391304347
 20
-52.34021739130435
 30
0.0
  0
SPLINE
  5
D3
330
1F
100
AcDbEntity
  8
0
  6
Continuous
 62
     7
370
    25
100
AcDbSpline
210
0.0
220
0.0
230
1.0
 70
     8
 71
     3
 72
    23
 73
    19
 74
     0
 42
0.000000001
 43
0.00000001
 40
0.0
 40
0.0
 40
0.0
 40
0.0
 40
0.0512641766813874
 40
0.1014587453683229
 40
0.152095384713557
 40
0.2031757918879567
 40
0.2548710745663122
 40
0.3068294577309778
 40
0.3608047330422088
 40
0.4172247868509107
 40
0.4761669563901689
 40
0.5382377276125303
 40
0.6041941322521158
 40
0.6744127654225149
 40
0.7484641406131844
 40
0.827465310884211
 40
0.9110575774563063
 40
1.0
 40
1.0
 40
1.0
 40
1.0
 10
86.52173913043477
 20
-51.5766304347826
 30
0.0
 10
86.51803481988992
 20
-51.68376680773498
 30
0.0
 10
86.51070348786307
 20
-51.89580419303466
 30
0.0
 10
86.45327358168778
 20
-52.20922177497194
 30
0.0
 10
86.36508396538412
 20
-52.51468797447172
 30
0.0
 10
86.23557669306419
 20
-52.80867161108102
 30
0.0
 10
86.07376292817729
 20
-53.08932899605645
 30
0.0
 10
85.87160693600602
 20
-53.35035855400522
 30
0.0
 10
85.6339058854676
 20
-53.59319537133961
 30
0.0
 10
85.3581755856785
 20
-53.81595976688772
 30
0.0
 10
85.04620015988688
 20
-54.01700876981446
 30
0.0
 10
84.69929997805713
 20
-54.19781095117332
 30
0.0
 10
84.3136581093159
 20
-54.34992569671447
 30
0.0
 10
83.89617474436922
 20
-54.48674984427111
 30
0.0
 10
83.44225396018419
 20
-54.59645348131525
 30
0.0
 10
82.95301871178899
 20
-54.66965442603549
 30
0.0
 10
82.42936935398102
 20
-54.71700805057363
 30
0.0
 10
82.06895000119475
 20
-54.72299873253171
 30
0.0
 10
81.88315217391302
 20
-54.72608695652173
 30
0.0
  0
SPLINE
  5
D4
330
1F
100
AcDbEntity
  8
0
  6
Continuous
 62
     7
370
    25
100
AcDbSpline
210
0.0
220
0.0
230
1.0
 70
     8
 71
     3
 72
    23
 73
    19
 74
     0
 42
0.000000001
 43
0.00000001
 40
0.0
 40
0.0
 40
0.0
 40
0.0
 40
0.0790101443824176
 40
0.1541663105193218
 40
0.2263510237396641
 40
0.2958814532706862
 40
0.3623527103180695
 40
0.4257773769705459
 40
0.48667832855656
 40
0.545309404033127
 40
0.6026866453792725
 40
0.6580563446134331
 40
0.7134686094841121
 40
0.7680066269220512
 40
0.8232878158791245
 40
0.8798789214786116
 40
0.9384945282385875
 40
1.0
 40
1.0
 40
1.0
 40
1.0
 10
83.30978260869563
 20
-49.14184782608695
 30
0.0
 10
83.42854637870398
 20
-49.14669940942824
 30
0.0
 10
83.66028082734562
 20
-49.15616592426314
 30
0.0
 10
83.99876950521492
 20
-49.19503505829767
 30
0.0
 10
84.3202780150293
 20
-49.25132798933841
 30
0.0
 10
84.62413593210502
 20
-49.32779592038211
 30
0.0
 10
84.91025128006845
 20
-49.41869389794685
 30
0.0
 10
85.17513067025872
 20
-49.53019309486194
 30
0.0
 10
85.41779492908633
 20
-49.66086869892322
 30
0.0
 10
85.63916908983632
 20
-49.80897267854529
 30
0.0
 10
85.84118087743026
 20
-49.96991859920873
 30
0.0
 10
86.0170918978312
 20
-50.15250748834338
 30
0.0
 10
86.16936102203081
 20
-50.3497766648974
 30
0.0
 10
86.29548342074362
 20
-50.5645984157614
 30
0.0
 10
86.39697507155049
 20
-50.79403161988691
 30
0.0
 10
86.4705480558864
 20
-51.04029649350061
 30
0.0
 10
86.51501933997591
 20
-51.30327455146662
 30
0.0
 10
86.51946356069196
 20
-51.48406201603584
 30
0.0
 10
86.52173913043477
 20
-51.5766304347826
 30
0.0
  0
SPLINE
  5
D6
330
1F
100
AcDbEntity
  8
0
  6
Continuous
 62
     7
370
    25
100
AcDbSpline
210
0.0
220
0.0
230
1.0
 70
     8
 71
     3
 72
    15
 73
    11
 74
     0
 42
0.000000001
 43
0.00000001
 40
0.0
 40
0.0
 40
0.0
 40
0.0
 40
0.1019350546523848
 40
0.2089181367469857
 40
0.320600555633801
 40
0.4389113155243651
 40
0.5648609483110829
 40
0.6997146171361062
 40
0.844679250739007
 40
1.0
 40
1.0
 40
1.0
 40
1.0
 10
80.08695652173911
 20
-48.22608695652173
 30
0.0
 10
80.0913008032184
 20
-48.27623660878839
 30
0.0
 10
80.10020450367014
 20
-48.37901942423684
 30
0.0
 10
80.15247258129922
 20
-48.53035008568047
 30
0.0
 10
80.24540900000913
 20
-48.66924739395803
 30
0.0
 10
80.36787167658532
 20
-48.79674288331241
 30
0.0
 10
80.52689748517544
 20
-48.89668276397114
 30
0.0
 10
80.70573600753595
 20
-48.98705326263212
 30
0.0
 10
80.91442324583683
 20
-49.04381227091661
 30
0.0
 10
81.0621672750343
 20
-49.05469635965564
 30
0.0
 10
81.1385869565217
 20
-49.06032608695651
 30
0.0
  0
SPLINE
  5
D7
330
1F
100
AcDbEntity
  8
0
  6
Continuous
 62
     7
370
    25
100
AcDbSpline
210
0.0
220
0.0
230
1.0
 70
     8
 71
     3
 72
    11
 73
     7
 74
     0
 42
0.000000001
 43
0.00000001
 40
0.0
 40
0.0
 40
0.0
 40
0.0
 40
0.2302824494426179
 40
0.470656662833443
 40
0.7239957144981204
 40
1.0
 40
1.0
 40
1.0
 40
1.0
 10
80.33423913043477
 20
-47.44619565217391
 30
0.0
 10
80.30158837622382
 20
-47.50091019958675
 30
0.0
 10
80.23485600016515
 20
-47.61273707287258
 30
0.0
 10
80.15047560141092
 20
-47.7951484576375
 30
0.0
 10
80.09774295128001
 20
-48.00315294689781
 30
0.0
 10
80.09065318724699
 20
-48.14968424506101
 30
0.0
 10
80.08695652173911
 20
-48.22608695652173
 30
0.0
  0
SPLINE
  5
D8
330
1F
100
AcDbEntity
  8
0
  6
Continuous
 62
     7
370
    25
100
AcDbSpline
210
0.0
220
0.0
230
1.0
 70
     8
 71
     3
 72
    13
 73
     9
 74
     0
 42
0.000000001
 43
0.00000001
 40
0.0
 40
0.0
 40
0.0
 40
0.0
 40
0.2977332159656104
 40
0.5759605717229102
 40
0.7035632438899883
 40
0.8164978198507551
 40
0.9142110122632873
 40
1.0
 40
1.0
 40
1.0
 40
1.0
 10
81.82880434782606
 20
-47.7695652173913
 30
0.0
 10
81.67549002346698
 20
-47.76485748820489
 30
0.0
 10
81.37890569502788
 20
-47.75575045463147
 30
0.0
 10
81.01983131337121
 20
-47.69738883563789
 30
0.0
 10
80.76239989558006
 20
-47.62596933203963
 30
0.0
 10
80.59611460969622
 20
-47.57378582695256
 30
0.0
 10
80.45548762289071
 20
-47.51356464183236
 30
0.0
 10
80.3728656680745
 20
-47.46765761645968
 30
0.0
 10
80.33423913043477
 20
-47.44619565217391
 30
0.0
  0
SPLINE
  5
D9
330
1F
100
AcDbEntity
  8
0
  6
Continuous
 62
     7
370
    25
100
AcDbSpline
210
0.0
220
0.0
230
1.0
 70
     8
 71
     3
 72
    23
 73
    19
 74
     0
 42
0.000000001
 43
0.00000001
 40
0.0
 40
0.0
 40
0.0
 40
0.0
 40
0.0692521667649582
 40
0.1346012760957616
 40
0.197289342811171
 40
0.25796592502967
 40
0.3167575906632849
 40
0.3741896182221998
 40
0.4306956078019399
 40
0.4876836436523633
 40
0.5452091534132977
 40
0.6035211174230292
 40
0.6640990008018508
 40
0.7266310297725552
 40
0.7914792716389687
 40
0.8582700789272834
 40
0.9278038169562935
 40
1.0
 40
1.0
 40
1.0
 40
1.0
 10
85.4782608695652
 20
-44.56032608695651
 30
0.0
 10
85.47527129227804
 20
-44.68729221285506
 30
0.0
 10
85.46946063050905
 20
-44.93406864405151
 30
0.0
 10
85.42032537438728
 20
-45.29320966137668
 30
0.0
 10
85.33587490957181
 20
-45.62930173653866
 30
0.0
 10
85.21907481609142
 20
-45.94281705309282
 30
0.0
 10
85.07172132700735
 20
-46.23245877253156
 30
0.0
 10
84.89664454396775
 20
-46.49689994989859
 30
0.0
 10
84.69740766787244
 20
-46.73963308908831
 30
0.0
 10
84.46745560444022
 20
-46.95387068717649
 30
0.0
 10
84.21371981890718
 20
-47.1442621499012
 30
0.0
 10
83.93669413958942
 20
-47.31226827375688
 30
0.0
 10
83.63434775265299
 20
-47.45193591325071
 30
0.0
 10
83.31016918670012
 20
-47.56992588049929
 30
0.0
 10
82.96474934513513
 20
-47.65747962721483
 30
0.0
 10
82.60174931646834
 20
-47.72371705874271
 30
0.0
 10
82.22089965029353
 20
-47.76128290016247
 30
0.0
 10
81.96112940625892
 20
-47.76677008543137
 30
0.0
 10
81.82880434782606
 20
-47.7695652173913
 30
0.0
  0
SPLINE
  5
DA
330
1F
100
AcDbEntity
  8
0
  6
Continuous
 62
     7
370
    25
100
AcDbSpline
210
0.0
220
0.0
230
1.0
 70
     8
 71
     3
 72
    11
 73
     7
 74
     0
 42
0.000000001
 43
0.00000001
 40
0.0
 40
0.0
 40
0.0
 40
0.0
 40
0.260321333510768
 40
0.5106438220353487
 40
0.7541589260787319
 40
1.0
 40
1.0
 40
1.0
 40
1.0
 10
85.01086956521736
 20
-43.07391304347826
 30
0.0
 10
85.08821468382608
 20
-43.1881180544957
 30
0.0
 10
85.23993412398674
 20
-43.41214150480245
 30
0.0
 10
85.38078627968265
 20
-43.78805261288629
 30
0.0
 10
85.4619507425352
 20
-44.17176256882415
 30
0.0
 10
85.47280696024418
 20
-44.43039514347265
 30
0.0
 10
85.4782608695652
 20
-44.56032608695651
 30
0.0
  0
SPLINE
  5
E3
330
1F
100
AcDbEntity
  8
0
  6
Continuous
 62
     7
370
    25
100
AcDbSpline
210
0.0
220
0.0
230
1.0
 70
     8
 71
     3
 72
    15
 73
    11
 74
     0
 42
0.000000001
 43
0.00000001
 40
0.0
 40
0.0
 40
0.0
 40
0.0
 40
0.1191719145219252
 40
0.2333916970644773
 40
0.3485370227966229
 40
0.4666604131488292
 40
0.5900452407652805
 40
0.720366942710491
 40
0.8575604105291587
 40
1.0
 40
1.0
 40
1.0
 40
1.0
 10
74.55389492753622
 20
21.40579710144925
 30
0.0
 10
74.65726855083321
 20
21.41102630748792
 30
0.0
 10
74.85972015589277
 20
21.42126742240633
 30
0.0
 10
75.1497386859845
 20
21.51532257382
 30
0.0
 10
75.41419739661806
 20
21.66088814641291
 30
0.0
 10
75.65850949253634
 20
21.85153926278818
 30
0.0
 10
75.88106469523915
 20
22.08531347603876
 30
0.0
 10
76.0819215518687
 20
22.35839052006935
 30
0.0
 10
76.26014690265555
 20
22.6660496294074
 30
0.0
 10
76.35844392128548
 20
22.88729960575279
 30
0.0
 10
76.40851449275361
 20
22.99999999999998
 30
0.0
  0
SPLINE
  5
E4
330
1F
100
AcDbEntity
  8
0
  6
Continuous
 62
     7
370
    25
100
AcDbSpline
210
0.0
220
0.0
230
1.0
 70
     8
 71
     3
 72
    15
 73
    11
 74
     0
 42
0.000000001
 43
0.00000001
 40
0.0
 40
0.0
 40
0.0
 40
0.0
 40
0.1024739538316523
 40
0.2195173572515405
 40
0.344979327574302
 40
0.4759294505531122
 40
0.6108097508855475
 40
0.7456900512179964
 40
0.877613492932445
 40
1.0
 40
1.0
 40
1.0
 40
1.0
 10
73.58695652173914
 20
21.55072463768114
 30
0.0
 10
73.6194461207351
 20
21.54254198250075
 30
0.0
 10
73.68904459569464
 20
21.52501328595558
 30
0.0
 10
73.79773157618614
 20
21.49485962944915
 30
0.0
 10
73.91678220976269
 20
21.46738237671905
 30
0.0
 10
74.0432735734226
 20
21.44762305603351
 30
0.0
 10
74.1735331378974
 20
21.43360588293539
 30
0.0
 10
74.30367434287818
 20
21.41577328702542
 30
0.0
 10
74.43072881871596
 20
21.40692865728656
 30
0.0
 10
74.51387896876214
 20
21.40616473741802
 30
0.0
 10
74.55389492753622
 20
21.40579710144925
 30
0.0
  0
SPLINE
  5
E6
330
1F
100
AcDbEntity
  8
0
  6
Continuous
 62
     7
370
    25
100
AcDbSpline
210
0.0
220
0.0
230
1.0
 70
     8
 71
     3
 72
    11
 73
     7
 74
     0
 42
0.000000001
 43
0.00000001
 40
0.0
 40
0.0
 40
0.0
 40
0.0
 40
0.2262985330280268
 40
0.4737611745557452
 40
0.7324029334717215
 40
1.0
 40
1.0
 40
1.0
 40
1.0
 10
74.4633152173913
 20
19.81159420289853
 30
0.0
 10
74.3968594243941
 20
19.81237709309331
 30
0.0
 10
74.2577326959743
 20
19.81401609169072
 30
0.0
 10
74.0432755905449
 20
19.83132275750275
 30
0.0
 10
73.8173624144737
 20
19.85546277393171
 30
0.0
 10
73.66462489328805
 20
19.87892215027785
 30
0.0
 10
73.58695652173913
 20
19.89085144927534
 30
0.0
  0
SPLINE
  5
E7
330
1F
100
AcDbEntity
  8
0
  6
Continuous
 62
     7
370
    25
100
AcDbSpline
210
0.0
220
0.0
230
1.0
 70
     8
 71
     3
 72
    23
 73
    19
 74
     0
 42
0.000000001
 43
0.00000001
 40
0.0
 40
0.0
 40
0.0
 40
0.0
 40
0.0816980882900444
 40
0.1594956151806803
 40
0.2339409762000509
 40
0.3046652861039362
 40
0.3716571938431105
 40
0.4354884647064462
 40
0.4959477149268771
 40
0.5543397281792901
 40
0.6103041284013232
 40
0.6648632477229298
 40
0.7189608994696305
 40
0.7724755498509986
 40
0.8263319029020453
 40
0.8819796377661495
 40
0.9398002240373994
 40
1.0
 40
1.0
 40
1.0
 40
1.0
 10
78.8768115942029
 20
23.91938405797099
 30
0.0
 10
78.81064997227685
 20
23.75591329155208
 30
0.0
 10
78.68148552288382
 20
23.43677644270101
 30
0.0
 10
78.47495477797241
 20
22.9758468469881
 30
0.0
 10
78.262450443479
 20
22.54393885875812
 30
0.0
 10
78.04599883086732
 20
22.14025713203562
 30
0.0
 10
77.82238741133364
 20
21.76680548503307
 30
0.0
 10
77.58721283139428
 20
21.42708276227647
 30
0.0
 10
77.34138044352625
 20
21.11834365789185
 30
0.0
 10
77.08392915663629
 20
20.84197868271923
 30
0.0
 10
76.81355866940895
 20
20.5964552986028
 30
0.0
 10
76.5254068621367
 20
20.3875269654211
 30
0.0
 10
76.22461297375814
 20
20.20753548795477
 30
0.0
 10
75.90748840679645
 20
20.06110413746819
 30
0.0
 10
75.57288056685215
 20
19.95035350029865
 30
0.0
 10
75.22073997083135
 20
19.86795478855345
 30
0.0
 10
74.84807114424221
 20
19.82045574278435
 30
0.0
 10
74.59327932151052
 20
19.81458748256495
 30
0.0
 10
74.4633152173913
 20
19.81159420289853
 30
0.0
  0
SPLINE
  5
EA
330
1F
100
AcDbEntity
  8
0
  6
Continuous
 62
     7
370
    25
100
AcDbSpline
210
0.0
220
0.0
230
1.0
 70
     8
 71
     3
 72
    15
 73
    11
 74
     0
 42
0.000000001
 43
0.00000001
 40
0.0
 40
0.0
 40
0.0
 40
0.0
 40
0.1218530297279459
 40
0.2406345034299954
 40
0.3583681183040224
 40
0.4764122959590657
 40
0.5974097359262014
 40
0.7229984821818612
 40
0.8565919240730576
 40
1.0
 40
1.0
 40
1.0
 40
1.0
 10
67.85552536231883
 20
29.66666666666664
 30
0.0
 10
67.92147126730065
 20
29.76252976558473
 30
0.0
 10
68.05170077520847
 20
29.95183953701117
 30
0.0
 10
68.28030003881197
 20
30.2074754496083
 30
0.0
 10
68.53506157911195
 20
30.43144024805111
 30
0.0
 10
68.8191114102704
 20
30.62056041524696
 30
0.0
 10
69.13092743372447
 20
30.77775036040651
 30
0.0
 10
69.47802717127226
 20
30.88682511601877
 30
0.0
 10
69.85653113240483
 20
30.96026611423337
 30
0.0
 10
70.1211531575457
 20
30.96734805814826
 30
0.0
 10
70.25815217391305
 20
30.9710144927536
 30
0.0
  0
SPLINE
  5
F0
330
1F
100
AcDbEntity
  8
0
  6
Continuous
 62
     7
370
    25
100
AcDbSpline
210
0.0
220
0.0
230
1.0
 70
     8
 71
     3
 72
    15
 73
    11
 74
     0
 42
0.000000001
 43
0.00000001
 40
0.0
 40
0.0
 40
0.0
 40
0.0
 40
0.0862701213678378
 40
0.1778985512383921
 40
0.2770475168046577
 40
0.386423285420931
 40
0.510054578713637
 40
0.6528698779577571
 40
0.8159725289570877
 40
1.0
 40
1.0
 40
1.0
 40
1.0
 10
69.81204710144927
 20
29.37681159420287
 30
0.0
 10
69.74291668964734
 20
29.37279518496779
 30
0.0
 10
69.60036211906039
 20
29.36451290400221
 30
0.0
 10
69.3871142306765
 20
29.2964432516823
 30
0.0
 10
69.1729792697882
 20
29.18678275255152
 30
0.0
 10
68.95181528398754
 20
29.03777646447501
 30
0.0
 10
68.72953554510354
 20
28.8342696868989
 30
0.0
 10
68.49288584593029
 20
28.58469861061542
 30
0.0
 10
68.24968622493905
 20
28.27660526385209
 30
0.0
 10
68.09124327850658
 20
28.04847640483602
 30
0.0
 10
68.0072463768116
 20
27.92753623188404
 30
0.0
  0
SPLINE
  5
F1
330
1F
100
AcDbEntity
  8
0
  6
Continuous
 62
     7
370
    25
100
AcDbSpline
210
0.0
220
0.0
230
1.0
 70
     8
 71
     3
 72
    17
 73
    13
 74
     0
 42
0.000000001
 43
0.00000001
 40
0.0
 40
0.0
 40
0.0
 40
0.0
 40
0.097677695812173
 40
0.186788822004228
 40
0.2697749971775931
 40
0.3447690251852534
 40
0.4791052046340827
 40
0.5962295579693258
 40
0.699161670550808
 40
0.7965085749578343
 40
0.8942687937309172
 40
1.0
 40
1.0
 40
1.0
 40
1.0
 10
70.76086956521738
 20
27.78260869565215
 30
0.0
 10
70.76202618950677
 20
27.85129240911793
 30
0.0
 10
70.76423799934439
 20
27.98263610864394
 30
0.0
 10
70.76106618696623
 20
28.17242641645857
 30
0.0
 10
70.74536718907098
 20
28.34569635583044
 30
0.0
 10
70.7126740511786
 20
28.54863876016692
 30
0.0
 10
70.65834055457897
 20
28.77292774385845
 30
0.0
 10
70.5495037556277
 20
28.999112725648
 30
0.0
 10
70.40894986687407
 20
29.1762301424246
 30
0.0
 10
70.23231749404873
 20
29.29406787308593
 30
0.0
 10
70.03018805026721
 20
29.36548938171639
 30
0.0
 10
69.88663512742073
 20
29.37294023724962
 30
0.0
 10
69.81204710144928
 20
29.37681159420288
 30
0.0
  0
SPLINE
  5
F3
330
1F
100
AcDbEntity
  8
0
  6
Continuous
 62
     7
370
    25
100
AcDbSpline
210
0.0
220
0.0
230
1.0
 70
     8
 71
     3
 72
    23
 73
    19
 74
     0
 42
0.000000001
 43
0.00000001
 40
0.0
 40
0.0
 40
0.0
 40
0.0
 40
0.0627922513948277
 40
0.1220686466412255
 40
0.1791776541918823
 40
0.2344678912674955
 40
0.2883486063995831
 40
0.3420588926832633
 40
0.395303504184938
 40
0.4499989630372394
 40
0.5061960222618905
 40
0.564759573504021
 40
0.6268773450664331
 40
0.692724630509195
 40
0.7628189985994268
 40
0.837096112324514
 40
0.915873973911012
 40
1.0
 40
1.0
 40
1.0
 40
1.0
 10
70.25815217391303
 20
30.9710144927536
 30
0.0
 10
70.35334277400246
 20
30.96805927341293
 30
0.0
 10
70.53839407360984
 20
30.96231430301565
 30
0.0
 10
70.8086573703664
 20
30.9276914760921
 30
0.0
 10
71.06056424673557
 20
30.85996144125455
 30
0.0
 10
71.29775797013463
 20
30.77305100553443
 30
0.0
 10
71.51722365505006
 20
30.65822744286662
 30
0.0
 10
71.7189859909275
 20
30.52027751573966
 30
0.0
 10
71.90328328049874
 20
30.35749603378496
 30
0.0
 10
72.06551660514175
 20
30.16793415618541
 30
0.0
 10
72.21200205622698
 20
29.9562194646198
 30
0.0
 10
72.33700579665268
 20
29.71817060921826
 30
0.0
 10
72.44040394696431
 20
29.45440435310446
 30
0.0
 10
72.52387556490837
 20
29.16549919448306
 30
0.0
 10
72.58630758725586
 20
28.85258569025266
 30
0.0
 10
72.62934391879921
 20
28.51669379641997
 30
0.0
 10
72.6492353332096
 20
28.15724216802064
 30
0.0
 10
72.64639455630005
 20
27.9101901079192
 30
0.0
 10
72.64492753623188
 20
27.78260869565215
 30
0.0
  0
SPLINE
  5
F6
330
1F
100
AcDbEntity
  8
0
  6
Continuous
 62
     7
370
    25
100
AcDbSpline
210
0.0
220
0.0
230
1.0
 70
     8
 71
     3
 72
    23
 73
    19
 74
     0
 42
0.000000001
 43
0.00000001
 40
0.0
 40
0.0
 40
0.0
 40
0.0
 40
0.0694016921742945
 40
0.1357840197047653
 40
0.1997093593023113
 40
0.2611092834158469
 40
0.3203742605262331
 40
0.3773588161890796
 40
0.4332526704439489
 40
0.4884978047193948
 40
0.5436107543723545
 40
0.5996567585824549
 40
0.6576246351452895
 40
0.7181223256427409
 40
0.7816617896511854
 40
0.8494123818478249
 40
0.922017374074559
 40
1.0
 40
1.0
 40
1.0
 40
1.0
 10
64.3840579710145
 20
28.12681159420287
 30
0.0
 10
64.38083469865245
 20
27.93719709324391
 30
0.0
 10
64.37452838443721
 20
27.56621739047441
 30
0.0
 10
64.31770161366323
 20
27.02315156610024
 30
0.0
 10
64.23249232821456
 20
26.50603880877663
 30
0.0
 10
64.10464332575896
 20
26.01762971685949
 30
0.0
 10
63.9435208147782
 20
25.5592929337455
 30
0.0
 10
63.74164891032413
 20
25.13341034120556
 30
0.0
 10
63.4948983993111
 20
24.74496816104223
 30
0.0
 10
63.21169791841187
 20
24.38876043409889
 30
0.0
 10
62.88482256947724
 20
24.07103828310774
 30
0.0
 10
62.51409674751439
 20
23.79356785974647
 30
0.0
 10
62.10165405070851
 20
23.55270505352503
 30
0.0
 10
61.64635305028924
 20
23.35066297708009
 30
0.0
 10
61.14612455468089
 20
23.19157385798985
 30
0.0
 10
60.59961808676599
 20
23.08037522969505
 30
0.0
 10
60.00627782261674
 20
23.01175238594955
 30
0.0
 10
59.59485239683849
 20
23.00400962916643
 30
0.0
 10
59.38179347826087
 20
22.99999999999998
 30
0.0
  0
SPLINE
  5
F7
330
1F
100
AcDbEntity
  8
0
  6
Continuous
 62
     7
370
    25
100
AcDbSpline
210
0.0
220
0.0
230
1.0
 70
     8
 71
     3
 72
    23
 73
    19
 74
     0
 42
0.000000001
 43
0.00000001
 40
0.0
 40
0.0
 40
0.0
 40
0.0
 40
0.0720799341538786
 40
0.1397855148972218
 40
0.2037480242921901
 40
0.2639702763593056
 40
0.3215224369532071
 40
0.376768870299905
 40
0.4309477956026703
 40
0.4844328525378848
 40
0.5384615557658391
 40
0.5940084451451171
 40
0.6517383601329262
 40
0.712483821428642
 40
0.776959975211331
 40
0.846136077612242
 40
0.9202785234326581
 40
0.9999999999999999
 40
0.9999999999999999
 40
0.9999999999999999
 40
0.9999999999999999
 10
59.80298913043479
 20
32.99999999999997
 30
0.0
 10
59.98808271707061
 20
32.99685120867816
 30
0.0
 10
60.34703701712345
 20
32.99074471841301
 30
0.0
 10
60.86760874308821
 20
32.93431880901954
 30
0.0
 10
61.35340052377683
 20
32.84950674925409
 30
0.0
 10
61.80295544991741
 20
32.72156087535399
 30
0.0
 10
62.21693044530124
 20
32.55889400274012
 30
0.0
 10
62.59799755675206
 20
32.36005502454137
 30
0.0
 10
62.93868127345154
 20
32.11528535117233
 30
0.0
 10
63.24509136571695
 20
31.8340751697152
 30
0.0
 10
63.51832520436933
 20
31.5151652724699
 30
0.0
 10
63.74791541707468
 20
31.15086088155296
 30
0.0
 10
63.94684238128233
 20
30.74995009858815
 30
0.0
 10
64.10585313076281
 20
30.30717433685776
 30
0.0
 10
64.23428562470774
 20
29.82421734324002
 30
0.0
 10
64.31878248396424
 20
29.29692321429424
 30
0.0
 10
64.37495142826702
 20
28.72660862666599
 30
0.0
 10
64.38094995554137
 20
28.33151918843851
 30
0.0
 10
64.38405797101451
 20
28.12681159420288
 30
0.0
  0
CIRCLE
  5
F9
330
1F
100
AcDbEntity
  8
0
  6
Continuous
 62
     7
370
    25
100
AcDbCircle
 10
137.5
 20
-21.5
 30
0.0
 40
3.750000000000011
  0
CIRCLE
  5
FA
330
1F
100
AcDbEntity
  8
0
  6
Continuous
 62
     7
370
    25
100
AcDbCircle
 10
176.1066017178
 20
-47.3371869269
 30
0.0
 40
1.750000000000014
  0
CIRCLE
  5
FB
330
1F
100
AcDbEntity
  8
0
  6
Continuous
 62
     7
370
    25
100
AcDbCircle
 10
176.1066017178
 20
47.6637952861
 30
0.0
 40
1.750000000000014
  0
CIRCLE
  5
FC
330
1F
100
AcDbEntity
  8
0
  6
Continuous
 62
     7
370
    25
100
AcDbCircle
 10
22.5
 20
30.0
 30
0.0
 40
1.750000000000014
  0
CIRCLE
  5
FD
330
1F
100
AcDbEntity
  8
0
  6
Continuous
 62
     7
370
    25
100
AcDbCircle
 10
22.5
 20
-30.0
 30
0.0
 40
1.750000000000014
  0
CIRCLE
  5
FE
330
1F
100
AcDbEntity
  8
0
  6
Continuous
 62
     7
370
    25
100
AcDbCircle
 10
147.5
 20
-30.0
 30
0.0
 40
1.750000000000014
  0
CIRCLE
  5
FF
330
1F
100
AcDbEntity
  8
0
  6
Continuous
 62
     7
370
    25
100
AcDbCircle
 10
147.5
 20
30.0
 30
0.0
 40
1.750000000000021
  0
SPLINE
  5
104
330
1F
100
AcDbEntity
  8
0
  6
Continuous
 62
     7
370
    25
100
AcDbSpline
210
0.0
220
0.0
230
1.0
 70
     8
 71
     3
 72
    23
 73
    19
 74
     0
 42
0.000000001
 43
0.00000001
 40
0.0
 40
0.0
 40
0.0
 40
0.0
 40
0.0701012672867742
 40
0.1365854478716781
 40
0.2005571828561805
 40
0.2619613940970316
 40
0.3213229075280245
 40
0.3788055979172465
 40
0.4353896100504088
 40
0.4914761784555303
 40
0.5475627468606507
 40
0.6049538830231403
 40
0.6635717755235846
 40
0.724420616194268
 40
0.7880260768672447
 40
0.8546452833448225
 40
0.9251583938538547
 40
1.0
 40
1.0
 40
1.0
 40
1.0
 10
86.31340579710145
 20
22.85507246376809
 30
0.0
 10
86.16832129046196
 20
22.85784264227765
 30
0.0
 10
85.8856383506867
 20
22.86324006356626
 30
0.0
 10
85.47318184388884
 20
22.91320081497704
 30
0.0
 10
85.08277402655641
 20
22.98733478790652
 30
0.0
 10
84.716525224838
 20
23.0991502688568
 30
0.0
 10
84.37569230071234
 20
23.24154730447662
 30
0.0
 10
84.06075446064739
 20
23.41486187442801
 30
0.0
 10
83.77160279275765
 20
23.61683222275174
 30
0.0
 10
83.50948055526959
 20
23.84869620481432
 30
0.0
 10
83.2764110079942
 20
24.11200793121458
 30
0.0
 10
83.07282945562669
 20
24.40500396539822
 30
0.0
 10
82.89743527765393
 20
24.72687954096491
 30
0.0
 10
82.75213693199068
 20
25.07740487944717
 30
0.0
 10
82.63961356303032
 20
25.4570492420493
 30
0.0
 10
82.55889931709024
 20
25.86484104989894
 30
0.0
 10
82.50776033150474
 20
26.30108580210304
 30
0.0
 10
82.50263762658093
 20
26.60190490436059
 30
0.0
 10
82.5
 20
26.75679347826085
 30
0.0
  0
SPLINE
  5
105
330
1F
100
AcDbEntity
  8
0
  6
Continuous
 62
     7
370
    25
100
AcDbSpline
210
0.0
220
0.0
230
1.0
 70
     8
 71
     3
 72
    15
 73
    11
 74
     0
 42
0.000000001
 43
0.00000001
 40
0.0
 40
0.0
 40
0.0
 40
0.0
 40
0.1123470648628663
 40
0.2339105466968265
 40
0.3599629802518186
 40
0.4878787500228957
 40
0.6174802250562046
 40
0.7479585631970155
 40
0.8756518809912637
 40
1.0
 40
1.0
 40
1.0
 40
1.0
 10
89.16666666666667
 20
23.28985507246374
 30
0.0
 10
89.06274276238403
 20
23.25879343857147
 30
0.0
 10
88.84636953273807
 20
23.19412202259894
 30
0.0
 10
88.50853625476412
 20
23.11197868470101
 30
0.0
 10
88.15281319722122
 20
23.04192601422429
 30
0.0
 10
87.78861879750725
 20
22.9749828261391
 30
0.0
 10
87.41799762043125
 20
22.91995656704765
 30
0.0
 10
87.04544564781794
 20
22.8825324498555
 30
0.0
 10
86.67679526697484
 20
22.85865084261946
 30
0.0
 10
86.43345906730681
 20
22.85625465565519
 30
0.0
 10
86.31340579710147
 20
22.85507246376809
 30
0.0
  0
SPLINE
  5
107
330
1F
100
AcDbEntity
  8
0
  6
Continuous
 62
     7
370
    25
100
AcDbSpline
210
0.0
220
0.0
230
1.0
 70
     8
 71
     3
 72
    13
 73
     9
 74
     0
 42
0.000000001
 43
0.00000001
 40
0.0
 40
0.0
 40
0.0
 40
0.0
 40
0.2259235523291389
 40
0.4680727775512108
 40
0.595837262294545
 40
0.7264770915432325
 40
0.8612806110935499
 40
1.0
 40
1.0
 40
1.0
 40
1.0
 10
86.58514492753623
 20
24.30434782608693
 30
0.0
 10
86.78313229972281
 20
24.30933083111286
 30
0.0
 10
87.19332635989956
 20
24.31965471713092
 30
0.0
 10
87.71185270786506
 20
24.38722116997381
 30
0.0
 10
88.14379448982092
 20
24.46311229069658
 30
0.0
 10
88.48023002317333
 20
24.53798107385492
 30
0.0
 10
88.82182008165317
 20
24.63169924481835
 30
0.0
 10
89.05062591139841
 20
24.70297987692704
 30
0.0
 10
89.16666666666667
 20
24.73913043478258
 30
0.0
  0
SPLINE
  5
108
330
1F
100
AcDbEntity
  8
0
  6
Continuous
 62
     7
370
    25
100
AcDbSpline
210
0.0
220
0.0
230
1.0
 70
     8
 71
     3
 72
    23
 73
    19
 74
     0
 42
0.000000001
 43
0.00000001
 40
0.0
 40
0.0
 40
0.0
 40
0.0
 40
0.0737056618126442
 40
0.1434322747460878
 40
0.2094559765643248
 40
0.2727977934820425
 40
0.3332251449224864
 40
0.3922933839865898
 40
0.4495418232483914
 40
0.5062259358842613
 40
0.5630645114504026
 40
0.6204113189306132
 40
0.6790966386033623
 40
0.7390906146510681
 40
0.8012279654533407
 40
0.8650949048645752
 40
0.9308143775815071
 40
1.0
 40
1.0
 40
1.0
 40
1.0
 10
84.38405797101449
 20
26.47826086956519
 30
0.0
 10
84.38517021298827
 20
26.39207024481083
 30
0.0
 10
84.38733465181758
 20
26.22434205315941
 30
0.0
 10
84.42213482808921
 20
25.98172745127843
 30
0.0
 10
84.46671353307596
 20
25.75317216974507
 30
0.0
 10
84.53770556483272
 20
25.54241906440632
 30
0.0
 10
84.62739758883878
 20
25.34829061252
 30
0.0
 10
84.73043089457448
 20
25.16891117013032
 30
0.0
 10
84.8518290866074
 20
25.00671018623294
 30
0.0
 10
84.98856631047448
 20
24.86098980613135
 30
0.0
 10
85.14047127753598
 20
24.73061572879221
 30
0.0
 10
85.31030783693812
 20
24.62069834068075
 30
0.0
 10
85.49096232092117
 20
24.52176662377661
 30
0.0
 10
85.68759743952087
 20
24.44360818647098
 30
0.0
 10
85.89538831414472
 20
24.37883811522808
 30
0.0
 10
86.11594849838663
 20
24.33813193675723
 30
0.0
 10
86.34659424704151
 20
24.30890281669955
 30
0.0
 10
86.50427756861765
 20
24.30589194266618
 30
0.0
 10
86.58514492753623
 20
24.30434782608693
 30
0.0
  0
SPLINE
  5
10A
330
1F
100
AcDbEntity
  8
0
  6
Continuous
 62
     7
370
    25
100
AcDbSpline
210
0.0
220
0.0
230
1.0
 70
     8
 71
     3
 72
    11
 73
     7
 74
     0
 42
0.000000001
 43
0.00000001
 40
0.0
 40
0.0
 40
0.0
 40
0.0
 40
0.2044309576835276
 40
0.4643541328460377
 40
0.7414673829154833
 40
0.9999999999999999
 40
0.9999999999999999
 40
0.9999999999999999
 40
0.9999999999999999
 10
89.60144927536231
 20
27.54030797101447
 30
0.0
 10
89.60106127694992
 20
27.467835552969
 30
0.0
 10
89.6001799590303
 20
27.3032182796456
 30
0.0
 10
89.5897062492341
 20
27.04057591856895
 30
0.0
 10
89.57959235393103
 20
26.75866577264579
 30
0.0
 10
89.5622603303141
 20
26.56954238231766
 30
0.0
 10
89.55389492753623
 20
26.47826086956519
 30
0.0
  0
SPLINE
  5
10B
330
1F
100
AcDbEntity
  8
0
  6
Continuous
 62
     7
370
    25
100
AcDbSpline
210
0.0
220
0.0
230
1.0
 70
     8
 71
     3
 72
    23
 73
    19
 74
     0
 42
0.000000001
 43
0.00000001
 40
0.0
 40
0.0
 40
0.0
 40
0.0
 40
0.0736620784489816
 40
0.1436727713530615
 40
0.2102790608105148
 40
0.2739612932622781
 40
0.3357672007181654
 40
0.3950597274479606
 40
0.4529514455330544
 40
0.5102881690666807
 40
0.5674740907018139
 40
0.6249344442919084
 40
0.6833861262772071
 40
0.7432826330704684
 40
0.8046345334642774
 40
0.8675672431511015
 40
0.932551851183947
 40
1.0
 40
1.0
 40
1.0
 40
1.0
 10
86.1820652173913
 20
30.9710144927536
 30
0.0
 10
86.31655541359363
 20
30.96805577190984
 30
0.0
 10
86.5788692067292
 20
30.96228499225991
 30
0.0
 10
86.96061460289228
 20
30.91500198935834
 30
0.0
 10
87.31745739819193
 20
30.83296117391804
 30
0.0
 10
87.65087286064752
 20
30.7222570211775
 30
0.0
 10
87.95782249333124
 20
30.58118199875864
 30
0.0
 10
88.24207074107937
 20
30.41879610728252
 30
0.0
 10
88.49708012306344
 20
30.22648943414565
 30
0.0
 10
88.7266112609025
 20
30.01035915915497
 30
0.0
 10
88.93168775913622
 20
29.771826213924
 30
0.0
 10
89.10938974643148
 20
29.50967006776375
 30
0.0
 10
89.25832776782217
 20
29.22477364206392
 30
0.0
 10
89.38325882430088
 20
28.92096984645594
 30
0.0
 10
89.48029054973158
 20
28.59849914766149
 30
0.0
 10
89.54988017380717
 20
28.25976878110817
 30
0.0
 10
89.59464932210733
 20
27.90533349783771
 30
0.0
 10
89.59915468770494
 20
27.66348279840944
 30
0.0
 10
89.60144927536231
 20
27.54030797101447
 30
0.0
  0
SPLINE
  5
10C
330
1F
100
AcDbEntity
  8
0
  6
Continuous
 62
     7
370
    25
100
AcDbSpline
210
0.0
220
0.0
230
1.0
 70
     8
 71
     3
 72
    23
 73
    19
 74
     0
 42
0.000000001
 43
0.00000001
 40
0.0
 40
0.0
 40
0.0
 40
0.0
 40
0.0737521347577408
 40
0.1443105494841633
 40
0.2120763052229835
 40
0.2778624556535113
 40
0.3414959106408952
 40
0.4032434714941923
 40
0.4625093219833759
 40
0.5211964633215016
 40
0.5789241135256998
 40
0.6361490460277616
 40
0.6934902080659319
 40
0.7518603789827986
 40
0.8114926588317882
 40
0.8723630071922175
 40
0.9348566540266885
 40
1.0
 40
1.0
 40
1.0
 40
1.0
 10
82.5
 20
26.75679347826085
 30
0.0
 10
82.50269370351798
 20
26.91167869897758
 30
0.0
 10
82.50796446396586
 20
27.21474207988213
 30
0.0
 10
82.55943036710275
 20
27.65767325950757
 30
0.0
 10
82.6405068284226
 20
28.07877650539645
 30
0.0
 10
82.75266027377542
 20
28.4779145592799
 30
0.0
 10
82.89873214510685
 20
28.85229668625268
 30
0.0
 10
83.06938698190856
 20
29.20089505209905
 30
0.0
 10
83.26835123844029
 20
29.52227651862133
 30
0.0
 10
83.49510333134826
 20
29.81383265726242
 30
0.0
 10
83.74600802256269
 20
30.07951834801469
 30
0.0
 10
84.0278340539307
 20
30.30741288402548
 30
0.0
 10
84.32978845292375
 20
30.51032272757739
 30
0.0
 10
84.6605232560315
 20
30.67378261204268
 30
0.0
 10
85.0114415875045
 20
30.80934861562057
 30
0.0
 10
85.38477276497926
 20
30.90318795670893
 30
0.0
 10
85.77711845955668
 20
30.96176041789694
 30
0.0
 10
86.04522768036246
 20
30.96788740311437
 30
0.0
 10
86.1820652173913
 20
30.9710144927536
 30
0.0
  0
SPLINE
  5
10D
330
1F
100
AcDbEntity
  8
0
  6
Continuous
 62
     7
370
    25
100
AcDbSpline
210
0.0
220
0.0
230
1.0
 70
     8
 71
     3
 72
    15
 73
    11
 74
     0
 42
0.000000001
 43
0.00000001
 40
0.0
 40
0.0
 40
0.0
 40
0.0
 40
0.1218530297279459
 40
0.2406345034299954
 40
0.3583681183040224
 40
0.4764122959590657
 40
0.5974097359262014
 40
0.7229984821818612
 40
0.8565919240730576
 40
1.0
 40
1.0
 40
1.0
 40
1.0
 10
93.5076992753623
 20
29.66666666666664
 30
0.0
 10
93.57364518034413
 20
29.76252976558473
 30
0.0
 10
93.70387468825196
 20
29.95183953701117
 30
0.0
 10
93.93247395185546
 20
30.2074754496083
 30
0.0
 10
94.1872354921554
 20
30.43144024805111
 30
0.0
 10
94.47128532331386
 20
30.62056041524696
 30
0.0
 10
94.78310134676794
 20
30.77775036040651
 30
0.0
 10
95.13020108431571
 20
30.88682511601877
 30
0.0
 10
95.50870504544831
 20
30.96026611423337
 30
0.0
 10
95.77332707058916
 20
30.96734805814826
 30
0.0
 10
95.91032608695652
 20
30.9710144927536
 30
0.0
  0
SPLINE
  5
113
330
1F
100
AcDbEntity
  8
0
  6
Continuous
 62
     7
370
    25
100
AcDbSpline
210
0.0
220
0.0
230
1.0
 70
     8
 71
     3
 72
    15
 73
    11
 74
     0
 42
0.000000001
 43
0.00000001
 40
0.0
 40
0.0
 40
0.0
 40
0.0
 40
0.0862701213678378
 40
0.1778985512383921
 40
0.2770475168046577
 40
0.386423285420931
 40
0.510054578713637
 40
0.6528698779577571
 40
0.8159725289570877
 40
1.0
 40
1.0
 40
1.0
 40
1.0
 10
95.46422101449274
 20
29.37681159420287
 30
0.0
 10
95.39509060269081
 20
29.37279518496779
 30
0.0
 10
95.25253603210386
 20
29.36451290400221
 30
0.0
 10
95.03928814371999
 20
29.2964432516823
 30
0.0
 10
94.8251531828317
 20
29.18678275255152
 30
0.0
 10
94.603989197031
 20
29.03777646447501
 30
0.0
 10
94.38170945814701
 20
28.8342696868989
 30
0.0
 10
94.14505975897374
 20
28.58469861061542
 30
0.0
 10
93.90186013798254
 20
28.27660526385209
 30
0.0
 10
93.74341719155007
 20
28.04847640483602
 30
0.0
 10
93.65942028985506
 20
27.92753623188404
 30
0.0
  0
SPLINE
  5
114
330
1F
100
AcDbEntity
  8
0
  6
Continuous
 62
     7
370
    25
100
AcDbSpline
210
0.0
220
0.0
230
1.0
 70
     8
 71
     3
 72
    17
 73
    13
 74
     0
 42
0.000000001
 43
0.00000001
 40
0.0
 40
0.0
 40
0.0
 40
0.0
 40
0.097677695812173
 40
0.186788822004228
 40
0.2697749971775931
 40
0.3447690251852534
 40
0.4791052046340827
 40
0.5962295579693258
 40
0.699161670550808
 40
0.7965085749578343
 40
0.8942687937309172
 40
1.0
 40
1.0
 40
1.0
 40
1.0
 10
96.41304347826085
 20
27.78260869565215
 30
0.0
 10
96.41420010255023
 20
27.85129240911793
 30
0.0
 10
96.41641191238787
 20
27.98263610864394
 30
0.0
 10
96.4132401000097
 20
28.17242641645857
 30
0.0
 10
96.39754110211442
 20
28.34569635583044
 30
0.0
 10
96.36484796422207
 20
28.54863876016692
 30
0.0
 10
96.31051446762244
 20
28.77292774385845
 30
0.0
 10
96.20167766867118
 20
28.999112725648
 30
0.0
 10
96.06112377991752
 20
29.1762301424246
 30
0.0
 10
95.88449140709221
 20
29.29406787308593
 30
0.0
 10
95.68236196331067
 20
29.36548938171639
 30
0.0
 10
95.5388090404642
 20
29.37294023724962
 30
0.0
 10
95.46422101449275
 20
29.37681159420288
 30
0.0
  0
SPLINE
  5
116
330
1F
100
AcDbEntity
  8
0
  6
Continuous
 62
     7
370
    25
100
AcDbSpline
210
0.0
220
0.0
230
1.0
 70
     8
 71
     3
 72
    23
 73
    19
 74
     0
 42
0.000000001
 43
0.00000001
 40
0.0
 40
0.0
 40
0.0
 40
0.0
 40
0.0627922513948277
 40
0.1220686466412255
 40
0.1791776541918823
 40
0.2344678912674955
 40
0.2883486063995831
 40
0.3420588926832633
 40
0.395303504184938
 40
0.4499989630372394
 40
0.5061960222618905
 40
0.564759573504021
 40
0.6268773450664331
 40
0.692724630509195
 40
0.7628189985994268
 40
0.837096112324514
 40
0.915873973911012
 40
1.0
 40
1.0
 40
1.0
 40
1.0
 10
95.9103260869565
 20
30.9710144927536
 30
0.0
 10
96.00551668704594
 20
30.96805927341293
 30
0.0
 10
96.1905679866533
 20
30.96231430301565
 30
0.0
 10
96.46083128340987
 20
30.9276914760921
 30
0.0
 10
96.71273815977906
 20
30.85996144125455
 30
0.0
 10
96.94993188317811
 20
30.77305100553443
 30
0.0
 10
97.16939756809353
 20
30.65822744286662
 30
0.0
 10
97.37115990397098
 20
30.52027751573966
 30
0.0
 10
97.55545719354218
 20
30.35749603378496
 30
0.0
 10
97.71769051818521
 20
30.16793415618541
 30
0.0
 10
97.86417596927048
 20
29.9562194646198
 30
0.0
 10
97.98917970969612
 20
29.71817060921826
 30
0.0
 10
98.09257786000782
 20
29.45440435310446
 30
0.0
 10
98.17604947795184
 20
29.16549919448306
 30
0.0
 10
98.23848150029933
 20
28.85258569025266
 30
0.0
 10
98.28151783184269
 20
28.51669379641997
 30
0.0
 10
98.30140924625307
 20
28.15724216802064
 30
0.0
 10
98.29856846934352
 20
27.9101901079192
 30
0.0
 10
98.29710144927535
 20
27.78260869565215
 30
0.0
  0
SPLINE
  5
117
330
1F
100
AcDbEntity
  8
0
  6
Continuous
 62
     7
370
    25
100
AcDbSpline
210
0.0
220
0.0
230
1.0
 70
     8
 71
     3
 72
    23
 73
    19
 74
     0
 42
0.000000001
 43
0.00000001
 40
0.0
 40
0.0
 40
0.0
 40
0.0
 40
0.0701012672867752
 40
0.1365854478716796
 40
0.2005571828561809
 40
0.261961394097032
 40
0.3213229075280253
 40
0.3788055979172459
 40
0.4353896100504083
 40
0.49147617845553
 40
0.5475627468606517
 40
0.6049538830231406
 40
0.6635717755235847
 40
0.7244206161942681
 40
0.7880260768672448
 40
0.8546452833448224
 40
0.9251583938538546
 40
1.0
 40
1.0
 40
1.0
 40
1.0
 10
41.35869565217393
 20
-51.07391304347826
 30
0.0
 10
41.18459424420653
 20
-51.0705888292668
 30
0.0
 10
40.8453747164762
 20
-51.06411192372047
 30
0.0
 10
40.35042690831882
 20
-51.0041590220275
 30
0.0
 10
39.88193752751984
 20
-50.91519825451215
 30
0.0
 10
39.44243896545778
 20
-50.78101967737179
 30
0.0
 10
39.03343945650699
 20
-50.61014323462802
 30
0.0
 10
38.65551404842903
 20
-50.40216575068638
 30
0.0
 10
38.30853204696138
 20
-50.15980133269787
 30
0.0
 10
37.9939853619757
 20
-49.88156455422278
 30
0.0
 10
37.71430190524523
 20
-49.56559048254246
 30
0.0
 10
37.4700040424042
 20
-49.21399524152211
 30
0.0
 10
37.25953102883694
 20
-48.82774455084207
 30
0.0
 10
37.08517301404097
 20
-48.40711414466337
 30
0.0
 10
36.95014497128857
 20
-47.95154090954081
 30
0.0
 10
36.85328787616046
 20
-47.46219074012122
 30
0.0
 10
36.79192109345783
 20
-46.93869703747632
 30
0.0
 10
36.78577384754928
 20
-46.57771411476726
 30
0.0
 10
36.78260869565219
 20
-46.39184782608695
 30
0.0
  0
SPLINE
  5
118
330
1F
100
AcDbEntity
  8
0
  6
Continuous
 62
     7
370
    25
100
AcDbSpline
210
0.0
220
0.0
230
1.0
 70
     8
 71
     3
 72
    15
 73
    11
 74
     0
 42
0.000000001
 43
0.00000001
 40
0.0
 40
0.0
 40
0.0
 40
0.0
 40
0.1123470648628637
 40
0.2339105466968294
 40
0.3599629802518189
 40
0.487878750022896
 40
0.6174802250562049
 40
0.7479585631970159
 40
0.875651880991264
 40
1.0
 40
1.0
 40
1.0
 40
1.0
 10
44.78260869565219
 20
-50.55217391304348
 30
0.0
 10
44.65790001051302
 20
-50.5894478737142
 30
0.0
 10
44.39825213493784
 20
-50.66705357288122
 30
0.0
 10
43.99285220136912
 20
-50.76562557835874
 30
0.0
 10
43.56598453231768
 20
-50.84968878293081
 30
0.0
 10
43.12895125266085
 20
-50.93002060863305
 30
0.0
 10
42.68420584016967
 20
-50.99605211954277
 30
0.0
 10
42.23714347303372
 20
-51.04096106017337
 30
0.0
 10
41.79476301602197
 20
-51.06961898885658
 30
0.0
 10
41.50275957642035
 20
-51.07249441321373
 30
0.0
 10
41.35869565217394
 20
-51.07391304347826
 30
0.0
  0
SPLINE
  5
11A
330
1F
100
AcDbEntity
  8
0
  6
Continuous
 62
     7
370
    25
100
AcDbSpline
210
0.0
220
0.0
230
1.0
 70
     8
 71
     3
 72
    13
 73
     9
 74
     0
 42
0.000000001
 43
0.00000001
 40
0.0
 40
0.0
 40
0.0
 40
0.0
 40
0.2259235523291383
 40
0.4680727775512079
 40
0.5958372622945458
 40
0.7264770915432317
 40
0.8612806110935481
 40
0.9999999999999999
 40
0.9999999999999999
 40
0.9999999999999999
 40
0.9999999999999999
 10
41.68478260869567
 20
-49.33478260869564
 30
0.0
 10
41.92236745531956
 20
-49.32880300266454
 30
0.0
 10
42.41460032753164
 20
-49.31641433944289
 30
0.0
 10
43.03683194509026
 20
-49.23533459603139
 30
0.0
 10
43.55516208343725
 20
-49.14426525116407
 30
0.0
 10
43.95888472346022
 20
-49.05442271137405
 30
0.0
 10
44.36879279363601
 20
-48.94196090621796
 30
0.0
 10
44.64335978933028
 20
-48.85642414768751
 30
0.0
 10
44.78260869565219
 20
-48.81304347826086
 30
0.0
  0
SPLINE
  5
11B
330
1F
100
AcDbEntity
  8
0
  6
Continuous
 62
     7
370
    25
100
AcDbSpline
210
0.0
220
0.0
230
1.0
 70
     8
 71
     3
 72
    23
 73
    19
 74
     0
 42
0.000000001
 43
0.00000001
 40
0.0
 40
0.0
 40
0.0
 40
0.0
 40
0.073705661812645
 40
0.1434322747460874
 40
0.2094559765643259
 40
0.2727977934820419
 40
0.3332251449224862
 40
0.3922933839865889
 40
0.4495418232483896
 40
0.5062259358842608
 40
0.5630645114504003
 40
0.6204113189306116
 40
0.6790966386033603
 40
0.7390906146510661
 40
0.8012279654533412
 40
0.8650949048645746
 40
0.9308143775815035
 40
0.9999999999999999
 40
0.9999999999999999
 40
0.9999999999999999
 40
0.9999999999999999
 10
39.04347826086958
 20
-46.72608695652173
 30
0.0
 10
39.04481295123809
 20
-46.82951570622697
 30
0.0
 10
39.04741027783324
 20
-47.03078953620867
 30
0.0
 10
39.08917048935923
 20
-47.32192705846585
 30
0.0
 10
39.14266493534336
 20
-47.59619339630587
 30
0.0
 10
39.22785537345143
 20
-47.84909712271239
 30
0.0
 10
39.33548580225874
 20
-48.08205126497595
 30
0.0
 10
39.45912576914154
 20
-48.2973065958436
 30
0.0
 10
39.60480359958105
 20
-48.49194777652043
 30
0.0
 10
39.76888826822157
 20
-48.66681223264235
 30
0.0
 10
39.95117422869534
 20
-48.82326112544931
 30
0.0
 10
40.15497809997788
 20
-48.95516199118306
 30
0.0
 10
40.3717634807576
 20
-49.07388005146803
 30
0.0
 10
40.60772562307726
 20
-49.16767017623479
 30
0.0
 10
40.85707467262585
 20
-49.24539426172627
 30
0.0
 10
41.12174689371611
 20
-49.2942416758913
 30
0.0
 10
41.39852179210202
 20
-49.32931661996049
 30
0.0
 10
41.58774177799339
 20
-49.33292966880055
 30
0.0
 10
41.68478260869567
 20
-49.33478260869564
 30
0.0
  0
SPLINE
  5
11D
330
1F
100
AcDbEntity
  8
0
  6
Continuous
 62
     7
370
    25
100
AcDbSpline
210
0.0
220
0.0
230
1.0
 70
     8
 71
     3
 72
    11
 73
     7
 74
     0
 42
0.000000001
 43
0.00000001
 40
0.0
 40
0.0
 40
0.0
 40
0.0
 40
0.204430957683528
 40
0.4643541328460351
 40
0.7414673829154859
 40
1.0
 40
1.0
 40
1.0
 40
1.0
 10
45.30434782608697
 20
-45.45163043478261
 30
0.0
 10
45.30388222799209
 20
-45.53859733643715
 30
0.0
 10
45.30282464648854
 20
-45.73613806442523
 30
0.0
 10
45.2902561947331
 20
-46.05130889771721
 30
0.0
 10
45.27811952036947
 20
-46.38960107282503
 30
0.0
 10
45.25732109202913
 20
-46.61654914121876
 30
0.0
 10
45.24728260869566
 20
-46.72608695652173
 30
0.0
  0
SPLINE
  5
11E
330
1F
100
AcDbEntity
  8
0
  6
Continuous
 62
     7
370
    25
100
AcDbSpline
210
0.0
220
0.0
230
1.0
 70
     8
 71
     3
 72
    23
 73
    19
 74
     0
 42
0.000000001
 43
0.00000001
 40
0.0
 40
0.0
 40
0.0
 40
0.0
 40
0.073662078448982
 40
0.1436727713530608
 40
0.2102790608105151
 40
0.2739612932622774
 40
0.3357672007181634
 40
0.3950597274479606
 40
0.4529514455330542
 40
0.5102881690666788
 40
0.5674740907018138
 40
0.6249344442919088
 40
0.6833861262772073
 40
0.7432826330704676
 40
0.8046345334642765
 40
0.8675672431511013
 40
0.9325518511839463
 40
1.0
 40
1.0
 40
1.0
 40
1.0
 10
41.20108695652175
 20
-41.33478260869564
 30
0.0
 10
41.36247519196451
 20
-41.33833307370817
 30
0.0
 10
41.67725174372721
 20
-41.34525800928807
 30
0.0
 10
42.13534621912294
 20
-41.40199761276995
 30
0.0
 10
42.56355757348249
 20
-41.50044659129835
 30
0.0
 10
42.96365612842923
 20
-41.63329157458696
 30
0.0
 10
43.33199568764963
 20
-41.80258160148961
 30
0.0
 10
43.67309358494744
 20
-41.99744467126094
 30
0.0
 10
43.97910484332827
 20
-42.22821267902518
 30
0.0
 10
44.25454220873523
 20
-42.48756900901401
 30
0.0
 10
44.50063400661565
 20
-42.77380854329117
 30
0.0
 10
44.71387639136996
 20
-43.08839591868345
 30
0.0
 10
44.89260201703881
 20
-43.43027162952327
 30
0.0
 10
45.04251928481322
 20
-43.79483618425286
 30
0.0
 10
45.15895735533008
 20
-44.18180102280618
 30
0.0
 10
45.24246490422079
 20
-44.58827746267016
 30
0.0
 10
45.29618788218095
 20
-45.0135998025947
 30
0.0
 10
45.3015943208981
 20
-45.30382064190862
 30
0.0
 10
45.30434782608697
 20
-45.45163043478261
 30
0.0
  0
SPLINE
  5
11F
330
1F
100
AcDbEntity
  8
0
  6
Continuous
 62
     7
370
    25
100
AcDbSpline
210
0.0
220
0.0
230
1.0
 70
     8
 71
     3
 72
    23
 73
    19
 74
     0
 42
0.000000001
 43
0.00000001
 40
0.0
 40
0.0
 40
0.0
 40
0.0
 40
0.0737521347577408
 40
0.1443105494841632
 40
0.2120763052229831
 40
0.2778624556535109
 40
0.3414959106408949
 40
0.4032434714941928
 40
0.4625093219833754
 40
0.5211964633215012
 40
0.5789241135257001
 40
0.6361490460277606
 40
0.6934902080659315
 40
0.7518603789827993
 40
0.8114926588317875
 40
0.8723630071922167
 40
0.9348566540266889
 40
1.0
 40
1.0
 40
1.0
 40
1.0
 10
36.78260869565219
 20
-46.39184782608695
 30
0.0
 10
36.78584113987376
 20
-46.20598556122686
 30
0.0
 10
36.7921660524112
 20
-45.8423095041414
 30
0.0
 10
36.8539251361755
 20
-45.3107920885909
 30
0.0
 10
36.95121688975929
 20
-44.80546819352422
 30
0.0
 10
37.08580102418271
 20
-44.32650252886409
 30
0.0
 10
37.2610872697804
 20
-43.87724397649675
 30
0.0
 10
37.46587307394245
 20
-43.45892593748112
 30
0.0
 10
37.70463018178057
 20
-43.07326817765434
 30
0.0
 10
37.97673269327004
 20
-42.72340081128509
 30
0.0
 10
38.27781832272744
 20
-42.40457798238235
 30
0.0
 10
38.61600956036902
 20
-42.13110453916939
 30
0.0
 10
38.97835483916071
 20
-41.88761272690709
 30
0.0
 10
39.37523660288997
 20
-41.69146086554873
 30
0.0
 10
39.79633860065756
 20
-41.5287816612553
 30
0.0
 10
40.24433601362728
 20
-41.41617445194925
 30
0.0
 10
40.71515084712023
 20
-41.34588749852364
 30
0.0
 10
41.03688191208714
 20
-41.33853511626273
 30
0.0
 10
41.20108695652175
 20
-41.33478260869564
 30
0.0
  0
SPLINE
  5
120
330
1F
100
AcDbEntity
  8
0
  6
Continuous
 62
     7
370
    25
100
AcDbSpline
210
0.0
220
0.0
230
1.0
 70
     8
 71
     3
 72
    15
 73
    11
 74
     0
 42
0.000000001
 43
0.00000001
 40
0.0
 40
0.0
 40
0.0
 40
0.0
 40
0.1106777797566082
 40
0.2126067780818383
 40
0.3156665678769053
 40
0.4276056977136018
 40
0.5505450566696791
 40
0.6857560528143957
 40
0.8360623331126023
 40
1.0
 40
1.0
 40
1.0
 40
1.0
 10
84.26086956521736
 20
-51.79945652173912
 30
0.0
 10
84.25698255291418
 20
-51.72578487863942
 30
0.0
 10
84.2495157861977
 20
-51.58426513809287
 30
0.0
 10
84.15343772901184
 20
-51.39399768679603
 30
0.0
 10
84.01293662707309
 20
-51.23624099860155
 30
0.0
 10
83.82205375551115
 20
-51.11704062545103
 30
0.0
 10
83.59788568308034
 20
-51.01856877615766
 30
0.0
 10
83.33612117015848
 20
-50.95093402838985
 30
0.0
 10
83.04326379968653
 20
-50.90200199954976
 30
0.0
 10
82.83625507910186
 20
-50.88818594633268
 30
0.0
 10
82.72826086956519
 20
-50.88097826086956
 30
0.0
  0
SPLINE
  5
121
330
1F
100
AcDbEntity
  8
0
  6
Continuous
 62
     7
370
    25
100
AcDbSpline
210
0.0
220
0.0
230
1.0
 70
     8
 71
     3
 72
    21
 73
    17
 74
     0
 42
0.000000001
 43
0.00000001
 40
0.0
 40
0.0
 40
0.0
 40
0.0
 40
0.1018308558340581
 40
0.196572542085391
 40
0.2826883544359436
 40
0.3614701793060571
 40
0.4342884567007969
 40
0.501908823465895
 40
0.5642486859254665
 40
0.6218120234507987
 40
0.6755520653759667
 40
0.726784469952962
 40
0.7744804185038489
 40
0.8208894649020012
 40
0.9113861644518062
 40
1.0
 40
1.0
 40
1.0
 40
1.0
 10
81.98097826086955
 20
-53.16086956521739
 30
0.0
 10
82.08156057647332
 20
-53.15919680282911
 30
0.0
 10
82.27572295785691
 20
-53.15596773093068
 30
0.0
 10
82.55432092125469
 20
-53.13453000182007
 30
0.0
 10
82.80851892055472
 20
-53.09968147799903
 30
0.0
 10
83.03870620163792
 20
-53.05168067003838
 30
0.0
 10
83.24561516216231
 20
-52.98740247509037
 30
0.0
 10
83.43420659479331
 20
-52.91914140326948
 30
0.0
 10
83.59998857915625
 20
-52.83588556503613
 30
0.0
 10
83.74840760063768
 20
-52.74968627714207
 30
0.0
 10
83.87818499236968
 20
-52.65437101267
 30
0.0
 10
83.9863781783576
 20
-52.54874703864163
 30
0.0
 10
84.07583836627846
 20
-52.4357132736851
 30
0.0
 10
84.16456547756191
 20
-52.27607769320307
 30
0.0
 10
84.24327422462187
 20
-52.06443919397061
 30
0.0
 10
84.25504570011992
 20
-51.88716288512908
 30
0.0
 10
84.26086956521738
 20
-51.79945652173913
 30
0.0
  0
SPLINE
  5
122
330
1F
100
AcDbEntity
  8
0
  6
Continuous
 62
     7
370
    25
100
AcDbSpline
210
0.0
220
0.0
230
1.0
 70
     8
 71
     3
 72
    15
 73
    11
 74
     0
 42
0.000000001
 43
0.00000001
 40
0.0
 40
0.0
 40
0.0
 40
0.0
 40
0.0965718000361246
 40
0.1878996958896996
 40
0.2826742142653343
 40
0.3904769988438849
 40
0.5149690488397589
 40
0.6574487731857424
 40
0.818011216800095
 40
0.9999999999999999
 40
0.9999999999999999
 40
0.9999999999999999
 40
0.9999999999999999
 10
79.91304347826085
 20
-52.1445652173913
 30
0.0
 10
79.91819103014532
 20
-52.22741502630392
 30
0.0
 10
79.92820661889178
 20
-52.38861585194221
 30
0.0
 10
80.04103858414442
 20
-52.60843357561833
 30
0.0
 10
80.21901371483847
 20
-52.78856413732741
 30
0.0
 10
80.46329892472446
 20
-52.92782052094703
 30
0.0
 10
80.76546716415426
 20
-53.03399299827446
 30
0.0
 10
81.12308467639133
 20
-53.10639827682027
 30
0.0
 10
81.53412911227828
 20
-53.15258260500074
 30
0.0
 10
81.82594426675374
 20
-53.15799441026741
 30
0.0
 10
81.98097826086955
 20
-53.16086956521739
 30
0.0
  0
SPLINE
  5
123
330
1F
100
AcDbEntity
  8
0
  6
Continuous
 62
     7
370
    25
100
AcDbSpline
210
0.0
220
0.0
230
1.0
 70
     8
 71
     3
 72
    15
 73
    11
 74
     0
 42
0.000000001
 43
0.00000001
 40
0.0
 40
0.0
 40
0.0
 40
0.0
 40
0.1793605016011634
 40
0.3344899908383958
 40
0.4669574426708677
 40
0.5852868403103744
 40
0.6912742778085006
 40
0.7935023259273195
 40
0.8938183868810748
 40
1.0
 40
1.0
 40
1.0
 40
1.0
 10
80.76902173913041
 20
-50.84293478260869
 30
0.0
 10
80.68822271615541
 20
-50.89852483023472
 30
0.0
 10
80.53754035179206
 20
-51.00219489334862
 30
0.0
 10
80.34304368018961
 20
-51.16840793675221
 30
0.0
 10
80.19022866627347
 20
-51.32947253660938
 30
0.0
 10
80.06913991703287
 20
-51.48336709386395
 30
0.0
 10
79.98813833527942
 20
-51.64357793343322
 30
0.0
 10
79.9381518635683
 20
-51.80558923633805
 30
0.0
 10
79.91860582065992
 20
-51.97377850207432
 30
0.0
 10
79.9149323737293
 20
-52.08656838269682
 30
0.0
 10
79.91304347826085
 20
-52.1445652173913
 30
0.0
  0
SPLINE
  5
125
330
1F
100
AcDbEntity
  8
0
  6
Continuous
 62
     7
370
    25
100
AcDbSpline
210
0.0
220
0.0
230
1.0
 70
     8
 71
     3
 72
    21
 73
    17
 74
     0
 42
0.000000001
 43
0.00000001
 40
0.0
 40
0.0
 40
0.0
 40
0.0
 40
0.0810604583464138
 40
0.1565229953246577
 40
0.2279629463268317
 40
0.2959528574207727
 40
0.3609214150907316
 40
0.4224023129438689
 40
0.4818062624994214
 40
0.5391912802528551
 40
0.5953715654615324
 40
0.6521958456291845
 40
0.7079600711599383
 40
0.7645276331402331
 40
0.8802008614591295
 40
1.0
 40
1.0
 40
1.0
 40
1.0
 10
32.7826086956522
 20
-45.16086956521739
 30
0.0
 10
32.78219918035796
 20
-45.07476915948509
 30
0.0
 10
32.78140843032038
 20
-44.90851432107429
 30
0.0
 10
32.75741561508305
 20
-44.66718709154446
 30
0.0
 10
32.71110063577644
 20
-44.4433458391168
 30
0.0
 10
32.64563066994953
 20
-44.23606845831616
 30
0.0
 10
32.56456763926224
 20
-44.04579488477561
 30
0.0
 10
32.46853790584881
 20
-43.87305330286754
 30
0.0
 10
32.36051529707751
 20
-43.71707063088568
 30
0.0
 10
32.23673541036525
 20
-43.58078529511147
 30
0.0
 10
32.10200553589934
 20
-43.45963131258807
 30
0.0
 10
31.95664572020076
 20
-43.35419704189293
 30
0.0
 10
31.79957868947977
 20
-43.26613817194291
 30
0.0
 10
31.57624224027716
 20
-43.17222581953573
 30
0.0
 10
31.27469028131719
 20
-43.0887593478328
 30
0.0
 10
31.02418594673712
 20
-43.07891928362179
 30
0.0
 10
30.89673913043481
 20
-43.07391304347826
 30
0.0
  0
SPLINE
  5
127
330
1F
100
AcDbEntity
  8
0
  6
Continuous
 62
     7
370
    25
100
AcDbSpline
210
0.0
220
0.0
230
1.0
 70
     8
 71
     3
 72
    19
 73
    15
 74
     0
 42
0.000000001
 43
0.00000001
 40
0.0
 40
0.0
 40
0.0
 40
0.0
 40
0.0648993326215616
 40
0.1269842381098492
 40
0.1865054241666188
 40
0.245137311129266
 40
0.3035565918387223
 40
0.3608949911462799
 40
0.4185999273127425
 40
0.4774964928453664
 40
0.5973634984074702
 40
0.7208550476696522
 40
0.8541560594754337
 40
1.0
 40
1.0
 40
1.0
 40
1.0
 10
30.89673913043481
 20
-43.07391304347826
 30
0.0
 10
30.82596932632861
 20
-43.07506814436686
 30
0.0
 10
30.68749872435784
 20
-43.07732825399131
 30
0.0
 10
30.48610721584271
 20
-43.10700157881221
 30
0.0
 10
30.29351215812201
 20
-43.1460817314972
 30
0.0
 10
30.11023034343477
 20
-43.20630537755422
 30
0.0
 10
29.93754733364434
 20
-43.2860012069841
 30
0.0
 10
29.77180095424989
 20
-43.37758066924321
 30
0.0
 10
29.61963000815668
 20
-43.49126946819415
 30
0.0
 10
29.42608837560666
 20
-43.66156610374706
 30
0.0
 10
29.21406474750329
 20
-43.9174252129683
 30
0.0
 10
29.02419427860368
 20
-44.2833628492826
 30
0.0
 10
28.8815993435094
 20
-44.70087618494465
 30
0.0
 10
28.84156748611813
 20
-45.00301309338462
 30
0.0
 10
28.82065217391308
 20
-45.1608695652174
 30
0.0
  0
SPLINE
  5
128
330
1F
100
AcDbEntity
  8
0
  6
Continuous
 62
     7
370
    25
100
AcDbSpline
210
0.0
220
0.0
230
1.0
 70
     8
 71
     3
 72
    21
 73
    17
 74
     0
 42
0.000000001
 43
0.00000001
 40
0.0
 40
0.0
 40
0.0
 40
0.0
 40
0.0810604583464139
 40
0.1565229953246577
 40
0.2279629463268312
 40
0.2959528574207722
 40
0.3609214150907311
 40
0.4224023129438695
 40
0.4818062624994208
 40
0.5391912802528545
 40
0.5953715654615332
 40
0.6521958456291854
 40
0.7079600711599374
 40
0.7645276331402321
 40
0.8802008614591306
 40
0.9999999999999999
 40
0.9999999999999999
 40
0.9999999999999999
 40
0.9999999999999999
 10
43.04347826086958
 20
-45.16086956521739
 30
0.0
 10
43.04306874557533
 20
-45.07476915948508
 30
0.0
 10
43.04227799553775
 20
-44.90851432107429
 30
0.0
 10
43.01828518030041
 20
-44.66718709154446
 30
0.0
 10
42.97197020099383
 20
-44.44334583911679
 30
0.0
 10
42.9065002351669
 20
-44.23606845831615
 30
0.0
 10
42.82543720447963
 20
-44.04579488477562
 30
0.0
 10
42.72940747106616
 20
-43.87305330286753
 30
0.0
 10
42.62138486229487
 20
-43.71707063088566
 30
0.0
 10
42.49760497558263
 20
-43.58078529511148
 30
0.0
 10
42.36287510111671
 20
-43.45963131258808
 30
0.0
 10
42.21751528541812
 20
-43.35419704189292
 30
0.0
 10
42.06044825469715
 20
-43.26613817194291
 30
0.0
 10
41.83711180549453
 20
-43.1722258195357
 30
0.0
 10
41.53555984653458
 20
-43.08875934783282
 30
0.0
 10
41.2850555119545
 20
-43.07891928362179
 30
0.0
 10
41.15760869565219
 20
-43.07391304347826
 30
0.0
  0
SPLINE
  5
12A
330
1F
100
AcDbEntity
  8
0
  6
Continuous
 62
     7
370
    25
100
AcDbSpline
210
0.0
220
0.0
230
1.0
 70
     8
 71
     3
 72
    19
 73
    15
 74
     0
 42
0.000000001
 43
0.00000001
 40
0.0
 40
0.0
 40
0.0
 40
0.0
 40
0.0648993326215605
 40
0.1269842381098492
 40
0.1865054241666189
 40
0.245137311129265
 40
0.3035565918387214
 40
0.360894991146279
 40
0.4185999273127425
 40
0.4774964928453672
 40
0.5973634984074695
 40
0.7208550476696518
 40
0.8541560594754336
 40
1.0
 40
1.0
 40
1.0
 40
1.0
 10
41.15760869565219
 20
-43.07391304347826
 30
0.0
 10
41.08683889154599
 20
-43.07506814436686
 30
0.0
 10
40.94836828957522
 20
-43.07732825399133
 30
0.0
 10
40.74697678106009
 20
-43.1070015788122
 30
0.0
 10
40.55438172333937
 20
-43.1460817314972
 30
0.0
 10
40.37109990865215
 20
-43.20630537755423
 30
0.0
 10
40.19841689886173
 20
-43.28600120698408
 30
0.0
 10
40.03267051946727
 20
-43.37758066924324
 30
0.0
 10
39.88049957337404
 20
-43.49126946819413
 30
0.0
 10
39.68695794082402
 20
-43.66156610374706
 30
0.0
 10
39.47493431272068
 20
-43.91742521296833
 30
0.0
 10
39.28506384382107
 20
-44.28336284928258
 30
0.0
 10
39.14246890872676
 20
-44.70087618494465
 30
0.0
 10
39.10243705133551
 20
-45.00301309338463
 30
0.0
 10
39.08152173913044
 20
-45.16086956521739
 30
0.0
  0
SPLINE
  5
12B
330
1F
100
AcDbEntity
  8
0
  6
Continuous
 62
     7
370
    25
100
AcDbSpline
210
0.0
220
0.0
230
1.0
 70
     8
 71
     3
 72
    16
 73
    12
 74
     0
 42
0.000000001
 43
0.00000001
 40
0.098945821510329
 40
0.098945821510329
 40
0.098945821510329
 40
0.098945821510329
 40
0.1451975655459637
 40
0.2118622947146812
 40
0.2757139064129979
 40
0.3980203439718594
 40
0.5143567409394738
 40
0.6312147417710451
 40
0.7500794452920434
 40
0.8744088216445205
 40
1.0
 40
1.0
 40
1.0
 40
1.0
 10
0.000000003055764
 20
-46.18892858766063
 30
0.0
 10
0.0391021708273098
 20
-46.18352949645733
 30
0.0
 10
0.1341845795864161
 20
-46.16677364927362
 30
0.0
 10
0.2816547903822242
 20
-46.13325541911578
 30
0.0
 10
0.4822316940571031
 20
-46.05219258268755
 30
0.0
 10
0.7073821034469657
 20
-45.92127085274183
 30
0.0
 10
0.9264936405995461
 20
-45.70766048565269
 30
0.0
 10
1.09681272732913
 20
-45.45763867731234
 30
0.0
 10
1.21577476784529
 20
-45.17263027052908
 30
0.0
 10
1.290347377929685
 20
-44.86484297765605
 30
0.0
 10
1.299665328506339
 20
-44.65132149527705
 30
0.0
 10
1.304347826087016
 20
-44.54402173913043
 30
0.0
  0
SPLINE
  5
12D
330
1F
100
AcDbEntity
  8
0
  6
Continuous
 62
     7
370
    25
100
AcDbSpline
210
0.0
220
0.0
230
1.0
 70
     8
 71
     3
 72
    15
 73
    11
 74
     0
 42
0.000000001
 43
0.00000001
 40
0.0
 40
0.0
 40
0.0
 40
0.0
 40
0.1425707136947935
 40
0.2713233978405297
 40
0.3919589314311887
 40
0.5076090205451705
 40
0.6227689221593414
 40
0.7395785233669647
 40
0.8637303846014251
 40
0.8956185799026827
 40
0.8956185799026827
 40
0.8956185799026827
 40
0.8956185799026827
 10
1.304347826087016
 20
-44.54402173913043
 30
0.0
 10
1.299235692593409
 20
-44.4213179605022
 30
0.0
 10
1.289506896308704
 20
-44.1878029188608
 30
0.0
 10
1.213518708116618
 20
-43.85707333114294
 30
0.0
 10
1.083120831835191
 20
-43.56871992147878
 30
0.0
 10
0.8965922655984893
 20
-43.32770242385433
 30
0.0
 10
0.6656324628371568
 20
-43.13379816803769
 30
0.0
 10
0.3891424979728941
 20
-42.99648865509477
 30
0.0
 10
0.1602531134824864
 20
-42.93646485875043
 30
0.0
 10
0.0272481224280197
 20
-42.91952366237459
 30
0.0
 10
-0.0000000000526801
 20
-42.91661774539077
 30
0.0
  0
SPLINE
  5
12E
330
1F
100
AcDbEntity
  8
0
  6
Continuous
 62
     7
370
    25
100
AcDbSpline
210
0.0
220
0.0
230
1.0
 70
     8
 71
     3
 72
    17
 73
    13
 74
     0
 42
0.000000001
 43
0.00000001
 40
0.0
 40
0.0
 40
0.0
 40
0.0
 40
0.074355670579944
 40
0.145197565545963
 40
0.2118622947146787
 40
0.2757139064129961
 40
0.3980203439718567
 40
0.5143567409394739
 40
0.6312147417710446
 40
0.7500794452920428
 40
0.8744088216445202
 40
1.0
 40
1.0
 40
1.0
 40
1.0
 10
81.83423913043477
 20
-46.20434782608695
 30
0.0
 10
81.89778233505352
 20
-46.20320483711024
 30
0.0
 10
82.02186592606499
 20
-46.20097287261353
 30
0.0
 10
82.20062656815506
 20
-46.17143635939434
 30
0.0
 10
82.36861131212125
 20
-46.13325541911578
 30
0.0
 10
82.56918821579617
 20
-46.05219258268755
 30
0.0
 10
82.794338625186
 20
-45.92127085274182
 30
0.0
 10
83.0134501623386
 20
-45.7076604856527
 30
0.0
 10
83.18376924906816
 20
-45.45763867731235
 30
0.0
 10
83.30273128958433
 20
-45.17263027052908
 30
0.0
 10
83.37730389966872
 20
-44.86484297765603
 30
0.0
 10
83.38662185024538
 20
-44.65132149527703
 30
0.0
 10
83.39130434782606
 20
-44.54402173913043
 30
0.0
  0
SPLINE
  5
12F
330
1F
100
AcDbEntity
  8
0
  6
Continuous
 62
     7
370
    25
100
AcDbSpline
210
0.0
220
0.0
230
1.0
 70
     8
 71
     3
 72
    15
 73
    11
 74
     0
 42
0.000000001
 43
0.00000001
 40
0.0
 40
0.0
 40
0.0
 40
0.0
 40
0.1381667106125137
 40
0.2645577507056769
 40
0.3839715642889796
 40
0.5012316911939109
 40
0.6179948063898545
 40
0.7359530318332679
 40
0.8618332893874863
 40
1.0
 40
1.0
 40
1.0
 40
1.0
 10
80.26086956521738
 20
-44.59836956521738
 30
0.0
 10
80.26608992243835
 20
-44.71563079757303
 30
0.0
 10
80.27608571634661
 20
-44.94015932357946
 30
0.0
 10
80.35185589975521
 20
-45.25943411434272
 30
0.0
 10
80.48438086773201
 20
-45.53996943236403
 30
0.0
 10
80.66852285591335
 20
-45.77925293077767
 30
0.0
 10
80.89892534280058
 20
-45.97377802208239
 30
0.0
 10
81.17686534134582
 20
-46.10715082248401
 30
0.0
 10
81.49241514602113
 20
-46.19107797677424
 30
0.0
 10
81.71681722753422
 20
-46.19978942460389
 30
0.0
 10
81.83423913043477
 20
-46.20434782608695
 30
0.0
  0
SPLINE
  5
130
330
1F
100
AcDbEntity
  8
0
  6
Continuous
 62
     7
370
    25
100
AcDbSpline
210
0.0
220
0.0
230
1.0
 70
     8
 71
     3
 72
    15
 73
    11
 74
     0
 42
0.000000001
 43
0.00000001
 40
0.0
 40
0.0
 40
0.0
 40
0.0
 40
0.1425707136947934
 40
0.2713233978405295
 40
0.3919589314311865
 40
0.5076090205451692
 40
0.6227689221593405
 40
0.7395785233669627
 40
0.8637303846014249
 40
1.0
 40
1.0
 40
1.0
 40
1.0
 10
83.39130434782606
 20
-44.54402173913043
 30
0.0
 10
83.38619221433245
 20
-44.4213179605022
 30
0.0
 10
83.37646341804773
 20
-44.1878029188608
 30
0.0
 10
83.30047522985565
 20
-43.85707333114296
 30
0.0
 10
83.17007735357421
 20
-43.56871992147877
 30
0.0
 10
82.98354878733753
 20
-43.32770242385433
 30
0.0
 10
82.75258898457619
 20
-43.13379816803768
 30
0.0
 10
82.47609901971191
 20
-42.99648865509477
 30
0.0
 10
82.1596456661262
 20
-42.91350214311474
 30
0.0
 10
81.93531783357652
 20
-42.90463819804946
 30
0.0
 10
81.81793478260867
 20
-42.89999999999999
 30
0.0
  0
SPLINE
  5
131
330
1F
100
AcDbEntity
  8
0
  6
Continuous
 62
     7
370
    25
100
AcDbSpline
210
0.0
220
0.0
230
1.0
 70
     8
 71
     3
 72
    17
 73
    13
 74
     0
 42
0.000000001
 43
0.00000001
 40
0.0
 40
0.0
 40
0.0
 40
0.0
 40
0.0733713746633224
 40
0.1432754879188553
 40
0.20931562033673
 40
0.2723219853958312
 40
0.3930093705525446
 40
0.5092864369388646
 40
0.6248824636448342
 40
0.7474050064997584
 40
0.8718942862535082
 40
1.0
 40
1.0
 40
1.0
 40
1.0
 10
81.81793478260867
 20
-42.89999999999999
 30
0.0
 10
81.75441473071652
 20
-42.90123331010138
 30
0.0
 10
81.63037635104543
 20
-42.90364164860318
 30
0.0
 10
81.45107430442505
 20
-42.93196277569199
 30
0.0
 10
81.28400062828389
 20
-42.97460304109529
 30
0.0
 10
81.0828207079801
 20
-43.05436783237064
 30
0.0
 10
80.85709974958509
 20
-43.1868559492254
 30
0.0
 10
80.6355815841235
 20
-43.40055550338315
 30
0.0
 10
80.46680918503371
 20
-43.65902994565839
 30
0.0
 10
80.3468085293723
 20
-43.9504649037651
 30
0.0
 10
80.27524966421043
 20
-44.2689049670209
 30
0.0
 10
80.26570846572422
 20
-44.48750479217453
 30
0.0
 10
80.26086956521738
 20
-44.59836956521738
 30
0.0
  0
SPLINE
  5
134
330
1F
100
AcDbEntity
  8
0
  6
Continuous
 62
     7
370
    25
100
AcDbSpline
210
0.0
220
0.0
230
1.0
 70
     8
 71
     3
 72
    23
 73
    19
 74
     0
 42
0.000000001
 43
0.00000001
 40
0.0
 40
0.0
 40
0.0
 40
0.0
 40
0.0784721281758627
 40
0.1529801412198638
 40
0.2232906926226501
 40
0.289567878829802
 40
0.3521490606970022
 40
0.4118150565922672
 40
0.4680038747049612
 40
0.5223698251566374
 40
0.5755580065037514
 40
0.6281806398453518
 40
0.6818997159513858
 40
0.7370673209026088
 40
0.7954529872247742
 40
0.8583684446449711
 40
0.9260335281204221
 40
1.0
 40
1.0
 40
1.0
 40
1.0
 10
62.35507246376812
 20
28.00452898550722
 30
0.0
 10
62.3529762922324
 20
28.13513846053871
 30
0.0
 10
62.34888983981914
 20
28.38975951389142
 30
0.0
 10
62.32756246672838
 20
28.76101102205806
 30
0.0
 10
62.28651824918322
 20
29.11018694526944
 30
0.0
 10
62.23059461206598
 20
29.43708311494183
 30
0.0
 10
62.1579692843647
 20
29.74281693280896
 30
0.0
 10
62.05816153931606
 20
30.02316373738998
 30
0.0
 10
61.93754383427441
 20
30.28004589227323
 30
0.0
 10
61.7949125083207
 20
30.51308965381411
 30
0.0
 10
61.62660938078904
 20
30.72098717873378
 30
0.0
 10
61.43130994227219
 20
30.90220935864718
 30
0.0
 10
61.21028317727806
 20
31.05666805768293
 30
0.0
 10
60.96226831541688
 20
31.18501045148536
 30
0.0
 10
60.68504104500195
 20
31.28447261425258
 30
0.0
 10
60.37818230460328
 20
31.3560232666107
 30
0.0
 10
60.03973758209341
 20
31.39946448469113
 30
0.0
 10
59.80388140033251
 20
31.40362453370653
 30
0.0
 10
59.68070652173914
 20
31.40579710144925
 30
0.0
  0
SPLINE
  5
136
330
1F
100
AcDbEntity
  8
0
  6
Continuous
 62
     7
370
    25
100
AcDbSpline
210
0.0
220
0.0
230
1.0
 70
     8
 71
     3
 72
    23
 73
    19
 74
     0
 42
0.000000001
 43
0.00000001
 40
0.0
 40
0.0
 40
0.0
 40
0.0
 40
0.0658769542762679
 40
0.1281362698912823
 40
0.1872435683833379
 40
0.2438824550864726
 40
0.2985800505275518
 40
0.3516459571758548
 40
0.4048627803226868
 40
0.4580588778388009
 40
0.512688618195792
 40
0.5700608330332004
 40
0.6303918828450844
 40
0.694396330915991
 40
0.7633659500103691
 40
0.8366963584030297
 40
0.9157895268647278
 40
1.0
 40
1.0
 40
1.0
 40
1.0
 10
59.55163043478262
 20
24.5942028985507
 30
0.0
 10
59.66271425017995
 20
24.59680436984549
 30
0.0
 10
59.87878170361163
 20
24.60186445241316
 30
0.0
 10
60.1924666050293
 20
24.64122780270855
 30
0.0
 10
60.48657179577827
 20
24.70314881377469
 30
0.0
 10
60.75960162711051
 20
24.79453917724492
 30
0.0
 10
61.01244513315967
 20
24.90945985328092
 30
0.0
 10
61.24421727434905
 20
25.05191067503545
 30
0.0
 10
61.45542131709044
 20
25.21941045516649
 30
0.0
 10
61.64504303415129
 20
25.41457058413873
 30
0.0
 10
61.81524643740337
 20
25.63604564858273
 30
0.0
 10
61.95816335377805
 20
25.8897267265481
 30
0.0
 10
62.08470406329864
 20
26.16927432538231
 30
0.0
 10
62.1823030109945
 20
26.48078077384845
 30
0.0
 10
62.26223304184359
 20
26.8196129662086
 30
0.0
 10
62.31417399438955
 20
27.18955127747697
 30
0.0
 10
62.3493038828848
 20
27.58718103097579
 30
0.0
 10
62.35310984872281
 20
27.86253680558185
 30
0.0
 10
62.35507246376813
 20
28.00452898550722
 30
0.0
  0
SPLINE
  5
137
330
1F
100
AcDbEntity
  8
0
  6
Continuous
 62
     7
370
    25
100
AcDbSpline
210
0.0
220
0.0
230
1.0
 70
     8
 71
     3
 72
    21
 73
    17
 74
     0
 42
0.000000001
 43
0.00000001
 40
0.0
 40
0.0
 40
0.0
 40
0.0
 40
0.0810604583464152
 40
0.1565229953246589
 40
0.2279629463268305
 40
0.2959528574207717
 40
0.3609214150907314
 40
0.4224023129438687
 40
0.4818062624994192
 40
0.5391912802528557
 40
0.5953715654615338
 40
0.6521958456291854
 40
0.7079600711599368
 40
0.7645276331402312
 40
0.8802008614591311
 40
0.9999999999999999
 40
0.9999999999999999
 40
0.9999999999999999
 40
0.9999999999999999
 10
87.71739130434784
 20
27.78260869565215
 30
0.0
 10
87.71705004160266
 20
27.85435903376241
 30
0.0
 10
87.71639108323798
 20
27.99290473243808
 30
0.0
 10
87.69639707054019
 20
28.19401075704623
 30
0.0
 10
87.65780125445137
 20
28.38054513406932
 30
0.0
 10
87.60324294959563
 20
28.55327628473651
 30
0.0
 10
87.53569042402287
 20
28.71183759602028
 30
0.0
 10
87.45566564617832
 20
28.85578891427702
 30
0.0
 10
87.3656468055356
 20
28.98577447426191
 30
0.0
 10
87.26249689994202
 20
29.09934558740708
 30
0.0
 10
87.15022200455378
 20
29.20030723950991
 30
0.0
 10
87.02908882480494
 20
29.28816913175586
 30
0.0
 10
86.89819963253746
 20
29.36155152338088
 30
0.0
 10
86.71208592486863
 20
29.43981181705353
 30
0.0
 10
86.46079262573534
 20
29.5093672101393
 30
0.0
 10
86.25203901358526
 20
29.51756726364847
 30
0.0
 10
86.14583333333334
 20
29.52173913043476
 30
0.0
  0
SPLINE
  5
139
330
1F
100
AcDbEntity
  8
0
  6
Continuous
 62
     7
370
    25
100
AcDbSpline
210
0.0
220
0.0
230
1.0
 70
     8
 71
     3
 72
    19
 73
    15
 74
     0
 42
0.000000001
 43
0.00000001
 40
0.0
 40
0.0
 40
0.0
 40
0.0
 40
0.064899332621561
 40
0.126984238109848
 40
0.1865054241666186
 40
0.2451373111292637
 40
0.3035565918387239
 40
0.3608949911462792
 40
0.4185999273127426
 40
0.4774964928453674
 40
0.5973634984074688
 40
0.7208550476696512
 40
0.8541560594754339
 40
1.0
 40
1.0
 40
1.0
 40
1.0
 10
86.14583333333334
 20
29.52173913043476
 30
0.0
 10
86.08685849657819
 20
29.52077654636092
 30
0.0
 10
85.9714663282692
 20
29.51889312167387
 30
0.0
 10
85.80364007117328
 20
29.4941653509898
 30
0.0
 10
85.64314418973935
 20
29.46159855708565
 30
0.0
 10
85.49040934416664
 20
29.41141218537146
 30
0.0
 10
85.34650683600793
 20
29.3449989941799
 30
0.0
 10
85.20838485317923
 20
29.26868277563061
 30
0.0
 10
85.08157573143488
 20
29.17394210983818
 30
0.0
 10
84.92029103764321
 20
29.03202824687743
 30
0.0
 10
84.7436046808904
 20
28.81881232252635
 30
0.0
 10
84.58537929014074
 20
28.51386429226449
 30
0.0
 10
84.46655017756214
 20
28.16593651254609
 30
0.0
 10
84.43319029640278
 20
27.91415575551278
 30
0.0
 10
84.41576086956522
 20
27.78260869565215
 30
0.0
  0
SPLINE
  5
13C
330
1F
100
AcDbEntity
  8
0
  6
Continuous
 62
     7
370
    25
100
AcDbSpline
210
0.0
220
0.0
230
1.0
 70
     8
 71
     3
 72
    21
 73
    17
 74
     0
 42
0.000000001
 43
0.00000001
 40
0.0357662975616526
 40
0.0357662975616526
 40
0.0357662975616526
 40
0.0357662975616526
 40
0.1018308558340574
 40
0.196572542085394
 40
0.282688354435946
 40
0.3614701793060588
 40
0.4342884567007971
 40
0.5019088234658974
 40
0.5642486859254662
 40
0.6218120234507988
 40
0.6755520653759662
 40
0.7267844699529636
 40
0.774480418503849
 40
0.820889464902002
 40
0.9113861644518059
 40
1.0
 40
1.0
 40
1.0
 40
1.0
 10
0.0000000000000971
 20
-53.15897119031389
 30
0.0
 10
0.0652452208389637
 20
-53.1576351366136
 30
0.0
 10
0.2240152092016778
 20
-53.15325538644819
 30
0.0
 10
0.4673643995156546
 20
-53.13453000182007
 30
0.0
 10
0.7215623988156977
 20
-53.09968147799903
 30
0.0
 10
0.9517496798989028
 20
-53.0516806700384
 30
0.0
 10
1.158658640423263
 20
-52.98740247509036
 30
0.0
 10
1.347250073054279
 20
-52.91914140326948
 30
0.0
 10
1.513032057417221
 20
-52.83588556503613
 30
0.0
 10
1.661451078898618
 20
-52.74968627714208
 30
0.0
 10
1.791228470630637
 20
-52.65437101266998
 30
0.0
 10
1.89942165661855
 20
-52.54874703864164
 30
0.0
 10
1.988881844539423
 20
-52.43571327368511
 30
0.0
 10
2.07760895582286
 20
-52.27607769320307
 30
0.0
 10
2.156317702882799
 20
-52.06443919397059
 30
0.0
 10
2.168089178380864
 20
-51.88716288512908
 30
0.0
 10
2.173913043478332
 20
-51.79945652173912
 30
0.0
  0
SPLINE
  5
13D
330
1F
100
AcDbEntity
  8
0
  6
Continuous
 62
     7
370
    25
100
AcDbSpline
210
0.0
220
0.0
230
1.0
 70
     8
 71
     3
 72
    15
 73
    11
 74
     0
 42
0.000000001
 43
0.00000001
 40
0.0
 40
0.0
 40
0.0
 40
0.0
 40
0.1106777797566089
 40
0.2126067780818376
 40
0.3156665678769022
 40
0.4276056977136022
 40
0.5505450566696798
 40
0.6857560528143941
 40
0.8360623331126025
 40
1.0
 40
1.0
 40
1.0
 40
1.0
 10
2.173913043478332
 20
-51.79945652173912
 30
0.0
 10
2.170026031175151
 20
-51.72578487863942
 30
0.0
 10
2.162559264458644
 20
-51.58426513809288
 30
0.0
 10
2.066481207272805
 20
-51.39399768679603
 30
0.0
 10
1.925980105334069
 20
-51.23624099860155
 30
0.0
 10
1.735097233772132
 20
-51.11704062545103
 30
0.0
 10
1.510929161341268
 20
-51.01856877615765
 30
0.0
 10
1.249164648419454
 20
-50.95093402838984
 30
0.0
 10
0.9563072779475157
 20
-50.90200199954977
 30
0.0
 10
0.7492985573628319
 20
-50.88818594633268
 30
0.0
 10
0.6413043478261521
 20
-50.88097826086956
 30
0.0
  0
LINE
  5
142
330
1F
100
AcDbEntity
  8
0
  6
Continuous
 62
     7
370
    25
100
AcDbLine
 10
185.5
 20
-35.9
 30
0.0
 11
185.5
 21
35.9
 31
0.0
  0
LINE
  5
143
330
1F
100
AcDbEntity
  8
0
  6
Continuous
 62
     7
370
    25
100
AcDbLine
 10
0.0
 20
-55.9
 30
0.0
 11
165.5
 21
-55.9
 31
0.0
  0
LINE
  5
144
330
1F
100
AcDbEntity
  8
0
  6
Continuous
 62
     7
370
    25
100
AcDbLine
 10
0.0
 20
-49.0959344561
 30
0.0
 11
1.222826087
 21
-49.1418478261
 31
0.0
  0
LINE
  5
145
330
1F
100
AcDbEntity
  8
0
  6
Continuous
 62
     7
370
    25
100
AcDbLine
 10
4.4347826087
 20
-43.0739130435
 30
0.0
 11
2.9239130435
 21
-43.0739130435
 31
0.0
  0
LINE
  5
146
330
1F
100
AcDbEntity
  8
0
  6
Continuous
 62
     7
370
    25
100
AcDbLine
 10
4.4347826087
 20
-41.5086956522
 30
0.0
 11
4.4347826087
 21
-43.0739130435
 31
0.0
  0
LINE
  5
147
330
1F
100
AcDbEntity
  8
0
  6
Continuous
 62
     7
370
    25
100
AcDbLine
 10
1.2418478261
 20
-41.5086956522
 30
0.0
 11
4.4347826087
 21
-41.5086956522
 31
0.0
  0
LINE
  5
148
330
1F
100
AcDbEntity
  8
0
  6
Continuous
 62
     7
370
    25
100
AcDbLine
 10
165.5
 20
55.9
 30
0.0
 11
0.0
 21
55.9
 31
0.0
  0
LINE
  5
149
330
1F
100
AcDbEntity
  8
0
  6
Continuous
 62
     7
370
    25
100
AcDbLine
 10
6.5217391304
 20
-50.9
 30
0.0
 11
6.5217391304
 21
-49.1608695652
 31
0.0
  0
LINE
  5
14A
330
1F
100
AcDbEntity
  8
0
  6
Continuous
 62
     7
370
    25
100
AcDbLine
 10
14.347826087
 20
-50.9
 30
0.0
 11
6.5217391304
 21
-50.9
 31
0.0
  0
LINE
  5
14B
330
1F
100
AcDbEntity
  8
0
  6
Continuous
 62
     7
370
    25
100
AcDbLine
 10
14.347826087
 20
-49.1608695652
 30
0.0
 11
14.347826087
 21
-50.9
 31
0.0
  0
LINE
  5
14C
330
1F
100
AcDbEntity
  8
0
  6
Continuous
 62
     7
370
    25
100
AcDbLine
 10
11.5652173913
 20
-49.1608695652
 30
0.0
 11
14.347826087
 21
-49.1608695652
 31
0.0
  0
LINE
  5
14D
330
1F
100
AcDbEntity
  8
0
  6
Continuous
 62
     7
370
    25
100
AcDbLine
 10
11.5652173913
 20
-41.5086956522
 30
0.0
 11
11.5652173913
 21
-49.1608695652
 31
0.0
  0
LINE
  5
14E
330
1F
100
AcDbEntity
  8
0
  6
Continuous
 62
     7
370
    25
100
AcDbLine
 10
6.6956521739
 20
-41.5086956522
 30
0.0
 11
11.5652173913
 21
-41.5086956522
 31
0.0
  0
LINE
  5
14F
330
1F
100
AcDbEntity
  8
0
  6
Continuous
 62
     7
370
    25
100
AcDbLine
 10
6.6956521739
 20
-43.247826087
 30
0.0
 11
6.6956521739
 21
-41.5086956522
 31
0.0
  0
LINE
  5
150
330
1F
100
AcDbEntity
  8
0
  6
Continuous
 62
     7
370
    25
100
AcDbLine
 10
9.3043478261
 20
-43.247826087
 30
0.0
 11
6.6956521739
 21
-43.247826087
 31
0.0
  0
LINE
  5
151
330
1F
100
AcDbEntity
  8
0
  6
Continuous
 62
     7
370
    25
100
AcDbLine
 10
9.3043478261
 20
-49.1608695652
 30
0.0
 11
9.3043478261
 21
-43.247826087
 31
0.0
  0
LINE
  5
152
330
1F
100
AcDbEntity
  8
0
  6
Continuous
 62
     7
370
    25
100
AcDbLine
 10
6.5217391304
 20
-49.1608695652
 30
0.0
 11
9.3043478261
 21
-49.1608695652
 31
0.0
  0
LINE
  5
153
330
1F
100
AcDbEntity
  8
0
  6
Continuous
 62
     7
370
    25
100
AcDbLine
 10
18.5679347826
 20
-41.5086956522
 30
0.0
 11
18.6222826087
 21
-42.8945652174
 31
0.0
  0
LINE
  5
154
330
1F
100
AcDbEntity
  8
0
  6
Continuous
 62
     7
370
    25
100
AcDbLine
 10
16.6086956522
 20
-41.5086956522
 30
0.0
 11
18.5679347826
 21
-41.5086956522
 31
0.0
  0
LINE
  5
155
330
1F
100
AcDbEntity
  8
0
  6
Continuous
 62
     7
370
    25
100
AcDbLine
 10
16.6086956522
 20
-50.9
 30
0.0
 11
16.6086956522
 21
-41.5086956522
 31
0.0
  0
LINE
  5
156
330
1F
100
AcDbEntity
  8
0
  6
Continuous
 62
     7
370
    25
100
AcDbLine
 10
18.8695652174
 20
-50.9
 30
0.0
 11
16.6086956522
 21
-50.9
 31
0.0
  0
LINE
  5
157
330
1F
100
AcDbEntity
  8
0
  6
Continuous
 62
     7
370
    25
100
AcDbLine
 10
18.8695652174
 20
-44.9652173913
 30
0.0
 11
18.8695652174
 21
-50.9
 31
0.0
  0
LINE
  5
158
330
1F
100
AcDbEntity
  8
0
  6
Continuous
 62
     7
370
    25
100
AcDbLine
 10
22.1739130435
 20
-50.9
 30
0.0
 11
22.1739130435
 21
-44.7885869565
 31
0.0
  0
LINE
  5
159
330
1F
100
AcDbEntity
  8
0
  6
Continuous
 62
     7
370
    25
100
AcDbLine
 10
24.4347826087
 20
-50.9
 30
0.0
 11
22.1739130435
 21
-50.9
 31
0.0
  0
LINE
  5
15A
330
1F
100
AcDbEntity
  8
0
  6
Continuous
 62
     7
370
    25
100
AcDbLine
 10
24.4347826087
 20
-44.614673913
 30
0.0
 11
24.4347826087
 21
-50.9
 31
0.0
  0
LINE
  5
15B
330
1F
100
AcDbEntity
  8
0
  6
Continuous
 62
     7
370
    25
100
AcDbLine
 10
34.5217391304
 20
-48.8130434783
 30
0.0
 11
34.5217391304
 21
-50.552173913
 31
0.0
  0
LINE
  5
15C
330
1F
100
AcDbEntity
  8
0
  6
Continuous
 62
     7
370
    25
100
AcDbLine
 10
34.9864130435
 20
-46.7260869565
 30
0.0
 11
28.7826086957
 21
-46.7260869565
 31
0.0
  0
LINE
  5
15D
330
1F
100
AcDbEntity
  8
0
  6
Continuous
 62
     7
370
    25
100
AcDbLine
 10
49.910326087
 20
-41.5086956522
 30
0.0
 11
49.9918478261
 21
-42.9
 31
0.0
  0
LINE
  5
15E
330
1F
100
AcDbEntity
  8
0
  6
Continuous
 62
     7
370
    25
100
AcDbLine
 10
47.9130434783
 20
-41.5086956522
 30
0.0
 11
49.910326087
 21
-41.5086956522
 31
0.0
  0
LINE
  5
15F
330
1F
100
AcDbEntity
  8
0
  6
Continuous
 62
     7
370
    25
100
AcDbLine
 10
47.9130434783
 20
-50.9
 30
0.0
 11
47.9130434783
 21
-41.5086956522
 31
0.0
  0
LINE
  5
160
330
1F
100
AcDbEntity
  8
0
  6
Continuous
 62
     7
370
    25
100
AcDbLine
 10
50.1739130435
 20
-50.9
 30
0.0
 11
47.9130434783
 21
-50.9
 31
0.0
  0
LINE
  5
161
330
1F
100
AcDbEntity
  8
0
  6
Continuous
 62
     7
370
    25
100
AcDbLine
 10
50.1739130435
 20
-44.9869565217
 30
0.0
 11
50.1739130435
 21
-50.9
 31
0.0
  0
LINE
  5
162
330
1F
100
AcDbEntity
  8
0
  6
Continuous
 62
     7
370
    25
100
AcDbLine
 10
55.7391304348
 20
-45.1608695652
 30
0.0
 11
53.4782608696
 21
-45.1608695652
 31
0.0
  0
LINE
  5
163
330
1F
100
AcDbEntity
  8
0
  6
Continuous
 62
     7
370
    25
100
AcDbLine
 10
57.8260869565
 20
-50.9
 30
0.0
 11
57.8260869565
 21
-49.1608695652
 31
0.0
  0
LINE
  5
164
330
1F
100
AcDbEntity
  8
0
  6
Continuous
 62
     7
370
    25
100
AcDbLine
 10
65.652173913
 20
-50.9
 30
0.0
 11
57.8260869565
 21
-50.9
 31
0.0
  0
LINE
  5
165
330
1F
100
AcDbEntity
  8
0
  6
Continuous
 62
     7
370
    25
100
AcDbLine
 10
65.652173913
 20
-49.1608695652
 30
0.0
 11
65.652173913
 21
-50.9
 31
0.0
  0
LINE
  5
166
330
1F
100
AcDbEntity
  8
0
  6
Continuous
 62
     7
370
    25
100
AcDbLine
 10
62.8695652174
 20
-49.1608695652
 30
0.0
 11
65.652173913
 21
-49.1608695652
 31
0.0
  0
LINE
  5
167
330
1F
100
AcDbEntity
  8
0
  6
Continuous
 62
     7
370
    25
100
AcDbLine
 10
62.8695652174
 20
-41.5086956522
 30
0.0
 11
62.8695652174
 21
-49.1608695652
 31
0.0
  0
LINE
  5
168
330
1F
100
AcDbEntity
  8
0
  6
Continuous
 62
     7
370
    25
100
AcDbLine
 10
58.0
 20
-41.5086956522
 30
0.0
 11
62.8695652174
 21
-41.5086956522
 31
0.0
  0
LINE
  5
169
330
1F
100
AcDbEntity
  8
0
  6
Continuous
 62
     7
370
    25
100
AcDbLine
 10
58.0
 20
-43.247826087
 30
0.0
 11
58.0
 21
-41.5086956522
 31
0.0
  0
LINE
  5
16A
330
1F
100
AcDbEntity
  8
0
  6
Continuous
 62
     7
370
    25
100
AcDbLine
 10
60.6086956522
 20
-43.247826087
 30
0.0
 11
58.0
 21
-43.247826087
 31
0.0
  0
LINE
  5
16B
330
1F
100
AcDbEntity
  8
0
  6
Continuous
 62
     7
370
    25
100
AcDbLine
 10
60.6086956522
 20
-49.1608695652
 30
0.0
 11
60.6086956522
 21
-43.247826087
 31
0.0
  0
LINE
  5
16C
330
1F
100
AcDbEntity
  8
0
  6
Continuous
 62
     7
370
    25
100
AcDbLine
 10
57.8260869565
 20
-49.1608695652
 30
0.0
 11
60.6086956522
 21
-49.1608695652
 31
0.0
  0
LINE
  5
16D
330
1F
100
AcDbEntity
  8
0
  6
Continuous
 62
     7
370
    25
100
AcDbLine
 10
69.8722826087
 20
-41.5086956522
 30
0.0
 11
69.9266304348
 21
-42.8945652174
 31
0.0
  0
LINE
  5
16E
330
1F
100
AcDbEntity
  8
0
  6
Continuous
 62
     7
370
    25
100
AcDbLine
 10
67.9130434783
 20
-41.5086956522
 30
0.0
 11
69.8722826087
 21
-41.5086956522
 31
0.0
  0
LINE
  5
16F
330
1F
100
AcDbEntity
  8
0
  6
Continuous
 62
     7
370
    25
100
AcDbLine
 10
67.9130434783
 20
-50.9
 30
0.0
 11
67.9130434783
 21
-41.5086956522
 31
0.0
  0
LINE
  5
170
330
1F
100
AcDbEntity
  8
0
  6
Continuous
 62
     7
370
    25
100
AcDbLine
 10
70.1739130435
 20
-50.9
 30
0.0
 11
67.9130434783
 21
-50.9
 31
0.0
  0
LINE
  5
171
330
1F
100
AcDbEntity
  8
0
  6
Continuous
 62
     7
370
    25
100
AcDbLine
 10
70.1739130435
 20
-44.9652173913
 30
0.0
 11
70.1739130435
 21
-50.9
 31
0.0
  0
LINE
  5
172
330
1F
100
AcDbEntity
  8
0
  6
Continuous
 62
     7
370
    25
100
AcDbLine
 10
73.4782608696
 20
-50.9
 30
0.0
 11
73.4782608696
 21
-44.7885869565
 31
0.0
  0
LINE
  5
173
330
1F
100
AcDbEntity
  8
0
  6
Continuous
 62
     7
370
    25
100
AcDbLine
 10
75.7391304348
 20
-50.9
 30
0.0
 11
73.4782608696
 21
-50.9
 31
0.0
  0
LINE
  5
174
330
1F
100
AcDbEntity
  8
0
  6
Continuous
 62
     7
370
    25
100
AcDbLine
 10
75.7391304348
 20
-44.614673913
 30
0.0
 11
75.7391304348
 21
-50.9
 31
0.0
  0
LINE
  5
175
330
1F
100
AcDbEntity
  8
0
  6
Continuous
 62
     7
370
    25
100
AcDbLine
 10
83.3288043478
 20
-41.5086956522
 30
0.0
 11
86.5217391304
 21
-41.5086956522
 31
0.0
  0
LINE
  5
176
330
1F
100
AcDbEntity
  8
0
  6
Continuous
 62
     7
370
    25
100
AcDbLine
 10
81.1385869565
 20
-49.060326087
 30
0.0
 11
83.3097826087
 21
-49.1418478261
 31
0.0
  0
LINE
  5
177
330
1F
100
AcDbEntity
  8
0
  6
Continuous
 62
     7
370
    25
100
AcDbLine
 10
86.5217391304
 20
-43.0739130435
 30
0.0
 11
85.0108695652
 21
-43.0739130435
 31
0.0
  0
LINE
  5
178
330
1F
100
AcDbEntity
  8
0
  6
Continuous
 62
     7
370
    25
100
AcDbLine
 10
86.5217391304
 20
-41.5086956522
 30
0.0
 11
86.5217391304
 21
-43.0739130435
 31
0.0
  0
LINE
  5
179
330
1F
100
AcDbEntity
  8
0
  6
Continuous
 62
     7
370
    25
100
AcDbLine
 10
77.9642210145
 20
26.3265398551
 30
0.0
 11
79.5561594203
 21
30.8260869565
 31
0.0
  0
LINE
  5
17A
330
1F
100
AcDbEntity
  8
0
  6
Continuous
 62
     7
370
    25
100
AcDbLine
 10
77.5
 20
24.9565217391
 30
0.0
 11
77.9642210145
 21
26.3265398551
 31
0.0
  0
LINE
  5
17B
330
1F
100
AcDbEntity
  8
0
  6
Continuous
 62
     7
370
    25
100
AcDbLine
 10
77.0108695652
 20
26.3174818841
 30
0.0
 11
77.5
 21
24.9565217391
 31
0.0
  0
LINE
  5
17C
330
1F
100
AcDbEntity
  8
0
  6
Continuous
 62
     7
370
    25
100
AcDbLine
 10
75.3759057971
 20
30.8260869565
 30
0.0
 11
77.0108695652
 21
26.3174818841
 31
0.0
  0
LINE
  5
17D
330
1F
100
AcDbEntity
  8
0
  6
Continuous
 62
     7
370
    25
100
AcDbLine
 10
73.2971014493
 20
30.8260869565
 30
0.0
 11
75.3759057971
 21
30.8260869565
 31
0.0
  0
LINE
  5
17E
330
1F
100
AcDbEntity
  8
0
  6
Continuous
 62
     7
370
    25
100
AcDbLine
 10
76.4085144928
 20
23.0
 30
0.0
 11
73.2971014493
 21
30.8260869565
 31
0.0
  0
LINE
  5
17F
330
1F
100
AcDbEntity
  8
0
  6
Continuous
 62
     7
370
    25
100
AcDbLine
 10
73.5869565217
 20
19.8908514493
 30
0.0
 11
73.5869565217
 21
21.5507246377
 31
0.0
  0
LINE
  5
180
330
1F
100
AcDbEntity
  8
0
  6
Continuous
 62
     7
370
    25
100
AcDbLine
 10
81.5579710145
 20
30.8260869565
 30
0.0
 11
78.8768115942
 21
23.919384058
 31
0.0
  0
LINE
  5
181
330
1F
100
AcDbEntity
  8
0
  6
Continuous
 62
     7
370
    25
100
AcDbLine
 10
79.5561594203
 20
30.8260869565
 30
0.0
 11
81.5579710145
 21
30.8260869565
 31
0.0
  0
LINE
  5
182
330
1F
100
AcDbEntity
  8
0
  6
Continuous
 62
     7
370
    25
100
AcDbLine
 10
67.7875905797
 20
30.8260869565
 30
0.0
 11
67.8555253623
 21
29.6666666667
 31
0.0
  0
LINE
  5
183
330
1F
100
AcDbEntity
  8
0
  6
Continuous
 62
     7
370
    25
100
AcDbLine
 10
66.1231884058
 20
30.8260869565
 30
0.0
 11
67.7875905797
 21
30.8260869565
 31
0.0
  0
LINE
  5
184
330
1F
100
AcDbEntity
  8
0
  6
Continuous
 62
     7
370
    25
100
AcDbLine
 10
66.1231884058
 20
23.0
 30
0.0
 11
66.1231884058
 21
30.8260869565
 31
0.0
  0
LINE
  5
185
330
1F
100
AcDbEntity
  8
0
  6
Continuous
 62
     7
370
    25
100
AcDbLine
 10
68.0072463768
 20
23.0
 30
0.0
 11
66.1231884058
 21
23.0
 31
0.0
  0
LINE
  5
186
330
1F
100
AcDbEntity
  8
0
  6
Continuous
 62
     7
370
    25
100
AcDbLine
 10
68.0072463768
 20
27.9275362319
 30
0.0
 11
68.0072463768
 21
23.0
 31
0.0
  0
LINE
  5
187
330
1F
100
AcDbEntity
  8
0
  6
Continuous
 62
     7
370
    25
100
AcDbLine
 10
72.6449275362
 20
27.7826086957
 30
0.0
 11
70.7608695652
 21
27.7826086957
 31
0.0
  0
LINE
  5
188
330
1F
100
AcDbEntity
  8
0
  6
Continuous
 62
     7
370
    25
100
AcDbLine
 10
56.847826087
 20
23.0
 30
0.0
 11
56.847826087
 21
33.0
 31
0.0
  0
LINE
  5
189
330
1F
100
AcDbEntity
  8
0
  6
Continuous
 62
     7
370
    25
100
AcDbLine
 10
59.3817934783
 20
23.0
 30
0.0
 11
56.847826087
 21
23.0
 31
0.0
  0
LINE
  5
18A
330
1F
100
AcDbEntity
  8
0
  6
Continuous
 62
     7
370
    25
100
AcDbLine
 10
56.847826087
 20
33.0
 30
0.0
 11
59.8029891304
 21
33.0
 31
0.0
  0
LINE
  5
18B
330
1F
100
AcDbEntity
  8
0
  6
Continuous
 62
     7
370
    25
100
AcDbLine
 10
116.0
 20
13.0
 30
0.0
 11
39.0
 21
13.0
 31
0.0
  0
LINE
  5
18C
330
1F
100
AcDbEntity
  8
0
  6
Continuous
 62
     7
370
    25
100
AcDbLine
 10
39.0
 20
13.0
 30
0.0
 11
39.0
 21
-13.0
 31
0.0
  0
LINE
  5
18D
330
1F
100
AcDbEntity
  8
0
  6
Continuous
 62
     7
370
    25
100
AcDbLine
 10
39.0
 20
-13.0
 30
0.0
 11
116.0
 21
-13.0
 31
0.0
  0
LINE
  5
18E
330
1F
100
AcDbEntity
  8
0
  6
Continuous
 62
     7
370
    25
100
AcDbLine
 10
116.0
 20
-13.0
 30
0.0
 11
116.0
 21
13.0
 31
0.0
  0
LINE
  5
18F
330
1F
100
AcDbEntity
  8
0
  6
Continuous
 62
     7
370
    25
100
AcDbLine
 10
89.1666666667
 20
24.7391304348
 30
0.0
 11
89.1666666667
 21
23.2898550725
 31
0.0
  0
LINE
  5
190
330
1F
100
AcDbEntity
  8
0
  6
Continuous
 62
     7
370
    25
100
AcDbLine
 10
89.5538949275
 20
26.4782608696
 30
0.0
 11
84.384057971
 21
26.4782608696
 31
0.0
  0
LINE
  5
191
330
1F
100
AcDbEntity
  8
0
  6
Continuous
 62
     7
370
    25
100
AcDbLine
 10
93.4397644928
 20
30.8260869565
 30
0.0
 11
93.5076992754
 21
29.6666666667
 31
0.0
  0
LINE
  5
192
330
1F
100
AcDbEntity
  8
0
  6
Continuous
 62
     7
370
    25
100
AcDbLine
 10
91.7753623188
 20
30.8260869565
 30
0.0
 11
93.4397644928
 21
30.8260869565
 31
0.0
  0
LINE
  5
193
330
1F
100
AcDbEntity
  8
0
  6
Continuous
 62
     7
370
    25
100
AcDbLine
 10
91.7753623188
 20
23.0
 30
0.0
 11
91.7753623188
 21
30.8260869565
 31
0.0
  0
LINE
  5
194
330
1F
100
AcDbEntity
  8
0
  6
Continuous
 62
     7
370
    25
100
AcDbLine
 10
93.6594202899
 20
23.0
 30
0.0
 11
91.7753623188
 21
23.0
 31
0.0
  0
LINE
  5
195
330
1F
100
AcDbEntity
  8
0
  6
Continuous
 62
     7
370
    25
100
AcDbLine
 10
93.6594202899
 20
27.9275362319
 30
0.0
 11
93.6594202899
 21
23.0
 31
0.0
  0
LINE
  5
196
330
1F
100
AcDbEntity
  8
0
  6
Continuous
 62
     7
370
    25
100
AcDbLine
 10
98.2971014493
 20
27.7826086957
 30
0.0
 11
96.4130434783
 21
27.7826086957
 31
0.0
  0
LINE
  5
197
330
1F
100
AcDbEntity
  8
0
  6
Continuous
 62
     7
370
    25
100
AcDbLine
 10
44.7826086957
 20
-48.8130434783
 30
0.0
 11
44.7826086957
 21
-50.552173913
 31
0.0
  0
LINE
  5
198
330
1F
100
AcDbEntity
  8
0
  6
Continuous
 62
     7
370
    25
100
AcDbLine
 10
45.2472826087
 20
-46.7260869565
 30
0.0
 11
39.0434782609
 21
-46.7260869565
 31
0.0
  0
LINE
  5
199
330
1F
100
AcDbEntity
  8
0
  6
Continuous
 62
     7
370
    25
100
AcDbLine
 10
82.7282608696
 20
-50.8809782609
 30
0.0
 11
80.7690217391
 21
-50.8429347826
 31
0.0
  0
LINE
  5
19A
330
1F
100
AcDbEntity
  8
0
  6
Continuous
 62
     7
370
    25
100
AcDbLine
 10
28.8206521739
 20
-45.1608695652
 30
0.0
 11
32.7826086957
 21
-45.1608695652
 31
0.0
  0
LINE
  5
19B
330
1F
100
AcDbEntity
  8
0
  6
Continuous
 62
     7
370
    25
100
AcDbLine
 10
39.0815217391
 20
-45.1608695652
 30
0.0
 11
43.0434782609
 21
-45.1608695652
 31
0.0
  0
LINE
  5
19C
330
1F
100
AcDbEntity
  8
0
  6
Continuous
 62
     7
370
    25
100
AcDbLine
 10
58.731884058
 20
31.4057971014
 30
0.0
 11
58.731884058
 21
24.5942028986
 31
0.0
  0
LINE
  5
19D
330
1F
100
AcDbEntity
  8
0
  6
Continuous
 62
     7
370
    25
100
AcDbLine
 10
59.6807065217
 20
31.4057971014
 30
0.0
 11
58.731884058
 21
31.4057971014
 31
0.0
  0
LINE
  5
19E
330
1F
100
AcDbEntity
  8
0
  6
Continuous
 62
     7
370
    25
100
AcDbLine
 10
58.731884058
 20
24.5942028986
 30
0.0
 11
59.5516304348
 21
24.5942028986
 31
0.0
  0
LINE
  5
19F
330
1F
100
AcDbEntity
  8
0
  6
Continuous
 62
     7
370
    25
100
AcDbLine
 10
84.4157608696
 20
27.7826086957
 30
0.0
 11
87.7173913043
 21
27.7826086957
 31
0.0
  0
LINE
  5
1A0
330
1F
100
AcDbEntity
  8
0
  6
Continuous
 62
     7
370
    25
100
AcDbLine
 10
0.0
 20
55.9
 30
0.0
 11
0.0
 21
-55.9
 31
0.0
  0
LINE
  5
1A1
330
1F
100
AcDbEntity
  8
0
  6
Continuous
 62
     7
370
    25
100
AcDbLine
 10
0.6413043478
 20
-50.8809782609
 30
0.0
 11
0.0
 21
-50.8685257493
 31
0.0
  0
ARC
  5
1A2
330
1F
100
AcDbEntity
  8
0
  6
Continuous
 62
     7
370
    25
100
AcDbCircle
 10
165.5
 20
35.9
 30
0.0
 40
20.00000000000001
100
AcDbArc
 50
0.0
 51
90.0
  0
ARC
  5
1A3
330
1F
100
AcDbEntity
  8
0
  6
Continuous
 62
     7
370
    25
100
AcDbCircle
 10
165.5
 20
-35.9
 30
0.0
 40
19.99999999999997
100
AcDbArc
 50
270.0
 51
0.0
  0
ENDSEC
  0
SECTION
  2
OBJECTS
  0
DICTIONARY
  5
C
330
0
100
AcDbDictionary
281
     1
  3
ACAD_GROUP
350
D
  3
ACAD_LAYOUT
350
1A
  3
ACAD_MLINESTYLE
350
17
  3
ACAD_PLOTSETTINGS
350
19
  3
ACAD_PLOTSTYLENAME
350
E
  3
ACAD_SCALELIST
350
47
  0
DICTIONARY
  5
D
102
{ACAD_REACTORS
330
C
102
}
330
C
100
AcDbDictionary
281
     1
  0
DICTIONARY
  5
1A
102
{ACAD_REACTORS
330
C
102
}
330
C
100
AcDbDictionary
281
     1
  3
Layout1
350
1E
  3
Layout2
350
26
  3
Model
350
22
  0
DICTIONARY
  5
17
102
{ACAD_REACTORS
330
C
102
}
330
C
100
AcDbDictionary
281
     1
  3
Standard
350
18
  0
DICTIONARY
  5
19
102
{ACAD_REACTORS
330
C
102
}
330
C
100
AcDbDictionary
281
     1
  0
ACDBDICTIONARYWDFLT
  5
E
102
{ACAD_REACTORS
330
C
102
}
330
C
100
AcDbDictionary
281
     1
  3
Normal
350
F
100
AcDbDictionaryWithDefault
340
F
  0
DICTIONARY
  5
47
102
{ACAD_REACTORS
330
C
102
}
330
C
100
AcDbDictionary
281
     1
  3
A0
350
48
  3
A1
350
49
  3
A2
350
4A
  3
A3
350
4B
  3
A4
350
4C
  3
A5
350
4D
  3
A6
350
4E
  3
A7
350
4F
  3
A8
350
50
  3
A9
350
51
  3
B0
350
52
  3
B1
350
53
  3
B2
350
54
  3
B3
350
55
  3
B4
350
56
  3
B5
350
57
  3
B6
350
58
  3
B7
350
59
  3
B8
350
5A
  3
B9
350
5B
  3
C0
350
5C
  3
C1
350
5D
  3
C2
350
5E
  3
C3
350
5F
  3
C4
350
60
  3
C5
350
61
  3
C6
350
62
  3
C7
350
63
  3
C8
350
64
  3
C9
350
65
  3
D0
350
66
  3
D1
350
67
  3
D2
350
68
  0
LAYOUT
  5
1E
102
{ACAD_REACTORS
330
1A
102
}
330
1A
100
AcDbPlotSettings
  1

  2
none_device
  4

  6

 40
0.0
 41
0.0
 42
0.0
 43
0.0
 44
0.0
 45
0.0
 46
0.0
 47
0.0
 48
0.0
 49
0.0
140
0.0
141
0.0
142
1.0
143
1.0
 70
   688
 72
     1
 73
     0
 74
     5
  7

 75
    16
147
1.0
148
0.0
149
0.0
100
AcDbLayout
  1
Layout1
 70
     1
 71
     1
 10
0.0
 20
0.0
 11
420.0
 21
297.0
 12
0.0
 22
0.0
 32
0.0
 14
1.0000000000E+20
 24
1.0000000000E+20
 34
1.0000000000E+20
 15
-1.0000000000E+20
 25
-1.0000000000E+20
 35
-1.0000000000E+20
146
0.0
 13
0.0
 23
0.0
 33
0.0
 16
1.0
 26
0.0
 36
0.0
 17
0.0
 27
1.0
 37
0.0
 76
     0
330
1B
  0
LAYOUT
  5
26
102
{ACAD_REACTORS
330
1A
102
}
330
1A
100
AcDbPlotSettings
  1

  2
none_device
  4

  6

 40
0.0
 41
0.0
 42
0.0
 43
0.0
 44
0.0
 45
0.0
 46
0.0
 47
0.0
 48
0.0
 49
0.0
140
0.0
141
0.0
142
1.0
143
1.0
 70
   688
 72
     1
 73
     0
 74
     5
  7

 75
    16
147
1.0
148
0.0
149
0.0
100
AcDbLayout
  1
Layout2
 70
     1
 71
     2
 10
0.0
 20
0.0
 11
0.0
 21
0.0
 12
0.0
 22
0.0
 32
0.0
 14
0.0
 24
0.0
 34
0.0
 15
0.0
 25
0.0
 35
0.0
146
0.0
 13
0.0
 23
0.0
 33
0.0
 16
1.0
 26
0.0
 36
0.0
 17
0.0
 27
1.0
 37
0.0
 76
     0
330
23
  0
LAYOUT
  5
22
102
{ACAD_REACTORS
330
1A
102
}
330
1A
100
AcDbPlotSettings
  1

  2
none_device
  4
ANSI_A_(11.00_x_8.50_Inches)
  6

 40
6.35
 41
19.05
 42
6.35000508
 43
19.05000254
 44
279.4
 45
215.9
 46
-4.9530025399
 47
88.89999873
 48
0.0
 49
0.0
140
0.0
141
0.0
142
0.0587061995
143
1.0
 70
  1696
 72
     0
 73
     0
 74
     0
  7

 75
     0
147
0.0179189148
148
-1300.4909072572
149
0.0
100
AcDbLayout
  1
Model
 70
     1
 71
     0
 10
0.0
 20
0.0
 11
420.0
 21
297.0
 12
0.0
 22
0.0
 32
0.0
 14
-0.0000000001
 24
-55.9
 34
0.0
 15
185.5
 25
55.9
 35
0.0
146
0.0
 13
0.0
 23
0.0
 33
0.0
 16
1.0
 26
0.0
 36
0.0
 17
0.0
 27
1.0
 37
0.0
 76
     0
330
1F
331
29
  0
MLINESTYLE
  5
18
102
{ACAD_REACTORS
330
17
102
}
330
17
100
AcDbMlineStyle
  2
Standard
 70
     0
  3

 62
   256
 51
90.0
 52
90.0
 71
     2
 49
0.5
 62
   256
  6
BYLAYER
 49
-0.5
 62
   256
  6
BYLAYER
  0
ACDBPLACEHOLDER
  5
F
102
{ACAD_REACTORS
330
E
102
}
330
E
  0
SCALE
  5
48
102
{ACAD_REACTORS
330
47
102
}
330
47
100
AcDbScale
 70
     0
300
1:1
140
1.0
141
1.0
290
     1
  0
SCALE
  5
49
102
{ACAD_REACTORS
330
47
102
}
330
47
100
AcDbScale
 70
     0
300
1:2
140
1.0
141
2.0
290
     0
  0
SCALE
  5
4A
102
{ACAD_REACTORS
330
47
102
}
330
47
100
AcDbScale
 70
     0
300
1:4
140
1.0
141
4.0
290
     0
  0
SCALE
  5
4B
102
{ACAD_REACTORS
330
47
102
}
330
47
100
AcDbScale
 70
     0
300
1:5
140
1.0
141
5.0
290
     0
  0
SCALE
  5
4C
102
{ACAD_REACTORS
330
47
102
}
330
47
100
AcDbScale
 70
     0
300
1:8
140
1.0
141
8.0
290
     0
  0
SCALE
  5
4D
102
{ACAD_REACTORS
330
47
102
}
330
47
100
AcDbScale
 70
     0
300
1:10
140
1.0
141
10.0
290
     0
  0
SCALE
  5
4E
102
{ACAD_REACTORS
330
47
102
}
330
47
100
AcDbScale
 70
     0
300
1:16
140
1.0
141
16.0
290
     0
  0
SCALE
  5
4F
102
{ACAD_REACTORS
330
47
102
}
330
47
100
AcDbScale
 70
     0
300
1:20
140
1.0
141
20.0
290
     0
  0
SCALE
  5
50
102
{ACAD_REACTORS
330
47
102
}
330
47
100
AcDbScale
 70
     0
300
1:30
140
1.0
141
30.0
290
     0
  0
SCALE
  5
51
102
{ACAD_REACTORS
330
47
102
}
330
47
100
AcDbScale
 70
     0
300
1:40
140
1.0
141
40.0
290
     0
  0
SCALE
  5
52
102
{ACAD_REACTORS
330
47
102
}
330
47
100
AcDbScale
 70
     0
300
1:50
140
1.0
141
50.0
290
     0
  0
SCALE
  5
53
102
{ACAD_REACTORS
330
47
102
}
330
47
100
AcDbScale
 70
     0
300
1:100
140
1.0
141
100.0
290
     0
  0
SCALE
  5
54
102
{ACAD_REACTORS
330
47
102
}
330
47
100
AcDbScale
 70
     0
300
2:1
140
2.0
141
1.0
290
     0
  0
SCALE
  5
55
102
{ACAD_REACTORS
330
47
102
}
330
47
100
AcDbScale
 70
     0
300
4:1
140
4.0
141
1.0
290
     0
  0
SCALE
  5
56
102
{ACAD_REACTORS
330
47
102
}
330
47
100
AcDbScale
 70
     0
300
8:1
140
8.0
141
1.0
290
     0
  0
SCALE
  5
57
102
{ACAD_REACTORS
330
47
102
}
330
47
100
AcDbScale
 70
     0
300
10:1
140
10.0
141
1.0
290
     0
  0
SCALE
  5
58
102
{ACAD_REACTORS
330
47
102
}
330
47
100
AcDbScale
 70
     0
300
100:1
140
100.0
141
1.0
290
     0
  0
SCALE
  5
59
102
{ACAD_REACTORS
330
47
102
}
330
47
100
AcDbScale
 70
     0
300
1/128" = 1'-0"
140
0.0078125
141
12.0
290
     0
  0
SCALE
  5
5A
102
{ACAD_REACTORS
330
47
102
}
330
47
100
AcDbScale
 70
     0
300
1/64" = 1'-0"
140
0.015625
141
12.0
290
     0
  0
SCALE
  5
5B
102
{ACAD_REACTORS
330
47
102
}
330
47
100
AcDbScale
 70
     0
300
1/32" = 1'-0"
140
0.03125
141
12.0
290
     0
  0
SCALE
  5
5C
102
{ACAD_REACTORS
330
47
102
}
330
47
100
AcDbScale
 70
     0
300
1/16" = 1'-0"
140
0.0625
141
12.0
290
     0
  0
SCALE
  5
5D
102
{ACAD_REACTORS
330
47
102
}
330
47
100
AcDbScale
 70
     0
300
3/32" = 1'-0"
140
0.09375
141
12.0
290
     0
  0
SCALE
  5
5E
102
{ACAD_REACTORS
330
47
102
}
330
47
100
AcDbScale
 70
     0
300
1/8" = 1'-0"
140
0.125
141
12.0
290
     0
  0
SCALE
  5
5F
102
{ACAD_REACTORS
330
47
102
}
330
47
100
AcDbScale
 70
     0
300
3/16" = 1'-0"
140
0.1875
141
12.0
290
     0
  0
SCALE
  5
60
102
{ACAD_REACTORS
330
47
102
}
330
47
100
AcDbScale
 70
     0
300
1/4" = 1'-0"
140
0.25
141
12.0
290
     0
  0
SCALE
  5
61
102
{ACAD_REACTORS
330
47
102
}
330
47
100
AcDbScale
 70
     0
300
3/8" = 1'-0"
140
0.375
141
12.0
290
     0
  0
SCALE
  5
62
102
{ACAD_REACTORS
330
47
102
}
330
47
100
AcDbScale
 70
     0
300
1/2" = 1'-0"
140
0.5
141
12.0
290
     0
  0
SCALE
  5
63
102
{ACAD_REACTORS
330
47
102
}
330
47
100
AcDbScale
 70
     0
300
3/4" = 1'-0"
140
0.75
141
12.0
290
     0
  0
SCALE
  5
64
102
{ACAD_REACTORS
330
47
102
}
330
47
100
AcDbScale
 70
     0
300
1" = 1'-0"
140
1.0
141
12.0
290
     0
  0
SCALE
  5
65
102
{ACAD_REACTORS
330
47
102
}
330
47
100
AcDbScale
 70
     0
300
1-1/2" = 1'-0"
140
1.5
141
12.0
290
     0
  0
SCALE
  5
66
102
{ACAD_REACTORS
330
47
102
}
330
47
100
AcDbScale
 70
     0
300
3" = 1'-0"
140
3.0
141
12.0
290
     0
  0
SCALE
  5
67
102
{ACAD_REACTORS
330
47
102
}
330
47
100
AcDbScale
 70
     0
300
6" = 1'-0"
140
6.0
141
12.0
290
     0
  0
SCALE
  5
68
102
{ACAD_REACTORS
330
47
102
}
330
47
100
AcDbScale
 70
     0
300
1'-0" = 1'-0"
140
12.0
141
12.0
290
     0
  0
ENDSEC
  0
EOF
