  0
SECTION
  2
HEADER
  9
$ACADVER
  1
AC1015
  9
$ACADMAINTVER
 70
     6
  9
$DWGCODEPAGE
  3
ANSI_1252
  9
$INSBASE
 10
0.0
 20
0.0
 30
0.0
  9
$EXTMIN
 10
-185.5
 20
-55.9
 30
0.0
  9
$EXTMAX
 10
0.0000000031
 20
55.9
 30
0.0
  9
$LIMMIN
 10
0.0
 20
0.0
  9
$LIMMAX
 10
420.0
 20
297.0
  9
$ORTHOMODE
 70
     0
  9
$REGENMODE
 70
     1
  9
$FILLMODE
 70
     1
  9
$QTEXTMODE
 70
     0
  9
$MIRRTEXT
 70
     1
  9
$LTSCALE
 40
1.0
  9
$ATTMODE
 70
     1
  9
$TEXTSIZE
 40
6.35
  9
$TRACEWID
 40
1.0
  9
$TEXTSTYLE
  7
Standard
  9
$CLAYER
  8
0
  9
$CELTYPE
  6
ByLayer
  9
$CECOLOR
 62
   256
  9
$CELTSCALE
 40
1.0
  9
$DISPSILH
 70
     0
  9
$DIMSCALE
 40
1.0
  9
$DIMASZ
 40
5.9944
  9
$DIMEXO
 40
0.9906
  9
$DIMDLI
 40
3.75
  9
$DIMRND
 40
0.0
  9
$DIMDLE
 40
0.0
  9
$DIMEXE
 40
0.9906
  9
$DIMTP
 40
0.0
  9
$DIMTM
 40
0.0
  9
$DIMTXT
 40
6.35
  9
$DIMCEN
 40
2.5
  9
$DIMTSZ
 40
0.0
  9
$DIMTOL
 70
     0
  9
$DIMLIM
 70
     0
  9
$DIMTIH
 70
     1
  9
$DIMTOH
 70
     1
  9
$DIMSE1
 70
     0
  9
$DIMSE2
 70
     0
  9
$DIMTAD
 70
     1
  9
$DIMZIN
 70
     1
  9
$DIMBLK
  1

  9
$DIMASO
 70
     1
  9
$DIMSHO
 70
     1
  9
$DIMPOST
  1

  9
$DIMAPOST
  1

  9
$DIMALT
 70
     0
  9
$DIMALTD
 70
     3
  9
$DIMALTF
 40
0.0393700787
  9
$DIMLFAC
 40
1.0
  9
$DIMTOFL
 70
     1
  9
$DIMTVP
 40
0.0
  9
$DIMTIX
 70
     0
  9
$DIMSOXD
 70
     0
  9
$DIMSAH
 70
     0
  9
$DIMBLK1
  1

  9
$DIMBLK2
  1

  9
$DIMSTYLE
  2
ISO-25
  9
$DIMCLRD
 70
     0
  9
$DIMCLRE
 70
     0
  9
$DIMCLRT
 70
     0
  9
$DIMTFAC
 40
1.0
  9
$DIMGAP
 40
1.524
  9
$DIMJUST
 70
     0
  9
$DIMSD1
 70
     0
  9
$DIMSD2
 70
     0
  9
$DIMTOLJ
 70
     0
  9
$DIMTZIN
 70
     1
  9
$DIMALTZ
 70
     0
  9
$DIMALTTZ
 70
     0
  9
$DIMUPT
 70
     0
  9
$DIMDEC
 70
     2
  9
$DIMTDEC
 70
     2
  9
$DIMALTU
 70
     2
  9
$DIMALTTD
 70
     3
  9
$DIMTXSTY
  7
Standard
  9
$DIMAUNIT
 70
     0
  9
$DIMADEC
 70
     2
  9
$DIMALTRND
 40
0.0
  9
$DIMAZIN
 70
     0
  9
$DIMDSEP
 70
    44
  9
$DIMATFIT
 70
     3
  9
$DIMFRAC
 70
     0
  9
$DIMLDRBLK
  1

  9
$DIMLUNIT
 70
     2
  9
$DIMLWD
 70
    -2
  9
$DIMLWE
 70
    -2
  9
$DIMTMOVE
 70
     0
  9
$LUNITS
 70
     2
  9
$LUPREC
 70
     2
  9
$SKETCHINC
 40
1.0
  9
$FILLETRAD
 40
10.0
  9
$AUNITS
 70
     0
  9
$AUPREC
 70
     2
  9
$MENU
  1
.
  9
$ELEVATION
 40
0.0
  9
$PELEVATION
 40
0.0
  9
$THICKNESS
 40
0.0
  9
$LIMCHECK
 70
     0
  9
$CHAMFERA
 40
0.0
  9
$CHAMFERB
 40
0.0
  9
$CHAMFERC
 40
0.0
  9
$CHAMFERD
 40
0.0
  9
$SKPOLY
 70
     0
  9
$TDCREATE
 40
2458373.863444687
  9
$TDUCREATE
 40
2458374.071778021
  9
$TDUPDATE
 40
2458373.863502697
  9
$TDUUPDATE
 40
2458374.07183603
  9
$TDINDWG
 40
0.0000000116
  9
$TDUSRTIMER
 40
0.0000000116
  9
$USRTIMER
 70
     1
  9
$ANGBASE
 50
0.0
  9
$ANGDIR
 70
     0
  9
$PDMODE
 70
     0
  9
$PDSIZE
 40
-1.0
  9
$PLINEWID
 40
0.0
  9
$SPLFRAME
 70
     0
  9
$SPLINETYPE
 70
     6
  9
$SPLINESEGS
 70
     8
  9
$HANDSEED
  5
206
  9
$SURFTAB1
 70
     6
  9
$SURFTAB2
 70
     6
  9
$SURFTYPE
 70
     6
  9
$SURFU
 70
     6
  9
$SURFV
 70
     6
  9
$UCSBASE
  2

  9
$UCSNAME
  2

  9
$UCSORG
 10
0.0
 20
0.0
 30
0.0
  9
$UCSXDIR
 10
1.0
 20
0.0
 30
0.0
  9
$UCSYDIR
 10
0.0
 20
1.0
 30
0.0
  9
$UCSORTHOREF
  2

  9
$UCSORTHOVIEW
 70
     0
  9
$UCSORGTOP
 10
0.0
 20
0.0
 30
0.0
  9
$UCSORGBOTTOM
 10
0.0
 20
0.0
 30
0.0
  9
$UCSORGLEFT
 10
0.0
 20
0.0
 30
0.0
  9
$UCSORGRIGHT
 10
0.0
 20
0.0
 30
0.0
  9
$UCSORGFRONT
 10
0.0
 20
0.0
 30
0.0
  9
$UCSORGBACK
 10
0.0
 20
0.0
 30
0.0
  9
$PUCSBASE
  2

  9
$PUCSNAME
  2

  9
$PUCSORG
 10
0.0
 20
0.0
 30
0.0
  9
$PUCSXDIR
 10
1.0
 20
0.0
 30
0.0
  9
$PUCSYDIR
 10
0.0
 20
1.0
 30
0.0
  9
$PUCSORTHOREF
  2

  9
$PUCSORTHOVIEW
 70
     0
  9
$PUCSORGTOP
 10
0.0
 20
0.0
 30
0.0
  9
$PUCSORGBOTTOM
 10
0.0
 20
0.0
 30
0.0
  9
$PUCSORGLEFT
 10
0.0
 20
0.0
 30
0.0
  9
$PUCSORGRIGHT
 10
0.0
 20
0.0
 30
0.0
  9
$PUCSORGFRONT
 10
0.0
 20
0.0
 30
0.0
  9
$PUCSORGBACK
 10
0.0
 20
0.0
 30
0.0
  9
$USERI1
 70
     0
  9
$USERI2
 70
     0
  9
$USERI3
 70
     0
  9
$USERI4
 70
     0
  9
$USERI5
 70
     0
  9
$USERR1
 40
0.0
  9
$USERR2
 40
0.0
  9
$USERR3
 40
0.0
  9
$USERR4
 40
0.0
  9
$USERR5
 40
0.0
  9
$WORLDVIEW
 70
     1
  9
$SHADEDGE
 70
     3
  9
$SHADEDIF
 70
    70
  9
$TILEMODE
 70
     1
  9
$MAXACTVP
 70
    64
  9
$PINSBASE
 10
0.0
 20
0.0
 30
0.0
  9
$PLIMCHECK
 70
     0
  9
$PEXTMIN
 10
1.0000000000E+20
 20
1.0000000000E+20
 30
1.0000000000E+20
  9
$PEXTMAX
 10
-1.0000000000E+20
 20
-1.0000000000E+20
 30
-1.0000000000E+20
  9
$PLIMMIN
 10
0.0
 20
0.0
  9
$PLIMMAX
 10
420.0
 20
297.0
  9
$UNITMODE
 70
     0
  9
$VISRETAIN
 70
     1
  9
$PLINEGEN
 70
     0
  9
$PSLTSCALE
 70
     1
  9
$TREEDEPTH
 70
  3020
  9
$CMLSTYLE
  2
Standard
  9
$CMLJUST
 70
     0
  9
$CMLSCALE
 40
20.0
  9
$PROXYGRAPHICS
 70
     1
  9
$MEASUREMENT
 70
     1
  9
$CELWEIGHT
370
    -1
  9
$ENDCAPS
280
     0
  9
$JOINSTYLE
280
     0
  9
$LWDISPLAY
290
     1
  9
$INSUNITS
 70
     4
  9
$HYPERLINKBASE
  1

  9
$STYLESHEET
  1

  9
$XEDIT
290
     1
  9
$CEPSNTYPE
380
     0
  9
$PSTYLEMODE
290
     1
  9
$FINGERPRINTGUID
  2
{DCD58A2A-C6DD-47B9-9B5A-9E9C871BDB04}
  9
$VERSIONGUID
  2
{FAEB1C32-E019-11D5-929B-00C0DF256EC4}
  9
$EXTNAMES
290
     1
  9
$PSVPSCALE
 40
0.0
  9
$OLESTARTUP
290
     0
  0
ENDSEC
  0
SECTION
  2
CLASSES
  0
CLASS
  1
ACDBDICTIONARYWDFLT
  2
AcDbDictionaryWithDefault
  3
ObjectDBX Classes
 90
        0
280
     0
281
     0
  0
CLASS
  1
VISUALSTYLE
  2
AcDbVisualStyle
  3
ObjectDBX Classes
 90
     4095
280
     0
281
     0
  0
CLASS
  1
MATERIAL
  2
AcDbMaterial
  3
ObjectDBX Classes
 90
     1153
280
     0
281
     0
  0
CLASS
  1
SCALE
  2
AcDbScale
  3
ObjectDBX Classes
 90
     1153
280
     0
281
     0
  0
CLASS
  1
TABLESTYLE
  2
AcDbTableStyle
  3
ObjectDBX Classes
 90
     4095
280
     0
281
     0
  0
CLASS
  1
MLEADERSTYLE
  2
AcDbMLeaderStyle
  3
ACDB_MLEADERSTYLE_CLASS
 90
     4095
280
     0
281
     0
  0
CLASS
  1
SUN
  2
AcDbSun
  3
SCENEOE
 90
     1153
280
     0
281
     0
  0
CLASS
  1
ACDBPLACEHOLDER
  2
AcDbPlaceHolder
  3
ObjectDBX Classes
 90
        0
280
     0
281
     0
  0
CLASS
  1
LAYOUT
  2
AcDbLayout
  3
ObjectDBX Classes
 90
        0
280
     0
281
     0
  0
ENDSEC
  0
SECTION
  2
TABLES
  0
TABLE
  2
VPORT
  5
8
330
0
100
AcDbSymbolTable
 70
     1
  0
VPORT
  5
29
330
8
100
AcDbSymbolTableRecord
100
AcDbViewportTableRecord
  2
*Active
 70
     0
 10
0.0
 20
0.0
 11
1.0
 21
1.0
 12
-92.7499999985
 22
0.0
 13
0.0
 23
0.0
 14
10.0
 24
10.0
 15
10.0
 25
10.0
 16
0.0
 26
0.0
 36
1.0
 17
0.0
 27
0.0
 37
0.0
 40
114.036
 41
1.6592128802
 42
50.0
 43
0.0
 44
0.0
 50
0.0
 51
0.0
 71
     0
 72
   100
 73
     1
 74
     3
 75
     0
 76
     0
 77
     0
 78
     0
281
     0
 65
     1
110
0.0
120
0.0
130
0.0
111
1.0
121
0.0
131
0.0
112
0.0
122
1.0
132
0.0
 79
     0
146
0.0
  0
ENDTAB
  0
TABLE
  2
LTYPE
  5
5
330
0
100
AcDbSymbolTable
 70
     6
  0
LTYPE
  5
14
330
5
100
AcDbSymbolTableRecord
100
AcDbLinetypeTableRecord
  2
ByBlock
 70
     0
  3

 72
    65
 73
     0
 40
0.0
  0
LTYPE
  5
15
330
5
100
AcDbSymbolTableRecord
100
AcDbLinetypeTableRecord
  2
ByLayer
 70
     0
  3

 72
    65
 73
     0
 40
0.0
  0
LTYPE
  5
16
330
5
100
AcDbSymbolTableRecord
100
AcDbLinetypeTableRecord
  2
Continuous
 70
     0
  3
Solid line
 72
    65
 73
     0
 40
0.0
  0
LTYPE
  5
6E
330
5
100
AcDbSymbolTableRecord
100
AcDbLinetypeTableRecord
  2
HIDDEN
 70
     0
  3
Hidden __ __ __ __ __ __ __ __ __ __ __ __ __ __
 72
    65
 73
     2
 40
1.905
 49
1.27
 74
     0
 49
-0.635
 74
     0
  0
LTYPE
  5
6F
330
5
100
AcDbSymbolTableRecord
100
AcDbLinetypeTableRecord
  2
PHANTOM
 70
     0
  3
Phantom ______  __  __  ______  __  __  ______
 72
    65
 73
     6
 40
12.7
 49
6.35
 74
     0
 49
-1.27
 74
     0
 49
1.27
 74
     0
 49
-1.27
 74
     0
 49
1.27
 74
     0
 49
-1.27
 74
     0
  0
LTYPE
  5
70
330
5
100
AcDbSymbolTableRecord
100
AcDbLinetypeTableRecord
  2
CENTER
 70
     0
  3
Center ____ _ ____ _ ____ _ ____ _ ____ _ ____
 72
    65
 73
     4
 40
10.16
 49
6.35
 74
     0
 49
-1.27
 74
     0
 49
1.27
 74
     0
 49
-1.27
 74
     0
  0
LTYPE
  5
71
330
5
100
AcDbSymbolTableRecord
100
AcDbLinetypeTableRecord
  2
CENTERX2
 70
     0
  3
Center (2x) ________  __  ________  __  _____
 72
    65
 73
     4
 40
20.32
 49
12.7
 74
     0
 49
-2.54
 74
     0
 49
2.54
 74
     0
 49
-2.54
 74
     0
  0
LTYPE
  5
72
330
5
100
AcDbSymbolTableRecord
100
AcDbLinetypeTableRecord
  2
DOT2
 70
     0
  3
Dot (.5x) ........................................
 72
    65
 73
     2
 40
0.635
 49
0.0
 74
     0
 49
-0.635
 74
     0
  0
ENDTAB
  0
TABLE
  2
LAYER
  5
2
330
0
100
AcDbSymbolTable
 70
     1
  0
LAYER
  5
10
330
2
100
AcDbSymbolTableRecord
100
AcDbLayerTableRecord
  2
0
 70
     0
 62
     7
  6
Continuous
370
    -3
390
F
  0
ENDTAB
  0
TABLE
  2
STYLE
  5
3
330
0
100
AcDbSymbolTable
 70
     1
  0
STYLE
  5
11
330
3
100
AcDbSymbolTableRecord
100
AcDbTextStyleTableRecord
  2
Standard
 70
     0
 40
0.0
 41
1.0
 50
0.0
 71
     0
 42
6.35
  3
txt
  4

  0
ENDTAB
  0
TABLE
  2
VIEW
  5
6
330
0
100
AcDbSymbolTable
 70
     0
  0
ENDTAB
  0
TABLE
  2
UCS
  5
7
330
0
100
AcDbSymbolTable
 70
     0
  0
ENDTAB
  0
TABLE
  2
APPID
  5
9
330
0
100
AcDbSymbolTable
 70
     1
  0
APPID
  5
12
330
9
100
AcDbSymbolTableRecord
100
AcDbRegAppTableRecord
  2
ACAD
 70
     0
  0
ENDTAB
  0
TABLE
  2
DIMSTYLE
  5
A
330
0
100
AcDbSymbolTable
 70
     1
100
AcDbDimStyleTable
  0
DIMSTYLE
105
27
330
A
100
AcDbSymbolTableRecord
100
AcDbDimStyleTableRecord
  2
ISO-25
 70
     0
 41
2.5
 42
0.625
 43
3.75
 44
1.25
 73
     0
 74
     0
 77
     1
 78
     8
140
2.5
141
2.5
143
0.0393700787
147
0.625
171
     3
172
     1
178
     0
271
     2
272
     2
274
     3
278
    44
283
     0
284
     8
340
11
  0
ENDTAB
  0
TABLE
  2
BLOCK_RECORD
  5
1
330
0
100
AcDbSymbolTable
 70
     1
  0
BLOCK_RECORD
  5
1F
330
1
100
AcDbSymbolTableRecord
100
AcDbBlockTableRecord
  2
*Model_Space
340
22
  0
BLOCK_RECORD
  5
1B
330
1
100
AcDbSymbolTableRecord
100
AcDbBlockTableRecord
  2
*Paper_Space
340
1E
  0
BLOCK_RECORD
  5
23
330
1
100
AcDbSymbolTableRecord
100
AcDbBlockTableRecord
  2
*Paper_Space0
340
26
  0
ENDTAB
  0
ENDSEC
  0
SECTION
  2
BLOCKS
  0
BLOCK
  5
20
330
1F
100
AcDbEntity
  8
0
100
AcDbBlockBegin
  2
*Model_Space
 70
     0
 10
0.0
 20
0.0
 30
0.0
  3
*Model_Space
  1

  0
ENDBLK
  5
21
330
1F
100
AcDbEntity
  8
0
100
AcDbBlockEnd
  0
BLOCK
  5
1C
330
1B
100
AcDbEntity
 67
     1
  8
0
100
AcDbBlockBegin
  2
*Paper_Space
 70
     0
 10
0.0
 20
0.0
 30
0.0
  3
*Paper_Space
  1

  0
ENDBLK
  5
1D
330
1B
100
AcDbEntity
 67
     1
  8
0
100
AcDbBlockEnd
  0
BLOCK
  5
24
330
23
100
AcDbEntity
  8
0
100
AcDbBlockBegin
  2
*Paper_Space0
 70
     0
 10
0.0
 20
0.0
 30
0.0
  3
*Paper_Space0
  1

  0
ENDBLK
  5
25
330
23
100
AcDbEntity
  8
0
100
AcDbBlockEnd
  0
ENDSEC
  0
SECTION
  2
ENTITIES
  0
SPLINE
  5
7B
330
1F
100
AcDbEntity
  8
0
  6
Continuous
 62
     7
370
    25
100
AcDbSpline
210
0.0
220
0.0
230
1.0
 70
     8
 71
     3
 72
    23
 73
    19
 74
     0
 42
0.000000001
 43
0.00000001
 40
0.0
 40
0.0
 40
0.0
 40
0.0
 40
0.0701012672867752
 40
0.1365854478716806
 40
0.2005571828561809
 40
0.2619613940970311
 40
0.3213229075280252
 40
0.3788055979172458
 40
0.4353896100504082
 40
0.4914761784555305
 40
0.5475627468606522
 40
0.6049538830231411
 40
0.6635717755235843
 40
0.7244206161942678
 40
0.7880260768672446
 40
0.8546452833448221
 40
0.9251583938538545
 40
1.0
 40
1.0
 40
1.0
 40
1.0
 10
-92.0326086956521
 20
-51.07391304347827
 30
0.0
 10
-92.20671010361953
 20
-51.0705888292668
 30
0.0
 10
-92.54592963134984
 20
-51.06411192372047
 30
0.0
 10
-93.0408774395072
 20
-51.00415902202751
 30
0.0
 10
-93.5093668203062
 20
-50.91519825451215
 30
0.0
 10
-93.94886538236824
 20
-50.7810196773718
 30
0.0
 10
-94.35786489131902
 20
-50.61014323462805
 30
0.0
 10
-94.735790299397
 20
-50.40216575068636
 30
0.0
 10
-95.08277230086462
 20
-50.15980133269787
 30
0.0
 10
-95.39731898585035
 20
-49.88156455422279
 30
0.0
 10
-95.67700244258081
 20
-49.56559048254245
 30
0.0
 10
-95.92130030542184
 20
-49.21399524152214
 30
0.0
 10
-96.13177331898912
 20
-48.82774455084209
 30
0.0
 10
-96.30613133378502
 20
-48.40711414466339
 30
0.0
 10
-96.44115937653747
 20
-47.95154090954082
 30
0.0
 10
-96.53801647166554
 20
-47.46219074012124
 30
0.0
 10
-96.59938325436823
 20
-46.93869703747633
 30
0.0
 10
-96.60553050027676
 20
-46.57771411476726
 30
0.0
 10
-96.60869565217384
 20
-46.39184782608695
 30
0.0
  0
SPLINE
  5
7C
330
1F
100
AcDbEntity
  8
0
  6
Continuous
 62
     7
370
    25
100
AcDbSpline
210
0.0
220
0.0
230
1.0
 70
     8
 71
     3
 72
    15
 73
    11
 74
     0
 42
0.000000001
 43
0.00000001
 40
0.0
 40
0.0
 40
0.0
 40
0.0
 40
0.1123470648628637
 40
0.2339105466968294
 40
0.3599629802518208
 40
0.487878750022896
 40
0.6174802250562049
 40
0.7479585631970159
 40
0.875651880991262
 40
1.0
 40
1.0
 40
1.0
 40
1.0
 10
-88.60869565217384
 20
-50.55217391304348
 30
0.0
 10
-88.733404337313
 20
-50.58944787371421
 30
0.0
 10
-88.99305221288817
 20
-50.66705357288122
 30
0.0
 10
-89.39845214645686
 20
-50.76562557835875
 30
0.0
 10
-89.82531981550834
 20
-50.84968878293083
 30
0.0
 10
-90.26235309516517
 20
-50.93002060863307
 30
0.0
 10
-90.70709850765633
 20
-50.9960521195428
 30
0.0
 10
-91.15416087479234
 20
-51.04096106017338
 30
0.0
 10
-91.596541331804
 20
-51.06961898885658
 30
0.0
 10
-91.88854477140568
 20
-51.07249441321373
 30
0.0
 10
-92.0326086956521
 20
-51.07391304347827
 30
0.0
  0
SPLINE
  5
7E
330
1F
100
AcDbEntity
  8
0
  6
Continuous
 62
     7
370
    25
100
AcDbSpline
210
0.0
220
0.0
230
1.0
 70
     8
 71
     3
 72
    13
 73
     9
 74
     0
 42
0.000000001
 43
0.00000001
 40
0.0
 40
0.0
 40
0.0
 40
0.0
 40
0.2259235523291383
 40
0.4680727775512079
 40
0.5958372622945458
 40
0.7264770915432317
 40
0.8612806110935461
 40
0.9999999999999999
 40
0.9999999999999999
 40
0.9999999999999999
 40
0.9999999999999999
 10
-91.70652173913035
 20
-49.33478260869563
 30
0.0
 10
-91.46893689250646
 20
-49.32880300266454
 30
0.0
 10
-90.97670402029439
 20
-49.31641433944289
 30
0.0
 10
-90.35447240273575
 20
-49.23533459603138
 30
0.0
 10
-89.83614226438874
 20
-49.14426525116409
 30
0.0
 10
-89.43241962436582
 20
-49.05442271137408
 30
0.0
 10
-89.02251155419006
 20
-48.94196090621794
 30
0.0
 10
-88.74794455849575
 20
-48.85642414768752
 30
0.0
 10
-88.60869565217384
 20
-48.81304347826087
 30
0.0
  0
SPLINE
  5
7F
330
1F
100
AcDbEntity
  8
0
  6
Continuous
 62
     7
370
    25
100
AcDbSpline
210
0.0
220
0.0
230
1.0
 70
     8
 71
     3
 72
    23
 73
    19
 74
     0
 42
0.000000001
 43
0.00000001
 40
0.0
 40
0.0
 40
0.0
 40
0.0
 40
0.0737056618126449
 40
0.1434322747460875
 40
0.2094559765643253
 40
0.2727977934820419
 40
0.3332251449224869
 40
0.3922933839865896
 40
0.4495418232483894
 40
0.5062259358842593
 40
0.5630645114504
 40
0.6204113189306114
 40
0.6790966386033587
 40
0.739090614651066
 40
0.8012279654533411
 40
0.8650949048645729
 40
0.930814377581502
 40
0.9999999999999999
 40
0.9999999999999999
 40
0.9999999999999999
 40
0.9999999999999999
 10
-94.34782608695643
 20
-46.72608695652173
 30
0.0
 10
-94.34649139658791
 20
-46.82951570622698
 30
0.0
 10
-94.34389406999283
 20
-47.03078953620869
 30
0.0
 10
-94.30213385846675
 20
-47.32192705846585
 30
0.0
 10
-94.24863941248269
 20
-47.59619339630589
 30
0.0
 10
-94.16344897437456
 20
-47.84909712271239
 30
0.0
 10
-94.0558185455673
 20
-48.08205126497599
 30
0.0
 10
-93.93217857868444
 20
-48.29730659584357
 30
0.0
 10
-93.78650074824502
 20
-48.49194777652046
 30
0.0
 10
-93.62241607960445
 20
-48.66681223264235
 30
0.0
 10
-93.44013011913066
 20
-48.82326112544929
 30
0.0
 10
-93.23632624784811
 20
-48.95516199118307
 30
0.0
 10
-93.01954086706843
 20
-49.07388005146806
 30
0.0
 10
-92.78357872474879
 20
-49.16767017623479
 30
0.0
 10
-92.53422967520014
 20
-49.24539426172627
 30
0.0
 10
-92.26955745410994
 20
-49.29424167589132
 30
0.0
 10
-91.99278255572402
 20
-49.32931661996048
 30
0.0
 10
-91.80356256983264
 20
-49.33292966880056
 30
0.0
 10
-91.70652173913035
 20
-49.33478260869566
 30
0.0
  0
SPLINE
  5
81
330
1F
100
AcDbEntity
  8
0
  6
Continuous
 62
     7
370
    25
100
AcDbSpline
210
0.0
220
0.0
230
1.0
 70
     8
 71
     3
 72
    11
 73
     7
 74
     0
 42
0.000000001
 43
0.00000001
 40
0.0
 40
0.0
 40
0.0
 40
0.0
 40
0.204430957683528
 40
0.4643541328460353
 40
0.7414673829154859
 40
1.0
 40
1.0
 40
1.0
 40
1.0
 10
-88.08695652173904
 20
-45.45163043478261
 30
0.0
 10
-88.08742211983395
 20
-45.53859733643716
 30
0.0
 10
-88.08847970133749
 20
-45.73613806442527
 30
0.0
 10
-88.10104815309289
 20
-46.05130889771721
 30
0.0
 10
-88.11318482745662
 20
-46.38960107282504
 30
0.0
 10
-88.1339832557969
 20
-46.61654914121878
 30
0.0
 10
-88.14402173913035
 20
-46.72608695652173
 30
0.0
  0
SPLINE
  5
82
330
1F
100
AcDbEntity
  8
0
  6
Continuous
 62
     7
370
    25
100
AcDbSpline
210
0.0
220
0.0
230
1.0
 70
     8
 71
     3
 72
    23
 73
    19
 74
     0
 42
0.000000001
 43
0.00000001
 40
0.0
 40
0.0
 40
0.0
 40
0.0
 40
0.073662078448982
 40
0.1436727713530619
 40
0.2102790608105141
 40
0.2739612932622784
 40
0.3357672007181645
 40
0.3950597274479608
 40
0.4529514455330543
 40
0.510288169066679
 40
0.5674740907018139
 40
0.6249344442919089
 40
0.6833861262772079
 40
0.743282633070468
 40
0.8046345334642767
 40
0.8675672431511012
 40
0.9325518511839466
 40
1.0
 40
1.0
 40
1.0
 40
1.0
 10
-92.19021739130429
 20
-41.33478260869565
 30
0.0
 10
-92.02882915586153
 20
-41.33833307370818
 30
0.0
 10
-91.71405260409881
 20
-41.34525800928807
 30
0.0
 10
-91.25595812870304
 20
-41.40199761276995
 30
0.0
 10
-90.82774677434352
 20
-41.50044659129834
 30
0.0
 10
-90.4276482193968
 20
-41.63329157458697
 30
0.0
 10
-90.05930866017638
 20
-41.80258160148962
 30
0.0
 10
-89.71821076287861
 20
-41.99744467126094
 30
0.0
 10
-89.41219950449775
 20
-42.22821267902518
 30
0.0
 10
-89.13676213909083
 20
-42.48756900901402
 30
0.0
 10
-88.8906703412104
 20
-42.77380854329117
 30
0.0
 10
-88.67742795645606
 20
-43.08839591868347
 30
0.0
 10
-88.49870233078721
 20
-43.43027162952325
 30
0.0
 10
-88.3487850630128
 20
-43.79483618425287
 30
0.0
 10
-88.23234699249593
 20
-44.18180102280618
 30
0.0
 10
-88.14883944360524
 20
-44.58827746267016
 30
0.0
 10
-88.09511646564505
 20
-45.01359980259473
 30
0.0
 10
-88.08971002692792
 20
-45.30382064190864
 30
0.0
 10
-88.08695652173904
 20
-45.45163043478261
 30
0.0
  0
SPLINE
  5
83
330
1F
100
AcDbEntity
  8
0
  6
Continuous
 62
     7
370
    25
100
AcDbSpline
210
0.0
220
0.0
230
1.0
 70
     8
 71
     3
 72
    23
 73
    19
 74
     0
 42
0.000000001
 43
0.00000001
 40
0.0
 40
0.0
 40
0.0
 40
0.0
 40
0.0737521347577408
 40
0.1443105494841632
 40
0.2120763052229832
 40
0.2778624556535112
 40
0.3414959106408952
 40
0.4032434714941923
 40
0.4625093219833755
 40
0.5211964633215012
 40
0.5789241135257001
 40
0.6361490460277615
 40
0.6934902080659315
 40
0.7518603789827984
 40
0.8114926588317866
 40
0.8723630071922176
 40
0.9348566540266889
 40
1.0
 40
1.0
 40
1.0
 40
1.0
 10
-96.60869565217384
 20
-46.39184782608695
 30
0.0
 10
-96.60546320795227
 20
-46.20598556122687
 30
0.0
 10
-96.59913829541483
 20
-45.84230950414143
 30
0.0
 10
-96.53737921165056
 20
-45.31079208859089
 30
0.0
 10
-96.4400874580667
 20
-44.80546819352423
 30
0.0
 10
-96.3055033236433
 20
-44.3265025288641
 30
0.0
 10
-96.13021707804562
 20
-43.87724397649677
 30
0.0
 10
-95.92543127388359
 20
-43.45892593748109
 30
0.0
 10
-95.68667416604548
 20
-43.07326817765439
 30
0.0
 10
-95.41457165455597
 20
-42.72340081128506
 30
0.0
 10
-95.11348602509861
 20
-42.40457798238234
 30
0.0
 10
-94.775294787457
 20
-42.13110453916939
 30
0.0
 10
-94.4129495086653
 20
-41.88761272690709
 30
0.0
 10
-94.01606774493604
 20
-41.69146086554874
 30
0.0
 10
-93.5949657471685
 20
-41.52878166125529
 30
0.0
 10
-93.14696833419872
 20
-41.41617445194925
 30
0.0
 10
-92.67615350070585
 20
-41.34588749852363
 30
0.0
 10
-92.35442243573888
 20
-41.33853511626273
 30
0.0
 10
-92.19021739130429
 20
-41.33478260869565
 30
0.0
  0
SPLINE
  5
84
330
1F
100
AcDbEntity
  8
0
  6
Continuous
 62
     7
370
    25
100
AcDbSpline
210
0.0
220
0.0
230
1.0
 70
     8
 71
     3
 72
    23
 73
    19
 74
     0
 42
0.000000001
 43
0.00000001
 40
0.0
 40
0.0
 40
0.0
 40
0.0
 40
0.0621488760010933
 40
0.1213686216381386
 40
0.1770939347513213
 40
0.2306416302416371
 40
0.2828391665319697
 40
0.3345788208498397
 40
0.3867763571401734
 40
0.4408678775506423
 40
0.4971836121555512
 40
0.5558218870491384
 40
0.6188867506095383
 40
0.6853215771142809
 40
0.7570274203223837
 40
0.8328400904074428
 40
0.9137424113446916
 40
1.0
 40
1.0
 40
1.0
 40
1.0
 10
-69.203804347826
 20
-41.33478260869565
 30
0.0
 10
-69.12219146370059
 20
-41.33686224188694
 30
0.0
 10
-68.96281218137793
 20
-41.34092349335566
 30
0.0
 10
-68.73177692225222
 20
-41.37261780353391
 30
0.0
 10
-68.51772133960965
 20
-41.43048303361181
 30
0.0
 10
-68.32025464124425
 20
-41.50920554374927
 30
0.0
 10
-68.13956060685722
 20
-41.61076507476319
 30
0.0
 10
-67.97393097693684
 20
-41.73297703924489
 30
0.0
 10
-67.82987860611551
 20
-41.88328717711813
 30
0.0
 10
-67.69836368040686
 20
-42.05196848637033
 30
0.0
 10
-67.58486949698973
 20
-42.24335975903065
 30
0.0
 10
-67.48628992771737
 20
-42.45562883379109
 30
0.0
 10
-67.40279422505014
 20
-42.68848653099982
 30
0.0
 10
-67.33524241962145
 20
-42.94413840476128
 30
0.0
 10
-67.2812356960375
 20
-43.22002183610034
 30
0.0
 10
-67.24358968232114
 20
-43.51777907218858
 30
0.0
 10
-67.22245374743267
 20
-43.8362844523538
 30
0.0
 10
-67.21911444555239
 20
-44.05576548724767
 30
0.0
 10
-67.21739130434773
 20
-44.16902173913043
 30
0.0
  0
SPLINE
  5
85
330
1F
100
AcDbEntity
  8
0
  6
Continuous
 62
     7
370
    25
100
AcDbSpline
210
0.0
220
0.0
230
1.0
 70
     8
 71
     3
 72
    15
 73
    11
 74
     0
 42
0.000000001
 43
0.00000001
 40
0.0
 40
0.0
 40
0.0
 40
0.0
 40
0.165351142130575
 40
0.3105945466390024
 40
0.4398794761829274
 40
0.5571359643703656
 40
0.6657161467891416
 40
0.7714693152055303
 40
0.8817643632924904
 40
1.0
 40
1.0
 40
1.0
 40
1.0
 10
-71.1929347826086
 20
-42.87554347826087
 30
0.0
 10
-71.12110072092464
 20
-42.74694433550794
 30
0.0
 10
-70.98616807072045
 20
-42.50538451362311
 30
0.0
 10
-70.77205079309924
 20
-42.17649390610003
 30
0.0
 10
-70.55008732752981
 20
-41.90630073678771
 30
0.0
 10
-70.3215042727788
 20
-41.68607418544295
 30
0.0
 10
-70.07464285730977
 20
-41.52047209244409
 30
0.0
 10
-69.80579617816036
 20
-41.40943840835783
 30
0.0
 10
-69.51285795538973
 20
-41.34695681986586
 30
0.0
 10
-69.30918121922683
 20
-41.33893360468306
 30
0.0
 10
-69.203804347826
 20
-41.33478260869565
 30
0.0
  0
SPLINE
  5
86
330
1F
100
AcDbEntity
  8
0
  6
Continuous
 62
     7
370
    25
100
AcDbSpline
210
0.0
220
0.0
230
1.0
 70
     8
 71
     3
 72
    15
 73
    11
 74
     0
 42
0.000000001
 43
0.00000001
 40
0.0
 40
0.0
 40
0.0
 40
0.0
 40
0.1449061733878277
 40
0.2747935572618782
 40
0.3931331869178348
 40
0.5075450454514638
 40
0.6209549722250026
 40
0.7383262040698231
 40
0.8636837387364612
 40
1.0
 40
1.0
 40
1.0
 40
1.0
 10
-72.84239130434774
 20
-41.33478260869565
 30
0.0
 10
-72.71967988324178
 20
-41.33871672742358
 30
0.0
 10
-72.48697545710172
 20
-41.34617721343783
 30
0.0
 10
-72.16067557550214
 20
-41.42195429956576
 30
0.0
 10
-71.87996333566507
 20
-41.55132467135561
 30
0.0
 10
-71.64784425378183
 20
-41.73417606250601
 30
0.0
 10
-71.46274809341816
 20
-41.96269181417981
 30
0.0
 10
-71.32261009687141
 20
-42.23135011270853
 30
0.0
 10
-71.23013686717465
 20
-42.54052193096537
 30
0.0
 10
-71.20567693278949
 20
-42.76079466998143
 30
0.0
 10
-71.1929347826086
 20
-42.87554347826087
 30
0.0
  0
SPLINE
  5
87
330
1F
100
AcDbEntity
  8
0
  6
Continuous
 62
     7
370
    25
100
AcDbSpline
210
0.0
220
0.0
230
1.0
 70
     8
 71
     3
 72
    15
 73
    11
 74
     0
 42
0.000000001
 43
0.00000001
 40
0.0
 40
0.0
 40
0.0
 40
0.0
 40
0.1650079409451536
 40
0.3102169225915022
 40
0.4393637020985801
 40
0.5573528786546256
 40
0.6662802563652374
 40
0.7711853694401064
 40
0.8805456249961496
 40
0.9999999999999999
 40
0.9999999999999999
 40
0.9999999999999999
 40
0.9999999999999999
 10
-74.75815217391295
 20
-42.87554347826087
 30
0.0
 10
-74.69293688988537
 20
-42.74685496657713
 30
0.0
 10
-74.57033136798694
 20
-42.50491900980592
 30
0.0
 10
-74.36944630729157
 20
-42.17684632505238
 30
0.0
 10
-74.15879550788229
 20
-41.9051655209848
 30
0.0
 10
-73.93562166204268
 20
-41.68645420563415
 30
0.0
 10
-73.6950342601832
 20
-41.52133450907576
 30
0.0
 10
-73.43380605045361
 20
-41.40934406769344
 30
0.0
 10
-73.14701722395422
 20
-41.3465552533668
 30
0.0
 10
-72.94687633820158
 20
-41.33882056179761
 30
0.0
 10
-72.84239130434774
 20
-41.33478260869565
 30
0.0
  0
SPLINE
  5
8D
330
1F
100
AcDbEntity
  8
0
  6
Continuous
 62
     7
370
    25
100
AcDbSpline
210
0.0
220
0.0
230
1.0
 70
     8
 71
     3
 72
    15
 73
    11
 74
     0
 42
0.000000001
 43
0.00000001
 40
0.0
 40
0.0
 40
0.0
 40
0.0
 40
0.0576834045157619
 40
0.1269075983173519
 40
0.2123994090526661
 40
0.3158832366263746
 40
0.4420873496152658
 40
0.5978795035579615
 40
0.7840879551850399
 40
1.0
 40
1.0
 40
1.0
 40
1.0
 10
-73.3342391304347
 20
-43.07391304347827
 30
0.0
 10
-73.37585743788141
 20
-43.07945537563225
 30
0.0
 10
-73.46742067844315
 20
-43.09164890111232
 30
0.0
 10
-73.59982752375286
 20
-43.17548370507662
 30
0.0
 10
-73.73802755053066
 20
-43.29970674223719
 30
0.0
 10
-73.88346838650969
 20
-43.47555618435761
 30
0.0
 10
-74.03308318259921
 20
-43.70995579340079
 30
0.0
 10
-74.1934386799142
 20
-44.00720935639978
 30
0.0
 10
-74.35563870587423
 20
-44.37537257688152
 30
0.0
 10
-74.46371130840683
 20
-44.64422892405695
 30
0.0
 10
-74.5217391304347
 20
-44.78858695652174
 30
0.0
  0
SPLINE
  5
8E
330
1F
100
AcDbEntity
  8
0
  6
Continuous
 62
     7
370
    25
100
AcDbSpline
210
0.0
220
0.0
230
1.0
 70
     8
 71
     3
 72
    15
 73
    11
 74
     0
 42
0.000000001
 43
0.00000001
 40
0.0
 40
0.0
 40
0.0
 40
0.0
 40
0.1960221186875664
 40
0.3648981591873554
 40
0.5087784003311769
 40
0.6291926174133249
 40
0.7291849517216044
 40
0.8156391678848038
 40
0.9011629349148985
 40
0.9999999999999999
 40
0.9999999999999999
 40
0.9999999999999999
 40
0.9999999999999999
 10
-72.78260869565207
 20
-44.48423913043477
 30
0.0
 10
-72.78379788854332
 20
-44.37371271371596
 30
0.0
 10
-72.78601158922076
 20
-44.1679661057704
 30
0.0
 10
-72.79811972358748
 20
-43.88137097432109
 30
0.0
 10
-72.82227991879205
 20
-43.63784311438415
 30
0.0
 10
-72.86685493002773
 20
-43.43719443463895
 30
0.0
 10
-72.93074016749839
 20
-43.27390318801001
 30
0.0
 10
-73.0349132203023
 20
-43.15749558504817
 30
0.0
 10
-73.17286102472434
 20
-43.08202071485918
 30
0.0
 10
-73.277917602291
 20
-43.07674264938949
 30
0.0
 10
-73.3342391304347
 20
-43.07391304347827
 30
0.0
  0
SPLINE
  5
92
330
1F
100
AcDbEntity
  8
0
  6
Continuous
 62
     7
370
    25
100
AcDbSpline
210
0.0
220
0.0
230
1.0
 70
     8
 71
     3
 72
    15
 73
    11
 74
     0
 42
0.000000001
 43
0.00000001
 40
0.0
 40
0.0
 40
0.0
 40
0.0
 40
0.0657982990531637
 40
0.1388514526965084
 40
0.2245920933235534
 40
0.3264424676575805
 40
0.4502795216563648
 40
0.6030690736517069
 40
0.7867618027369732
 40
1.0
 40
1.0
 40
1.0
 40
1.0
 10
-69.67663043478252
 20
-43.07391304347826
 30
0.0
 10
-69.72459710053754
 20
-43.07905342870638
 30
0.0
 10
-69.82581918859957
 20
-43.08990097289238
 30
0.0
 10
-69.97084926510234
 20
-43.1725289280865
 30
0.0
 10
-70.11265817068059
 20
-43.29849560296596
 30
0.0
 10
-70.25547624031151
 20
-43.47532413032888
 30
0.0
 10
-70.3998477667178
 20
-43.7097979187097
 30
0.0
 10
-70.55107511980532
 20
-44.00840087384561
 30
0.0
 10
-70.7088605369728
 20
-44.37545231070321
 30
0.0
 10
-70.81340312229645
 20
-44.64420717116019
 30
0.0
 10
-70.86956521739121
 20
-44.78858695652174
 30
0.0
  0
SPLINE
  5
93
330
1F
100
AcDbEntity
  8
0
  6
Continuous
 62
     7
370
    25
100
AcDbSpline
210
0.0
220
0.0
230
1.0
 70
     8
 71
     3
 72
    15
 73
    11
 74
     0
 42
0.000000001
 43
0.00000001
 40
0.0
 40
0.0
 40
0.0
 40
0.0
 40
0.1965097237629554
 40
0.365805843461004
 40
0.5100439867451537
 40
0.6307577342261721
 40
0.7309987994941778
 40
0.8165990609482431
 40
0.9009170776876819
 40
0.9999999999999999
 40
0.9999999999999999
 40
0.9999999999999999
 40
0.9999999999999999
 10
-69.1304347826086
 20
-44.48423913043477
 30
0.0
 10
-69.13162644409728
 20
-44.37371469983152
 30
0.0
 10
-69.13384474010644
 20
-44.16797178907032
 30
0.0
 10
-69.14592349999468
 20
-43.88135302431895
 30
0.0
 10
-69.17017152514413
 20
-43.63789582815978
 30
0.0
 10
-69.21449355223429
 20
-43.43704360945682
 30
0.0
 10
-69.2788817471624
 20
-43.27490307811276
 30
0.0
 10
-69.37961514654539
 20
-43.15761114393558
 30
0.0
 10
-69.5159492474713
 20
-43.0815717075615
 30
0.0
 10
-69.62027053683109
 20
-43.07659936621085
 30
0.0
 10
-69.67663043478252
 20
-43.07391304347826
 30
0.0
  0
SPLINE
  5
97
330
1F
100
AcDbEntity
  8
0
  6
Continuous
 62
     7
370
    25
100
AcDbSpline
210
0.0
220
0.0
230
1.0
 70
     8
 71
     3
 72
    15
 73
    11
 74
     0
 42
0.000000001
 43
0.00000001
 40
0.0
 40
0.0
 40
0.0
 40
0.0
 40
0.0949890024966851
 40
0.1932653151253328
 40
0.2970505381270751
 40
0.4076995516625394
 40
0.5304179404897981
 40
0.6704972625015269
 40
0.8266102219053374
 40
1.0
 40
1.0
 40
1.0
 40
1.0
 10
-49.92391304347821
 20
-45.13097826086957
 30
0.0
 10
-49.85135002540034
 20
-45.15000300704838
 30
0.0
 10
-49.70371278122829
 20
-45.18871089394877
 30
0.0
 10
-49.49597727032604
 20
-45.30001724656934
 30
0.0
 10
-49.29618168418934
 20
-45.44480564420378
 30
0.0
 10
-49.10614600734195
 20
-45.63157136220783
 30
0.0
 10
-48.92340679403689
 20
-45.86246873092753
 30
0.0
 10
-48.73947787887452
 20
-46.13660532632896
 30
0.0
 10
-48.55798436217787
 20
-46.45912702958243
 30
0.0
 10
-48.44521215936309
 20
-46.69279888373664
 30
0.0
 10
-48.38586956521731
 20
-46.81576086956522
 30
0.0
  0
SPLINE
  5
98
330
1F
100
AcDbEntity
  8
0
  6
Continuous
 62
     7
370
    25
100
AcDbSpline
210
0.0
220
0.0
230
1.0
 70
     8
 71
     3
 72
    23
 73
    19
 74
     0
 42
0.000000001
 43
0.00000001
 40
0.0
 40
0.0
 40
0.0
 40
0.0
 40
0.0722093732310859
 40
0.1405837577605766
 40
0.2063967279022245
 40
0.2695745698510333
 40
0.3305567760729896
 40
0.3905204449558898
 40
0.4495929692394997
 40
0.508948015903135
 40
0.5678884479870998
 40
0.6268385553903435
 40
0.6872318504060227
 40
0.7481766365756378
 40
0.8097915067055533
 40
0.872188186528385
 40
0.9353028069664705
 40
1.0
 40
1.0
 40
1.0
 40
1.0
 10
-47.21739130434775
 20
-42.17989130434783
 30
0.0
 10
-47.220099799648
 20
-42.28598007805385
 30
0.0
 10
-47.22537294398022
 20
-42.49252332578535
 30
0.0
 10
-47.26350674027338
 20
-42.79391291063443
 30
0.0
 10
-47.32853309949719
 20
-43.07693610331779
 30
0.0
 10
-47.41849415891686
 20
-43.34162459517944
 30
0.0
 10
-47.53076670059486
 20
-43.5881460643098
 30
0.0
 10
-47.66359345769838
 20
-43.81740441863466
 30
0.0
 10
-47.82018488379916
 20
-44.02818169123388
 30
0.0
 10
-47.99654096492964
 20
-44.22060729330313
 30
0.0
 10
-48.19090835084924
 20
-44.39431749704322
 30
0.0
 10
-48.39873863453717
 20
-44.55416079323995
 30
0.0
 10
-48.62376661676603
 20
-44.69468586482446
 30
0.0
 10
-48.86381702637813
 20
-44.81601524303299
 30
0.0
 10
-49.11377460358551
 20
-44.92324858041513
 30
0.0
 10
-49.37529801770922
 20
-45.00867365530129
 30
0.0
 10
-49.64545436443962
 20
-45.08098784573492
 30
0.0
 10
-49.8303304353879
 20
-45.11417780256109
 30
0.0
 10
-49.92391304347819
 20
-45.13097826086956
 30
0.0
  0
SPLINE
  5
99
330
1F
100
AcDbEntity
  8
0
  6
Continuous
 62
     7
370
    25
100
AcDbSpline
210
0.0
220
0.0
230
1.0
 70
     8
 71
     3
 72
    23
 73
    19
 74
     0
 42
0.000000001
 43
0.00000001
 40
0.0
 40
0.0
 40
0.0
 40
0.0
 40
0.0784024201363456
 40
0.1530602660002706
 40
0.2242148233809561
 40
0.2919752154198928
 40
0.3567375811824186
 40
0.4181617610640003
 40
0.4765469029968485
 40
0.5327549880892194
 40
0.5874528562861843
 40
0.64105114042527
 40
0.6948032021337374
 40
0.749612861216251
 40
0.806397134662514
 40
0.8661544589602069
 40
0.9305952504282653
 40
1.0
 40
1.0
 40
1.0
 40
1.0
 10
-51.65760869565212
 20
-38.90000000000001
 30
0.0
 10
-51.49272324263854
 20
-38.90233608764181
 30
0.0
 10
-51.1708274229184
 20
-38.90689668915424
 30
0.0
 10
-50.69979772697947
 20
-38.93513508175505
 30
0.0
 10
-50.25390018520714
 20
-38.99100010301314
 30
0.0
 10
-49.83128208311683
 20
-39.06227561585215
 30
0.0
 10
-49.43459506486783
 20
-39.15899462154367
 30
0.0
 10
-49.06586010414113
 20
-39.28238542520165
 30
0.0
 10
-48.72936910089648
 20
-39.43855327433497
 30
0.0
 10
-48.42311493166923
 20
-39.62125365139525
 30
0.0
 10
-48.14590617982179
 20
-39.82984111711502
 30
0.0
 10
-47.90452982042079
 20
-40.07206059601362
 30
0.0
 10
-47.69672212178489
 20
-40.34353150782901
 30
0.0
 10
-47.52041118400048
 20
-40.64451079683678
 30
0.0
 10
-47.38463746283433
 20
-40.97964696157815
 30
0.0
 10
-47.28720764769776
 20
-41.34836943669457
 30
0.0
 10
-47.2265277196506
 20
-41.75216215939373
 30
0.0
 10
-47.22051115531656
 20
-42.03383279638333
 30
0.0
 10
-47.21739130434775
 20
-42.17989130434783
 30
0.0
  0
SPLINE
  5
9F
330
1F
100
AcDbEntity
  8
0
  6
Continuous
 62
     7
370
    25
100
AcDbSpline
210
0.0
220
0.0
230
1.0
 70
     8
 71
     3
 72
    15
 73
    11
 74
     0
 42
0.000000001
 43
0.00000001
 40
0.0
 40
0.0
 40
0.0
 40
0.0
 40
0.1349224813054472
 40
0.2621801923356811
 40
0.3838819073148
 40
0.5030673861850634
 40
0.6224613225453784
 40
0.7431370827396683
 40
0.8688094636906939
 40
1.0
 40
1.0
 40
1.0
 40
1.0
 10
-50.80706521739123
 20
-46.98423913043479
 30
0.0
 10
-50.84786748561456
 20
-46.89491237554571
 30
0.0
 10
-50.92715409839418
 20
-46.72133340226461
 30
0.0
 10
-51.08762973240946
 20
-46.49147022275066
 30
0.0
 10
-51.27070930896529
 20
-46.29507139248295
 30
0.0
 10
-51.48042546483514
 20
-46.13642811450593
 30
0.0
 10
-51.71000815121983
 20
-46.0103840890985
 30
0.0
 10
-51.96078294783593
 20
-45.91910764284935
 30
0.0
 10
-52.23166687583738
 20
-45.86843933724763
 30
0.0
 10
-52.41827728657514
 20
-45.8605507616121
 30
0.0
 10
-52.51358695652167
 20
-45.85652173913045
 30
0.0
  0
SPLINE
  5
A3
330
1F
100
AcDbEntity
  8
0
  6
Continuous
 62
     7
370
    25
100
AcDbSpline
210
0.0
220
0.0
230
1.0
 70
     8
 71
     3
 72
    23
 73
    19
 74
     0
 42
0.000000001
 43
0.00000001
 40
0.0
 40
0.0
 40
0.0
 40
0.0
 40
0.0705182761534047
 40
0.136693368084465
 40
0.199581093292001
 40
0.2595026589811966
 40
0.3173580042696638
 40
0.3741560591012003
 40
0.4296287469229975
 40
0.4861057550670708
 40
0.5431380955479115
 40
0.6009174377679224
 40
0.6612849351954451
 40
0.7236111516152922
 40
0.7883673880728198
 40
0.8559741441438721
 40
0.9261995797785151
 40
1.0
 40
1.0
 40
1.0
 40
1.0
 10
-9.203804347826
 20
-41.33478260869563
 30
0.0
 10
-9.087661762435307
 20
-41.33664203468263
 30
0.0
 10
-8.862529753528053
 20
-41.34024636557006
 30
0.0
 10
-8.537123382327428
 20
-41.38944530599914
 30
0.0
 10
-8.23370190685782
 20
-41.46003522090644
 30
0.0
 10
-7.955075086837502
 20
-41.56561944739552
 30
0.0
 10
-7.696810743033828
 20
-41.69266111027382
 30
0.0
 10
-7.463326630485684
 20
-41.84841379417569
 30
0.0
 10
-7.250328544711679
 20
-42.02743580647923
 30
0.0
 10
-7.060632619332333
 20
-42.23169291760653
 30
0.0
 10
-6.892494223781299
 20
-42.45835063715012
 30
0.0
 10
-6.742250730667545
 20
-42.7051229632502
 30
0.0
 10
-6.622783351202699
 20
-42.97768790951642
 30
0.0
 10
-6.521653482528034
 20
-43.26935566667984
 30
0.0
 10
-6.443428755340014
 20
-43.5803969159828
 30
0.0
 10
-6.386301087479687
 20
-43.9090945904167
 30
0.0
 10
-6.353840920822404
 20
-44.25622515657794
 30
0.0
 10
-6.349863936911296
 20
-44.49323002972794
 30
0.0
 10
-6.347826086956443
 20
-44.61467391304347
 30
0.0
  0
SPLINE
  5
A4
330
1F
100
AcDbEntity
  8
0
  6
Continuous
 62
     7
370
    25
100
AcDbSpline
210
0.0
220
0.0
230
1.0
 70
     8
 71
     3
 72
    15
 73
    11
 74
     0
 42
0.000000001
 43
0.00000001
 40
0.0
 40
0.0
 40
0.0
 40
0.0
 40
0.1280561102081301
 40
0.2519017642471787
 40
0.3723314493936805
 40
0.4909531738412261
 40
0.6098502872949062
 40
0.7310011526075303
 40
0.8590477149398471
 40
1.0
 40
1.0
 40
1.0
 40
1.0
 10
-12.16032608695644
 20
-42.8945652173913
 30
0.0
 10
-12.06477484366321
 20
-42.78104287264759
 30
0.0
 10
-11.87681406051544
 20
-42.55773077238201
 30
0.0
 10
-11.57550171339507
 20
-42.24830762249727
 30
0.0
 10
-11.25406728362369
 20
-41.97605466223774
 30
0.0
 10
-10.90643514695021
 20
-41.74777186639718
 30
0.0
 10
-10.53068456965134
 20
-41.56764983088019
 30
0.0
 10
-10.12534406709614
 20
-41.43185350626085
 30
0.0
 10
-9.679138591239756
 20
-41.3480721777437
 30
0.0
 10
-9.36723711449669
 20
-41.33935192190521
 30
0.0
 10
-9.203804347826
 20
-41.33478260869563
 30
0.0
  0
SPLINE
  5
AA
330
1F
100
AcDbEntity
  8
0
  6
Continuous
 62
     7
370
    25
100
AcDbSpline
210
0.0
220
0.0
230
1.0
 70
     8
 71
     3
 72
    15
 73
    11
 74
     0
 42
0.000000001
 43
0.00000001
 40
0.0
 40
0.0
 40
0.0
 40
0.0
 40
0.0981830142417181
 40
0.1974172635802614
 40
0.3043052351746368
 40
0.4191938411227006
 40
0.5458825791875923
 40
0.6840532821475748
 40
0.8356400530297313
 40
0.9999999999999999
 40
0.9999999999999999
 40
0.9999999999999999
 40
0.9999999999999999
 10
-9.741847826086877
 20
-43.24782608695651
 30
0.0
 10
-9.835739875482515
 20
-43.25404234780271
 30
0.0
 10
-10.0245292664661
 20
-43.26654142633918
 30
0.0
 10
-10.304412222012
 20
-43.35587039276319
 30
0.0
 10
-10.57349193107621
 20
-43.50609408720566
 30
0.0
 10
-10.83659605675033
 20
-43.71208889040843
 30
0.0
 10
-11.09331603731306
 20
-43.96902939789913
 30
0.0
 10
-11.36580943918963
 20
-44.25931755527286
 30
0.0
 10
-11.63696768503157
 20
-44.59857615222081
 30
0.0
 10
-11.81857091300567
 20
-44.83975351785354
 30
0.0
 10
-11.91304347826079
 20
-44.96521739130434
 30
0.0
  0
SPLINE
  5
AB
330
1F
100
AcDbEntity
  8
0
  6
Continuous
 62
     7
370
    25
100
AcDbSpline
210
0.0
220
0.0
230
1.0
 70
     8
 71
     3
 72
    15
 73
    11
 74
     0
 42
0.000000001
 43
0.00000001
 40
0.0
 40
0.0
 40
0.0
 40
0.0
 40
0.1662922305879697
 40
0.3118265565075227
 40
0.4409393914167891
 40
0.5544580718190314
 40
0.6613201087287234
 40
0.7673326258390606
 40
0.8771233263895736
 40
1.0
 40
1.0
 40
1.0
 40
1.0
 10
-8.608695652173843
 20
-44.78858695652173
 30
0.0
 10
-8.612390848567076
 20
-44.66794496767542
 30
0.0
 10
-8.61931997786465
 20
-44.44172047228471
 30
0.0
 10
-8.668578214935302
 20
-44.1243773164601
 30
0.0
 10
-8.75691512053385
 20
-43.85566136757598
 30
0.0
 10
-8.87998315891861
 20
-43.63153924275956
 30
0.0
 10
-9.045026252473498
 20
-43.45809525858032
 30
0.0
 10
-9.245324022077256
 20
-43.33218660465155
 30
0.0
 10
-9.483552759300476
 20
-43.26033950123355
 30
0.0
 10
-9.652580578285551
 20
-43.25215074583215
 30
0.0
 10
-9.741847826086877
 20
-43.24782608695651
 30
0.0
  0
SPLINE
  5
AF
330
1F
100
AcDbEntity
  8
0
  6
Continuous
 62
     7
370
    25
100
AcDbSpline
210
0.0
220
0.0
230
1.0
 70
     8
 71
     3
 72
    19
 73
    15
 74
     0
 42
0.000000001
 43
0.00000001
 40
0.0
 40
0.0
 40
0.0
 40
0.0
 40
0.1438055027417256
 40
0.2714622640456983
 40
0.3858754521498864
 40
0.4927825372400338
 40
0.5457001849495586
 40
0.5994453367623567
 40
0.6558984801706929
 40
0.7152904315495509
 40
0.779215454941372
 40
0.8478030335948779
 40
0.9210432800858642
 40
1.0
 40
1.0
 40
1.0
 40
1.0
 10
-105.2536231884058
 20
25.66983695652172
 30
0.0
 10
-105.2496941505459
 20
25.56393984291975
 30
0.0
 10
-105.2422772889331
 20
25.36403740757326
 30
0.0
 10
-105.1882066493451
 20
25.08323713354327
 30
0.0
 10
-105.0889172284313
 20
24.84452828282205
 30
0.0
 10
-104.9760049695621
 20
24.67504016102925
 30
0.0
 10
-104.863809809002
 20
24.56358792188234
 30
0.0
 10
-104.7633413692255
 20
24.49716189085538
 30
0.0
 10
-104.655543130936
 20
24.43346629521764
 30
0.0
 10
-104.5307269869623
 20
24.38805272767723
 30
0.0
 10
-104.3950715779308
 20
24.34762901116084
 30
0.0
 10
-104.2448059423454
 20
24.32624616559309
 30
0.0
 10
-104.0834593161226
 20
24.30505218370893
 30
0.0
 10
-103.9712535626132
 20
24.30458841825904
 30
0.0
 10
-103.9130434782609
 20
24.30434782608695
 30
0.0
  0
SPLINE
  5
BB
330
1F
100
AcDbEntity
  8
0
  6
Continuous
 62
     7
370
    25
100
AcDbSpline
210
0.0
220
0.0
230
1.0
 70
     8
 71
     3
 72
    23
 73
    19
 74
     0
 42
0.000000001
 43
0.00000001
 40
0.0
 40
0.0
 40
0.0
 40
0.0
 40
0.079875581436355
 40
0.1546535496358922
 40
0.2240793358378403
 40
0.2885976264337519
 40
0.3491714851877626
 40
0.4065865476031176
 40
0.4617874604962431
 40
0.5151131586360503
 40
0.5681228899796664
 40
0.6214283322982314
 40
0.6758145884942055
 40
0.7327616853230533
 40
0.792786308525053
 40
0.857547781524622
 40
0.9259865571317903
 40
1.0
 40
1.0
 40
1.0
 40
1.0
 10
-104.1961050724638
 20
22.8550724637681
 30
0.0
 10
-104.3192306249568
 20
22.85624088635392
 30
0.0
 10
-104.5576239286612
 20
22.85850316347443
 30
0.0
 10
-104.9015989719069
 20
22.8919414729524
 30
0.0
 10
-105.2198756737678
 20
22.93973764229193
 30
0.0
 10
-105.5115750247586
 20
23.01017784996155
 30
0.0
 10
-105.7787597113795
 20
23.0995519182253
 30
0.0
 10
-106.0204188870869
 20
23.21406033003387
 30
0.0
 10
-106.2393670887646
 20
23.34719796341847
 30
0.0
 10
-106.4343008111972
 20
23.5030267401238
 30
0.0
 10
-106.6059179856093
 20
23.68039721341736
 30
0.0
 10
-106.7506846899194
 20
23.88209959634979
 30
0.0
 10
-106.8753673501781
 20
24.10377653490387
 30
0.0
 10
-106.9714606401363
 20
24.35049271348037
 30
0.0
 10
-107.0461352643534
 20
24.62074308229756
 30
0.0
 10
-107.0995599374821
 20
24.91400026091779
 30
0.0
 10
-107.1312694747988
 20
25.23209573803434
 30
0.0
 10
-107.1354888909077
 20
25.45161524352471
 30
0.0
 10
-107.1376811594203
 20
25.56567028985506
 30
0.0
  0
SPLINE
  5
BC
330
1F
100
AcDbEntity
  8
0
  6
Continuous
 62
     7
370
    25
100
AcDbSpline
210
0.0
220
0.0
230
1.0
 70
     8
 71
     3
 72
    11
 73
     7
 74
     0
 42
0.000000001
 43
0.00000001
 40
0.0
 40
0.0
 40
0.0
 40
0.0
 40
0.2588471685267274
 40
0.5162856411989358
 40
0.7656487906000585
 40
1.0
 40
1.0
 40
1.0
 40
1.0
 10
-102.2101449275362
 20
23.14492753623188
 30
0.0
 10
-102.3788723076648
 20
23.10403108139852
 30
0.0
 10
-102.7154088212118
 20
23.02246073806982
 30
0.0
 10
-103.2207693529796
 20
22.93061194996275
 30
0.0
 10
-103.7145112738977
 20
22.86826289156502
 30
0.0
 10
-104.0389298866152
 20
22.8593773529643
 30
0.0
 10
-104.1961050724638
 20
22.8550724637681
 30
0.0
  0
SPLINE
  5
BE
330
1F
100
AcDbEntity
  8
0
  6
Continuous
 62
     7
370
    25
100
AcDbSpline
210
0.0
220
0.0
230
1.0
 70
     8
 71
     3
 72
    11
 73
     7
 74
     0
 42
0.000000001
 43
0.00000001
 40
0.0
 40
0.0
 40
0.0
 40
0.0
 40
0.2641978908896233
 40
0.5230221684185954
 40
0.7721133734873865
 40
1.0
 40
1.0
 40
1.0
 40
1.0
 10
-103.9130434782609
 20
24.30434782608695
 30
0.0
 10
-103.7602916647341
 20
24.3085763534555
 30
0.0
 10
-103.4578949102722
 20
24.31694740269466
 30
0.0
 10
-103.0162704625463
 20
24.38692519727591
 30
0.0
 10
-102.6013949027732
 20
24.48070126014667
 30
0.0
 10
-102.3366382355134
 20
24.55750718325037
 30
0.0
 10
-102.2101449275362
 20
24.5942028985507
 30
0.0
  0
SPLINE
  5
D7
330
1F
100
AcDbEntity
  8
0
  6
Continuous
 62
     7
370
    25
100
AcDbSpline
210
0.0
220
0.0
230
1.0
 70
     8
 71
     3
 72
    15
 73
    11
 74
     0
 42
0.000000001
 43
0.00000001
 40
0.0
 40
0.0
 40
0.0
 40
0.0
 40
0.121853029727945
 40
0.2406345034299955
 40
0.3583681183040218
 40
0.4764122959590651
 40
0.597409735926201
 40
0.7229984821818612
 40
0.8565919240730575
 40
1.0
 40
1.0
 40
1.0
 40
1.0
 10
-97.8691123188406
 20
29.66666666666665
 30
0.0
 10
-97.80316641385875
 20
29.76252976558474
 30
0.0
 10
-97.67293690595092
 20
29.95183953701116
 30
0.0
 10
-97.4443376423475
 20
30.20747544960832
 30
0.0
 10
-97.18957610204743
 20
30.43144024805112
 30
0.0
 10
-96.90552627088906
 20
30.62056041524697
 30
0.0
 10
-96.59371024743493
 20
30.77775036040652
 30
0.0
 10
-96.24661050988715
 20
30.88682511601878
 30
0.0
 10
-95.86810654875455
 20
30.96026611423337
 30
0.0
 10
-95.60348452361376
 20
30.96734805814827
 30
0.0
 10
-95.4664855072464
 20
30.97101449275361
 30
0.0
  0
SPLINE
  5
DD
330
1F
100
AcDbEntity
  8
0
  6
Continuous
 62
     7
370
    25
100
AcDbSpline
210
0.0
220
0.0
230
1.0
 70
     8
 71
     3
 72
    15
 73
    11
 74
     0
 42
0.000000001
 43
0.00000001
 40
0.0
 40
0.0
 40
0.0
 40
0.0
 40
0.0862701213678378
 40
0.1778985512383917
 40
0.2770475168046586
 40
0.3864232854209311
 40
0.5100545787136371
 40
0.6528698779577561
 40
0.8159725289570889
 40
1.0
 40
1.0
 40
1.0
 40
1.0
 10
-95.91259057971013
 20
29.37681159420288
 30
0.0
 10
-95.98172099151209
 20
29.3727951849678
 30
0.0
 10
-96.12427556209902
 20
29.36451290400221
 30
0.0
 10
-96.3375234504829
 20
29.29644325168232
 30
0.0
 10
-96.55165841137118
 20
29.18678275255152
 30
0.0
 10
-96.7728223971719
 20
29.03777646447503
 30
0.0
 10
-96.99510213605589
 20
28.83426968689891
 30
0.0
 10
-97.23175183522912
 20
28.58469861061544
 30
0.0
 10
-97.47495145622031
 20
28.2766052638521
 30
0.0
 10
-97.63339440265281
 20
28.04847640483602
 30
0.0
 10
-97.71739130434784
 20
27.92753623188404
 30
0.0
  0
SPLINE
  5
DE
330
1F
100
AcDbEntity
  8
0
  6
Continuous
 62
     7
370
    25
100
AcDbSpline
210
0.0
220
0.0
230
1.0
 70
     8
 71
     3
 72
    17
 73
    13
 74
     0
 42
0.000000001
 43
0.00000001
 40
0.0
 40
0.0
 40
0.0
 40
0.0
 40
0.0976776958121698
 40
0.186788822004225
 40
0.2697749971775903
 40
0.3447690251852539
 40
0.4791052046340836
 40
0.5962295579693252
 40
0.6991616705508078
 40
0.7965085749578333
 40
0.8942687937309167
 40
1.0
 40
1.0
 40
1.0
 40
1.0
 10
-94.96376811594203
 20
27.78260869565216
 30
0.0
 10
-94.96261149165267
 20
27.85129240911795
 30
0.0
 10
-94.96039968181502
 20
27.98263610864396
 30
0.0
 10
-94.96357149419323
 20
28.17242641645856
 30
0.0
 10
-94.9792704920884
 20
28.34569635583045
 30
0.0
 10
-95.01196362998088
 20
28.54863876016693
 30
0.0
 10
-95.06629712658044
 20
28.77292774385846
 30
0.0
 10
-95.17513392553172
 20
28.99911272564801
 30
0.0
 10
-95.31568781428534
 20
29.17623014242463
 30
0.0
 10
-95.49232018711068
 20
29.29406787308593
 30
0.0
 10
-95.69444963089218
 20
29.3654893817164
 30
0.0
 10
-95.8380025537387
 20
29.37294023724964
 30
0.0
 10
-95.91259057971013
 20
29.37681159420288
 30
0.0
  0
SPLINE
  5
E0
330
1F
100
AcDbEntity
  8
0
  6
Continuous
 62
     7
370
    25
100
AcDbSpline
210
0.0
220
0.0
230
1.0
 70
     8
 71
     3
 72
    23
 73
    19
 74
     0
 42
0.000000001
 43
0.00000001
 40
0.0
 40
0.0
 40
0.0
 40
0.0
 40
0.0627922513948277
 40
0.1220686466412255
 40
0.1791776541918822
 40
0.2344678912674954
 40
0.288348606399583
 40
0.3420588926832628
 40
0.3953035041849381
 40
0.4499989630372396
 40
0.5061960222618906
 40
0.5647595735040212
 40
0.6268773450664333
 40
0.6927246305091953
 40
0.7628189985994271
 40
0.8370961123245144
 40
0.9158739739110127
 40
1.0
 40
1.0
 40
1.0
 40
1.0
 10
-95.4664855072464
 20
30.97101449275361
 30
0.0
 10
-95.37129490715695
 20
30.96805927341295
 30
0.0
 10
-95.18624360754963
 20
30.96231430301566
 30
0.0
 10
-94.91598031079296
 20
30.92769147609212
 30
0.0
 10
-94.6640734344239
 20
30.85996144125455
 30
0.0
 10
-94.42687971102475
 20
30.77305100553446
 30
0.0
 10
-94.20741402610938
 20
30.65822744286661
 30
0.0
 10
-94.0056516902319
 20
30.52027751573966
 30
0.0
 10
-93.8213544006607
 20
30.35749603378497
 30
0.0
 10
-93.65912107601766
 20
30.16793415618541
 30
0.0
 10
-93.51263562493244
 20
29.95621946461982
 30
0.0
 10
-93.38763188450672
 20
29.71817060921828
 30
0.0
 10
-93.28423373419514
 20
29.45440435310447
 30
0.0
 10
-93.200762116251
 20
29.16549919448308
 30
0.0
 10
-93.13833009390358
 20
28.85258569025267
 30
0.0
 10
-93.09529376236023
 20
28.51669379641997
 30
0.0
 10
-93.07540234794975
 20
28.15724216802065
 30
0.0
 10
-93.07824312485936
 20
27.9101901079192
 30
0.0
 10
-93.07971014492755
 20
27.78260869565216
 30
0.0
  0
SPLINE
  5
E1
330
1F
100
AcDbEntity
  8
0
  6
Continuous
 62
     7
370
    25
100
AcDbSpline
210
0.0
220
0.0
230
1.0
 70
     8
 71
     3
 72
    23
 73
    19
 74
     0
 42
0.000000001
 43
0.00000001
 40
0.0
 40
0.0
 40
0.0
 40
0.0
 40
0.0698007416287548
 40
0.1363611707369537
 40
0.1989708612751563
 40
0.2592639560135971
 40
0.3177181647570217
 40
0.374380286205267
 40
0.430914514053517
 40
0.487256357167417
 40
0.543825251416512
 40
0.602410884693589
 40
0.6621335161511596
 40
0.7243105687749803
 40
0.7889118257294789
 40
0.8562650442093585
 40
0.9263762045034061
 40
0.9999999999999999
 40
0.9999999999999999
 40
0.9999999999999999
 40
0.9999999999999999
 10
-89.09873188405798
 20
22.8550724637681
 30
0.0
 10
-89.19476811385779
 20
22.85663754401793
 30
0.0
 10
-89.38238234865081
 20
22.85969504985788
 30
0.0
 10
-89.65325367568516
 20
22.90106194999096
 30
0.0
 10
-89.90803039366007
 20
22.95706828487715
 30
0.0
 10
-90.14209625987164
 20
23.04488033314592
 30
0.0
 10
-90.35813476633048
 20
23.15300768174972
 30
0.0
 10
-90.55478511625326
 20
23.28427525084319
 30
0.0
 10
-90.73469708970094
 20
23.43315993059217
 30
0.0
 10
-90.89374436561012
 20
23.60421340751267
 30
0.0
 10
-91.03284512579505
 20
23.79502681929861
 30
0.0
 10
-91.15499318743619
 20
24.00252791665135
 30
0.0
 10
-91.257189529653
 20
24.22907281897515
 30
0.0
 10
-91.34025863239131
 20
24.4718564091867
 30
0.0
 10
-91.40681203433587
 20
24.73065419520828
 30
0.0
 10
-91.44958649365503
 20
25.00528351296631
 30
0.0
 10
-91.48153045507077
 20
25.29394358701456
 30
0.0
 10
-91.4841602269073
 20
25.49160053229717
 30
0.0
 10
-91.48550724637683
 20
25.59284420289853
 30
0.0
  0
SPLINE
  5
E2
330
1F
100
AcDbEntity
  8
0
  6
Continuous
 62
     7
370
    25
100
AcDbSpline
210
0.0
220
0.0
230
1.0
 70
     8
 71
     3
 72
    15
 73
    11
 74
     0
 42
0.000000001
 43
0.00000001
 40
0.0
 40
0.0
 40
0.0
 40
0.0
 40
0.1288740943012329
 40
0.2530832657379294
 40
0.3721616643552091
 40
0.4898218867574879
 40
0.6083620283833675
 40
0.7308613947341159
 40
0.8601998587829
 40
0.9999999999999999
 40
0.9999999999999999
 40
0.9999999999999999
 40
0.9999999999999999
 10
-86.64175724637683
 20
24.15489130434781
 30
0.0
 10
-86.72321191520527
 20
24.06132276478751
 30
0.0
 10
-86.88317279569475
 20
23.87757263493674
 30
0.0
 10
-87.13238013051694
 20
23.61968935045372
 30
0.0
 10
-87.39758508285195
 20
23.39426199416565
 30
0.0
 10
-87.68234956228955
 20
23.20306794922797
 30
0.0
 10
-87.99460609281651
 20
23.05321782856537
 30
0.0
 10
-88.33291169788515
 20
22.93832114596336
 30
0.0
 10
-88.70469859569852
 20
22.86595256538158
 30
0.0
 10
-88.9640273351967
 20
22.85879194438739
 30
0.0
 10
-89.09873188405798
 20
22.8550724637681
 30
0.0
  0
SPLINE
  5
E8
330
1F
100
AcDbEntity
  8
0
  6
Continuous
 62
     7
370
    25
100
AcDbSpline
210
0.0
220
0.0
230
1.0
 70
     8
 71
     3
 72
    15
 73
    11
 74
     0
 42
0.000000001
 43
0.00000001
 40
0.0
 40
0.0
 40
0.0
 40
0.0
 40
0.0974068486453339
 40
0.1961921646200445
 40
0.3019753933557902
 40
0.4168958262196358
 40
0.543801182025774
 40
0.684248038740815
 40
0.8353590234685548
 40
1.0
 40
1.0
 40
1.0
 40
1.0
 10
-88.6503623188406
 20
24.44927536231883
 30
0.0
 10
-88.57276476823914
 20
24.45418012536589
 30
0.0
 10
-88.41647153389847
 20
24.46405906193486
 30
0.0
 10
-88.18723719732982
 20
24.54292460075115
 30
0.0
 10
-87.96245528250391
 20
24.66354543830473
 30
0.0
 10
-87.74802134727003
 20
24.83983260010091
 30
0.0
 10
-87.53136604579228
 20
25.0529419792499
 30
0.0
 10
-87.30614860535779
 20
25.29809598094245
 30
0.0
 10
-87.07696380572669
 20
25.57940078893531
 30
0.0
 10
-86.9263565040605
 20
25.78024077298713
 30
0.0
 10
-86.84782608695652
 20
25.88496376811593
 30
0.0
  0
SPLINE
  5
E9
330
1F
100
AcDbEntity
  8
0
  6
Continuous
 62
     7
370
    25
100
AcDbSpline
210
0.0
220
0.0
230
1.0
 70
     8
 71
     3
 72
    15
 73
    11
 74
     0
 42
0.000000001
 43
0.00000001
 40
0.0
 40
0.0
 40
0.0
 40
0.0
 40
0.1640876712637609
 40
0.3087775052061038
 40
0.4371411371177445
 40
0.5521649222927426
 40
0.6593095374934835
 40
0.7647068958114294
 40
0.8766001482742158
 40
1.0
 40
1.0
 40
1.0
 40
1.0
 10
-89.60144927536234
 20
25.74003623188405
 30
0.0
 10
-89.59831044861002
 20
25.64026973067529
 30
0.0
 10
-89.59240385558948
 20
25.45253075486363
 30
0.0
 10
-89.55178198337849
 20
25.18868315817675
 30
0.0
 10
-89.47678346318283
 20
24.96395228712489
 30
0.0
 10
-89.37610380884541
 20
24.77421271505133
 30
0.0
 10
-89.23857323235029
 20
24.62668736628835
 30
0.0
 10
-89.0693043879752
 20
24.52141000665581
 30
0.0
 10
-88.8688964462394
 20
24.45936732830364
 30
0.0
 10
-88.72554383125502
 20
24.45274726519736
 30
0.0
 10
-88.6503623188406
 20
24.44927536231883
 30
0.0
  0
SPLINE
  5
EF
330
1F
100
AcDbEntity
  8
0
  6
Continuous
 62
     7
370
    25
100
AcDbSpline
210
0.0
220
0.0
230
1.0
 70
     8
 71
     3
 72
    11
 73
     7
 74
     0
 42
0.000000001
 43
0.00000001
 40
0.0
 40
0.0
 40
0.0
 40
0.0
 40
0.2607834656906701
 40
0.5248066017546936
 40
0.776239350312846
 40
0.9999999999999999
 40
0.9999999999999999
 40
0.9999999999999999
 40
0.9999999999999999
 10
-79.39764492753625
 20
30.97101449275361
 30
0.0
 10
-79.30093094931333
 20
30.96953471648667
 30
0.0
 10
-79.10630153092234
 20
30.96655678093409
 30
0.0
 10
-78.82014427121428
 20
30.93448595078315
 30
0.0
 10
-78.54855039603403
 20
30.8960316863002
 30
0.0
 10
-78.37759941599623
 20
30.8530974506364
 30
0.0
 10
-78.29710144927537
 20
30.83288043478259
 30
0.0
  0
SPLINE
  5
F0
330
1F
100
AcDbEntity
  8
0
  6
Continuous
 62
     7
370
    25
100
AcDbSpline
210
0.0
220
0.0
230
1.0
 70
     8
 71
     3
 72
    23
 73
    19
 74
     0
 42
0.000000001
 43
0.00000001
 40
0.0
 40
0.0
 40
0.0
 40
0.0
 40
0.0795518584211167
 40
0.1536846802611807
 40
0.2235790096448969
 40
0.2892787826630415
 40
0.3522796722225428
 40
0.4121771701810684
 40
0.4704025821851355
 40
0.5274169491114881
 40
0.5835101354881538
 40
0.6396959068928657
 40
0.6963054080660699
 40
0.7540113632394765
 40
0.8134110713922251
 40
0.8737458412011978
 40
0.9360055460825485
 40
0.9999999999999999
 40
0.9999999999999999
 40
0.9999999999999999
 40
0.9999999999999999
 10
-83.36956521739131
 20
26.78623188405796
 30
0.0
 10
-83.36662093930025
 20
26.96002861399728
 30
0.0
 10
-83.36093294600877
 20
27.29578311931347
 30
0.0
 10
-83.30225534524199
 20
27.78121211699554
 30
0.0
 10
-83.21255289450735
 20
28.2310010093627
 30
0.0
 10
-83.07929125404506
 20
28.64465077873936
 30
0.0
 10
-82.91434149252183
 20
29.02270423915372
 30
0.0
 10
-82.72069197680648
 20
29.36833382045741
 30
0.0
 10
-82.49860350769231
 20
29.68079524604128
 30
0.0
 10
-82.2456629704614
 20
29.95754337077901
 30
0.0
 10
-81.96793156216178
 20
30.20287455595982
 30
0.0
 10
-81.66212773207148
 20
30.41035959147888
 30
0.0
 10
-81.33499472531402
 20
30.58968404553091
 30
0.0
 10
-80.98117034203212
 20
30.72895503161149
 30
0.0
 10
-80.60833688419444
 20
30.83578887277212
 30
0.0
 10
-80.2188138758688
 20
30.91689336715445
 30
0.0
 10
-79.81308788215053
 20
30.96132262125642
 30
0.0
 10
-79.53738862729212
 20
30.96775441103712
 30
0.0
 10
-79.39764492753625
 20
30.97101449275361
 30
0.0
  0
SPLINE
  5
F1
330
1F
100
AcDbEntity
  8
0
  6
Continuous
 62
     7
370
    25
100
AcDbSpline
210
0.0
220
0.0
230
1.0
 70
     8
 71
     3
 72
    23
 73
    19
 74
     0
 42
0.000000001
 43
0.00000001
 40
0.0
 40
0.0
 40
0.0
 40
0.0
 40
0.0606265111585669
 40
0.1186344486936307
 40
0.1747916876851873
 40
0.2299434589850064
 40
0.2840567939011373
 40
0.3383873154372331
 40
0.3932139445001868
 40
0.4492915321389155
 40
0.5076142466029979
 40
0.5682492641588878
 40
0.6319253950355291
 40
0.699082348052935
 40
0.7695996049830514
 40
0.8429559750356321
 40
0.9195354382651627
 40
0.9999999999999999
 40
0.9999999999999999
 40
0.9999999999999999
 40
0.9999999999999999
 10
-80.5253623188406
 20
22.8550724637681
 30
0.0
 10
-80.63578358397294
 20
22.85854547199812
 30
0.0
 10
-80.85185681105942
 20
22.8653414826674
 30
0.0
 10
-81.16655629120639
 20
22.91877782151969
 30
0.0
 10
-81.46329859630654
 20
23.0045951589211
 30
0.0
 10
-81.74037931371286
 20
23.12474149691542
 30
0.0
 10
-81.99683922493043
 20
23.27790967044985
 30
0.0
 10
-82.23014449989272
 20
23.46315404700306
 30
0.0
 10
-82.44524182687616
 20
23.67442278194498
 30
0.0
 10
-82.63584982908363
 20
23.91739377261726
 30
0.0
 10
-82.80597001481948
 20
24.18748403543059
 30
0.0
 10
-82.9527563442371
 20
24.48640500194472
 30
0.0
 10
-83.0794071715551
 20
24.81153648175921
 30
0.0
 10
-83.18538490924293
 20
25.16280154708804
 30
0.0
 10
-83.26896071926987
 20
25.53818372398271
 30
0.0
 10
-83.32627559349687
 20
25.93564555782177
 30
0.0
 10
-83.36417793560597
 20
26.3537320699177
 30
0.0
 10
-83.36774008225062
 20
26.63970704266656
 30
0.0
 10
-83.36956521739131
 20
26.78623188405796
 30
0.0
  0
SPLINE
  5
F2
330
1F
100
AcDbEntity
  8
0
  6
Continuous
 62
     7
370
    25
100
AcDbSpline
210
0.0
220
0.0
230
1.0
 70
     8
 71
     3
 72
    15
 73
    11
 74
     0
 42
0.000000001
 43
0.00000001
 40
0.0
 40
0.0
 40
0.0
 40
0.0
 40
0.1298652003761621
 40
0.2555846026224816
 40
0.3767902913248821
 40
0.496675137598331
 40
0.6154165152175941
 40
0.7366144763473568
 40
0.8630692670451703
 40
1.0
 40
1.0
 40
1.0
 40
1.0
 10
-78.08876811594205
 20
24.15489130434781
 30
0.0
 10
-78.17013634273624
 20
24.06124325409245
 30
0.0
 10
-78.33027520866067
 20
23.87693676057798
 30
0.0
 10
-78.5819169803449
 20
23.61899704896975
 30
0.0
 10
-78.85147493578545
 20
23.39404371214287
 30
0.0
 10
-79.13944051873732
 20
23.20476794153617
 30
0.0
 10
-79.44930210562562
 20
23.05391849669043
 30
0.0
 10
-79.780668818234
 20
22.93892848750383
 30
0.0
 10
-80.1425249221242
 20
22.86581185153182
 30
0.0
 10
-80.39441034157353
 20
22.85874593996022
 30
0.0
 10
-80.52536231884059
 20
22.8550724637681
 30
0.0
  0
SPLINE
  5
F6
330
1F
100
AcDbEntity
  8
0
  6
Continuous
 62
     7
370
    25
100
AcDbSpline
210
0.0
220
0.0
230
1.0
 70
     8
 71
     3
 72
    15
 73
    11
 74
     0
 42
0.000000001
 43
0.00000001
 40
0.0
 40
0.0
 40
0.0
 40
0.0
 40
0.1218530297279459
 40
0.2406345034299954
 40
0.3583681183040224
 40
0.4764122959590657
 40
0.5974097359262035
 40
0.7229984821818611
 40
0.8565919240730575
 40
1.0
 40
1.0
 40
1.0
 40
1.0
 10
-63.66621376811597
 20
29.66666666666665
 30
0.0
 10
-63.60026786313411
 20
29.76252976558474
 30
0.0
 10
-63.4700383552263
 20
29.95183953701119
 30
0.0
 10
-63.24143909162284
 20
30.20747544960832
 30
0.0
 10
-62.98667755132283
 20
30.43144024805111
 30
0.0
 10
-62.70262772016444
 20
30.62056041524698
 30
0.0
 10
-62.39081169671032
 20
30.77775036040652
 30
0.0
 10
-62.04371195916253
 20
30.88682511601878
 30
0.0
 10
-61.66520799802998
 20
30.96026611423339
 30
0.0
 10
-61.40058597288911
 20
30.96734805814827
 30
0.0
 10
-61.26358695652177
 20
30.97101449275361
 30
0.0
  0
SPLINE
  5
FC
330
1F
100
AcDbEntity
  8
0
  6
Continuous
 62
     7
370
    25
100
AcDbSpline
210
0.0
220
0.0
230
1.0
 70
     8
 71
     3
 72
    15
 73
    11
 74
     0
 42
0.000000001
 43
0.00000001
 40
0.0
 40
0.0
 40
0.0
 40
0.0
 40
0.0862701213678323
 40
0.1778985512383869
 40
0.2770475168046554
 40
0.386423285420929
 40
0.5100545787136356
 40
0.652869877957756
 40
0.8159725289570872
 40
1.0
 40
1.0
 40
1.0
 40
1.0
 10
-61.70969202898554
 20
29.37681159420288
 30
0.0
 10
-61.77882244078747
 20
29.3727951849678
 30
0.0
 10
-61.92137701137445
 20
29.36451290400221
 30
0.0
 10
-62.13462489975824
 20
29.29644325168232
 30
0.0
 10
-62.34875986064662
 20
29.18678275255153
 30
0.0
 10
-62.56992384644723
 20
29.03777646447502
 30
0.0
 10
-62.79220358533126
 20
28.8342696868989
 30
0.0
 10
-63.02885328450453
 20
28.58469861061544
 30
0.0
 10
-63.2720529054957
 20
28.27660526385209
 30
0.0
 10
-63.43049585192823
 20
28.04847640483603
 30
0.0
 10
-63.51449275362322
 20
27.92753623188404
 30
0.0
  0
SPLINE
  5
FD
330
1F
100
AcDbEntity
  8
0
  6
Continuous
 62
     7
370
    25
100
AcDbSpline
210
0.0
220
0.0
230
1.0
 70
     8
 71
     3
 72
    17
 73
    13
 74
     0
 42
0.000000001
 43
0.00000001
 40
0.0
 40
0.0
 40
0.0
 40
0.0
 40
0.0976776958121728
 40
0.1867888220042278
 40
0.2697749971775923
 40
0.344769025185252
 40
0.4791052046340818
 40
0.596229557969326
 40
0.6991616705508081
 40
0.7965085749578313
 40
0.894268793730914
 40
1.0
 40
1.0
 40
1.0
 40
1.0
 10
-60.76086956521743
 20
27.78260869565216
 30
0.0
 10
-60.75971294092804
 20
27.85129240911795
 30
0.0
 10
-60.75750113109038
 20
27.98263610864396
 30
0.0
 10
-60.76067294346863
 20
28.17242641645856
 30
0.0
 10
-60.77637194136381
 20
28.34569635583045
 30
0.0
 10
-60.80906507925624
 20
28.54863876016693
 30
0.0
 10
-60.86339857585582
 20
28.77292774385848
 30
0.0
 10
-60.9722353748071
 20
28.99911272564801
 30
0.0
 10
-61.11278926356074
 20
29.17623014242463
 30
0.0
 10
-61.28942163638605
 20
29.29406787308593
 30
0.0
 10
-61.4915510801676
 20
29.36548938171642
 30
0.0
 10
-61.63510400301409
 20
29.37294023724964
 30
0.0
 10
-61.70969202898554
 20
29.3768115942029
 30
0.0
  0
SPLINE
  5
FF
330
1F
100
AcDbEntity
  8
0
  6
Continuous
 62
     7
370
    25
100
AcDbSpline
210
0.0
220
0.0
230
1.0
 70
     8
 71
     3
 72
    23
 73
    19
 74
     0
 42
0.000000001
 43
0.00000001
 40
0.0
 40
0.0
 40
0.0
 40
0.0
 40
0.0627922513948277
 40
0.1220686466412255
 40
0.1791776541918808
 40
0.2344678912674955
 40
0.2883486063995844
 40
0.3420588926832633
 40
0.3953035041849369
 40
0.4499989630372394
 40
0.5061960222618904
 40
0.5647595735040208
 40
0.6268773450664324
 40
0.6927246305091949
 40
0.7628189985994267
 40
0.8370961123245139
 40
0.9158739739110119
 40
1.0
 40
1.0
 40
1.0
 40
1.0
 10
-61.26358695652177
 20
30.97101449275361
 30
0.0
 10
-61.16839635643232
 20
30.96805927341295
 30
0.0
 10
-60.98334505682498
 20
30.96231430301566
 30
0.0
 10
-60.71308176006838
 20
30.92769147609212
 30
0.0
 10
-60.46117488369926
 20
30.85996144125455
 30
0.0
 10
-60.22398116030016
 20
30.77305100553446
 30
0.0
 10
-60.00451547538474
 20
30.65822744286661
 30
0.0
 10
-59.80275313950734
 20
30.52027751573967
 30
0.0
 10
-59.61845584993605
 20
30.35749603378496
 30
0.0
 10
-59.45622252529304
 20
30.16793415618542
 30
0.0
 10
-59.30973707420784
 20
29.95621946461982
 30
0.0
 10
-59.18473333378211
 20
29.71817060921828
 30
0.0
 10
-59.08133518347056
 20
29.45440435310447
 30
0.0
 10
-58.99786356552639
 20
29.16549919448309
 30
0.0
 10
-58.93543154317894
 20
28.85258569025266
 30
0.0
 10
-58.89239521163559
 20
28.51669379641998
 30
0.0
 10
-58.87250379722521
 20
28.15724216802067
 30
0.0
 10
-58.87534457413474
 20
27.91019010791922
 30
0.0
 10
-58.87681159420294
 20
27.78260869565216
 30
0.0
  0
CIRCLE
  5
100
330
1F
100
AcDbEntity
  8
0
  6
Continuous
 62
     7
370
    25
100
AcDbCircle
 10
-147.5
 20
30.0
 30
0.0
 40
1.750000000000014
  0
CIRCLE
  5
101
330
1F
100
AcDbEntity
  8
0
  6
Continuous
 62
     7
370
    25
100
AcDbCircle
 10
-147.5
 20
-30.0
 30
0.0
 40
1.750000000000011
  0
CIRCLE
  5
102
330
1F
100
AcDbEntity
  8
0
  6
Continuous
 62
     7
370
    25
100
AcDbCircle
 10
-22.5
 20
-30.0
 30
0.0
 40
1.750000000000014
  0
CIRCLE
  5
103
330
1F
100
AcDbEntity
  8
0
  6
Continuous
 62
     7
370
    25
100
AcDbCircle
 10
-22.5
 20
30.0
 30
0.0
 40
1.750000000000018
  0
CIRCLE
  5
108
330
1F
100
AcDbEntity
  8
0
  6
Continuous
 62
     7
370
    25
100
AcDbCircle
 10
-176.1066017178
 20
47.6637952861
 30
0.0
 40
1.75
  0
CIRCLE
  5
109
330
1F
100
AcDbEntity
  8
0
  6
Continuous
 62
     7
370
    25
100
AcDbCircle
 10
-176.1066017178
 20
-47.3371869269
 30
0.0
 40
1.749999999999993
  0
CIRCLE
  5
10A
330
1F
100
AcDbEntity
  8
0
  6
Continuous
 62
     7
370
    25
100
AcDbCircle
 10
-32.5
 20
-21.5
 30
0.0
 40
3.75
  0
SPLINE
  5
10B
330
1F
100
AcDbEntity
  8
0
  6
Continuous
 62
     7
370
    25
100
AcDbSpline
210
0.0
220
0.0
230
1.0
 70
     8
 71
     3
 72
    23
 73
    19
 74
     0
 42
0.000000001
 43
0.00000001
 40
0.0
 40
0.0
 40
0.0
 40
0.0
 40
0.0701012672867742
 40
0.136585447871678
 40
0.2005571828561804
 40
0.2619613940970315
 40
0.3213229075280244
 40
0.3788055979172461
 40
0.4353896100504087
 40
0.4914761784555302
 40
0.5475627468606505
 40
0.6049538830231402
 40
0.6635717755235845
 40
0.7244206161942679
 40
0.7880260768672447
 40
0.8546452833448224
 40
0.9251583938538547
 40
1.0
 40
1.0
 40
1.0
 40
1.0
 10
-70.86050724637683
 20
22.8550724637681
 30
0.0
 10
-71.0055917530163
 20
22.85784264227765
 30
0.0
 10
-71.28827469279156
 20
22.86324006356627
 30
0.0
 10
-71.70073119958941
 20
22.91320081497705
 30
0.0
 10
-72.09113901692189
 20
22.98733478790653
 30
0.0
 10
-72.45738781864026
 20
23.09915026885681
 30
0.0
 10
-72.79822074276596
 20
23.24154730447664
 30
0.0
 10
-73.11315858283092
 20
23.41486187442801
 30
0.0
 10
-73.40231025072063
 20
23.61683222275176
 30
0.0
 10
-73.66443248820869
 20
23.84869620481432
 30
0.0
 10
-73.89750203548404
 20
24.1120079312146
 30
0.0
 10
-74.1010835878516
 20
24.40500396539822
 30
0.0
 10
-74.2764777658243
 20
24.72687954096492
 30
0.0
 10
-74.42177611148763
 20
25.07740487944718
 30
0.0
 10
-74.53429948044794
 20
25.45704924204931
 30
0.0
 10
-74.61501372638801
 20
25.86484104989895
 30
0.0
 10
-74.66615271197355
 20
26.30108580210304
 30
0.0
 10
-74.67127541689737
 20
26.60190490436059
 30
0.0
 10
-74.67391304347827
 20
26.75679347826085
 30
0.0
  0
SPLINE
  5
10C
330
1F
100
AcDbEntity
  8
0
  6
Continuous
 62
     7
370
    25
100
AcDbSpline
210
0.0
220
0.0
230
1.0
 70
     8
 71
     3
 72
    15
 73
    11
 74
     0
 42
0.000000001
 43
0.00000001
 40
0.0
 40
0.0
 40
0.0
 40
0.0
 40
0.1123470648628663
 40
0.2339105466968265
 40
0.3599629802518186
 40
0.4878787500228957
 40
0.6174802250562046
 40
0.7479585631970155
 40
0.8756518809912637
 40
1.0
 40
1.0
 40
1.0
 40
1.0
 10
-68.00724637681161
 20
23.28985507246376
 30
0.0
 10
-68.11117028109426
 20
23.25879343857147
 30
0.0
 10
-68.32754351074023
 20
23.19412202259895
 30
0.0
 10
-68.66537678871416
 20
23.11197868470102
 30
0.0
 10
-69.02109984625702
 20
23.04192601422431
 30
0.0
 10
-69.38529424597107
 20
22.97498282613911
 30
0.0
 10
-69.75591542304703
 20
22.91995656704766
 30
0.0
 10
-70.12846739566034
 20
22.88253244985551
 30
0.0
 10
-70.49711777650342
 20
22.85865084261948
 30
0.0
 10
-70.74045397617147
 20
22.8562546556552
 30
0.0
 10
-70.86050724637684
 20
22.8550724637681
 30
0.0
  0
SPLINE
  5
10E
330
1F
100
AcDbEntity
  8
0
  6
Continuous
 62
     7
370
    25
100
AcDbSpline
210
0.0
220
0.0
230
1.0
 70
     8
 71
     3
 72
    13
 73
     9
 74
     0
 42
0.000000001
 43
0.00000001
 40
0.0
 40
0.0
 40
0.0
 40
0.0
 40
0.2259235523291389
 40
0.4680727775512108
 40
0.595837262294545
 40
0.7264770915432325
 40
0.8612806110935499
 40
1.0
 40
1.0
 40
1.0
 40
1.0
 10
-70.58876811594205
 20
24.30434782608695
 30
0.0
 10
-70.39078074375546
 20
24.30933083111288
 30
0.0
 10
-69.98058668357875
 20
24.31965471713092
 30
0.0
 10
-69.46206033561322
 20
24.38722116997381
 30
0.0
 10
-69.03011855365742
 20
24.46311229069659
 30
0.0
 10
-68.69368302030489
 20
24.53798107385492
 30
0.0
 10
-68.35209296182508
 20
24.63169924481837
 30
0.0
 10
-68.12328713207984
 20
24.70297987692705
 30
0.0
 10
-68.00724637681161
 20
24.7391304347826
 30
0.0
  0
SPLINE
  5
10F
330
1F
100
AcDbEntity
  8
0
  6
Continuous
 62
     7
370
    25
100
AcDbSpline
210
0.0
220
0.0
230
1.0
 70
     8
 71
     3
 72
    23
 73
    19
 74
     0
 42
0.000000001
 43
0.00000001
 40
0.0
 40
0.0
 40
0.0
 40
0.0
 40
0.0737056618126433
 40
0.143432274746087
 40
0.209455976564324
 40
0.2727977934820418
 40
0.3332251449224858
 40
0.3922933839865893
 40
0.4495418232483909
 40
0.5062259358842609
 40
0.5630645114504021
 40
0.6204113189306127
 40
0.679096638603362
 40
0.7390906146510678
 40
0.8012279654533406
 40
0.8650949048645751
 40
0.9308143775815069
 40
1.0
 40
1.0
 40
1.0
 40
1.0
 10
-72.78985507246378
 20
26.4782608695652
 30
0.0
 10
-72.78874283049
 20
26.39207024481083
 30
0.0
 10
-72.78657839166071
 20
26.22434205315942
 30
0.0
 10
-72.75177821538907
 20
25.98172745127844
 30
0.0
 10
-72.70719951040232
 20
25.75317216974507
 30
0.0
 10
-72.63620747864559
 20
25.54241906440632
 30
0.0
 10
-72.54651545463949
 20
25.34829061252002
 30
0.0
 10
-72.44348214890378
 20
25.16891117013031
 30
0.0
 10
-72.32208395687088
 20
25.00671018623295
 30
0.0
 10
-72.18534673300381
 20
24.86098980613136
 30
0.0
 10
-72.03344176594229
 20
24.73061572879223
 30
0.0
 10
-71.86360520654021
 20
24.62069834068076
 30
0.0
 10
-71.6829507225571
 20
24.52176662377661
 30
0.0
 10
-71.4863156039574
 20
24.44360818647098
 30
0.0
 10
-71.27852472933357
 20
24.37883811522809
 30
0.0
 10
-71.05796454509164
 20
24.33813193675723
 30
0.0
 10
-70.82731879643676
 20
24.30890281669958
 30
0.0
 10
-70.66963547486061
 20
24.30589194266619
 30
0.0
 10
-70.58876811594205
 20
24.30434782608695
 30
0.0
  0
SPLINE
  5
111
330
1F
100
AcDbEntity
  8
0
  6
Continuous
 62
     7
370
    25
100
AcDbSpline
210
0.0
220
0.0
230
1.0
 70
     8
 71
     3
 72
    11
 73
     7
 74
     0
 42
0.000000001
 43
0.00000001
 40
0.0
 40
0.0
 40
0.0
 40
0.0
 40
0.2044309576835269
 40
0.4643541328460329
 40
0.741467382915481
 40
0.9999999999999999
 40
0.9999999999999999
 40
0.9999999999999999
 40
0.9999999999999999
 10
-67.57246376811597
 20
27.54030797101448
 30
0.0
 10
-67.57285176652837
 20
27.46783555296903
 30
0.0
 10
-67.573733084448
 20
27.30321827964562
 30
0.0
 10
-67.58420679424417
 20
27.04057591856895
 30
0.0
 10
-67.59432068954722
 20
26.7586657726458
 30
0.0
 10
-67.61165271316413
 20
26.56954238231768
 30
0.0
 10
-67.62001811594203
 20
26.4782608695652
 30
0.0
  0
SPLINE
  5
112
330
1F
100
AcDbEntity
  8
0
  6
Continuous
 62
     7
370
    25
100
AcDbSpline
210
0.0
220
0.0
230
1.0
 70
     8
 71
     3
 72
    23
 73
    19
 74
     0
 42
0.000000001
 43
0.00000001
 40
0.0
 40
0.0
 40
0.0
 40
0.0
 40
0.0736620784489815
 40
0.1436727713530615
 40
0.2102790608105147
 40
0.2739612932622779
 40
0.3357672007181654
 40
0.3950597274479606
 40
0.4529514455330544
 40
0.5102881690666807
 40
0.5674740907018139
 40
0.6249344442919084
 40
0.6833861262772071
 40
0.7432826330704685
 40
0.804634533464278
 40
0.867567243151102
 40
0.932551851183947
 40
1.0
 40
1.0
 40
1.0
 40
1.0
 10
-70.99184782608697
 20
30.97101449275361
 30
0.0
 10
-70.85735762988469
 20
30.96805577190985
 30
0.0
 10
-70.59504383674908
 20
30.96228499225994
 30
0.0
 10
-70.21329844058597
 20
30.91500198935834
 30
0.0
 10
-69.85645564528636
 20
30.83296117391804
 30
0.0
 10
-69.52304018283073
 20
30.72225702117751
 30
0.0
 10
-69.21609055014706
 20
30.58118199875864
 30
0.0
 10
-68.93184230239892
 20
30.41879610728253
 30
0.0
 10
-68.67683292041485
 20
30.22648943414566
 30
0.0
 10
-68.44730178257575
 20
30.01035915915498
 30
0.0
 10
-68.24222528434206
 20
29.77182621392402
 30
0.0
 10
-68.06452329704679
 20
29.50967006776375
 30
0.0
 10
-67.9155852756561
 20
29.22477364206394
 30
0.0
 10
-67.79065421917743
 20
28.92096984645595
 30
0.0
 10
-67.69362249374666
 20
28.59849914766148
 30
0.0
 10
-67.62403286967113
 20
28.2597687811082
 30
0.0
 10
-67.57926372137095
 20
27.90533349783772
 30
0.0
 10
-67.57475835577335
 20
27.66348279840945
 30
0.0
 10
-67.57246376811595
 20
27.54030797101448
 30
0.0
  0
SPLINE
  5
113
330
1F
100
AcDbEntity
  8
0
  6
Continuous
 62
     7
370
    25
100
AcDbSpline
210
0.0
220
0.0
230
1.0
 70
     8
 71
     3
 72
    23
 73
    19
 74
     0
 42
0.000000001
 43
0.00000001
 40
0.0
 40
0.0
 40
0.0
 40
0.0
 40
0.0737521347577414
 40
0.1443105494841633
 40
0.2120763052229841
 40
0.2778624556535113
 40
0.3414959106408952
 40
0.4032434714941924
 40
0.4625093219833759
 40
0.5211964633215017
 40
0.5789241135256998
 40
0.636149046027762
 40
0.6934902080659319
 40
0.7518603789827986
 40
0.8114926588317882
 40
0.8723630071922174
 40
0.9348566540266885
 40
1.0
 40
1.0
 40
1.0
 40
1.0
 10
-74.67391304347827
 20
26.75679347826085
 30
0.0
 10
-74.67121933996029
 20
26.91167869897759
 30
0.0
 10
-74.66594857951242
 20
27.21474207988214
 30
0.0
 10
-74.6144826763755
 20
27.65767325950758
 30
0.0
 10
-74.53340621505568
 20
28.07877650539646
 30
0.0
 10
-74.42125276970285
 20
28.47791455927992
 30
0.0
 10
-74.27518089837142
 20
28.85229668625268
 30
0.0
 10
-74.10452606156973
 20
29.20089505209907
 30
0.0
 10
-73.90556180503796
 20
29.52227651862135
 30
0.0
 10
-73.67880971213006
 20
29.81383265726241
 30
0.0
 10
-73.42790502091559
 20
30.07951834801471
 30
0.0
 10
-73.14607898954759
 20
30.3074128840255
 30
0.0
 10
-72.84412459055451
 20
30.51032272757739
 30
0.0
 10
-72.51338978744678
 20
30.6737826120427
 30
0.0
 10
-72.16247145597382
 20
30.80934861562058
 30
0.0
 10
-71.789140278499
 20
30.90318795670893
 30
0.0
 10
-71.3967945839216
 20
30.96176041789697
 30
0.0
 10
-71.1286853631158
 20
30.96788740311437
 30
0.0
 10
-70.99184782608697
 20
30.97101449275361
 30
0.0
  0
SPLINE
  5
114
330
1F
100
AcDbEntity
  8
0
  6
Continuous
 62
     7
370
    25
100
AcDbSpline
210
0.0
220
0.0
230
1.0
 70
     8
 71
     3
 72
    23
 73
    19
 74
     0
 42
0.000000001
 43
0.00000001
 40
0.0
 40
0.0
 40
0.0
 40
0.0
 40
0.0701012672867752
 40
0.1365854478716796
 40
0.2005571828561809
 40
0.261961394097032
 40
0.3213229075280253
 40
0.3788055979172459
 40
0.4353896100504083
 40
0.49147617845553
 40
0.5475627468606517
 40
0.6049538830231406
 40
0.6635717755235847
 40
0.7244206161942681
 40
0.7880260768672448
 40
0.8546452833448224
 40
0.9251583938538546
 40
1.0
 40
1.0
 40
1.0
 40
1.0
 10
-40.72826086956513
 20
-51.07391304347827
 30
0.0
 10
-40.90236227753254
 20
-51.0705888292668
 30
0.0
 10
-41.24158180526285
 20
-51.06411192372047
 30
0.0
 10
-41.73652961342022
 20
-51.00415902202751
 30
0.0
 10
-42.20501899421922
 20
-50.91519825451215
 30
0.0
 10
-42.64451755628127
 20
-50.7810196773718
 30
0.0
 10
-43.05351706523206
 20
-50.61014323462803
 30
0.0
 10
-43.43144247331007
 20
-50.40216575068638
 30
0.0
 10
-43.77842447477767
 20
-50.15980133269787
 30
0.0
 10
-44.09297115976338
 20
-49.88156455422279
 30
0.0
 10
-44.37265461649384
 20
-49.56559048254246
 30
0.0
 10
-44.61695247933486
 20
-49.21399524152211
 30
0.0
 10
-44.82742549290212
 20
-48.82774455084208
 30
0.0
 10
-45.00178350769811
 20
-48.40711414466336
 30
0.0
 10
-45.13681155045049
 20
-47.95154090954082
 30
0.0
 10
-45.2336686455786
 20
-47.46219074012123
 30
0.0
 10
-45.29503542828122
 20
-46.93869703747632
 30
0.0
 10
-45.30118267418978
 20
-46.57771411476727
 30
0.0
 10
-45.30434782608688
 20
-46.39184782608695
 30
0.0
  0
SPLINE
  5
115
330
1F
100
AcDbEntity
  8
0
  6
Continuous
 62
     7
370
    25
100
AcDbSpline
210
0.0
220
0.0
230
1.0
 70
     8
 71
     3
 72
    15
 73
    11
 74
     0
 42
0.000000001
 43
0.00000001
 40
0.0
 40
0.0
 40
0.0
 40
0.0
 40
0.1123470648628637
 40
0.2339105466968294
 40
0.3599629802518189
 40
0.487878750022896
 40
0.6174802250562049
 40
0.7479585631970159
 40
0.875651880991264
 40
1.0
 40
1.0
 40
1.0
 40
1.0
 10
-37.30434782608687
 20
-50.55217391304348
 30
0.0
 10
-37.42905651122605
 20
-50.58944787371419
 30
0.0
 10
-37.68870438680119
 20
-50.66705357288122
 30
0.0
 10
-38.09410432036993
 20
-50.76562557835875
 30
0.0
 10
-38.52097198942139
 20
-50.84968878293083
 30
0.0
 10
-38.95800526907819
 20
-50.93002060863306
 30
0.0
 10
-39.40275068156937
 20
-50.99605211954277
 30
0.0
 10
-39.84981304870534
 20
-51.04096106017338
 30
0.0
 10
-40.29219350571706
 20
-51.06961898885658
 30
0.0
 10
-40.5841969453187
 20
-51.07249441321373
 30
0.0
 10
-40.72826086956513
 20
-51.07391304347827
 30
0.0
  0
SPLINE
  5
117
330
1F
100
AcDbEntity
  8
0
  6
Continuous
 62
     7
370
    25
100
AcDbSpline
210
0.0
220
0.0
230
1.0
 70
     8
 71
     3
 72
    13
 73
     9
 74
     0
 42
0.000000001
 43
0.00000001
 40
0.0
 40
0.0
 40
0.0
 40
0.0
 40
0.2259235523291383
 40
0.4680727775512079
 40
0.5958372622945458
 40
0.7264770915432317
 40
0.8612806110935481
 40
0.9999999999999999
 40
0.9999999999999999
 40
0.9999999999999999
 40
0.9999999999999999
 10
-40.40217391304339
 20
-49.33478260869563
 30
0.0
 10
-40.1645890664195
 20
-49.32880300266454
 30
0.0
 10
-39.67235619420743
 20
-49.31641433944289
 30
0.0
 10
-39.05012457664881
 20
-49.23533459603138
 30
0.0
 10
-38.53179443830179
 20
-49.14426525116407
 30
0.0
 10
-38.12807179827883
 20
-49.05442271137405
 30
0.0
 10
-37.71816372810308
 20
-48.94196090621796
 30
0.0
 10
-37.44359673240877
 20
-48.85642414768752
 30
0.0
 10
-37.30434782608687
 20
-48.81304347826087
 30
0.0
  0
SPLINE
  5
118
330
1F
100
AcDbEntity
  8
0
  6
Continuous
 62
     7
370
    25
100
AcDbSpline
210
0.0
220
0.0
230
1.0
 70
     8
 71
     3
 72
    23
 73
    19
 74
     0
 42
0.000000001
 43
0.00000001
 40
0.0
 40
0.0
 40
0.0
 40
0.0
 40
0.073705661812645
 40
0.1434322747460874
 40
0.2094559765643259
 40
0.2727977934820419
 40
0.3332251449224862
 40
0.3922933839865889
 40
0.4495418232483896
 40
0.5062259358842608
 40
0.5630645114504003
 40
0.6204113189306116
 40
0.6790966386033603
 40
0.7390906146510661
 40
0.8012279654533412
 40
0.8650949048645746
 40
0.9308143775815035
 40
0.9999999999999999
 40
0.9999999999999999
 40
0.9999999999999999
 40
0.9999999999999999
 10
-43.04347826086949
 20
-46.72608695652173
 30
0.0
 10
-43.04214357050095
 20
-46.82951570622697
 30
0.0
 10
-43.0395462439058
 20
-47.03078953620867
 30
0.0
 10
-42.99778603237981
 20
-47.32192705846586
 30
0.0
 10
-42.94429158639571
 20
-47.59619339630587
 30
0.0
 10
-42.85910114828764
 20
-47.8490971227124
 30
0.0
 10
-42.75147071948032
 20
-48.08205126497596
 30
0.0
 10
-42.62783075259752
 20
-48.2973065958436
 30
0.0
 10
-42.48215292215799
 20
-48.49194777652043
 30
0.0
 10
-42.3180682535175
 20
-48.66681223264235
 30
0.0
 10
-42.13578229304371
 20
-48.82326112544931
 30
0.0
 10
-41.93197842176117
 20
-48.95516199118307
 30
0.0
 10
-41.71519304098148
 20
-49.07388005146803
 30
0.0
 10
-41.4792308986618
 20
-49.16767017623479
 30
0.0
 10
-41.22988184911322
 20
-49.24539426172627
 30
0.0
 10
-40.96520962802294
 20
-49.2942416758913
 30
0.0
 10
-40.68843472963704
 20
-49.32931661996048
 30
0.0
 10
-40.49921474374568
 20
-49.33292966880056
 30
0.0
 10
-40.40217391304339
 20
-49.33478260869563
 30
0.0
  0
SPLINE
  5
11A
330
1F
100
AcDbEntity
  8
0
  6
Continuous
 62
     7
370
    25
100
AcDbSpline
210
0.0
220
0.0
230
1.0
 70
     8
 71
     3
 72
    11
 73
     7
 74
     0
 42
0.000000001
 43
0.00000001
 40
0.0
 40
0.0
 40
0.0
 40
0.0
 40
0.204430957683528
 40
0.4643541328460351
 40
0.7414673829154859
 40
1.0
 40
1.0
 40
1.0
 40
1.0
 10
-36.78260869565209
 20
-45.45163043478261
 30
0.0
 10
-36.78307429374694
 20
-45.53859733643716
 30
0.0
 10
-36.78413187525049
 20
-45.73613806442523
 30
0.0
 10
-36.79670032700594
 20
-46.05130889771722
 30
0.0
 10
-36.80883700136964
 20
-46.38960107282504
 30
0.0
 10
-36.82963542970992
 20
-46.61654914121877
 30
0.0
 10
-36.83967391304339
 20
-46.72608695652173
 30
0.0
  0
SPLINE
  5
11B
330
1F
100
AcDbEntity
  8
0
  6
Continuous
 62
     7
370
    25
100
AcDbSpline
210
0.0
220
0.0
230
1.0
 70
     8
 71
     3
 72
    23
 73
    19
 74
     0
 42
0.000000001
 43
0.00000001
 40
0.0
 40
0.0
 40
0.0
 40
0.0
 40
0.073662078448982
 40
0.1436727713530608
 40
0.2102790608105151
 40
0.2739612932622774
 40
0.3357672007181634
 40
0.3950597274479606
 40
0.4529514455330542
 40
0.5102881690666788
 40
0.5674740907018138
 40
0.6249344442919088
 40
0.6833861262772073
 40
0.7432826330704676
 40
0.8046345334642765
 40
0.8675672431511013
 40
0.9325518511839463
 40
1.0
 40
1.0
 40
1.0
 40
1.0
 10
-40.88586956521731
 20
-41.33478260869565
 30
0.0
 10
-40.72448132977453
 20
-41.33833307370818
 30
0.0
 10
-40.40970477801184
 20
-41.34525800928807
 30
0.0
 10
-39.9516103026161
 20
-41.40199761276995
 30
0.0
 10
-39.5233989482566
 20
-41.50044659129836
 30
0.0
 10
-39.1233003933098
 20
-41.63329157458696
 30
0.0
 10
-38.75496083408942
 20
-41.80258160148961
 30
0.0
 10
-38.41386293679161
 20
-41.99744467126094
 30
0.0
 10
-38.10785167841077
 20
-42.22821267902518
 30
0.0
 10
-37.83241431300385
 20
-42.48756900901402
 30
0.0
 10
-37.58632251512342
 20
-42.77380854329117
 30
0.0
 10
-37.37308013036908
 20
-43.08839591868345
 30
0.0
 10
-37.19435450470026
 20
-43.43027162952328
 30
0.0
 10
-37.04443723692585
 20
-43.79483618425287
 30
0.0
 10
-36.92799916640896
 20
-44.18180102280619
 30
0.0
 10
-36.84449161751827
 20
-44.58827746267016
 30
0.0
 10
-36.79076863955807
 20
-45.01359980259471
 30
0.0
 10
-36.78536220084094
 20
-45.30382064190863
 30
0.0
 10
-36.78260869565209
 20
-45.45163043478261
 30
0.0
  0
SPLINE
  5
11C
330
1F
100
AcDbEntity
  8
0
  6
Continuous
 62
     7
370
    25
100
AcDbSpline
210
0.0
220
0.0
230
1.0
 70
     8
 71
     3
 72
    23
 73
    19
 74
     0
 42
0.000000001
 43
0.00000001
 40
0.0
 40
0.0
 40
0.0
 40
0.0
 40
0.0737521347577408
 40
0.1443105494841632
 40
0.2120763052229831
 40
0.2778624556535109
 40
0.3414959106408949
 40
0.4032434714941928
 40
0.4625093219833754
 40
0.5211964633215012
 40
0.5789241135257001
 40
0.6361490460277606
 40
0.6934902080659315
 40
0.7518603789827993
 40
0.8114926588317875
 40
0.8723630071922167
 40
0.9348566540266889
 40
1.0
 40
1.0
 40
1.0
 40
1.0
 10
-45.30434782608688
 20
-46.39184782608695
 30
0.0
 10
-45.30111538186529
 20
-46.20598556122686
 30
0.0
 10
-45.29479046932786
 20
-45.8423095041414
 30
0.0
 10
-45.23303138556359
 20
-45.31079208859091
 30
0.0
 10
-45.13573963197975
 20
-44.80546819352423
 30
0.0
 10
-45.00115549755636
 20
-44.3265025288641
 30
0.0
 10
-44.82586925195864
 20
-43.87724397649676
 30
0.0
 10
-44.62108344779662
 20
-43.45892593748112
 30
0.0
 10
-44.38232633995849
 20
-43.07326817765435
 30
0.0
 10
-44.11022382846902
 20
-42.72340081128509
 30
0.0
 10
-43.80913819901165
 20
-42.40457798238236
 30
0.0
 10
-43.47094696137003
 20
-42.13110453916939
 30
0.0
 10
-43.10860168257837
 20
-41.88761272690709
 30
0.0
 10
-42.71171991884909
 20
-41.69146086554874
 30
0.0
 10
-42.29061792108152
 20
-41.5287816612553
 30
0.0
 10
-41.84262050811177
 20
-41.41617445194925
 30
0.0
 10
-41.37180567461884
 20
-41.34588749852364
 30
0.0
 10
-41.05007460965192
 20
-41.33853511626273
 30
0.0
 10
-40.88586956521731
 20
-41.33478260869565
 30
0.0
  0
SPLINE
  5
11D
330
1F
100
AcDbEntity
  8
0
  6
Continuous
 62
     7
370
    25
100
AcDbSpline
210
0.0
220
0.0
230
1.0
 70
     8
 71
     3
 72
    15
 73
    11
 74
     0
 42
0.000000001
 43
0.00000001
 40
0.0
 40
0.0
 40
0.0
 40
0.0
 40
0.1303232716743674
 40
0.2573811407815574
 40
0.3795295345558747
 40
0.4999454952202341
 40
0.6203614558845935
 40
0.7439261360631588
 40
0.8696767283256326
 40
1.0
 40
1.0
 40
1.0
 40
1.0
 10
-29.13043478260859
 20
-43.16086956521738
 30
0.0
 10
-29.13633740635922
 20
-43.27399410864669
 30
0.0
 10
-29.14799475669291
 20
-43.49740872726507
 30
0.0
 10
-29.2508860171424
 20
-43.81294993686861
 30
0.0
 10
-29.40046096792578
 20
-44.09749846060454
 30
0.0
 10
-29.6014263419479
 20
-44.34213272327969
 30
0.0
 10
-29.84717187531924
 20
-44.54323642730694
 30
0.0
 10
-30.13070089446239
 20
-44.69535885148594
 30
0.0
 10
-30.4474145542958
 20
-44.79493849700938
 30
0.0
 10
-30.66955506993477
 20
-44.80693706552422
 30
0.0
 10
-30.78260869565207
 20
-44.81304347826087
 30
0.0
  0
SPLINE
  5
11E
330
1F
100
AcDbEntity
  8
0
  6
Continuous
 62
     7
370
    25
100
AcDbSpline
210
0.0
220
0.0
230
1.0
 70
     8
 71
     3
 72
    15
 73
    11
 74
     0
 42
0.000000001
 43
0.00000001
 40
0.0
 40
0.0
 40
0.0
 40
0.0
 40
0.1304870084067549
 40
0.2567045388872721
 40
0.3804244643778297
 40
0.5016586765727857
 40
0.6222259265323943
 40
0.7463796011693618
 40
0.8715979347219203
 40
1.0
 40
1.0
 40
1.0
 40
1.0
 10
-30.78260869565207
 20
-41.5086956521739
 30
0.0
 10
-30.66945183371314
 20
-41.51449753189971
 30
0.0
 10
-30.44684055293789
 20
-41.52591145638064
 30
0.0
 10
-30.13136003497618
 20
-41.63002273183444
 30
0.0
 10
-29.84605014858358
 20
-41.7806580432932
 30
0.0
 10
-29.60254382870833
 20
-41.98537480978279
 30
0.0
 10
-29.39846099838872
 20
-42.23032874037788
 30
0.0
 10
-29.25359499248792
 20
-42.51725373268433
 30
0.0
 10
-29.14757274342966
 20
-42.82942918696161
 30
0.0
 10
-29.13619504482043
 20
-43.04946871033864
 30
0.0
 10
-29.13043478260859
 20
-43.16086956521738
 30
0.0
  0
SPLINE
  5
11F
330
1F
100
AcDbEntity
  8
0
  6
Continuous
 62
     7
370
    25
100
AcDbSpline
210
0.0
220
0.0
230
1.0
 70
     8
 71
     3
 72
    15
 73
    11
 74
     0
 42
0.000000001
 43
0.00000001
 40
0.0
 40
0.0
 40
0.0
 40
0.0
 40
0.1284640027273494
 40
0.2534311698163377
 40
0.3786309893313242
 40
0.4992563974514869
 40
0.6213567087661279
 40
0.7442146486533741
 40
0.8704930628266428
 40
0.9999999999999999
 40
0.9999999999999999
 40
0.9999999999999999
 40
0.9999999999999999
 10
-32.43478260869555
 20
-43.16086956521738
 30
0.0
 10
-32.42860324275144
 20
-43.04963180641254
 30
0.0
 10
-32.41641271539211
 20
-42.83018421998251
 30
0.0
 10
-32.31638617312677
 20
-42.51506807102123
 30
0.0
 10
-32.1627011084952
 20
-42.23203748929664
 30
0.0
 10
-31.9604018728568
 20
-41.9840460722425
 30
0.0
 10
-31.71420945951209
 20
-41.78246408213143
 30
0.0
 10
-31.4307805014187
 20
-41.62913993660251
 30
0.0
 10
-31.11642219338917
 20
-41.52636574693172
 30
0.0
 10
-30.89481224855764
 20
-41.51463503876386
 30
0.0
 10
-30.78260869565207
 20
-41.5086956521739
 30
0.0
  0
SPLINE
  5
120
330
1F
100
AcDbEntity
  8
0
  6
Continuous
 62
     7
370
    25
100
AcDbSpline
210
0.0
220
0.0
230
1.0
 70
     8
 71
     3
 72
    15
 73
    11
 74
     0
 42
0.000000001
 43
0.00000001
 40
0.0
 40
0.0
 40
0.0
 40
0.0
 40
0.129341231137894
 40
0.2551493701338988
 40
0.377850111475737
 40
0.4991321956542089
 40
0.6196032617862767
 40
0.7428073426442915
 40
0.8696170890153676
 40
1.0
 40
1.0
 40
1.0
 40
1.0
 10
-30.78260869565207
 20
-44.81304347826087
 30
0.0
 10
-30.8947102161865
 20
-44.80680275326816
 30
0.0
 10
-31.11585108599098
 20
-44.79449177526787
 30
0.0
 10
-31.43143524245118
 20
-44.69623403244211
 30
0.0
 10
-31.71310006652226
 20
-44.54143159445677
 30
0.0
 10
-31.96151422299431
 20
-44.34347110274317
 30
0.0
 10
-32.16071032440831
 20
-44.09576423390369
 30
0.0
 10
-32.31910273406882
 20
-43.81516671779247
 30
0.0
 10
-32.41597083732842
 20
-43.49664920147148
 30
0.0
 10
-32.42845420796036
 20
-43.27382799190986
 30
0.0
 10
-32.43478260869555
 20
-43.16086956521738
 30
0.0
  0
SPLINE
  5
121
330
1F
100
AcDbEntity
  8
0
  6
Continuous
 62
     7
370
    25
100
AcDbSpline
210
0.0
220
0.0
230
1.0
 70
     8
 71
     3
 72
    15
 73
    11
 74
     0
 42
0.000000001
 43
0.00000001
 40
0.0
 40
0.0
 40
0.0
 40
0.0
 40
0.1300328044939352
 40
0.256807484416898
 40
0.3796053463340563
 40
0.5005617617223838
 40
0.6207093368242581
 40
0.7444968787423779
 40
0.8699671955060648
 40
1.0
 40
1.0
 40
1.0
 40
1.0
 10
-29.13043478260859
 20
-49.41358695652173
 30
0.0
 10
-29.13631015832643
 20
-49.52672131859046
 30
0.0
 10
-29.14791369532602
 20
-49.75015532847015
 30
0.0
 10
-29.25144714005513
 20
-50.06632340117972
 30
0.0
 10
-29.40047896986536
 20
-50.3526372740822
 30
0.0
 10
-29.60041318242712
 20
-50.60035571291079
 30
0.0
 10
-29.84802358797392
 20
-50.80081292357922
 30
0.0
 10
-30.1298458669258
 20
-50.95687664890334
 30
0.0
 10
-30.44752946107684
 20
-51.05560383469633
 30
0.0
 10
-30.66959382546958
 20
-51.0677377492788
 30
0.0
 10
-30.78260869565207
 20
-51.07391304347824
 30
0.0
  0
SPLINE
  5
122
330
1F
100
AcDbEntity
  8
0
  6
Continuous
 62
     7
370
    25
100
AcDbSpline
210
0.0
220
0.0
230
1.0
 70
     8
 71
     3
 72
    15
 73
    11
 74
     0
 42
0.000000001
 43
0.00000001
 40
0.0
 40
0.0
 40
0.0
 40
0.0
 40
0.1307599009119404
 40
0.2572413949740566
 40
0.3807258981267567
 40
0.5015452950187443
 40
0.6223646919107322
 40
0.7458491950634323
 40
0.8713294025385845
 40
1.0
 40
1.0
 40
1.0
 40
1.0
 10
-30.78260869565207
 20
-47.76956521739129
 30
0.0
 10
-30.66942774705999
 20
-47.77531339967523
 30
0.0
 10
-30.44676908108318
 20
-47.78662168622922
 30
0.0
 10
-30.13204128418148
 20
-47.89136439728539
 30
0.0
 10
-29.84632038653676
 20
-48.03862679342375
 30
0.0
 10
-29.60168083415156
 20
-48.24080077176273
 30
0.0
 10
-29.39943966397289
 20
-48.48543657844309
 30
0.0
 10
-29.25285472847731
 20
-48.77047008508899
 30
0.0
 10
-29.14769716663007
 20
-49.08221576169663
 30
0.0
 10
-29.13623686486349
 20
-49.3022093549755
 30
0.0
 10
-29.13043478260859
 20
-49.41358695652173
 30
0.0
  0
SPLINE
  5
123
330
1F
100
AcDbEntity
  8
0
  6
Continuous
 62
     7
370
    25
100
AcDbSpline
210
0.0
220
0.0
230
1.0
 70
     8
 71
     3
 72
    15
 73
    11
 74
     0
 42
0.000000001
 43
0.00000001
 40
0.0
 40
0.0
 40
0.0
 40
0.0
 40
0.1287317518563107
 40
0.2539593798481781
 40
0.3784982594931998
 40
0.4993750792716456
 40
0.6210656486530443
 40
0.7436815319547601
 40
0.8702231399775432
 40
1.0
 40
1.0
 40
1.0
 40
1.0
 10
-32.43478260869555
 20
-49.41358695652173
 30
0.0
 10
-32.42856056814994
 20
-49.302373564466
 30
0.0
 10
-32.41628585320539
 20
-49.08297404826263
 30
0.0
 10
-32.31711946273007
 20
-48.7682711779
 30
0.0
 10
-32.16172373675644
 20
-48.48716027083987
 30
0.0
 10
-31.96125673512812
 20
-48.23946677964498
 30
0.0
 10
-31.71396515243254
 20
-48.04042104048758
 30
0.0
 10
-31.43008964670849
 20
-47.8904820528757
 30
0.0
 10
-31.1164947476532
 20
-47.78707686266034
 30
0.0
 10
-30.89483663596634
 20
-47.77545134491379
 30
0.0
 10
-30.78260869565207
 20
-47.76956521739129
 30
0.0
  0
SPLINE
  5
124
330
1F
100
AcDbEntity
  8
0
  6
Continuous
 62
     7
370
    25
100
AcDbSpline
210
0.0
220
0.0
230
1.0
 70
     8
 71
     3
 72
    15
 73
    11
 74
     0
 42
0.000000001
 43
0.00000001
 40
0.0
 40
0.0
 40
0.0
 40
0.0
 40
0.1290532990225944
 40
0.2545813710727057
 40
0.3775111819914077
 40
0.4985232748705994
 40
0.6195353677497932
 40
0.743379890355647
 40
0.86990734005928
 40
1.0
 40
1.0
 40
1.0
 40
1.0
 10
-30.78260869565207
 20
-51.07391304347827
 30
0.0
 10
-30.89467144559996
 20
-51.06760403419727
 30
0.0
 10
-31.11573583329075
 20
-51.05515835287771
 30
0.0
 10
-31.43229815522519
 20
-50.95775208839761
 30
0.0
 10
-31.71223675592573
 20
-50.79900159857181
 30
0.0
 10
-31.96253374449504
 20
-50.60169913462866
 30
0.0
 10
-32.16067304774217
 20
-50.35090576469873
 30
0.0
 10
-32.31854669336814
 20
-50.06852579981507
 30
0.0
 10
-32.41605488161203
 20
-49.74939940223587
 30
0.0
 10
-32.42848248099727
 20
-49.52655642052734
 30
0.0
 10
-32.43478260869555
 20
-49.41358695652173
 30
0.0
  0
SPLINE
  5
131
330
1F
100
AcDbEntity
  8
0
  6
Continuous
 62
     7
370
    25
100
AcDbSpline
210
0.0
220
0.0
230
1.0
 70
     8
 71
     3
 72
    23
 73
    19
 74
     0
 42
0.000000001
 43
0.00000001
 40
0.0
 40
0.0
 40
0.0
 40
0.0
 40
0.0861099819306495
 40
0.1658709532297432
 40
0.2401020714215798
 40
0.308654327179283
 40
0.3728696821782835
 40
0.4328232256043133
 40
0.490212298534104
 40
0.5444870593212705
 40
0.5974516379713741
 40
0.6496231237693926
 40
0.7023371208095961
 40
0.7563471201577175
 40
0.8124168163883452
 40
0.8713282504587513
 40
0.93399643583052
 40
1.0
 40
1.0
 40
1.0
 40
1.0
 10
-82.11413043478252
 20
-41.33478260869565
 30
0.0
 10
-81.94741050891832
 20
-41.33771706012374
 30
0.0
 10
-81.62626315288057
 20
-41.34336960173007
 30
0.0
 10
-81.16225304229158
 20
-41.37724475757085
 30
0.0
 10
-80.73544726510895
 20
-41.43918994966388
 30
0.0
 10
-80.34375179260722
 20
-41.52590664187225
 30
0.0
 10
-79.98675724423086
 20
-41.63620004456133
 30
0.0
 10
-79.66200699717575
 20
-41.77250321494499
 30
0.0
 10
-79.37131911216093
 20
-41.93499435198547
 30
0.0
 10
-79.11212300458023
 20
-42.12176351935734
 30
0.0
 10
-78.8847624061222
 20
-42.331693582026
 30
0.0
 10
-78.68894561358593
 20
-42.56773997747946
 30
0.0
 10
-78.52877513426616
 20
-42.83147590895913
 30
0.0
 10
-78.39746627185629
 20
-43.11881637974843
 30
0.0
 10
-78.29791415225903
 20
-43.43119169075438
 30
0.0
 10
-78.22418622879958
 20
-43.76759620453293
 30
0.0
 10
-78.1807228920446
 20
-44.12892846821612
 30
0.0
 10
-78.17622188412297
 20
-44.37814166099398
 30
0.0
 10
-78.17391304347817
 20
-44.50597826086955
 30
0.0
  0
SPLINE
  5
132
330
1F
100
AcDbEntity
  8
0
  6
Continuous
 62
     7
370
    25
100
AcDbSpline
210
0.0
220
0.0
230
1.0
 70
     8
 71
     3
 72
    15
 73
    11
 74
     0
 42
0.000000001
 43
0.00000001
 40
0.0
 40
0.0
 40
0.0
 40
0.0
 40
0.1088304198943712
 40
0.222866441269104
 40
0.3434056178801595
 40
0.4695361795388686
 40
0.6000265107956376
 40
0.731675062969288
 40
0.8648267539295951
 40
1.0
 40
1.0
 40
1.0
 40
1.0
 10
-85.47826086956512
 20
-42.03043478260869
 30
0.0
 10
-85.36287355057328
 20
-41.98100624366904
 30
0.0
 10
-85.12657968001535
 20
-41.87978488863519
 30
0.0
 10
-84.75173107112899
 20
-41.75136931306125
 30
0.0
 10
-84.35359011624371
 20
-41.63064988840887
 30
0.0
 10
-83.93046064470255
 20
-41.5293432475691
 30
0.0
 10
-83.49130291504817
 20
-41.44157368220363
 30
0.0
 10
-83.03954780507367
 20
-41.378750355663
 30
0.0
 10
-82.57935606644817
 20
-41.34394394691856
 30
0.0
 10
-82.26998258336987
 20
-41.33785168775922
 30
0.0
 10
-82.1141304347825
 20
-41.33478260869565
 30
0.0
  0
SPLINE
  5
134
330
1F
100
AcDbEntity
  8
0
  6
Continuous
 62
     7
370
    25
100
AcDbSpline
210
0.0
220
0.0
230
1.0
 70
     8
 71
     3
 72
    13
 73
     9
 74
     0
 42
0.000000001
 43
0.00000001
 40
0.0
 40
0.0
 40
0.0
 40
0.0
 40
0.1249316930479924
 40
0.2502871333702059
 40
0.3747435191759341
 40
0.5004716681300919
 40
0.7501366139040164
 40
0.9999999999999999
 40
0.9999999999999999
 40
0.9999999999999999
 40
0.9999999999999999
 10
-82.3124999999999
 20
-43.07391304347826
 30
0.0
 10
-82.4484535897764
 20
-43.07576687836101
 30
0.0
 10
-82.72082190102209
 20
-43.07948083602241
 30
0.0
 10
-83.12711176296762
 20
-43.11693956238248
 30
0.0
 10
-83.53206149997628
 20
-43.17286147321571
 30
0.0
 10
-84.06460636710578
 20
-43.28364012318561
 30
0.0
 10
-84.723372760863
 20
-43.45967298280455
 30
0.0
 10
-85.22656486807223
 20
-43.66624045251551
 30
0.0
 10
-85.47826086956512
 20
-43.7695652173913
 30
0.0
  0
SPLINE
  5
135
330
1F
100
AcDbEntity
  8
0
  6
Continuous
 62
     7
370
    25
100
AcDbSpline
210
0.0
220
0.0
230
1.0
 70
     8
 71
     3
 72
    19
 73
    15
 74
     0
 42
0.000000001
 43
0.00000001
 40
0.0
 40
0.0
 40
0.0
 40
0.0
 40
0.1206434335345491
 40
0.2326278508051217
 40
0.3384979093939708
 40
0.4438651270963927
 40
0.4982601074709256
 40
0.5558093857336335
 40
0.6170950520608075
 40
0.6814501132872682
 40
0.7512065937653203
 40
0.8274391920460724
 40
0.9099819695722587
 40
1.0
 40
1.0
 40
1.0
 40
1.0
 10
-80.43478260869556
 20
-44.60923913043478
 30
0.0
 10
-80.43890225647111
 20
-44.49735627822271
 30
0.0
 10
-80.44684586997768
 20
-44.28162081140523
 30
0.0
 10
-80.52385452719655
 20
-43.97532831653602
 30
0.0
 10
-80.65399030480508
 20
-43.70292602358883
 30
0.0
 10
-80.81885123457361
 20
-43.51550521617954
 30
0.0
 10
-80.97939381494324
 20
-43.39386479706676
 30
0.0
 10
-81.11521781259134
 20
-43.30772755263759
 30
0.0
 10
-81.27096006362383
 20
-43.2393675353692
 30
0.0
 10
-81.44146748505004
 20
-43.17872984701584
 30
0.0
 10
-81.6300984460932
 20
-43.12845644548639
 30
0.0
 10
-81.8399019802672
 20
-43.09914575926035
 30
0.0
 10
-82.0691916790308
 20
-43.07493017255776
 30
0.0
 10
-82.22908834361775
 20
-43.07426173858634
 30
0.0
 10
-82.3124999999999
 20
-43.07391304347826
 30
0.0
  0
SPLINE
  5
138
330
1F
100
AcDbEntity
  8
0
  6
Continuous
 62
     7
370
    25
100
AcDbSpline
210
0.0
220
0.0
230
1.0
 70
     8
 71
     3
 72
    23
 73
    19
 74
     0
 42
0.000000001
 43
0.00000001
 40
0.0
 40
0.0
 40
0.0
 40
0.0
 40
0.0528959272254467
 40
0.1042779873106826
 40
0.1545863607480255
 40
0.2053005163781404
 40
0.2562376350596879
 40
0.3081804721990764
 40
0.3609178129676242
 40
0.4165220304811472
 40
0.4747797025525889
 40
0.536525628857962
 40
0.6014866077413815
 40
0.6711384623558844
 40
0.7453414855459793
 40
0.8247620298199612
 40
0.9094091116496845
 40
0.9999999999999999
 40
0.9999999999999999
 40
0.9999999999999999
 40
0.9999999999999999
 10
-86.17391304347815
 20
-48.19891304347825
 30
0.0
 10
-86.17147352564075
 20
-48.09083652020328
 30
0.0
 10
-86.1666643083071
 20
-47.87777659453801
 30
0.0
 10
-86.10776518882807
 20
-47.56688174568232
 30
0.0
 10
-86.02565739048474
 20
-47.26647073448346
 30
0.0
 10
-85.90221481477117
 20
-46.9808548160083
 30
0.0
 10
-85.74310450519063
 20
-46.71016754097123
 30
0.0
 10
-85.55094772055428
 20
-46.45613798153203
 30
0.0
 10
-85.31737501575905
 20
-46.22598835736937
 30
0.0
 10
-85.05112024363976
 20
-46.01360199798263
 30
0.0
 10
-84.7463428491852
 20
-45.82399299322885
 30
0.0
 10
-84.40965048790727
 20
-45.65244140911751
 30
0.0
 10
-84.03616769878825
 20
-45.50586304981337
 30
0.0
 10
-83.62825541049232
 20
-45.38173059985129
 30
0.0
 10
-83.18364678554352
 20
-45.2800821598053
 30
0.0
 10
-82.70185441414401
 20
-45.21235513476788
 30
0.0
 10
-82.18383740078878
 20
-45.16708853749664
 30
0.0
 10
-81.82619229226901
 20
-45.16298890706205
 30
0.0
 10
-81.641304347826
 20
-45.16086956521739
 30
0.0
  0
SPLINE
  5
139
330
1F
100
AcDbEntity
  8
0
  6
Continuous
 62
     7
370
    25
100
AcDbSpline
210
0.0
220
0.0
230
1.0
 70
     8
 71
     3
 72
    23
 73
    19
 74
     0
 42
0.000000001
 43
0.00000001
 40
0.0
 40
0.0
 40
0.0
 40
0.0
 40
0.0743012733601281
 40
0.1449030919743106
 40
0.2112430440037229
 40
0.2751546901503015
 40
0.336598580041356
 40
0.3952142699746578
 40
0.4529617081381458
 40
0.509680919779619
 40
0.5664979865063825
 40
0.6232171981478564
 40
0.681204626698829
 40
0.7411700668808425
 40
0.8032519796449339
 40
0.8663462622361807
 40
0.9321976993215497
 40
1.0
 40
1.0
 40
1.0
 40
1.0
 10
-83.29347826086946
 20
-51.07391304347827
 30
0.0
 10
-83.40770522157793
 20
-51.07115856881028
 30
0.0
 10
-83.63047179131428
 20
-51.06578676455838
 30
0.0
 10
-83.95362041223392
 20
-51.02843894805211
 30
0.0
 10
-84.25590453705195
 20
-50.96311503047229
 30
0.0
 10
-84.53642372018955
 20
-50.87092710503116
 30
0.0
 10
-84.79439598684813
 20
-50.75384928000667
 30
0.0
 10
-85.03147617205417
 20
-50.61681370465087
 30
0.0
 10
-85.24618000731394
 20
-50.45886954896558
 30
0.0
 10
-85.44165974273588
 20
-50.28149846651762
 30
0.0
 10
-85.61164268351135
 20
-50.08186420293566
 30
0.0
 10
-85.76452431539074
 20
-49.86625488370438
 30
0.0
 10
-85.88756622136067
 20
-49.62691301697274
 30
0.0
 10
-85.995308913075
 20
-49.37161839674425
 30
0.0
 10
-86.075242076925
 20
-49.09781171294996
 30
0.0
 10
-86.1319514104221
 20
-48.80947229226511
 30
0.0
 10
-86.16859216253042
 20
-48.50873527289495
 30
0.0
 10
-86.17212224101483
 20
-48.30318720730183
 30
0.0
 10
-86.17391304347815
 20
-48.19891304347825
 30
0.0
  0
SPLINE
  5
13A
330
1F
100
AcDbEntity
  8
0
  6
Continuous
 62
     7
370
    25
100
AcDbSpline
210
0.0
220
0.0
230
1.0
 70
     8
 71
     3
 72
    15
 73
    11
 74
     0
 42
0.000000001
 43
0.00000001
 40
0.0
 40
0.0
 40
0.0
 40
0.0
 40
0.1178439733829694
 40
0.2348843986875824
 40
0.351483041354891
 40
0.4704626944702365
 40
0.5919830900526774
 40
0.7200540651061464
 40
0.8546460350894985
 40
0.9999999999999999
 40
0.9999999999999999
 40
0.9999999999999999
 40
0.9999999999999999
 10
-80.16847826086946
 20
-49.66358695652173
 30
0.0
 10
-80.26598141143714
 20
-49.76268735710237
 30
0.0
 10
-80.46032286339077
 20
-49.9602124178404
 30
0.0
 10
-80.77305114411276
 20
-50.23306366210814
 30
0.0
 10
-81.1092210918034
 20
-50.4791175079276
 30
0.0
 10
-81.47727135571058
 20
-50.68619630423198
 30
0.0
 10
-81.87973903791865
 20
-50.85265817250623
 30
0.0
 10
-82.31492974246046
 20
-50.98224439067908
 30
0.0
 10
-82.79175206154716
 20
-51.05849857781852
 30
0.0
 10
-83.12200422007021
 20
-51.06864486988675
 30
0.0
 10
-83.29347826086946
 20
-51.07391304347827
 30
0.0
  0
SPLINE
  5
13E
330
1F
100
AcDbEntity
  8
0
  6
Continuous
 62
     7
370
    25
100
AcDbSpline
210
0.0
220
0.0
230
1.0
 70
     8
 71
     3
 72
     8
 73
     4
 74
     0
 42
0.000000001
 43
0.00000001
 40
0.0
 40
0.0
 40
0.0
 40
0.0
 40
0.1536940836369457
 40
0.1536940836369457
 40
0.1536940836369457
 40
0.1536940836369457
 10
-0.22826086956515
 20
-41.33478260869565
 30
0.0
 10
-0.1521593399896465
 20
-41.3360132226752
 30
0.0
 10
-0.0760578104141429
 20
-41.33724383665474
 30
0.0
 10
-0.0000000000102279
 20
-41.33929563960538
 30
0.0
  0
SPLINE
  5
13F
330
1F
100
AcDbEntity
  8
0
  6
Continuous
 62
     7
370
    25
100
AcDbSpline
210
0.0
220
0.0
230
1.0
 70
     8
 71
     3
 72
    23
 73
    19
 74
     0
 42
0.000000001
 43
0.00000001
 40
0.0
 40
0.0
 40
0.0
 40
0.0
 40
0.0684380115679595
 40
0.1341248184090804
 40
0.1965495991545722
 40
0.2577725482364777
 40
0.3176223148934947
 40
0.375733065764954
 40
0.4333263684256069
 40
0.4906706357484675
 40
0.5487978032459687
 40
0.6077662711260975
 40
0.668492402658478
 40
0.7309152728409519
 40
0.795253733764551
 40
0.8613478007187302
 40
0.929628792143518
 40
1.0
 40
1.0
 40
1.0
 40
1.0
 10
-3.913043478260797
 20
-44.61739130434783
 30
0.0
 10
-3.910637754879598
 20
-44.49033116886663
 30
0.0
 10
-3.905923018079779
 20
-44.24131870915298
 30
0.0
 10
-3.84786747609725
 20
-43.88060679795133
 30
0.0
 10
-3.76657460947169
 20
-43.53832610820929
 30
0.0
 10
-3.64175360297897
 20
-43.22076666696486
 30
0.0
 10
-3.491217650594194
 20
-42.92376469968298
 30
0.0
 10
-3.30869078844348
 20
-42.65344287404893
 30
0.0
 10
-3.106208212204975
 20
-42.40351402095141
 30
0.0
 10
-2.871483060262817
 20
-42.18353291885447
 30
0.0
 10
-2.616640818156296
 20
-41.98333751412613
 30
0.0
 10
-2.333813019869513
 20
-41.8123597819394
 30
0.0
 10
-2.029299009865981
 20
-41.66501297102732
 30
0.0
 10
-1.701751142430374
 20
-41.54683950796171
 30
0.0
 10
-1.356710705188724
 20
-41.45117467581976
 30
0.0
 10
-0.9939510186410816
 20
-41.38403423870346
 30
0.0
 10
-0.6160169577213714
 20
-41.34229812789606
 30
0.0
 10
-0.3588054083367154
 20
-41.33731283328171
 30
0.0
 10
-0.22826086956515
 20
-41.33478260869565
 30
0.0
  0
SPLINE
  5
140
330
1F
100
AcDbEntity
  8
0
  6
Continuous
 62
     7
370
    25
100
AcDbSpline
210
0.0
220
0.0
230
1.0
 70
     8
 71
     3
 72
    15
 73
    11
 74
     0
 42
0.000000001
 43
0.00000001
 40
0.0
 40
0.0
 40
0.0
 40
0.0
 40
0.1073975988197865
 40
0.2168382052665154
 40
0.3296168260666337
 40
0.4462637003998922
 40
0.5690872320565865
 40
0.701494550618504
 40
0.8445965322266641
 40
1.0
 40
1.0
 40
1.0
 40
1.0
 10
-3.138586956521666
 20
-46.65543478260869
 30
0.0
 10
-3.193456808647077
 20
-46.59683083860449
 30
0.0
 10
-3.304240293462934
 20
-46.4785081369887
 30
0.0
 10
-3.446099711759465
 20
-46.27673394364749
 30
0.0
 10
-3.581073588392797
 20
-46.06263402844204
 30
0.0
 10
-3.699483455653394
 20
-45.82715128041998
 30
0.0
 10
-3.795220209825728
 20
-45.56589759325325
 30
0.0
 10
-3.866028997262433
 20
-45.27638894496043
 30
0.0
 10
-3.905843515057406
 20
-44.9563639844484
 30
0.0
 10
-3.910578447926833
 20
-44.73344438895838
 30
0.0
 10
-3.913043478260797
 20
-44.61739130434783
 30
0.0
  0
SPLINE
  5
141
330
1F
100
AcDbEntity
  8
0
  6
Continuous
 62
     7
370
    25
100
AcDbSpline
210
0.0
220
0.0
230
1.0
 70
     8
 71
     3
 72
    15
 73
    11
 74
     0
 42
0.000000001
 43
0.00000001
 40
0.0
 40
0.0
 40
0.0
 40
0.0
 40
0.1323583552738695
 40
0.2577763992584397
 40
0.381637348225685
 40
0.5035463829538188
 40
0.626076051539436
 40
0.7492897982109263
 40
0.8743859561743964
 40
1.0
 40
1.0
 40
1.0
 40
1.0
 10
-4.086956521739071
 20
-48.72336956521738
 30
0.0
 10
-4.08382828215284
 20
-48.62068733499652
 30
0.0
 10
-4.077735834608548
 20
-48.42070709559725
 30
0.0
 10
-4.014598935277752
 20
-48.13014832462023
 30
0.0
 10
-3.916783199348767
 20
-47.85940080775228
 30
0.0
 10
-3.800698628944957
 20
-47.59820643581362
 30
0.0
 10
-3.656405930942352
 20
-47.3522278448855
 30
0.0
 10
-3.500039002982611
 20
-47.11090808444929
 30
0.0
 10
-3.320659385670999
 20
-46.88312085966902
 30
0.0
 10
-3.199361287065383
 20
-46.73143458648957
 30
0.0
 10
-3.138586956521666
 20
-46.65543478260869
 30
0.0
  0
SPLINE
  5
142
330
1F
100
AcDbEntity
  8
0
  6
Continuous
 62
     7
370
    25
100
AcDbSpline
210
0.0
220
0.0
230
1.0
 70
     8
 71
     3
 72
    15
 73
    11
 74
     0
 42
0.000000001
 43
0.00000001
 40
0.0
 40
0.0
 40
0.0
 40
0.0
 40
0.1340403987155993
 40
0.260794929144069
 40
0.3875494595725408
 40
0.5115904409678564
 40
0.6348318826523817
 40
0.7566380134429963
 40
0.8771645153065498
 40
1.0
 40
1.0
 40
1.0
 40
1.0
 10
-3.182065217391242
 20
-50.27771739130434
 30
0.0
 10
-3.253191144199738
 20
-50.23249577813957
 30
0.0
 10
-3.391576893720549
 20
-50.14451060714566
 30
0.0
 10
-3.573940826697333
 20
-49.98203728241348
 30
0.0
 10
-3.732008358083849
 20
-49.80449685149096
 30
0.0
 10
-3.860092015301547
 20
-49.60663025152686
 30
0.0
 10
-3.960454705092417
 20
-49.39712735234883
 30
0.0
 10
-4.034362731779928
 20
-49.1793128866336
 30
0.0
 10
-4.0799763203207
 20
-48.95352999715598
 30
0.0
 10
-4.08461511719152
 20
-48.80057345228383
 30
0.0
 10
-4.086956521739071
 20
-48.72336956521738
 30
0.0
  0
SPLINE
  5
143
330
1F
100
AcDbEntity
  8
0
  6
Continuous
 62
     7
370
    25
100
AcDbSpline
210
0.0
220
0.0
230
1.0
 70
     8
 71
     3
 72
    15
 73
    11
 74
     0
 42
0.000000001
 43
0.00000001
 40
0.0
 40
0.0
 40
0.0
 40
0.0
 40
0.1223524201059426
 40
0.2359537902477081
 40
0.3487814757678517
 40
0.4628906041745438
 40
0.5837447748721701
 40
0.7100195127049256
 40
0.8484368682344073
 40
1.0
 40
1.0
 40
1.0
 40
1.0
 10
-4.434782608695592
 20
-52.34021739130434
 30
0.0
 10
-4.431470243434016
 20
-52.23756819613278
 30
0.0
 10
-4.425082424235352
 20
-52.03961161590627
 30
0.0
 10
-4.365698419385222
 20
-51.75184745075755
 30
0.0
 10
-4.26666414175661
 20
-51.4831434778878
 30
0.0
 10
-4.127283707419521
 20
-51.2260885005829
 30
0.0
 10
-3.950007114645854
 20
-50.97972806648645
 30
0.0
 10
-3.732765673486544
 20
-50.73982843818997
 30
0.0
 10
-3.476146967706539
 20
-50.50265231887226
 30
0.0
 10
-3.283010965781208
 20
-50.35492797842183
 30
0.0
 10
-3.182065217391242
 20
-50.27771739130434
 30
0.0
  0
SPLINE
  5
144
330
1F
100
AcDbEntity
  8
0
  6
Continuous
 62
     7
370
    25
100
AcDbSpline
210
0.0
220
0.0
230
1.0
 70
     8
 71
     3
 72
    23
 73
    19
 74
     0
 42
0.000000001
 43
0.00000001
 40
0.0
 40
0.0
 40
0.0
 40
0.0
 40
0.0993065116609807
 40
0.1912681575924463
 40
0.2766642318382457
 40
0.3556463109019157
 40
0.4286182942475963
 40
0.4956940404812107
 40
0.5581819041101637
 40
0.6158503424943296
 40
0.6695425131109102
 40
0.7199720995561752
 40
0.7682777484215949
 40
0.8150091539545181
 40
0.8609947616408394
 40
0.9063471939581944
 40
0.9527681780547479
 40
1.0
 40
1.0
 40
1.0
 40
1.0
 10
-0.2038043478260199
 20
-54.72608695652173
 30
0.0
 10
-0.3831929635052245
 20
-54.72406963565792
 30
0.0
 10
-0.7287023308179541
 20
-54.72018419815291
 30
0.0
 10
-1.227815697856002
 20
-54.68871338282641
 30
0.0
 10
-1.687414717198604
 20
-54.63075114124823
 30
0.0
 10
-2.11005090521918
 20
-54.55698066671532
 30
0.0
 10
-2.493729276049197
 20
-54.45872705312448
 30
0.0
 10
-2.841374273238856
 20
-54.34415951899049
 30
0.0
 10
-3.155078138438211
 20
-54.21633482071088
 30
0.0
 10
-3.431235063394738
 20
-54.06565972632673
 30
0.0
 10
-3.673237651287631
 20
-53.90048867252228
 30
0.0
 10
-3.878087247672093
 20
-53.71564233473794
 30
0.0
 10
-4.055372855048867
 20
-53.52069011501433
 30
0.0
 10
-4.194727709400742
 20
-53.30613507858765
 30
0.0
 10
-4.300405085285231
 20
-53.07950448336509
 30
0.0
 10
-4.377914501250412
 20
-52.84246645056403
 30
0.0
 10
-4.424923745179401
 20
-52.5947852290596
 30
0.0
 10
-4.43147740717835
 20
-52.42556171138837
 30
0.0
 10
-4.434782608695592
 20
-52.34021739130436
 30
0.0
  0
SPLINE
  5
145
330
1F
100
AcDbEntity
  8
0
  6
Continuous
 62
     7
370
    25
100
AcDbSpline
210
0.0
220
0.0
230
1.0
 70
     8
 71
     3
 72
     8
 73
     4
 74
     0
 42
0.000000001
 43
0.00000001
 40
0.9674766918578239
 40
0.9674766918578239
 40
0.9674766918578239
 40
0.9674766918578239
 40
1.0
 40
1.0
 40
1.0
 40
1.0
 10
-0.0000000000002914
 20
-54.72235497252037
 30
0.0
 10
-0.0679240824585786
 20
-54.7238284333656
 30
0.0
 10
-0.1358642151422923
 20
-54.72495769494367
 30
0.0
 10
-0.2038043478260199
 20
-54.72608695652175
 30
0.0
  0
SPLINE
  5
14D
330
1F
100
AcDbEntity
  8
0
  6
Continuous
 62
     7
370
    25
100
AcDbSpline
210
0.0
220
0.0
230
1.0
 70
     8
 71
     3
 72
    15
 73
    11
 74
     0
 42
0.000000001
 43
0.00000001
 40
0.0
 40
0.0
 40
0.0
 40
0.0
 40
0.0965718000361253
 40
0.1878996958897002
 40
0.282674214265336
 40
0.3904769988438847
 40
0.5149690488397591
 40
0.6574487731857415
 40
0.8180112168000977
 40
0.9999999999999999
 40
0.9999999999999999
 40
0.9999999999999999
 40
0.9999999999999999
 10
-2.173913043478193
 20
-52.1445652173913
 30
0.0
 10
-2.168765491593727
 20
-52.22741502630392
 30
0.0
 10
-2.158749902847257
 20
-52.38861585194221
 30
0.0
 10
-2.045917937594621
 20
-52.60843357561836
 30
0.0
 10
-1.867942806900571
 20
-52.78856413732741
 30
0.0
 10
-1.623657597014605
 20
-52.92782052094702
 30
0.0
 10
-1.321489357584762
 20
-53.03399299827448
 30
0.0
 10
-0.9638718453477135
 20
-53.10639827682025
 30
0.0
 10
-0.5528274094607627
 20
-53.15258260500074
 30
0.0
 10
-0.2610122549852878
 20
-53.15799441026741
 30
0.0
 10
-0.1059782608694992
 20
-53.1608695652174
 30
0.0
  0
SPLINE
  5
14E
330
1F
100
AcDbEntity
  8
0
  6
Continuous
 62
     7
370
    25
100
AcDbSpline
210
0.0
220
0.0
230
1.0
 70
     8
 71
     3
 72
    15
 73
    11
 74
     0
 42
0.000000001
 43
0.00000001
 40
0.0
 40
0.0
 40
0.0
 40
0.0
 40
0.1793605016011663
 40
0.3344899908384
 40
0.4669574426708721
 40
0.5852868403103751
 40
0.6912742778085006
 40
0.7935023259273194
 40
0.8938183868810748
 40
1.0
 40
1.0
 40
1.0
 40
1.0
 10
-1.317934782608637
 20
-50.8429347826087
 30
0.0
 10
-1.398733805583641
 20
-50.89852483023471
 30
0.0
 10
-1.549416169946999
 20
-51.00219489334864
 30
0.0
 10
-1.743912841549428
 20
-51.16840793675222
 30
0.0
 10
-1.89672785546556
 20
-51.32947253660939
 30
0.0
 10
-2.017816604706152
 20
-51.48336709386397
 30
0.0
 10
-2.098818186459628
 20
-51.64357793343321
 30
0.0
 10
-2.148804658170744
 20
-51.80558923633807
 30
0.0
 10
-2.168350701079097
 20
-51.97377850207433
 30
0.0
 10
-2.172024148009738
 20
-52.08656838269681
 30
0.0
 10
-2.173913043478193
 20
-52.1445652173913
 30
0.0
  0
SPLINE
  5
151
330
1F
100
AcDbEntity
  8
0
  6
Continuous
 62
     7
370
    25
100
AcDbSpline
210
0.0
220
0.0
230
1.0
 70
     8
 71
     3
 72
     8
 73
     4
 74
     0
 42
0.000000001
 43
0.00000001
 40
0.0
 40
0.0
 40
0.0
 40
0.0
 40
0.0357662975623164
 40
0.0357662975623164
 40
0.0357662975623164
 40
0.0357662975623164
 10
-0.1059782608694992
 20
-53.1608695652174
 30
0.0
 10
-0.0706504911092837
 20
-53.16028203684163
 30
0.0
 10
-0.0353227213490681
 20
-53.15969450846588
 30
0.0
 10
0.0000000000020678
 20
-53.15897119031385
 30
0.0
  0
SPLINE
  5
152
330
1F
100
AcDbEntity
  8
0
  6
Continuous
 62
     7
370
    25
100
AcDbSpline
210
0.0
220
0.0
230
1.0
 70
     8
 71
     3
 72
     9
 73
     5
 74
     0
 42
0.000000001
 43
0.00000001
 40
0.0
 40
0.0
 40
0.0
 40
0.0
 40
0.0743556705799459
 40
0.0989458215103284
 40
0.0989458215103284
 40
0.0989458215103284
 40
0.0989458215103284
 10
-0.2527173913042802
 20
-46.20434782608696
 30
0.0
 10
-0.1891741866855423
 20
-46.20320483711024
 30
0.0
 10
-0.1046166198804821
 20
-46.20168385044715
 30
0.0
 10
-0.0207890120885457
 20
-46.19179906250097
 30
0.0
 10
0.000000003055764
 20
-46.18892858766063
 30
0.0
  0
SPLINE
  5
153
330
1F
100
AcDbEntity
  8
0
  6
Continuous
 62
     7
370
    25
100
AcDbSpline
210
0.0
220
0.0
230
1.0
 70
     8
 71
     3
 72
    15
 73
    11
 74
     0
 42
0.000000001
 43
0.00000001
 40
0.0
 40
0.0
 40
0.0
 40
0.0
 40
0.1381667106125139
 40
0.2645577507056787
 40
0.3839715642889811
 40
0.5012316911939115
 40
0.6179948063898548
 40
0.7359530318332697
 40
0.861833289387486
 40
1.0
 40
1.0
 40
1.0
 40
1.0
 10
-1.826086956521672
 20
-44.59836956521739
 30
0.0
 10
-1.820866599300697
 20
-44.71563079757303
 30
0.0
 10
-1.810870805392467
 20
-44.94015932357945
 30
0.0
 10
-1.735100621983815
 20
-45.25943411434275
 30
0.0
 10
-1.602575654007066
 20
-45.539969432364
 30
0.0
 10
-1.418433665825683
 20
-45.77925293077766
 30
0.0
 10
-1.188031178938481
 20
-45.9737780220824
 30
0.0
 10
-0.9100911803932299
 20
-46.107150822484
 30
0.0
 10
-0.5945413757179052
 20
-46.19107797677425
 30
0.0
 10
-0.3701392942048465
 20
-46.19978942460388
 30
0.0
 10
-0.2527173913042802
 20
-46.20434782608696
 30
0.0
  0
SPLINE
  5
154
330
1F
100
AcDbEntity
  8
0
  6
Continuous
 62
     7
370
    25
100
AcDbSpline
210
0.0
220
0.0
230
1.0
 70
     8
 71
     3
 72
    17
 73
    13
 74
     0
 42
0.000000001
 43
0.00000001
 40
0.0
 40
0.0
 40
0.0
 40
0.0
 40
0.0733713746633242
 40
0.143275487918856
 40
0.2093156203367325
 40
0.272321985395833
 40
0.3930093705525473
 40
0.5092864369388642
 40
0.6248824636448346
 40
0.7474050064997587
 40
0.8718942862535084
 40
0.9999999999999999
 40
0.9999999999999999
 40
0.9999999999999999
 40
0.9999999999999999
 10
-0.2690217391303762
 20
-42.89999999999999
 30
0.0
 10
-0.332541791022517
 20
-42.90123331010138
 30
0.0
 10
-0.4565801706936101
 20
-42.90364164860317
 30
0.0
 10
-0.6358822173139766
 20
-42.93196277569199
 30
0.0
 10
-0.8029558934551373
 20
-42.9746030410953
 30
0.0
 10
-1.004135813758966
 20
-43.05436783237062
 30
0.0
 10
-1.229856772153981
 20
-43.18685594922539
 30
0.0
 10
-1.451374937615546
 20
-43.40055550338314
 30
0.0
 10
-1.620147336705333
 20
-43.6590299456584
 30
0.0
 10
-1.740147992366742
 20
-43.9504649037651
 30
0.0
 10
-1.811706857528586
 20
-44.26890496702092
 30
0.0
 10
-1.821248056014829
 20
-44.48750479217455
 30
0.0
 10
-1.826086956521672
 20
-44.59836956521739
 30
0.0
  0
SPLINE
  5
155
330
1F
100
AcDbEntity
  8
0
  6
Continuous
 62
     7
370
    25
100
AcDbSpline
210
0.0
220
0.0
230
1.0
 70
     8
 71
     3
 72
     8
 73
     4
 74
     0
 42
0.000000001
 43
0.00000001
 40
0.8956185817131777
 40
0.8956185817131777
 40
0.8956185817131777
 40
0.8956185817131777
 40
1.0
 40
1.0
 40
1.0
 40
1.0
 10
-0.0000000046938148
 20
-42.91661774489582
 30
0.0
 10
-0.0891928123806784
 20
-42.90710564404666
 30
0.0
 10
-0.1791072757555273
 20
-42.90355282202333
 30
0.0
 10
-0.2690217391303762
 20
-42.89999999999999
 30
0.0
  0
SPLINE
  5
158
330
1F
100
AcDbEntity
  8
0
  6
Continuous
 62
     7
370
    25
100
AcDbSpline
210
0.0
220
0.0
230
1.0
 70
     8
 71
     3
 72
    15
 73
    11
 74
     0
 42
0.000000001
 43
0.00000001
 40
0.0
 40
0.0
 40
0.0
 40
0.0
 40
0.1019350546523845
 40
0.2089181367469848
 40
0.3206005556338015
 40
0.4389113155243656
 40
0.564860948311081
 40
0.699714617136102
 40
0.8446792507389996
 40
1.0
 40
1.0
 40
1.0
 40
1.0
 10
-1.999999999999932
 20
-48.22608695652175
 30
0.0
 10
-1.995655718520645
 20
-48.27623660878842
 30
0.0
 10
-1.986752018068888
 20
-48.37901942423686
 30
0.0
 10
-1.934483940439824
 20
-48.53035008568048
 30
0.0
 10
-1.841547521729936
 20
-48.66924739395802
 30
0.0
 10
-1.719084845153707
 20
-48.79674288331242
 30
0.0
 10
-1.560059036563588
 20
-48.89668276397116
 30
0.0
 10
-1.381220514203127
 20
-48.98705326263211
 30
0.0
 10
-1.172533275902193
 20
-49.04381227091663
 30
0.0
 10
-1.024789246704738
 20
-49.05469635965564
 30
0.0
 10
-0.9483695652173219
 20
-49.06032608695651
 30
0.0
  0
SPLINE
  5
159
330
1F
100
AcDbEntity
  8
0
  6
Continuous
 62
     7
370
    25
100
AcDbSpline
210
0.0
220
0.0
230
1.0
 70
     8
 71
     3
 72
    11
 73
     7
 74
     0
 42
0.000000001
 43
0.00000001
 40
0.0
 40
0.0
 40
0.0
 40
0.0
 40
0.2302824494426195
 40
0.4706566628334427
 40
0.7239957144981198
 40
1.0
 40
1.0
 40
1.0
 40
1.0
 10
-1.752717391304282
 20
-47.44619565217391
 30
0.0
 10
-1.78536814551522
 20
-47.50091019958676
 30
0.0
 10
-1.852100521573905
 20
-47.61273707287258
 30
0.0
 10
-1.936480920328137
 20
-47.79514845763751
 30
0.0
 10
-1.989213570459017
 20
-48.00315294689781
 30
0.0
 10
-1.996303334492078
 20
-48.149684245061
 30
0.0
 10
-1.999999999999932
 20
-48.22608695652175
 30
0.0
  0
SPLINE
  5
15A
330
1F
100
AcDbEntity
  8
0
  6
Continuous
 62
     7
370
    25
100
AcDbSpline
210
0.0
220
0.0
230
1.0
 70
     8
 71
     3
 72
    13
 73
     9
 74
     0
 42
0.000000001
 43
0.00000001
 40
0.0
 40
0.0
 40
0.0
 40
0.0
 40
0.2977332159656069
 40
0.5759605717229065
 40
0.7035632438899877
 40
0.8164978198507489
 40
0.9142110122632848
 40
1.0
 40
1.0
 40
1.0
 40
1.0
 10
-0.2581521739129788
 20
-47.7695652173913
 30
0.0
 10
-0.4114664982720617
 20
-47.7648574882049
 30
0.0
 10
-0.7080508267111735
 20
-47.75575045463147
 30
0.0
 10
-1.067125208367825
 20
-47.69738883563789
 30
0.0
 10
-1.324556626158977
 20
-47.62596933203964
 30
0.0
 10
-1.490841912042809
 20
-47.57378582695257
 30
0.0
 10
-1.631468898848326
 20
-47.51356464183236
 30
0.0
 10
-1.714090853664529
 20
-47.46765761645968
 30
0.0
 10
-1.752717391304282
 20
-47.44619565217391
 30
0.0
  0
SPLINE
  5
15B
330
1F
100
AcDbEntity
  8
0
  6
Continuous
 62
     7
370
    25
100
AcDbSpline
210
0.0
220
0.0
230
1.0
 70
     8
 71
     3
 72
     8
 73
     4
 74
     0
 42
0.000000001
 43
0.00000001
 40
0.9530391501214218
 40
0.9530391501214218
 40
0.9530391501214218
 40
0.9530391501214218
 40
1.0
 40
1.0
 40
1.0
 40
1.0
 10
0.0000000000012074
 20
-47.76267931423149
 30
0.0
 10
-0.0860074166069841
 20
-47.7659289649794
 30
0.0
 10
-0.1720797952599745
 20
-47.76774709118535
 30
0.0
 10
-0.2581521739129788
 20
-47.7695652173913
 30
0.0
  0
SPLINE
  5
15F
330
1F
100
AcDbEntity
  8
0
  6
Continuous
 62
     7
370
    25
100
AcDbSpline
210
0.0
220
0.0
230
1.0
 70
     8
 71
     3
 72
    23
 73
    19
 74
     0
 42
0.000000001
 43
0.00000001
 40
0.0
 40
0.0
 40
0.0
 40
0.0
 40
0.0645134618576644
 40
0.1253301081504904
 40
0.1823175868560591
 40
0.2368206746113854
 40
0.288064919480213
 40
0.3401447234255797
 40
0.3917248162027426
 40
0.4438046201481093
 40
0.4989376706016591
 40
0.5566402650726919
 40
0.6186053810608969
 40
0.6850525875096264
 40
0.755759165880594
 40
0.8318234355837167
 40
0.9134668910372159
 40
1.0
 40
1.0
 40
1.0
 40
1.0
 10
-49.65217391304341
 20
-42.42445652173914
 30
0.0
 10
-49.65347366953871
 20
-42.3555320418835
 30
0.0
 10
-49.65599870256956
 20
-42.22163266234652
 30
0.0
 10
-49.68302089911157
 20
-42.02823123491387
 30
0.0
 10
-49.73002629765507
 20
-41.85000781648232
 30
0.0
 10
-49.79113375622627
 20
-41.68688920793169
 30
0.0
 10
-49.87196266447098
 20
-41.5382601908718
 30
0.0
 10
-49.97241535905958
 20
-41.40614204163048
 30
0.0
 10
-50.09010002130937
 20
-41.28781260511065
 30
0.0
 10
-50.22660419846814
 20
-41.18641759799538
 30
0.0
 10
-50.37856669438723
 20
-41.09671703634543
 30
0.0
 10
-50.54949083946311
 20
-41.02092636924792
 30
0.0
 10
-50.73731648537697
 20
-40.9551164802246
 30
0.0
 10
-50.9442753138695
 20
-40.90522731978074
 30
0.0
 10
-51.16833346313772
 20
-40.8641096394246
 30
0.0
 10
-51.41064100798876
 20
-40.83513900514004
 30
0.0
 10
-51.67086174131454
 20
-40.8151682836613
 30
0.0
 10
-51.85050277633339
 20
-40.81376534333494
 30
0.0
 10
-51.94293478260862
 20
-40.81304347826087
 30
0.0
  0
SPLINE
  5
160
330
1F
100
AcDbEntity
  8
0
  6
Continuous
 62
     7
370
    25
100
AcDbSpline
210
0.0
220
0.0
230
1.0
 70
     8
 71
     3
 72
    21
 73
    17
 74
     0
 42
0.000000001
 43
0.00000001
 40
0.0
 40
0.0
 40
0.0
 40
0.0
 40
0.1560493772472114
 40
0.2989942095164704
 40
0.3661691434474606
 40
0.429430520426338
 40
0.4902274733894004
 40
0.548656032209841
 40
0.6053600200112532
 40
0.6604539219485177
 40
0.7146932133803335
 40
0.7689958019412035
 40
0.8242888691079613
 40
0.8806586756621828
 40
0.9385734760000665
 40
0.9999999999999999
 40
0.9999999999999999
 40
0.9999999999999999
 40
0.9999999999999999
 10
-52.01902173913037
 20
-44.11739130434783
 30
0.0
 10
-51.84838442325474
 20
-44.11253080867839
 30
0.0
 10
-51.52143938653458
 20
-44.10321798676151
 30
0.0
 10
-51.12572620049954
 20
-44.03519807263559
 30
0.0
 10
-50.83690177104553
 20
-43.95711752082181
 30
0.0
 10
-50.64300254166373
 20
-43.87834674765659
 30
0.0
 10
-50.462500476439
 20
-43.79306326005665
 30
0.0
 10
-50.29869147677817
 20
-43.6917235868174
 30
0.0
 10
-50.15068298664513
 20
-43.57824503920308
 30
0.0
 10
-50.02300632936052
 20
-43.4487465117635
 30
0.0
 10
-49.90959740130393
 20
-43.31001442267524
 30
0.0
 10
-49.81661582269145
 20
-43.15624716034634
 30
0.0
 10
-49.74385537999418
 20
-42.98973506716776
 30
0.0
 10
-49.68781421448537
 20
-42.8125293573073
 30
0.0
 10
-49.65887965649089
 20
-42.62196032075437
 30
0.0
 10
-49.65445258435915
 20
-42.49157007075711
 30
0.0
 10
-49.65217391304341
 20
-42.42445652173914
 30
0.0
  0
SPLINE
  5
162
330
1F
100
AcDbEntity
  8
0
  6
Continuous
 62
     7
370
    25
100
AcDbSpline
210
0.0
220
0.0
230
1.0
 70
     8
 71
     3
 72
    21
 73
    17
 74
     0
 42
0.000000001
 43
0.00000001
 40
0.0
 40
0.0
 40
0.0
 40
0.0
 40
0.081060458346414
 40
0.1565229953246578
 40
0.2279629463268294
 40
0.2959528574207708
 40
0.3609214150907306
 40
0.422402312943869
 40
0.4818062624994187
 40
0.5391912802528551
 40
0.5953715654615334
 40
0.6521958456291843
 40
0.7079600711599363
 40
0.7645276331402313
 40
0.880200861459131
 40
1.0
 40
1.0
 40
1.0
 40
1.0
 10
-69.45652173913045
 20
27.78260869565216
 30
0.0
 10
-69.45686300187565
 20
27.85435903376242
 30
0.0
 10
-69.4575219602403
 20
27.99290473243808
 30
0.0
 10
-69.47751597293806
 20
28.19401075704625
 30
0.0
 10
-69.51611178902695
 20
28.38054513406932
 30
0.0
 10
-69.57067009388265
 20
28.55327628473652
 30
0.0
 10
-69.63822261945542
 20
28.71183759602028
 30
0.0
 10
-69.71824739729995
 20
28.85578891427703
 30
0.0
 10
-69.80826623794268
 20
28.98577447426193
 30
0.0
 10
-69.91141614353624
 20
29.09934558740708
 30
0.0
 10
-70.02369103892453
 20
29.20030723950992
 30
0.0
 10
-70.1448242186733
 20
29.28816913175587
 30
0.0
 10
-70.27571341094081
 20
29.36155152338089
 30
0.0
 10
-70.46182711860963
 20
29.43981181705353
 30
0.0
 10
-70.71312041774296
 20
29.50936721013932
 30
0.0
 10
-70.921874029893
 20
29.51756726364849
 30
0.0
 10
-71.02807971014494
 20
29.52173913043477
 30
0.0
  0
SPLINE
  5
164
330
1F
100
AcDbEntity
  8
0
  6
Continuous
 62
     7
370
    25
100
AcDbSpline
210
0.0
220
0.0
230
1.0
 70
     8
 71
     3
 72
    19
 73
    15
 74
     0
 42
0.000000001
 43
0.00000001
 40
0.0
 40
0.0
 40
0.0
 40
0.0
 40
0.064899332621561
 40
0.126984238109848
 40
0.1865054241666189
 40
0.245137311129264
 40
0.3035565918387237
 40
0.3608949911462797
 40
0.4185999273127433
 40
0.477496492845368
 40
0.5973634984074696
 40
0.720855047669651
 40
0.8541560594754352
 40
1.0
 40
1.0
 40
1.0
 40
1.0
 10
-71.02807971014494
 20
29.52173913043477
 30
0.0
 10
-71.0870545469001
 20
29.52077654636093
 30
0.0
 10
-71.20244671520906
 20
29.51889312167388
 30
0.0
 10
-71.37027297230505
 20
29.49416535098982
 30
0.0
 10
-71.53076885373893
 20
29.46159855708566
 30
0.0
 10
-71.68350369931166
 20
29.41141218537148
 30
0.0
 10
-71.82740620747032
 20
29.34499899417992
 30
0.0
 10
-71.96552819029904
 20
29.26868277563063
 30
0.0
 10
-72.0923373120434
 20
29.17394210983819
 30
0.0
 10
-72.25362200583507
 20
29.03202824687742
 30
0.0
 10
-72.43030836258787
 20
28.81881232252637
 30
0.0
 10
-72.58853375333754
 20
28.51386429226449
 30
0.0
 10
-72.70736286591611
 20
28.16593651254609
 30
0.0
 10
-72.74072274707551
 20
27.91415575551282
 30
0.0
 10
-72.75815217391306
 20
27.78260869565216
 30
0.0
  0
SPLINE
  5
166
330
1F
100
AcDbEntity
  8
0
  6
Continuous
 62
     7
370
    25
100
AcDbSpline
210
0.0
220
0.0
230
1.0
 70
     8
 71
     3
 72
    15
 73
    11
 74
     0
 42
0.000000001
 43
0.00000001
 40
0.0
 40
0.0
 40
0.0
 40
0.0
 40
0.0968556518402961
 40
0.1951928566582661
 40
0.2999247701479519
 40
0.4135944515486101
 40
0.5395381176424537
 40
0.6800995297887332
 40
0.8330191723557957
 40
1.0
 40
1.0
 40
1.0
 40
1.0
 10
-80.04302536231886
 20
24.44927536231883
 30
0.0
 10
-79.96694393991858
 20
24.45421483364881
 30
0.0
 10
-79.8136173152481
 20
24.46416933295745
 30
0.0
 10
-79.58922418362548
 20
24.54243890913685
 30
0.0
 10
-79.3716188445747
 20
24.66419580768074
 30
0.0
 10
-79.16270734116227
 20
24.83706251109099
 30
0.0
 10
-78.9553684661111
 20
25.05145242183861
 30
0.0
 10
-78.73921061617773
 20
25.29944782115971
 30
0.0
 10
-78.51664914570405
 20
25.58395375608794
 30
0.0
 10
-78.37239753523824
 20
25.7891686746102
 30
0.0
 10
-78.29710144927537
 20
25.89628623188403
 30
0.0
  0
SPLINE
  5
167
330
1F
100
AcDbEntity
  8
0
  6
Continuous
 62
     7
370
    25
100
AcDbSpline
210
0.0
220
0.0
230
1.0
 70
     8
 71
     3
 72
    23
 73
    19
 74
     0
 42
0.000000001
 43
0.00000001
 40
0.0
 40
0.0
 40
0.0
 40
0.0
 40
0.1012401216414981
 40
0.1952744430220927
 40
0.2815496789467832
 40
0.3609118748758979
 40
0.4337143395608497
 40
0.501025024962186
 40
0.5623277926538642
 40
0.6194126474035153
 40
0.6719061262188001
 40
0.7214028885891749
 40
0.7681316197275317
 40
0.813093924450166
 40
0.8583841426546492
 40
0.9038522259952417
 40
0.9507648387339179
 40
1.0
 40
1.0
 40
1.0
 40
1.0
 10
-81.34057971014497
 20
26.87681159420288
 30
0.0
 10
-81.33992082378167
 20
26.77262697927872
 30
0.0
 10
-81.33864994751721
 20
26.57167312500708
 30
0.0
 10
-81.32312669933222
 20
26.28222361163447
 30
0.0
 10
-81.29557402485358
 20
26.01637627362415
 30
0.0
 10
-81.26064303998271
 20
25.77339083271388
 30
0.0
 10
-81.21317396213301
 20
25.55240439422341
 30
0.0
 10
-81.1549841527402
 20
25.35321996912842
 30
0.0
 10
-81.08612129281495
 20
25.17485238433445
 30
0.0
 10
-81.01128896573945
 20
25.01527971388091
 30
0.0
 10
-80.92106711929873
 20
24.87818898290932
 30
0.0
 10
-80.82434532601252
 20
24.7591499540535
 30
0.0
 10
-80.71700152794958
 20
24.66042700936891
 30
0.0
 10
-80.59937715679688
 20
24.58158977221656
 30
0.0
 10
-80.47173110979706
 20
24.52387561216954
 30
0.0
 10
-80.33686656386475
 20
24.47944515282149
 30
0.0
 10
-80.19261787014025
 20
24.45482334593578
 30
0.0
 10
-80.09368613095077
 20
24.45115423391799
 30
0.0
 10
-80.04302536231886
 20
24.44927536231883
 30
0.0
  0
SPLINE
  5
168
330
1F
100
AcDbEntity
  8
0
  6
Continuous
 62
     7
370
    25
100
AcDbSpline
210
0.0
220
0.0
230
1.0
 70
     8
 71
     3
 72
    11
 73
     7
 74
     0
 42
0.000000001
 43
0.00000001
 40
0.0
 40
0.0
 40
0.0
 40
0.0
 40
0.2120488886440104
 40
0.4633865699551107
 40
0.7307714942848916
 40
1.0
 40
1.0
 40
1.0
 40
1.0
 10
-78.29710144927537
 20
29.32925724637681
 30
0.0
 10
-78.37586288415311
 20
29.35671115349765
 30
0.0
 10
-78.54797881169289
 20
29.4167056761474
 30
0.0
 10
-78.8306115474707
 20
29.47088471360583
 30
0.0
 10
-79.13744979424793
 20
29.51439773165514
 30
0.0
 10
-79.34841316808914
 20
29.51928639902979
 30
0.0
 10
-79.45425724637684
 20
29.52173913043477
 30
0.0
  0
SPLINE
  5
169
330
1F
100
AcDbEntity
  8
0
  6
Continuous
 62
     7
370
    25
100
AcDbSpline
210
0.0
220
0.0
230
1.0
 70
     8
 71
     3
 72
    23
 73
    19
 74
     0
 42
0.000000001
 43
0.00000001
 40
0.0
 40
0.0
 40
0.0
 40
0.0
 40
0.0585295577846785
 40
0.1140350282361459
 40
0.1687088959007645
 40
0.2226889272211126
 40
0.2765398881437141
 40
0.3305306614026735
 40
0.3854901631361173
 40
0.4421025075126204
 40
0.5005692812793482
 40
0.562024522739515
 40
0.626452626750737
 40
0.69429461611098
 40
0.7656472934145249
 40
0.8398655635699599
 40
0.9178879083935386
 40
0.9999999999999999
 40
0.9999999999999999
 40
0.9999999999999999
 40
0.9999999999999999
 10
-79.45425724637684
 20
29.52173913043477
 30
0.0
 10
-79.52534968414837
 20
29.51967297480174
 30
0.0
 10
-79.66386137730821
 20
29.5156474170345
 30
0.0
 10
-79.86645162464357
 20
29.48091553511657
 30
0.0
 10
-80.05738321484858
 20
29.42190500308025
 30
0.0
 10
-80.23707020291113
 20
29.3393710255328
 30
0.0
 10
-80.40578753153024
 20
29.23769309461596
 30
0.0
 10
-80.56001486502623
 20
29.11340845446306
 30
0.0
 10
-80.70428449206199
 20
28.97289435548099
 30
0.0
 10
-80.83288366255547
 20
28.81080832913423
 30
0.0
 10
-80.94942782676226
 20
28.63056520230983
 30
0.0
 10
-81.05068584026782
 20
28.43055235637275
 30
0.0
 10
-81.13864364300305
 20
28.21223387354151
 30
0.0
 10
-81.21433727879693
 20
27.97656938681548
 30
0.0
 10
-81.2691885936126
 20
27.72303636362125
 30
0.0
 10
-81.31003031251771
 20
27.45456874977303
 30
0.0
 10
-81.3351993847642
 20
27.17091501062997
 30
0.0
 10
-81.33875599042389
 20
26.97650114132323
 30
0.0
 10
-81.34057971014497
 20
26.87681159420288
 30
0.0
  0
SPLINE
  5
16A
330
1F
100
AcDbEntity
  8
0
  6
Continuous
 62
     7
370
    25
100
AcDbSpline
210
0.0
220
0.0
230
1.0
 70
     8
 71
     3
 72
    21
 73
    17
 74
     0
 42
0.000000001
 43
0.00000001
 40
0.0
 40
0.0
 40
0.0
 40
0.0
 40
0.0810604583464138
 40
0.1565229953246577
 40
0.2279629463268321
 40
0.2959528574207724
 40
0.3609214150907322
 40
0.4224023129438695
 40
0.4818062624994221
 40
0.5391912802528558
 40
0.5953715654615314
 40
0.6521958456291834
 40
0.7079600711599373
 40
0.764527633140234
 40
0.8802008614591285
 40
1.0
 40
1.0
 40
1.0
 40
1.0
 10
-90.34782608695646
 20
-45.16086956521739
 30
0.0
 10
-90.3482356022507
 20
-45.07476915948509
 30
0.0
 10
-90.34902635228825
 20
-44.90851432107426
 30
0.0
 10
-90.37301916752557
 20
-44.66718709154449
 30
0.0
 10
-90.4193341468322
 20
-44.44334583911679
 30
0.0
 10
-90.4848041126591
 20
-44.23606845831616
 30
0.0
 10
-90.56586714334641
 20
-44.04579488477564
 30
0.0
 10
-90.66189687675985
 20
-43.87305330286753
 30
0.0
 10
-90.76991948553115
 20
-43.71707063088569
 30
0.0
 10
-90.89369937224335
 20
-43.58078529511146
 30
0.0
 10
-91.02842924670934
 20
-43.45963131258809
 30
0.0
 10
-91.17378906240789
 20
-43.35419704189292
 30
0.0
 10
-91.33085609312886
 20
-43.2661381719429
 30
0.0
 10
-91.55419254233149
 20
-43.17222581953573
 30
0.0
 10
-91.85574450129147
 20
-43.08875934783282
 30
0.0
 10
-92.10624883587151
 20
-43.07891928362179
 30
0.0
 10
-92.23369565217382
 20
-43.07391304347826
 30
0.0
  0
SPLINE
  5
16B
330
1F
100
AcDbEntity
  8
0
  6
Continuous
 62
     7
370
    25
100
AcDbSpline
210
0.0
220
0.0
230
1.0
 70
     8
 71
     3
 72
    19
 73
    15
 74
     0
 42
0.000000001
 43
0.00000001
 40
0.0
 40
0.0
 40
0.0
 40
0.0
 40
0.0648993326215626
 40
0.1269842381098513
 40
0.1865054241666189
 40
0.245137311129267
 40
0.3035565918387233
 40
0.3608949911462791
 40
0.4185999273127425
 40
0.4774964928453657
 40
0.5973634984074694
 40
0.7208550476696526
 40
0.8541560594754337
 40
1.0
 40
1.0
 40
1.0
 40
1.0
 10
-92.23369565217382
 20
-43.07391304347826
 30
0.0
 10
-92.30446545628001
 20
-43.07506814436686
 30
0.0
 10
-92.44293605825077
 20
-43.07732825399131
 30
0.0
 10
-92.644327566766
 20
-43.10700157881222
 30
0.0
 10
-92.83692262448662
 20
-43.14608173149718
 30
0.0
 10
-93.02020443917391
 20
-43.20630537755422
 30
0.0
 10
-93.19288744896431
 20
-43.2860012069841
 30
0.0
 10
-93.35863382835873
 20
-43.37758066924323
 30
0.0
 10
-93.51080477445201
 20
-43.49126946819413
 30
0.0
 10
-93.70434640700198
 20
-43.66156610374706
 30
0.0
 10
-93.91637003510533
 20
-43.91742521296834
 30
0.0
 10
-94.10624050400496
 20
-44.28336284928258
 30
0.0
 10
-94.24883543909927
 20
-44.70087618494467
 30
0.0
 10
-94.2888672964905
 20
-45.00301309338463
 30
0.0
 10
-94.3097826086956
 20
-45.1608695652174
 30
0.0
  0
SPLINE
  5
16D
330
1F
100
AcDbEntity
  8
0
  6
Continuous
 62
     7
370
    25
100
AcDbSpline
210
0.0
220
0.0
230
1.0
 70
     8
 71
     3
 72
    19
 73
    15
 74
     0
 42
0.000000001
 43
0.00000001
 40
0.0
 40
0.0
 40
0.0
 40
0.0
 40
0.0945564083057698
 40
0.1824458975404569
 40
0.2633712760450284
 40
0.3383471914117083
 40
0.4068377109718022
 40
0.4716118386219739
 40
0.5315683281124558
 40
0.5886767703793341
 40
0.6952057293256667
 40
0.7971839994982012
 40
0.8971416523483484
 40
1.0
 40
1.0
 40
1.0
 40
1.0
 10
-81.74456521739121
 20
-46.72608695652173
 30
0.0
 10
-81.83152442840708
 20
-46.72819067415745
 30
0.0
 10
-81.99931158939883
 20
-46.73224978193343
 30
0.0
 10
-82.24147876692092
 20
-46.74800350924138
 30
0.0
 10
-82.4624473610395
 20
-46.78837718397076
 30
0.0
 10
-82.66343683994454
 20
-46.83591139349868
 30
0.0
 10
-82.84588002763918
 20
-46.89560749698862
 30
0.0
 10
-83.00797393783033
 20
-46.96926125669686
 30
0.0
 10
-83.15432488084176
 20
-47.05085753215159
 30
0.0
 10
-83.32171551928838
 20
-47.17125623501702
 30
0.0
 10
-83.49246101341515
 20
-47.34943746792912
 30
0.0
 10
-83.63989514024372
 20
-47.59461264792657
 30
0.0
 10
-83.72386871810016
 20
-47.86568278544471
 30
0.0
 10
-83.73399492056696
 20
-48.05252525436232
 30
0.0
 10
-83.73913043478251
 20
-48.14728260869565
 30
0.0
  0
SPLINE
  5
16F
330
1F
100
AcDbEntity
  8
0
  6
Continuous
 62
     7
370
    25
100
AcDbSpline
210
0.0
220
0.0
230
1.0
 70
     8
 71
     3
 72
    15
 73
    11
 74
     0
 42
0.000000001
 43
0.00000001
 40
0.0
 40
0.0
 40
0.0
 40
0.0
 40
0.135837209088176
 40
0.259345211917713
 40
0.3750824914615462
 40
0.4882081569957821
 40
0.6050176849191418
 40
0.7257405918467217
 40
0.8561584952527457
 40
1.0
 40
1.0
 40
1.0
 40
1.0
 10
-83.73913043478251
 20
-48.14728260869565
 30
0.0
 10
-83.73532861903394
 20
-48.23825314491555
 30
0.0
 10
-83.72807005771926
 20
-48.41193731549439
 30
0.0
 10
-83.66309404815404
 20
-48.65694985349068
 30
0.0
 10
-83.54914128191129
 20
-48.86571855690882
 30
0.0
 10
-83.39284798952207
 20
-49.03916167468697
 30
0.0
 10
-83.19696021855056
 20
-49.17176920908643
 30
0.0
 10
-82.96903045555104
 20
-49.26798402021996
 30
0.0
 10
-82.70931336454834
 20
-49.32530235148618
 30
0.0
 10
-82.52566587535945
 20
-49.33152106484264
 30
0.0
 10
-82.42934782608685
 20
-49.33478260869563
 30
0.0
  0
SPLINE
  5
170
330
1F
100
AcDbEntity
  8
0
  6
Continuous
 62
     7
370
    25
100
AcDbSpline
210
0.0
220
0.0
230
1.0
 70
     8
 71
     3
 72
    15
 73
    11
 74
     0
 42
0.000000001
 43
0.00000001
 40
0.0
 40
0.0
 40
0.0
 40
0.0
 40
0.0919149623854882
 40
0.1892737681525292
 40
0.2943687648134031
 40
0.4093467110203074
 40
0.5365753301987912
 40
0.6771867413952828
 40
0.8315245913983444
 40
1.0
 40
1.0
 40
1.0
 40
1.0
 10
-82.42934782608685
 20
-49.33478260869563
 30
0.0
 10
-82.35369725652797
 20
-49.33043664823224
 30
0.0
 10
-82.19791556449779
 20
-49.32148732929875
 30
0.0
 10
-81.964922652563
 20
-49.25018479912397
 30
0.0
 10
-81.72574529495208
 20
-49.14459923295291
 30
0.0
 10
-81.48635245515673
 20
-48.98729000057119
 30
0.0
 10
-81.2399133806222
 20
-48.79169529163268
 30
0.0
 10
-80.97841525121108
 20
-48.56345898151781
 30
0.0
 10
-80.70666780898289
 20
-48.29632197204155
 30
0.0
 10
-80.5280189751512
 20
-48.10018793562601
 30
0.0
 10
-80.43478260869556
 20
-47.99782608695653
 30
0.0
  0
SPLINE
  5
172
330
1F
100
AcDbEntity
  8
0
  6
Continuous
 62
     7
370
    25
100
AcDbSpline
210
0.0
220
0.0
230
1.0
 70
     8
 71
     3
 72
    21
 73
    17
 74
     0
 42
0.000000001
 43
0.00000001
 40
0.0
 40
0.0
 40
0.0
 40
0.0
 40
0.0810604583464139
 40
0.1565229953246577
 40
0.2279629463268312
 40
0.2959528574207722
 40
0.3609214150907311
 40
0.4224023129438695
 40
0.4818062624994208
 40
0.5391912802528545
 40
0.5953715654615332
 40
0.6521958456291854
 40
0.7079600711599374
 40
0.7645276331402321
 40
0.8802008614591306
 40
0.9999999999999999
 40
0.9999999999999999
 40
0.9999999999999999
 40
0.9999999999999999
 10
-39.04347826086948
 20
-45.16086956521739
 30
0.0
 10
-39.04388777616371
 20
-45.07476915948508
 30
0.0
 10
-39.04467852620133
 20
-44.90851432107429
 30
0.0
 10
-39.06867134143862
 20
-44.66718709154446
 30
0.0
 10
-39.11498632074525
 20
-44.4433458391168
 30
0.0
 10
-39.18045628657213
 20
-44.23606845831615
 30
0.0
 10
-39.26151931725943
 20
-44.04579488477563
 30
0.0
 10
-39.35754905067287
 20
-43.87305330286753
 30
0.0
 10
-39.46557165944416
 20
-43.71707063088566
 30
0.0
 10
-39.58935154615644
 20
-43.58078529511149
 30
0.0
 10
-39.72408142062235
 20
-43.45963131258808
 30
0.0
 10
-39.86944123632094
 20
-43.35419704189292
 30
0.0
 10
-40.02650826704192
 20
-43.26613817194291
 30
0.0
 10
-40.2498447162445
 20
-43.17222581953571
 30
0.0
 10
-40.55139667520449
 20
-43.08875934783283
 30
0.0
 10
-40.80190100978457
 20
-43.07891928362179
 30
0.0
 10
-40.92934782608687
 20
-43.07391304347826
 30
0.0
  0
SPLINE
  5
173
330
1F
100
AcDbEntity
  8
0
  6
Continuous
 62
     7
370
    25
100
AcDbSpline
210
0.0
220
0.0
230
1.0
 70
     8
 71
     3
 72
    19
 73
    15
 74
     0
 42
0.000000001
 43
0.00000001
 40
0.0
 40
0.0
 40
0.0
 40
0.0
 40
0.0648993326215605
 40
0.1269842381098492
 40
0.1865054241666189
 40
0.245137311129265
 40
0.3035565918387214
 40
0.360894991146279
 40
0.4185999273127425
 40
0.4774964928453672
 40
0.5973634984074695
 40
0.7208550476696518
 40
0.8541560594754336
 40
1.0
 40
1.0
 40
1.0
 40
1.0
 10
-40.92934782608687
 20
-43.07391304347826
 30
0.0
 10
-41.00011763019308
 20
-43.07506814436686
 30
0.0
 10
-41.13858823216385
 20
-43.07732825399133
 30
0.0
 10
-41.33997974067898
 20
-43.10700157881221
 30
0.0
 10
-41.53257479839969
 20
-43.1460817314972
 30
0.0
 10
-41.71585661308693
 20
-43.20630537755423
 30
0.0
 10
-41.88853962287734
 20
-43.28600120698409
 30
0.0
 10
-42.05428600227179
 20
-43.37758066924324
 30
0.0
 10
-42.206456948365
 20
-43.49126946819413
 30
0.0
 10
-42.39999858091503
 20
-43.66156610374706
 30
0.0
 10
-42.61202220901838
 20
-43.91742521296834
 30
0.0
 10
-42.801892677918
 20
-44.28336284928258
 30
0.0
 10
-42.94448761301229
 20
-44.70087618494465
 30
0.0
 10
-42.98451947040355
 20
-45.00301309338463
 30
0.0
 10
-43.00543478260861
 20
-45.16086956521739
 30
0.0
  0
LINE
  5
179
330
1F
100
AcDbEntity
  8
0
  6
Continuous
 62
     7
370
    25
100
AcDbLine
 10
-107.0434782609
 20
-38.9
 30
0.0
 11
-98.1739130435
 21
-38.9
 31
0.0
  0
LINE
  5
17A
330
1F
100
AcDbEntity
  8
0
  6
Continuous
 62
     7
370
    25
100
AcDbLine
 10
-107.0434782609
 20
-40.8130434783
 30
0.0
 11
-107.0434782609
 21
-38.9
 31
0.0
  0
LINE
  5
17B
330
1F
100
AcDbEntity
  8
0
  6
Continuous
 62
     7
370
    25
100
AcDbLine
 10
-103.7391304348
 20
-40.8130434783
 30
0.0
 11
-107.0434782609
 21
-40.8130434783
 31
0.0
  0
LINE
  5
17C
330
1F
100
AcDbEntity
  8
0
  6
Continuous
 62
     7
370
    25
100
AcDbLine
 10
-103.7391304348
 20
-50.9
 30
0.0
 11
-103.7391304348
 21
-40.8130434783
 31
0.0
  0
LINE
  5
17D
330
1F
100
AcDbEntity
  8
0
  6
Continuous
 62
     7
370
    25
100
AcDbLine
 10
-101.4782608696
 20
-50.9
 30
0.0
 11
-103.7391304348
 21
-50.9
 31
0.0
  0
LINE
  5
17E
330
1F
100
AcDbEntity
  8
0
  6
Continuous
 62
     7
370
    25
100
AcDbLine
 10
-101.4782608696
 20
-40.8130434783
 30
0.0
 11
-101.4782608696
 21
-50.9
 31
0.0
  0
LINE
  5
17F
330
1F
100
AcDbEntity
  8
0
  6
Continuous
 62
     7
370
    25
100
AcDbLine
 10
-98.1739130435
 20
-40.8130434783
 30
0.0
 11
-101.4782608696
 21
-40.8130434783
 31
0.0
  0
LINE
  5
180
330
1F
100
AcDbEntity
  8
0
  6
Continuous
 62
     7
370
    25
100
AcDbLine
 10
-98.1739130435
 20
-38.9
 30
0.0
 11
-98.1739130435
 21
-40.8130434783
 31
0.0
  0
LINE
  5
181
330
1F
100
AcDbEntity
  8
0
  6
Continuous
 62
     7
370
    25
100
AcDbLine
 10
-88.6086956522
 20
-48.8130434783
 30
0.0
 11
-88.6086956522
 21
-50.552173913
 31
0.0
  0
LINE
  5
182
330
1F
100
AcDbEntity
  8
0
  6
Continuous
 62
     7
370
    25
100
AcDbLine
 10
-88.1440217391
 20
-46.7260869565
 30
0.0
 11
-94.347826087
 21
-46.7260869565
 31
0.0
  0
LINE
  5
183
330
1F
100
AcDbEntity
  8
0
  6
Continuous
 62
     7
370
    25
100
AcDbLine
 10
-74.7934782609
 20
-41.5086956522
 30
0.0
 11
-74.7581521739
 21
-42.8755434783
 31
0.0
  0
LINE
  5
184
330
1F
100
AcDbEntity
  8
0
  6
Continuous
 62
     7
370
    25
100
AcDbLine
 10
-76.4347826087
 20
-41.5086956522
 30
0.0
 11
-74.7934782609
 21
-41.5086956522
 31
0.0
  0
LINE
  5
185
330
1F
100
AcDbEntity
  8
0
  6
Continuous
 62
     7
370
    25
100
AcDbLine
 10
-76.4347826087
 20
-50.9
 30
0.0
 11
-76.4347826087
 21
-41.5086956522
 31
0.0
  0
LINE
  5
186
330
1F
100
AcDbEntity
  8
0
  6
Continuous
 62
     7
370
    25
100
AcDbLine
 10
-74.5217391304
 20
-50.9
 30
0.0
 11
-76.4347826087
 21
-50.9
 31
0.0
  0
LINE
  5
187
330
1F
100
AcDbEntity
  8
0
  6
Continuous
 62
     7
370
    25
100
AcDbLine
 10
-74.5217391304
 20
-44.7885869565
 30
0.0
 11
-74.5217391304
 21
-50.9
 31
0.0
  0
LINE
  5
188
330
1F
100
AcDbEntity
  8
0
  6
Continuous
 62
     7
370
    25
100
AcDbLine
 10
-72.7826086957
 20
-50.9
 30
0.0
 11
-72.7826086957
 21
-44.4842391304
 31
0.0
  0
LINE
  5
189
330
1F
100
AcDbEntity
  8
0
  6
Continuous
 62
     7
370
    25
100
AcDbLine
 10
-70.8695652174
 20
-50.9
 30
0.0
 11
-72.7826086957
 21
-50.9
 31
0.0
  0
LINE
  5
18A
330
1F
100
AcDbEntity
  8
0
  6
Continuous
 62
     7
370
    25
100
AcDbLine
 10
-70.8695652174
 20
-44.7885869565
 30
0.0
 11
-70.8695652174
 21
-50.9
 31
0.0
  0
LINE
  5
18B
330
1F
100
AcDbEntity
  8
0
  6
Continuous
 62
     7
370
    25
100
AcDbLine
 10
-69.1304347826
 20
-50.9
 30
0.0
 11
-69.1304347826
 21
-44.4842391304
 31
0.0
  0
LINE
  5
18C
330
1F
100
AcDbEntity
  8
0
  6
Continuous
 62
     7
370
    25
100
AcDbLine
 10
-67.2173913043
 20
-50.9
 30
0.0
 11
-69.1304347826
 21
-50.9
 31
0.0
  0
LINE
  5
18D
330
1F
100
AcDbEntity
  8
0
  6
Continuous
 62
     7
370
    25
100
AcDbLine
 10
-67.2173913043
 20
-44.1690217391
 30
0.0
 11
-67.2173913043
 21
-50.9
 31
0.0
  0
LINE
  5
18E
330
1F
100
AcDbEntity
  8
0
  6
Continuous
 62
     7
370
    25
100
AcDbLine
 10
-55.2173913043
 20
-38.9
 30
0.0
 11
-51.6576086957
 21
-38.9
 31
0.0
  0
LINE
  5
18F
330
1F
100
AcDbEntity
  8
0
  6
Continuous
 62
     7
370
    25
100
AcDbLine
 10
-55.2173913043
 20
-50.9
 30
0.0
 11
-55.2173913043
 21
-38.9
 31
0.0
  0
LINE
  5
190
330
1F
100
AcDbEntity
  8
0
  6
Continuous
 62
     7
370
    25
100
AcDbLine
 10
-52.9565217391
 20
-50.9
 30
0.0
 11
-55.2173913043
 21
-50.9
 31
0.0
  0
LINE
  5
191
330
1F
100
AcDbEntity
  8
0
  6
Continuous
 62
     7
370
    25
100
AcDbLine
 10
-52.9565217391
 20
-45.8565217391
 30
0.0
 11
-52.9565217391
 21
-50.9
 31
0.0
  0
LINE
  5
192
330
1F
100
AcDbEntity
  8
0
  6
Continuous
 62
     7
370
    25
100
AcDbLine
 10
-52.5135869565
 20
-45.8565217391
 30
0.0
 11
-52.9565217391
 21
-45.8565217391
 31
0.0
  0
LINE
  5
193
330
1F
100
AcDbEntity
  8
0
  6
Continuous
 62
     7
370
    25
100
AcDbLine
 10
-49.1304347826
 20
-50.9
 30
0.0
 11
-50.8070652174
 21
-46.9842391304
 31
0.0
  0
LINE
  5
194
330
1F
100
AcDbEntity
  8
0
  6
Continuous
 62
     7
370
    25
100
AcDbLine
 10
-46.4809782609
 20
-50.9
 30
0.0
 11
-49.1304347826
 21
-50.9
 31
0.0
  0
LINE
  5
195
330
1F
100
AcDbEntity
  8
0
  6
Continuous
 62
     7
370
    25
100
AcDbLine
 10
-48.3858695652
 20
-46.8157608696
 30
0.0
 11
-46.4809782609
 21
-50.9
 31
0.0
  0
LINE
  5
196
330
1F
100
AcDbEntity
  8
0
  6
Continuous
 62
     7
370
    25
100
AcDbLine
 10
-12.214673913
 20
-41.5086956522
 30
0.0
 11
-12.160326087
 21
-42.8945652174
 31
0.0
  0
LINE
  5
197
330
1F
100
AcDbEntity
  8
0
  6
Continuous
 62
     7
370
    25
100
AcDbLine
 10
-14.1739130435
 20
-41.5086956522
 30
0.0
 11
-12.214673913
 21
-41.5086956522
 31
0.0
  0
LINE
  5
198
330
1F
100
AcDbEntity
  8
0
  6
Continuous
 62
     7
370
    25
100
AcDbLine
 10
-14.1739130435
 20
-50.9
 30
0.0
 11
-14.1739130435
 21
-41.5086956522
 31
0.0
  0
LINE
  5
199
330
1F
100
AcDbEntity
  8
0
  6
Continuous
 62
     7
370
    25
100
AcDbLine
 10
-11.9130434783
 20
-50.9
 30
0.0
 11
-14.1739130435
 21
-50.9
 31
0.0
  0
LINE
  5
19A
330
1F
100
AcDbEntity
  8
0
  6
Continuous
 62
     7
370
    25
100
AcDbLine
 10
-11.9130434783
 20
-44.9652173913
 30
0.0
 11
-11.9130434783
 21
-50.9
 31
0.0
  0
LINE
  5
19B
330
1F
100
AcDbEntity
  8
0
  6
Continuous
 62
     7
370
    25
100
AcDbLine
 10
-8.6086956522
 20
-50.9
 30
0.0
 11
-8.6086956522
 21
-44.7885869565
 31
0.0
  0
LINE
  5
19C
330
1F
100
AcDbEntity
  8
0
  6
Continuous
 62
     7
370
    25
100
AcDbLine
 10
-6.347826087
 20
-50.9
 30
0.0
 11
-8.6086956522
 21
-50.9
 31
0.0
  0
LINE
  5
19D
330
1F
100
AcDbEntity
  8
0
  6
Continuous
 62
     7
370
    25
100
AcDbLine
 10
-6.347826087
 20
-44.614673913
 30
0.0
 11
-6.347826087
 21
-50.9
 31
0.0
  0
LINE
  5
19E
330
1F
100
AcDbEntity
  8
0
  6
Continuous
 62
     7
370
    25
100
AcDbLine
 10
-105.2536231884
 20
29.3768115942
 30
0.0
 11
-105.2536231884
 21
25.6698369565
 31
0.0
  0
LINE
  5
19F
330
1F
100
AcDbEntity
  8
0
  6
Continuous
 62
     7
370
    25
100
AcDbLine
 10
-102.2101449275
 20
29.3768115942
 30
0.0
 11
-105.2536231884
 21
29.3768115942
 31
0.0
  0
LINE
  5
1A0
330
1F
100
AcDbEntity
  8
0
  6
Continuous
 62
     7
370
    25
100
AcDbLine
 10
-102.2101449275
 20
30.8260869565
 30
0.0
 11
-102.2101449275
 21
29.3768115942
 31
0.0
  0
LINE
  5
1A1
330
1F
100
AcDbEntity
  8
0
  6
Continuous
 62
     7
370
    25
100
AcDbLine
 10
-105.2536231884
 20
30.8260869565
 30
0.0
 11
-102.2101449275
 21
30.8260869565
 31
0.0
  0
LINE
  5
1A2
330
1F
100
AcDbEntity
  8
0
  6
Continuous
 62
     7
370
    25
100
AcDbLine
 10
-105.2536231884
 20
33.2898550725
 30
0.0
 11
-105.2536231884
 21
30.8260869565
 31
0.0
  0
LINE
  5
1A3
330
1F
100
AcDbEntity
  8
0
  6
Continuous
 62
     7
370
    25
100
AcDbLine
 10
-107.1376811594
 20
32.7961956522
 30
0.0
 11
-105.2536231884
 21
33.2898550725
 31
0.0
  0
LINE
  5
1A4
330
1F
100
AcDbEntity
  8
0
  6
Continuous
 62
     7
370
    25
100
AcDbLine
 10
-107.1376811594
 20
30.8260869565
 30
0.0
 11
-107.1376811594
 21
32.7961956522
 31
0.0
  0
LINE
  5
1A5
330
1F
100
AcDbEntity
  8
0
  6
Continuous
 62
     7
370
    25
100
AcDbLine
 10
-109.1666666667
 20
30.8260869565
 30
0.0
 11
-107.1376811594
 21
30.8260869565
 31
0.0
  0
LINE
  5
1A6
330
1F
100
AcDbEntity
  8
0
  6
Continuous
 62
     7
370
    25
100
AcDbLine
 10
-109.1666666667
 20
29.3768115942
 30
0.0
 11
-109.1666666667
 21
30.8260869565
 31
0.0
  0
LINE
  5
1A7
330
1F
100
AcDbEntity
  8
0
  6
Continuous
 62
     7
370
    25
100
AcDbLine
 10
-107.1376811594
 20
29.3768115942
 30
0.0
 11
-109.1666666667
 21
29.3768115942
 31
0.0
  0
LINE
  5
1A8
330
1F
100
AcDbEntity
  8
0
  6
Continuous
 62
     7
370
    25
100
AcDbLine
 10
-107.1376811594
 20
25.5656702899
 30
0.0
 11
-107.1376811594
 21
29.3768115942
 31
0.0
  0
LINE
  5
1A9
330
1F
100
AcDbEntity
  8
0
  6
Continuous
 62
     7
370
    25
100
AcDbLine
 10
-102.2101449275
 20
24.5942028986
 30
0.0
 11
-102.2101449275
 21
23.1449275362
 31
0.0
  0
LINE
  5
1AA
330
1F
100
AcDbEntity
  8
0
  6
Continuous
 62
     7
370
    25
100
AcDbLine
 10
-110.0362318841
 20
30.8260869565
 30
0.0
 11
-112.674365942
 21
26.9583333333
 31
0.0
  0
LINE
  5
1AB
330
1F
100
AcDbEntity
  8
0
  6
Continuous
 62
     7
370
    25
100
AcDbLine
 10
-112.1308876812
 20
30.8260869565
 30
0.0
 11
-110.0362318841
 21
30.8260869565
 31
0.0
  0
LINE
  5
1AC
330
1F
100
AcDbEntity
  8
0
  6
Continuous
 62
     7
370
    25
100
AcDbLine
 10
-113.8043478261
 20
28.2173913043
 30
0.0
 11
-112.1308876812
 21
30.8260869565
 31
0.0
  0
LINE
  5
1AD
330
1F
100
AcDbEntity
  8
0
  6
Continuous
 62
     7
370
    25
100
AcDbLine
 10
-115.4483695652
 20
30.8260869565
 30
0.0
 11
-113.8043478261
 21
28.2173913043
 31
0.0
  0
LINE
  5
1AE
330
1F
100
AcDbEntity
  8
0
  6
Continuous
 62
     7
370
    25
100
AcDbLine
 10
-117.7173913043
 20
30.8260869565
 30
0.0
 11
-115.4483695652
 21
30.8260869565
 31
0.0
  0
LINE
  5
1AF
330
1F
100
AcDbEntity
  8
0
  6
Continuous
 62
     7
370
    25
100
AcDbLine
 10
-115.0656702899
 20
26.9447463768
 30
0.0
 11
-117.7173913043
 21
30.8260869565
 31
0.0
  0
LINE
  5
1B0
330
1F
100
AcDbEntity
  8
0
  6
Continuous
 62
     7
370
    25
100
AcDbLine
 10
-117.9347826087
 20
23.0
 30
0.0
 11
-115.0656702899
 21
26.9447463768
 31
0.0
  0
LINE
  5
1B1
330
1F
100
AcDbEntity
  8
0
  6
Continuous
 62
     7
370
    25
100
AcDbLine
 10
-115.6793478261
 20
23.0
 30
0.0
 11
-117.9347826087
 21
23.0
 31
0.0
  0
LINE
  5
1B2
330
1F
100
AcDbEntity
  8
0
  6
Continuous
 62
     7
370
    25
100
AcDbLine
 10
-113.8768115942
 20
25.7060688406
 30
0.0
 11
-115.6793478261
 21
23.0
 31
0.0
  0
LINE
  5
1B3
330
1F
100
AcDbEntity
  8
0
  6
Continuous
 62
     7
370
    25
100
AcDbLine
 10
-112.2078804348
 20
23.0
 30
0.0
 11
-113.8768115942
 21
25.7060688406
 31
0.0
  0
LINE
  5
1B4
330
1F
100
AcDbEntity
  8
0
  6
Continuous
 62
     7
370
    25
100
AcDbLine
 10
-109.8913043478
 20
23.0
 30
0.0
 11
-112.2078804348
 21
23.0
 31
0.0
  0
LINE
  5
1B5
330
1F
100
AcDbEntity
  8
0
  6
Continuous
 62
     7
370
    25
100
AcDbLine
 10
-112.674365942
 20
26.9583333333
 30
0.0
 11
-109.8913043478
 21
23.0
 31
0.0
  0
LINE
  5
1B6
330
1F
100
AcDbEntity
  8
0
  6
Continuous
 62
     7
370
    25
100
AcDbLine
 10
-123.3695652174
 20
24.5942028986
 30
0.0
 11
-119.1666666667
 21
24.5942028986
 31
0.0
  0
LINE
  5
1B7
330
1F
100
AcDbEntity
  8
0
  6
Continuous
 62
     7
370
    25
100
AcDbLine
 10
-123.3695652174
 20
27.347826087
 30
0.0
 11
-123.3695652174
 21
24.5942028986
 31
0.0
  0
LINE
  5
1B8
330
1F
100
AcDbEntity
  8
0
  6
Continuous
 62
     7
370
    25
100
AcDbLine
 10
-119.3115942029
 20
27.347826087
 30
0.0
 11
-123.3695652174
 21
27.347826087
 31
0.0
  0
LINE
  5
1B9
330
1F
100
AcDbEntity
  8
0
  6
Continuous
 62
     7
370
    25
100
AcDbLine
 10
-119.3115942029
 20
28.9420289855
 30
0.0
 11
-119.3115942029
 21
27.347826087
 31
0.0
  0
LINE
  5
1BA
330
1F
100
AcDbEntity
  8
0
  6
Continuous
 62
     7
370
    25
100
AcDbLine
 10
-123.3695652174
 20
28.9420289855
 30
0.0
 11
-119.3115942029
 21
28.9420289855
 31
0.0
  0
LINE
  5
1BB
330
1F
100
AcDbEntity
  8
0
  6
Continuous
 62
     7
370
    25
100
AcDbLine
 10
-123.3695652174
 20
31.4057971014
 30
0.0
 11
-123.3695652174
 21
28.9420289855
 31
0.0
  0
LINE
  5
1BC
330
1F
100
AcDbEntity
  8
0
  6
Continuous
 62
     7
370
    25
100
AcDbLine
 10
-119.1666666667
 20
31.4057971014
 30
0.0
 11
-123.3695652174
 21
31.4057971014
 31
0.0
  0
LINE
  5
1BD
330
1F
100
AcDbEntity
  8
0
  6
Continuous
 62
     7
370
    25
100
AcDbLine
 10
-119.1666666667
 20
33.0
 30
0.0
 11
-119.1666666667
 21
31.4057971014
 31
0.0
  0
LINE
  5
1BE
330
1F
100
AcDbEntity
  8
0
  6
Continuous
 62
     7
370
    25
100
AcDbLine
 10
-125.2536231884
 20
33.0
 30
0.0
 11
-119.1666666667
 21
33.0
 31
0.0
  0
LINE
  5
1BF
330
1F
100
AcDbEntity
  8
0
  6
Continuous
 62
     7
370
    25
100
AcDbLine
 10
-125.2536231884
 20
23.0
 30
0.0
 11
-125.2536231884
 21
33.0
 31
0.0
  0
LINE
  5
1C0
330
1F
100
AcDbEntity
  8
0
  6
Continuous
 62
     7
370
    25
100
AcDbLine
 10
-119.1666666667
 20
23.0
 30
0.0
 11
-125.2536231884
 21
23.0
 31
0.0
  0
LINE
  5
1C1
330
1F
100
AcDbEntity
  8
0
  6
Continuous
 62
     7
370
    25
100
AcDbLine
 10
-119.1666666667
 20
24.5942028986
 30
0.0
 11
-119.1666666667
 21
23.0
 31
0.0
  0
LINE
  5
1C2
330
1F
100
AcDbEntity
  8
0
  6
Continuous
 62
     7
370
    25
100
AcDbLine
 10
-97.9370471014
 20
30.8260869565
 30
0.0
 11
-97.8691123188
 21
29.6666666667
 31
0.0
  0
LINE
  5
1C3
330
1F
100
AcDbEntity
  8
0
  6
Continuous
 62
     7
370
    25
100
AcDbLine
 10
-99.6014492754
 20
30.8260869565
 30
0.0
 11
-97.9370471014
 21
30.8260869565
 31
0.0
  0
LINE
  5
1C4
330
1F
100
AcDbEntity
  8
0
  6
Continuous
 62
     7
370
    25
100
AcDbLine
 10
-99.6014492754
 20
23.0
 30
0.0
 11
-99.6014492754
 21
30.8260869565
 31
0.0
  0
LINE
  5
1C5
330
1F
100
AcDbEntity
  8
0
  6
Continuous
 62
     7
370
    25
100
AcDbLine
 10
-97.7173913043
 20
23.0
 30
0.0
 11
-99.6014492754
 21
23.0
 31
0.0
  0
LINE
  5
1C6
330
1F
100
AcDbEntity
  8
0
  6
Continuous
 62
     7
370
    25
100
AcDbLine
 10
-97.7173913043
 20
27.9275362319
 30
0.0
 11
-97.7173913043
 21
23.0
 31
0.0
  0
LINE
  5
1C7
330
1F
100
AcDbEntity
  8
0
  6
Continuous
 62
     7
370
    25
100
AcDbLine
 10
-93.0797101449
 20
27.7826086957
 30
0.0
 11
-94.9637681159
 21
27.7826086957
 31
0.0
  0
LINE
  5
1C8
330
1F
100
AcDbEntity
  8
0
  6
Continuous
 62
     7
370
    25
100
AcDbLine
 10
-86.5964673913
 20
23.0
 30
0.0
 11
-86.6417572464
 21
24.1548913043
 31
0.0
  0
LINE
  5
1C9
330
1F
100
AcDbEntity
  8
0
  6
Continuous
 62
     7
370
    25
100
AcDbLine
 10
-84.9637681159
 20
23.0
 30
0.0
 11
-86.5964673913
 21
23.0
 31
0.0
  0
LINE
  5
1CA
330
1F
100
AcDbEntity
  8
0
  6
Continuous
 62
     7
370
    25
100
AcDbLine
 10
-84.9637681159
 20
30.8260869565
 30
0.0
 11
-84.9637681159
 21
23.0
 31
0.0
  0
LINE
  5
1CB
330
1F
100
AcDbEntity
  8
0
  6
Continuous
 62
     7
370
    25
100
AcDbLine
 10
-86.847826087
 20
30.8260869565
 30
0.0
 11
-84.9637681159
 21
30.8260869565
 31
0.0
  0
LINE
  5
1CC
330
1F
100
AcDbEntity
  8
0
  6
Continuous
 62
     7
370
    25
100
AcDbLine
 10
-86.847826087
 20
25.8849637681
 30
0.0
 11
-86.847826087
 21
30.8260869565
 31
0.0
  0
LINE
  5
1CD
330
1F
100
AcDbEntity
  8
0
  6
Continuous
 62
     7
370
    25
100
AcDbLine
 10
-89.6014492754
 20
30.8260869565
 30
0.0
 11
-89.6014492754
 21
25.7400362319
 31
0.0
  0
LINE
  5
1CE
330
1F
100
AcDbEntity
  8
0
  6
Continuous
 62
     7
370
    25
100
AcDbLine
 10
-91.4855072464
 20
30.8260869565
 30
0.0
 11
-89.6014492754
 21
30.8260869565
 31
0.0
  0
LINE
  5
1CF
330
1F
100
AcDbEntity
  8
0
  6
Continuous
 62
     7
370
    25
100
AcDbLine
 10
-91.4855072464
 20
25.5928442029
 30
0.0
 11
-91.4855072464
 21
30.8260869565
 31
0.0
  0
LINE
  5
1D0
330
1F
100
AcDbEntity
  8
0
  6
Continuous
 62
     7
370
    25
100
AcDbLine
 10
-78.2971014493
 20
33.8695652174
 30
0.0
 11
-76.4130434783
 21
33.8695652174
 31
0.0
  0
LINE
  5
1D1
330
1F
100
AcDbEntity
  8
0
  6
Continuous
 62
     7
370
    25
100
AcDbLine
 10
-78.2971014493
 20
30.8328804348
 30
0.0
 11
-78.2971014493
 21
33.8695652174
 31
0.0
  0
LINE
  5
1D2
330
1F
100
AcDbEntity
  8
0
  6
Continuous
 62
     7
370
    25
100
AcDbLine
 10
-78.0434782609
 20
23.0
 30
0.0
 11
-78.0887681159
 21
24.1548913043
 31
0.0
  0
LINE
  5
1D3
330
1F
100
AcDbEntity
  8
0
  6
Continuous
 62
     7
370
    25
100
AcDbLine
 10
-76.4130434783
 20
23.0
 30
0.0
 11
-78.0434782609
 21
23.0
 31
0.0
  0
LINE
  5
1D4
330
1F
100
AcDbEntity
  8
0
  6
Continuous
 62
     7
370
    25
100
AcDbLine
 10
-76.4130434783
 20
33.8695652174
 30
0.0
 11
-76.4130434783
 21
23.0
 31
0.0
  0
LINE
  5
1D5
330
1F
100
AcDbEntity
  8
0
  6
Continuous
 62
     7
370
    25
100
AcDbLine
 10
-63.7341485507
 20
30.8260869565
 30
0.0
 11
-63.6662137681
 21
29.6666666667
 31
0.0
  0
LINE
  5
1D6
330
1F
100
AcDbEntity
  8
0
  6
Continuous
 62
     7
370
    25
100
AcDbLine
 10
-65.3985507246
 20
30.8260869565
 30
0.0
 11
-63.7341485507
 21
30.8260869565
 31
0.0
  0
LINE
  5
1D7
330
1F
100
AcDbEntity
  8
0
  6
Continuous
 62
     7
370
    25
100
AcDbLine
 10
-65.3985507246
 20
23.0
 30
0.0
 11
-65.3985507246
 21
30.8260869565
 31
0.0
  0
LINE
  5
1D8
330
1F
100
AcDbEntity
  8
0
  6
Continuous
 62
     7
370
    25
100
AcDbLine
 10
-63.5144927536
 20
23.0
 30
0.0
 11
-65.3985507246
 21
23.0
 31
0.0
  0
LINE
  5
1D9
330
1F
100
AcDbEntity
  8
0
  6
Continuous
 62
     7
370
    25
100
AcDbLine
 10
-63.5144927536
 20
27.9275362319
 30
0.0
 11
-63.5144927536
 21
23.0
 31
0.0
  0
LINE
  5
1DA
330
1F
100
AcDbEntity
  8
0
  6
Continuous
 62
     7
370
    25
100
AcDbLine
 10
-58.8768115942
 20
27.7826086957
 30
0.0
 11
-60.7608695652
 21
27.7826086957
 31
0.0
  0
LINE
  5
1DB
330
1F
100
AcDbEntity
  8
0
  6
Continuous
 62
     7
370
    25
100
AcDbLine
 10
-54.0
 20
13.0
 30
0.0
 11
-131.0
 21
13.0
 31
0.0
  0
LINE
  5
1DC
330
1F
100
AcDbEntity
  8
0
  6
Continuous
 62
     7
370
    25
100
AcDbLine
 10
-131.0
 20
13.0
 30
0.0
 11
-131.0
 21
-13.0
 31
0.0
  0
LINE
  5
1DD
330
1F
100
AcDbEntity
  8
0
  6
Continuous
 62
     7
370
    25
100
AcDbLine
 10
-131.0
 20
-13.0
 30
0.0
 11
-54.0
 21
-13.0
 31
0.0
  0
LINE
  5
1DE
330
1F
100
AcDbEntity
  8
0
  6
Continuous
 62
     7
370
    25
100
AcDbLine
 10
-54.0
 20
-13.0
 30
0.0
 11
-54.0
 21
13.0
 31
0.0
  0
LINE
  5
1DF
330
1F
100
AcDbEntity
  8
0
  6
Continuous
 62
     7
370
    25
100
AcDbLine
 10
-68.0072463768
 20
24.7391304348
 30
0.0
 11
-68.0072463768
 21
23.2898550725
 31
0.0
  0
LINE
  5
1E0
330
1F
100
AcDbEntity
  8
0
  6
Continuous
 62
     7
370
    25
100
AcDbLine
 10
-67.6200181159
 20
26.4782608696
 30
0.0
 11
-72.7898550725
 21
26.4782608696
 31
0.0
  0
LINE
  5
1E1
330
1F
100
AcDbEntity
  8
0
  6
Continuous
 62
     7
370
    25
100
AcDbLine
 10
-37.3043478261
 20
-48.8130434783
 30
0.0
 11
-37.3043478261
 21
-50.552173913
 31
0.0
  0
LINE
  5
1E2
330
1F
100
AcDbEntity
  8
0
  6
Continuous
 62
     7
370
    25
100
AcDbLine
 10
-36.839673913
 20
-46.7260869565
 30
0.0
 11
-43.0434782609
 21
-46.7260869565
 31
0.0
  0
LINE
  5
1E3
330
1F
100
AcDbEntity
  8
0
  6
Continuous
 62
     7
370
    25
100
AcDbLine
 10
-21.652173913
 20
-48.9869565217
 30
0.0
 11
-16.6086956522
 21
-48.9869565217
 31
0.0
  0
LINE
  5
1E4
330
1F
100
AcDbEntity
  8
0
  6
Continuous
 62
     7
370
    25
100
AcDbLine
 10
-21.652173913
 20
-45.6826086957
 30
0.0
 11
-21.652173913
 21
-48.9869565217
 31
0.0
  0
LINE
  5
1E5
330
1F
100
AcDbEntity
  8
0
  6
Continuous
 62
     7
370
    25
100
AcDbLine
 10
-16.7826086957
 20
-45.6826086957
 30
0.0
 11
-21.652173913
 21
-45.6826086957
 31
0.0
  0
LINE
  5
1E6
330
1F
100
AcDbEntity
  8
0
  6
Continuous
 62
     7
370
    25
100
AcDbLine
 10
-16.7826086957
 20
-43.7695652174
 30
0.0
 11
-16.7826086957
 21
-45.6826086957
 31
0.0
  0
LINE
  5
1E7
330
1F
100
AcDbEntity
  8
0
  6
Continuous
 62
     7
370
    25
100
AcDbLine
 10
-21.652173913
 20
-43.7695652174
 30
0.0
 11
-16.7826086957
 21
-43.7695652174
 31
0.0
  0
LINE
  5
1E8
330
1F
100
AcDbEntity
  8
0
  6
Continuous
 62
     7
370
    25
100
AcDbLine
 10
-21.652173913
 20
-40.8130434783
 30
0.0
 11
-21.652173913
 21
-43.7695652174
 31
0.0
  0
LINE
  5
1E9
330
1F
100
AcDbEntity
  8
0
  6
Continuous
 62
     7
370
    25
100
AcDbLine
 10
-16.6086956522
 20
-40.8130434783
 30
0.0
 11
-21.652173913
 21
-40.8130434783
 31
0.0
  0
LINE
  5
1EA
330
1F
100
AcDbEntity
  8
0
  6
Continuous
 62
     7
370
    25
100
AcDbLine
 10
-16.6086956522
 20
-38.9
 30
0.0
 11
-16.6086956522
 21
-40.8130434783
 31
0.0
  0
LINE
  5
1EB
330
1F
100
AcDbEntity
  8
0
  6
Continuous
 62
     7
370
    25
100
AcDbLine
 10
-23.9130434783
 20
-38.9
 30
0.0
 11
-16.6086956522
 21
-38.9
 31
0.0
  0
LINE
  5
1EC
330
1F
100
AcDbEntity
  8
0
  6
Continuous
 62
     7
370
    25
100
AcDbLine
 10
-23.9130434783
 20
-50.9
 30
0.0
 11
-23.9130434783
 21
-38.9
 31
0.0
  0
LINE
  5
1ED
330
1F
100
AcDbEntity
  8
0
  6
Continuous
 62
     7
370
    25
100
AcDbLine
 10
-16.6086956522
 20
-50.9
 30
0.0
 11
-23.9130434783
 21
-50.9
 31
0.0
  0
LINE
  5
1EE
330
1F
100
AcDbEntity
  8
0
  6
Continuous
 62
     7
370
    25
100
AcDbLine
 10
-16.6086956522
 20
-48.9869565217
 30
0.0
 11
-16.6086956522
 21
-50.9
 31
0.0
  0
LINE
  5
1EF
330
1F
100
AcDbEntity
  8
0
  6
Continuous
 62
     7
370
    25
100
AcDbLine
 10
-85.4782608696
 20
-43.7695652174
 30
0.0
 11
-85.4782608696
 21
-42.0304347826
 31
0.0
  0
LINE
  5
1F0
330
1F
100
AcDbEntity
  8
0
  6
Continuous
 62
     7
370
    25
100
AcDbLine
 10
-80.4347826087
 20
-45.1608695652
 30
0.0
 11
-80.4347826087
 21
-44.6092391304
 31
0.0
  0
LINE
  5
1F1
330
1F
100
AcDbEntity
  8
0
  6
Continuous
 62
     7
370
    25
100
AcDbLine
 10
-81.6413043478
 20
-45.1608695652
 30
0.0
 11
-80.4347826087
 21
-45.1608695652
 31
0.0
  0
LINE
  5
1F2
330
1F
100
AcDbEntity
  8
0
  6
Continuous
 62
     7
370
    25
100
AcDbLine
 10
-80.1141304348
 20
-50.9
 30
0.0
 11
-80.1684782609
 21
-49.6635869565
 31
0.0
  0
LINE
  5
1F3
330
1F
100
AcDbEntity
  8
0
  6
Continuous
 62
     7
370
    25
100
AcDbLine
 10
-78.1739130435
 20
-50.9
 30
0.0
 11
-80.1141304348
 21
-50.9
 31
0.0
  0
LINE
  5
1F4
330
1F
100
AcDbEntity
  8
0
  6
Continuous
 62
     7
370
    25
100
AcDbLine
 10
-78.1739130435
 20
-44.5059782609
 30
0.0
 11
-78.1739130435
 21
-50.9
 31
0.0
  0
LINE
  5
1F5
330
1F
100
AcDbEntity
  8
0
  6
Continuous
 62
     7
370
    25
100
AcDbLine
 10
-165.5
 20
-55.9
 30
0.0
 11
0.0
 21
-55.9
 31
0.0
  0
LINE
  5
1F6
330
1F
100
AcDbEntity
  8
0
  6
Continuous
 62
     7
370
    25
100
AcDbLine
 10
-185.5
 20
35.9
 30
0.0
 11
-185.5
 21
-35.9
 31
0.0
  0
LINE
  5
1F7
330
1F
100
AcDbEntity
  8
0
  6
Continuous
 62
     7
370
    25
100
AcDbLine
 10
0.0
 20
55.9
 30
0.0
 11
-165.5
 21
55.9
 31
0.0
  0
LINE
  5
1F8
330
1F
100
AcDbEntity
  8
0
  6
Continuous
 62
     7
370
    25
100
AcDbLine
 10
0.0
 20
-50.8685257493
 30
0.0
 11
-1.3179347826
 21
-50.8429347826
 31
0.0
  0
LINE
  5
1F9
330
1F
100
AcDbEntity
  8
0
  6
Continuous
 62
     7
370
    25
100
AcDbLine
 10
-0.9483695652
 20
-49.060326087
 30
0.0
 11
0.0
 21
-49.0959344561
 31
0.0
  0
LINE
  5
1FA
330
1F
100
AcDbEntity
  8
0
  6
Continuous
 62
     7
370
    25
100
AcDbLine
 10
0.0
 20
55.9
 30
0.0
 11
0.0
 21
-55.9
 31
0.0
  0
LINE
  5
1FB
330
1F
100
AcDbEntity
  8
0
  6
Continuous
 62
     7
370
    25
100
AcDbLine
 10
-52.9565217391
 20
-40.8130434783
 30
0.0
 11
-52.9565217391
 21
-44.1173913043
 31
0.0
  0
LINE
  5
1FC
330
1F
100
AcDbEntity
  8
0
  6
Continuous
 62
     7
370
    25
100
AcDbLine
 10
-51.9429347826
 20
-40.8130434783
 30
0.0
 11
-52.9565217391
 21
-40.8130434783
 31
0.0
  0
LINE
  5
1FD
330
1F
100
AcDbEntity
  8
0
  6
Continuous
 62
     7
370
    25
100
AcDbLine
 10
-52.9565217391
 20
-44.1173913043
 30
0.0
 11
-52.0190217391
 21
-44.1173913043
 31
0.0
  0
LINE
  5
1FE
330
1F
100
AcDbEntity
  8
0
  6
Continuous
 62
     7
370
    25
100
AcDbLine
 10
-72.7581521739
 20
27.7826086957
 30
0.0
 11
-69.4565217391
 21
27.7826086957
 31
0.0
  0
LINE
  5
1FF
330
1F
100
AcDbEntity
  8
0
  6
Continuous
 62
     7
370
    25
100
AcDbLine
 10
-78.2971014493
 20
25.8962862319
 30
0.0
 11
-78.2971014493
 21
29.3292572464
 31
0.0
  0
LINE
  5
200
330
1F
100
AcDbEntity
  8
0
  6
Continuous
 62
     7
370
    25
100
AcDbLine
 10
-94.3097826087
 20
-45.1608695652
 30
0.0
 11
-90.347826087
 21
-45.1608695652
 31
0.0
  0
LINE
  5
201
330
1F
100
AcDbEntity
  8
0
  6
Continuous
 62
     7
370
    25
100
AcDbLine
 10
-80.4347826087
 20
-46.7260869565
 30
0.0
 11
-81.7445652174
 21
-46.7260869565
 31
0.0
  0
LINE
  5
202
330
1F
100
AcDbEntity
  8
0
  6
Continuous
 62
     7
370
    25
100
AcDbLine
 10
-80.4347826087
 20
-47.997826087
 30
0.0
 11
-80.4347826087
 21
-46.7260869565
 31
0.0
  0
LINE
  5
203
330
1F
100
AcDbEntity
  8
0
  6
Continuous
 62
     7
370
    25
100
AcDbLine
 10
-43.0054347826
 20
-45.1608695652
 30
0.0
 11
-39.0434782609
 21
-45.1608695652
 31
0.0
  0
ARC
  5
204
330
1F
100
AcDbEntity
  8
0
  6
Continuous
 62
     7
370
    25
100
AcDbCircle
 10
-165.5
 20
-35.9
 30
0.0
 40
20.00000000000003
100
AcDbArc
 50
180.0
 51
270.0
  0
ARC
  5
205
330
1F
100
AcDbEntity
  8
0
  6
Continuous
 62
     7
370
    25
100
AcDbCircle
 10
-165.5
 20
35.9
 30
0.0
 40
19.99999999999997
100
AcDbArc
 50
90.0
 51
180.0
  0
ENDSEC
  0
SECTION
  2
OBJECTS
  0
DICTIONARY
  5
C
330
0
100
AcDbDictionary
281
     1
  3
ACAD_GROUP
350
D
  3
ACAD_LAYOUT
350
1A
  3
ACAD_MLINESTYLE
350
17
  3
ACAD_PLOTSETTINGS
350
19
  3
ACAD_PLOTSTYLENAME
350
E
  3
ACAD_SCALELIST
350
47
  0
DICTIONARY
  5
D
102
{ACAD_REACTORS
330
C
102
}
330
C
100
AcDbDictionary
281
     1
  0
DICTIONARY
  5
1A
102
{ACAD_REACTORS
330
C
102
}
330
C
100
AcDbDictionary
281
     1
  3
Layout1
350
1E
  3
Layout2
350
26
  3
Model
350
22
  0
DICTIONARY
  5
17
102
{ACAD_REACTORS
330
C
102
}
330
C
100
AcDbDictionary
281
     1
  3
Standard
350
18
  0
DICTIONARY
  5
19
102
{ACAD_REACTORS
330
C
102
}
330
C
100
AcDbDictionary
281
     1
  0
ACDBDICTIONARYWDFLT
  5
E
102
{ACAD_REACTORS
330
C
102
}
330
C
100
AcDbDictionary
281
     1
  3
Normal
350
F
100
AcDbDictionaryWithDefault
340
F
  0
DICTIONARY
  5
47
102
{ACAD_REACTORS
330
C
102
}
330
C
100
AcDbDictionary
281
     1
  3
A0
350
48
  3
A1
350
49
  3
A2
350
4A
  3
A3
350
4B
  3
A4
350
4C
  3
A5
350
4D
  3
A6
350
4E
  3
A7
350
4F
  3
A8
350
50
  3
A9
350
51
  3
B0
350
52
  3
B1
350
53
  3
B2
350
54
  3
B3
350
55
  3
B4
350
56
  3
B5
350
57
  3
B6
350
58
  3
B7
350
59
  3
B8
350
5A
  3
B9
350
5B
  3
C0
350
5C
  3
C1
350
5D
  3
C2
350
5E
  3
C3
350
5F
  3
C4
350
60
  3
C5
350
61
  3
C6
350
62
  3
C7
350
63
  3
C8
350
64
  3
C9
350
65
  3
D0
350
66
  3
D1
350
67
  3
D2
350
68
  0
LAYOUT
  5
1E
102
{ACAD_REACTORS
330
1A
102
}
330
1A
100
AcDbPlotSettings
  1

  2
none_device
  4

  6

 40
0.0
 41
0.0
 42
0.0
 43
0.0
 44
0.0
 45
0.0
 46
0.0
 47
0.0
 48
0.0
 49
0.0
140
0.0
141
0.0
142
1.0
143
1.0
 70
   688
 72
     1
 73
     0
 74
     5
  7

 75
    16
147
1.0
148
0.0
149
0.0
100
AcDbLayout
  1
Layout1
 70
     1
 71
     1
 10
0.0
 20
0.0
 11
420.0
 21
297.0
 12
0.0
 22
0.0
 32
0.0
 14
1.0000000000E+20
 24
1.0000000000E+20
 34
1.0000000000E+20
 15
-1.0000000000E+20
 25
-1.0000000000E+20
 35
-1.0000000000E+20
146
0.0
 13
0.0
 23
0.0
 33
0.0
 16
1.0
 26
0.0
 36
0.0
 17
0.0
 27
1.0
 37
0.0
 76
     0
330
1B
  0
LAYOUT
  5
26
102
{ACAD_REACTORS
330
1A
102
}
330
1A
100
AcDbPlotSettings
  1

  2
none_device
  4

  6

 40
0.0
 41
0.0
 42
0.0
 43
0.0
 44
0.0
 45
0.0
 46
0.0
 47
0.0
 48
0.0
 49
0.0
140
0.0
141
0.0
142
1.0
143
1.0
 70
   688
 72
     1
 73
     0
 74
     5
  7

 75
    16
147
1.0
148
0.0
149
0.0
100
AcDbLayout
  1
Layout2
 70
     1
 71
     2
 10
0.0
 20
0.0
 11
0.0
 21
0.0
 12
0.0
 22
0.0
 32
0.0
 14
0.0
 24
0.0
 34
0.0
 15
0.0
 25
0.0
 35
0.0
146
0.0
 13
0.0
 23
0.0
 33
0.0
 16
1.0
 26
0.0
 36
0.0
 17
0.0
 27
1.0
 37
0.0
 76
     0
330
23
  0
LAYOUT
  5
22
102
{ACAD_REACTORS
330
1A
102
}
330
1A
100
AcDbPlotSettings
  1

  2
none_device
  4
ANSI_A_(11.00_x_8.50_Inches)
  6

 40
6.35
 41
19.05
 42
6.35000508
 43
19.05000254
 44
279.4
 45
215.9
 46
271.6529974554
 47
88.89999873
 48
0.0
 49
0.0
140
0.0
141
0.0
142
0.0587061995
143
1.0
 70
  1696
 72
     0
 73
     0
 74
     0
  7

 75
     0
147
0.0179189148
148
-1300.4909072572
149
0.0
100
AcDbLayout
  1
Model
 70
     1
 71
     0
 10
0.0
 20
0.0
 11
420.0
 21
297.0
 12
0.0
 22
0.0
 32
0.0
 14
-185.5
 24
-55.9
 34
0.0
 15
0.0000000031
 25
55.9
 35
0.0
146
0.0
 13
0.0
 23
0.0
 33
0.0
 16
1.0
 26
0.0
 36
0.0
 17
0.0
 27
1.0
 37
0.0
 76
     0
330
1F
331
29
  0
MLINESTYLE
  5
18
102
{ACAD_REACTORS
330
17
102
}
330
17
100
AcDbMlineStyle
  2
Standard
 70
     0
  3

 62
   256
 51
90.0
 52
90.0
 71
     2
 49
0.5
 62
   256
  6
BYLAYER
 49
-0.5
 62
   256
  6
BYLAYER
  0
ACDBPLACEHOLDER
  5
F
102
{ACAD_REACTORS
330
E
102
}
330
E
  0
SCALE
  5
48
102
{ACAD_REACTORS
330
47
102
}
330
47
100
AcDbScale
 70
     0
300
1:1
140
1.0
141
1.0
290
     1
  0
SCALE
  5
49
102
{ACAD_REACTORS
330
47
102
}
330
47
100
AcDbScale
 70
     0
300
1:2
140
1.0
141
2.0
290
     0
  0
SCALE
  5
4A
102
{ACAD_REACTORS
330
47
102
}
330
47
100
AcDbScale
 70
     0
300
1:4
140
1.0
141
4.0
290
     0
  0
SCALE
  5
4B
102
{ACAD_REACTORS
330
47
102
}
330
47
100
AcDbScale
 70
     0
300
1:5
140
1.0
141
5.0
290
     0
  0
SCALE
  5
4C
102
{ACAD_REACTORS
330
47
102
}
330
47
100
AcDbScale
 70
     0
300
1:8
140
1.0
141
8.0
290
     0
  0
SCALE
  5
4D
102
{ACAD_REACTORS
330
47
102
}
330
47
100
AcDbScale
 70
     0
300
1:10
140
1.0
141
10.0
290
     0
  0
SCALE
  5
4E
102
{ACAD_REACTORS
330
47
102
}
330
47
100
AcDbScale
 70
     0
300
1:16
140
1.0
141
16.0
290
     0
  0
SCALE
  5
4F
102
{ACAD_REACTORS
330
47
102
}
330
47
100
AcDbScale
 70
     0
300
1:20
140
1.0
141
20.0
290
     0
  0
SCALE
  5
50
102
{ACAD_REACTORS
330
47
102
}
330
47
100
AcDbScale
 70
     0
300
1:30
140
1.0
141
30.0
290
     0
  0
SCALE
  5
51
102
{ACAD_REACTORS
330
47
102
}
330
47
100
AcDbScale
 70
     0
300
1:40
140
1.0
141
40.0
290
     0
  0
SCALE
  5
52
102
{ACAD_REACTORS
330
47
102
}
330
47
100
AcDbScale
 70
     0
300
1:50
140
1.0
141
50.0
290
     0
  0
SCALE
  5
53
102
{ACAD_REACTORS
330
47
102
}
330
47
100
AcDbScale
 70
     0
300
1:100
140
1.0
141
100.0
290
     0
  0
SCALE
  5
54
102
{ACAD_REACTORS
330
47
102
}
330
47
100
AcDbScale
 70
     0
300
2:1
140
2.0
141
1.0
290
     0
  0
SCALE
  5
55
102
{ACAD_REACTORS
330
47
102
}
330
47
100
AcDbScale
 70
     0
300
4:1
140
4.0
141
1.0
290
     0
  0
SCALE
  5
56
102
{ACAD_REACTORS
330
47
102
}
330
47
100
AcDbScale
 70
     0
300
8:1
140
8.0
141
1.0
290
     0
  0
SCALE
  5
57
102
{ACAD_REACTORS
330
47
102
}
330
47
100
AcDbScale
 70
     0
300
10:1
140
10.0
141
1.0
290
     0
  0
SCALE
  5
58
102
{ACAD_REACTORS
330
47
102
}
330
47
100
AcDbScale
 70
     0
300
100:1
140
100.0
141
1.0
290
     0
  0
SCALE
  5
59
102
{ACAD_REACTORS
330
47
102
}
330
47
100
AcDbScale
 70
     0
300
1/128" = 1'-0"
140
0.0078125
141
12.0
290
     0
  0
SCALE
  5
5A
102
{ACAD_REACTORS
330
47
102
}
330
47
100
AcDbScale
 70
     0
300
1/64" = 1'-0"
140
0.015625
141
12.0
290
     0
  0
SCALE
  5
5B
102
{ACAD_REACTORS
330
47
102
}
330
47
100
AcDbScale
 70
     0
300
1/32" = 1'-0"
140
0.03125
141
12.0
290
     0
  0
SCALE
  5
5C
102
{ACAD_REACTORS
330
47
102
}
330
47
100
AcDbScale
 70
     0
300
1/16" = 1'-0"
140
0.0625
141
12.0
290
     0
  0
SCALE
  5
5D
102
{ACAD_REACTORS
330
47
102
}
330
47
100
AcDbScale
 70
     0
300
3/32" = 1'-0"
140
0.09375
141
12.0
290
     0
  0
SCALE
  5
5E
102
{ACAD_REACTORS
330
47
102
}
330
47
100
AcDbScale
 70
     0
300
1/8" = 1'-0"
140
0.125
141
12.0
290
     0
  0
SCALE
  5
5F
102
{ACAD_REACTORS
330
47
102
}
330
47
100
AcDbScale
 70
     0
300
3/16" = 1'-0"
140
0.1875
141
12.0
290
     0
  0
SCALE
  5
60
102
{ACAD_REACTORS
330
47
102
}
330
47
100
AcDbScale
 70
     0
300
1/4" = 1'-0"
140
0.25
141
12.0
290
     0
  0
SCALE
  5
61
102
{ACAD_REACTORS
330
47
102
}
330
47
100
AcDbScale
 70
     0
300
3/8" = 1'-0"
140
0.375
141
12.0
290
     0
  0
SCALE
  5
62
102
{ACAD_REACTORS
330
47
102
}
330
47
100
AcDbScale
 70
     0
300
1/2" = 1'-0"
140
0.5
141
12.0
290
     0
  0
SCALE
  5
63
102
{ACAD_REACTORS
330
47
102
}
330
47
100
AcDbScale
 70
     0
300
3/4" = 1'-0"
140
0.75
141
12.0
290
     0
  0
SCALE
  5
64
102
{ACAD_REACTORS
330
47
102
}
330
47
100
AcDbScale
 70
     0
300
1" = 1'-0"
140
1.0
141
12.0
290
     0
  0
SCALE
  5
65
102
{ACAD_REACTORS
330
47
102
}
330
47
100
AcDbScale
 70
     0
300
1-1/2" = 1'-0"
140
1.5
141
12.0
290
     0
  0
SCALE
  5
66
102
{ACAD_REACTORS
330
47
102
}
330
47
100
AcDbScale
 70
     0
300
3" = 1'-0"
140
3.0
141
12.0
290
     0
  0
SCALE
  5
67
102
{ACAD_REACTORS
330
47
102
}
330
47
100
AcDbScale
 70
     0
300
6" = 1'-0"
140
6.0
141
12.0
290
     0
  0
SCALE
  5
68
102
{ACAD_REACTORS
330
47
102
}
330
47
100
AcDbScale
 70
     0
300
1'-0" = 1'-0"
140
12.0
141
12.0
290
     0
  0
ENDSEC
  0
EOF
